<?xml version="1.0" encoding="utf-8"?>
<!-- Generator: Adobe Illustrator 27.1.1, SVG Export Plug-In . SVG Version: 6.00 Build 0)  -->
<svg version="1.1" id="Layer_2_00000149360121871537483710000004647418743776061362_"
	 xmlns="http://www.w3.org/2000/svg" xmlns:xlink="http://www.w3.org/1999/xlink" x="0px" y="0px" viewBox="0 0 146.9 224.6"
	 style="enable-background:new 0 0 146.9 224.6;" xml:space="preserve">
<style type="text/css">
	.st0{fill:#948063;}
	.st1{fill:#796245;}
	.st2{fill:#81684B;}
	.st3{fill:none;stroke:#4E381A;stroke-width:1.1102;stroke-miterlimit:10;}
	.st4{fill:none;stroke:#4E381A;stroke-width:1.1102;stroke-miterlimit:10;stroke-dasharray:0,2.2205;}
	.st5{fill:#CA9B71;}
	.st6{fill:#EAC4A0;}
	.st7{fill:#E0AE84;}
	.st8{fill:none;stroke:#4E381A;stroke-width:1.0307;stroke-miterlimit:10;}
	.st9{fill:#BAA2B9;}
	.st10{fill:#9E8098;}
	.st11{fill:#AD89AC;}
	.st12{fill:#EAC4A0;stroke:#4E381A;stroke-width:1.0307;stroke-miterlimit:10;}
	.st13{fill:#5F4F4B;}
	.st14{fill:#7E594E;}
	.st15{fill:none;stroke:#4E381A;stroke-width:1.0307;stroke-linecap:round;stroke-linejoin:round;}
	.st16{fill:#00AEEF;stroke:#4E381A;stroke-width:1.0307;stroke-miterlimit:10;}
</style>
<g>
	<polyline class="st0" points="48.5,156 46,220.4 42.7,220.5 44.6,156 	"/>
	<polyline class="st0" points="104.5,156.2 106.3,219.7 103.9,219.7 100.1,156.2 	"/>
	<polyline class="st1" points="87.5,156.1 99.2,219.7 93.6,219.9 81,170.8 74.9,170.8 61.6,220.2 55,220.3 66.1,156.1 	"/>
	<polygon class="st1" points="93.6,219.9 91.6,220 88.1,220 76.1,175.6 64.7,220.2 61.6,220.2 74.9,170.8 81,170.8 	"/>
	<polyline class="st2" points="68,156.1 56.7,220.3 44.6,220.5 47.7,156 	"/>
	<polyline class="st2" points="101.9,156.2 104.8,219.7 98.3,219.8 86.2,156.1 	"/>
	<polyline class="st3" points="44.6,156.3 42.7,220.7 64.6,220.4 76,175.9 88,220.2 106.2,219.9 104.4,156.4 	"/>
	<polyline class="st3" points="61.5,220.5 74.9,171 80.9,171 93.5,220.2 	"/>
	<line class="st4" x1="91.5" y1="220.2" x2="79.8" y2="174"/>
</g>
<g>
	<g>
		<path class="st5" d="M121.4,185.1c0,6.3-0.8,11.7-1.6,15.9c-0.2,0.1-0.4,0.2-0.6,0.3c-0.9,0.3-2.3-0.4-2.9-0.8
			c-0.2,0.2-0.5,0.4-0.7,0.5s-2,1-3,0.2c-0.5-0.4-1.3-1.4-0.8-1.6c0.3-0.2,1.4,0,2.2-0.6c1.5-1,0.9-4.1,0.9-4.3
			c-0.3-1.4-0.8-1.4-1.1-2.9c-0.4-1.7-0.1-3.2,0.2-4.5c0.5-2.1,1.5-3.7,2.1-4.6c-1.5-8.5-2.7-17.6-3.5-27.5c0-0.6-0.1-1.1-0.1-1.7
			c2.1,0,4.3-0.1,6.4-0.1c0.2,3.3,0.4,5.9,0.6,7.9C120.3,176.6,121.4,177.3,121.4,185.1L121.4,185.1z"/>
		<path class="st6" d="M127.4,197.2c-0.1,0.6-0.1,2-0.8,2.7c-1.8-11.2-2.9-20-3.1-24.6c-0.2-3.7-0.2-7.1-0.2-7.1
			c0-3.6,0.1-6.3,0.2-7.5c0.2-3.3,0.2-4.6,0.2-7.1c0.4,0,0.9,0,1.4,0c-0.1,2.7-0.2,5-0.2,7.2c-0.2,8.7,0.5,19.9,1.8,29.9
			C127,193.6,127.5,196.2,127.4,197.2z"/>
		<path class="st7" d="M126.5,199.4c0,0-1.9,0.5-2,0.5c-0.7,0.5-0.4,0.5-0.8,0.5l0,0c-0.2,0.3-0.5,0.5-0.9,0.6
			c-0.9,0.3-2-0.2-2.5-0.5c-0.1,0.2-0.3,0.4-0.5,0.5c0.8-4.2,1.6-9.6,1.6-15.9c0.1-7.9-1-8.6-2.3-23.7c-0.2-1.9-0.4-4.7-0.6-7.9
			c1.8,0,3.4,0,5.2-0.1c-0.1,2.5-0.1,3.9-0.2,7.1c-0.1,1.2-0.2,3.9-0.2,7.5c0,0,0.1,3.2,0.6,6.8C124.4,179.7,126,188.6,126.5,199.4z
			"/>
		<path class="st8" d="M111.4,133.5c0,7.3,0.5,13.3,1.1,21.6c0.8,9.9,2.1,19.1,3.5,27.5c-0.6,0.9-1.6,2.4-2.1,4.6
			c-0.3,1.2-0.6,2.8-0.2,4.5c0.4,1.5,0.9,1.4,1.1,2.9c0,0.1,0.6,3.3-0.9,4.3c-0.8,0.6-1.9,0.4-2.2,0.6c-0.4,0.2,0.3,1.2,0.8,1.6
			c1.1,0.8,2.8-0.1,3-0.2c1.8-0.9,2-2.7,2.2-3.4c0.4-1.7,0.1-3.3-0.1-3.8"/>
		<path class="st8" d="M126.4,133.7c-0.8,12-1.1,20.2-1.3,26.7c-0.2,8.7,0.5,19.9,1.8,29.9c0.4,3.2,0.9,5.8,0.7,6.7
			c-0.1,0.6-0.3,2.1-1.1,2.7c-0.8,0.5-2.3,0.6-2.7,0.5"/>
		<path class="st8" d="M124.5,192.9c0.3,1.4,0.4,3.5,0.3,4.6c-0.1,1-0.3,2.8-1.8,3.3c-1,0.3-2.3-0.4-2.6-0.6"/>
		<path class="st8" d="M121.5,193.5c0.4,1.2,0.2,3.5,0,4.6c-0.2,1-0.6,2.7-2.1,3.1c-1,0.3-2.7-0.7-3-0.9"/>
		<path class="st5" d="M119.3,153.8c-2.1,0-4.2,0.2-6.4,0.2c-0.2-2.8-0.4-5.3-0.6-7.6c-0.3-4-0.4-7.7-0.4-11.9
			c1.7,0.3,3.4,0.4,5.4,0.6c0.3,0,0.8,0,1.3,0.1c0,0.8,0,1.6,0,2.7C118.8,143.8,119.1,149.3,119.3,153.8z"/>
		<path class="st7" d="M124.3,135.1c-0.1,2.7-0.2,5.8-0.3,8.6c-0.2,5.5-0.3,8.4-0.3,10.5c-1.8,0-3.4,0-5.2,0.1
			c-0.3-4.5-0.6-10-0.7-16.1c0-0.9-0.1-2.2-0.1-3C120.1,135.2,122.3,135.2,124.3,135.1z"/>
		<path class="st6" d="M125.9,135.1c-0.3,4.3-0.5,8.1-0.7,11.4c-0.1,2.7-0.2,5.4-0.3,7.6c-0.5,0-0.7,0.3-1.3,0.3c0-2,0-5.5,0.2-11
			c0.1-2.8,0.2-5.6,0.3-8.3C124.7,135.1,125.2,135.1,125.9,135.1z"/>
	</g>
	<g id="Layer_1-2_00000130632970772739207140000001259600762091052936_">
		<g>
			<g>
				<g>
					<path class="st9" d="M77.6,110.3c-6.5,1.8-10.1,23.8-0.8,29.6c3.1,1.9,7.9,2.1,10.9,0c6.6-4.7,4.4-20.7-4.2-27.2
						C82.1,111.5,79.8,109.7,77.6,110.3z"/>
					<path class="st10" d="M78.5,91.5c-0.5,2.5-2.7,3.7-5.4,6.4c-2.2,2.2-2.6-0.1-3.9,6c0.3-0.9-2.8,4.4-2.1,3.9
						c-1.7,3.4-3.4,7.9-4.6,13.2c-0.5,2.4-0.9,4.9-1.3,7l0,0c-0.3,3.1-0.4,5.8-0.4,8.2c1.6,0.4,3.2,0.7,5.1,1c0,4.2,0.2,8,0.4,11.9
						H41.2c0.2-11.8,0.4-23.7,0.6-35.6c-0.6-10.6,2.8-20.8,9.3-28.8c5-1.3,10-4.4,14.9-4.5c0.9,0,4.1,0.2,5.9,1.1
						C75.1,83.3,79.2,88.2,78.5,91.5L78.5,91.5z"/>
					<path class="st10" d="M67.1,156.8c-8.6,0.1-17.3,0.2-26,0.4c0.1-2.7,0.1-5.3,0.1-8h25.3C66.7,151.6,66.9,154.1,67.1,156.8
						L67.1,156.8z"/>
					<path class="st11" d="M117.1,87.9c-0.2-0.1-0.5-0.2-0.8-0.3l0,0c-1.3-1.3-3.5-3.4-6.9-4.8c-1-0.4-9.9-4.1-16.1,0.6
						c-0.7,0.6-4.2,3.1-4.6,7.3c-0.5,5.4,4,9,4.4,9.3c1,0.8,2.1,1.6,3,2.4c1.8,1.4,3.5,2.9,5.2,4.3c1.8,11.7,3.5,23.5,5.3,35.2v7.3
						H80.3c0.2-3.4,0.4-7.1,0.7-11.4l0,0c0-0.2,0-0.4,0-0.5l0,0c0-2.2-0.1-4.4-0.1-6.6c-0.1-5.9-0.2-11.8-0.4-17.8
						c-0.2,3.2-0.5,9.9-0.9,17.9c-2.1,0.1-6.1-0.6-8.8-0.8c0-0.8,0.1-0.9,0-1.9c-0.5-3.8-0.9-7.1-0.3-10.3c0.4-1.7-0.3-2.8,0-4.5
						c0.2-0.9,0.1-1.8,0-2.4c-0.3-1.4,0.4-2.4-1.7-2.3c-0.6,0-1,0.2-1.6,0.6c-0.7,0.5-1.7,0.1-2,1c1.3-6.1,3.8-9.7,5.9-12
						c2.7-2.8,4.8-3.4,5.3-6c0.6-3.3-1.8-7.2-4.9-8.9c-2-1-3.8-1-4.7-1c-5,0.1-11,1.5-16,2.8c2.8-3.5,6.3-6.5,10.1-9
						c14.3-8.9,32.5-8.1,44.2-0.4C111.7,79.7,115.9,85.8,117.1,87.9L117.1,87.9z"/>
					<path class="st11" d="M79.6,130.7c-0.1,2.3-0.1,5-0.2,7.4c-2,0.1-4.4-0.1-6.8-0.2c0-3.9,0-5.5-0.1-7.3
						C75.1,130.9,77.5,130.8,79.6,130.7z"/>
					<path class="st11" d="M106.6,149.3v6.9L80,156.6c0.1-2.2,0.2-4.7,0.3-7.3H106.6z"/>
					<path class="st11" d="M116.3,87.6c-1.7-0.4-4.6-0.5-6.3-1.5c-3.6-2.1-8.6-2.4-12.4-0.2c-1.1,0.7-3.6,2.1-4.2,4.6
						c-0.4,2.2,1.4,2.9,2.2,7.7c0.3,1.8,0.7,2.9,0.5,4.2c-1-0.8-2-1.6-3-2.4c-0.4-0.3-4.9-3.9-4.4-9.3c0.4-4.3,3.8-6.7,4.6-7.3
						c6.4-4.7,15.1-1,16.1-0.6C112.6,84.2,114.9,86.3,116.3,87.6L116.3,87.6z"/>
					<path class="st5" d="M76.4,188.3c0,6.3-0.8,11.7-1.6,15.9c-0.2,0.1-0.4,0.2-0.6,0.3c-0.9,0.3-2.3-0.4-2.9-0.8
						c-0.2,0.2-0.5,0.4-0.7,0.5c-0.2,0.1-2,1-3,0.2c-0.5-0.4-1.3-1.4-0.8-1.6c0.3-0.2,1.4,0,2.2-0.6c1.5-1,0.9-4.1,0.9-4.3
						c-0.3-1.4-0.8-1.4-1.1-2.9c-0.4-1.7-0.1-3.2,0.2-4.5c0.5-2.1,1.5-3.7,2.1-4.6c-1.5-8.5-2.7-17.6-3.5-27.5
						c0-0.6-0.1-1.1-0.1-1.7c2.1,0,4.3-0.1,6.4-0.1c0.2,3.3,0.4,5.9,0.6,7.9C75.3,179.8,76.4,180.5,76.4,188.3L76.4,188.3z"/>
					<path class="st6" d="M82.4,200.4c-0.1,0.6-0.1,2-0.8,2.7c-1.8-11.2-2.9-20-3.1-24.6c-0.2-3.7-0.2-7.1-0.2-7.1
						c0-3.6,0.1-6.3,0.2-7.5c0.2-3.3,0.2-4.6,0.2-7.1c0.4,0,0.9,0,1.4,0c-0.1,2.7-0.2,5-0.2,7.2c-0.2,8.7,0.5,19.9,1.8,29.9
						C82,196.8,82.5,199.5,82.4,200.4z"/>
					<path class="st7" d="M81.5,202.6c0,0-1.9,0.5-2,0.5c-0.7,0.5-0.4,0.5-0.8,0.5l0,0c-0.2,0.3-0.5,0.5-0.9,0.6
						c-0.9,0.3-2-0.2-2.5-0.5c-0.1,0.2-0.3,0.4-0.5,0.5c0.8-4.2,1.6-9.6,1.6-15.9c0.1-7.9-1-8.6-2.3-23.7c-0.2-1.9-0.4-4.7-0.6-7.9
						c1.8,0,3.4,0,5.2-0.1c-0.1,2.5-0.1,3.9-0.2,7.1c-0.1,1.2-0.2,3.9-0.2,7.5c0,0,0.1,3.2,0.6,6.8C79.4,182.9,81,191.8,81.5,202.6z
						"/>
					<path class="st10" d="M72.3,128.1c0.1,1,0.2,1.8,0.2,2.5c-0.6,0-1.3-0.1-2-0.2c-3.6-0.5-6.8-1.4-9.3-2.3c0.2-2.2,0.6-4.6,1.3-7
						c1.3-5.3,3-9.8,4.6-13.2c0.5-0.3,1.1-0.5,1.7-0.6c2.1-0.1,3.5,1.9,3.9,3.4c0.1,0.6,0,1-0.2,2c-0.3,1.7-0.5,3.5-0.8,5.2
						C71,121,71.8,124.3,72.3,128.1L72.3,128.1z"/>
					<path class="st10" d="M72.6,138c-0.3,0-0.7,0-1-0.1c-2-0.1-3.9-0.3-5.5-0.6c-1.9-0.3-3.5-0.7-5.1-1c0-2.3,0-5.1,0.4-8.2l0,0
						c2.5,0.9,5.6,1.8,9.3,2.3c0.6,0.1,1.4,0.2,2,0.2C72.7,132.6,72.6,134.2,72.6,138z"/>
					<path class="st8" d="M117.9,88.6c0.2-0.2-4.4-8.1-12.1-13.2c-11.7-7.6-30-8.5-44.2,0.4c-12.8,8-20.2,22.4-19.4,37.6
						c-0.3,14.5-0.5,29-0.8,43.4c21.9-0.3,43.7-0.6,65.5-0.9v-14.3c-1.8-11.7-3.5-23.5-5.3-35.2c-2.8-2.2-5.5-4.5-8.3-6.7
						c-0.4-0.3-4.9-3.9-4.4-9.3c0.4-4.3,3.8-6.7,4.6-7.3c6.4-4.7,15.1-1,16.1-0.6C114.9,84.8,117.6,88.8,117.9,88.6z"/>
					<path class="st8" d="M117.8,88c-0.6-1-5.1-0.7-7.4-2c-3.6-2.1-8.6-2.4-12.4-0.2c-1.1,0.7-3.6,2.1-4.2,4.6
						c-0.4,2.2,1.4,2.9,2.2,7.7c0.3,1.9,0.7,3,0.4,4.4"/>
					<line class="st8" x1="41.1" y1="149.1" x2="107.3" y2="149.1"/>
					<path class="st8" d="M67.7,107.3c-1.7,3.5-3.5,8.1-4.9,13.7c-1.4,5.9-1.7,11.2-1.6,15.2c2.9,0.7,6.6,1.4,10.6,1.6
						c3.5,0.2,6.8,0.1,9.5-0.1c-0.2-8.4-0.3-16.6-0.5-25"/>
					<path class="st8" d="M61.7,128L61.7,128c2.5,0.9,5.6,1.8,9.3,2.3c4,0.5,7.4,0.5,10.3,0.2"/>
					<path class="st8" d="M66.4,136.7c0,7.3,0.5,13.3,1.1,21.6c0.8,9.9,2.1,19.1,3.5,27.5c-0.6,0.9-1.6,2.4-2.1,4.6
						c-0.3,1.2-0.6,2.8-0.2,4.5c0.4,1.5,0.9,1.4,1.1,2.9c0,0.1,0.6,3.3-0.9,4.3c-0.8,0.6-1.9,0.4-2.2,0.6c-0.4,0.2,0.3,1.2,0.8,1.6
						c1.1,0.8,2.8-0.1,3-0.2c1.8-0.9,2-2.7,2.2-3.4c0.4-1.7,0.1-3.3-0.1-3.8"/>
					<path class="st8" d="M81.4,137c-0.8,12-1.1,20.2-1.3,26.7c-0.2,8.7,0.5,19.9,1.8,29.9c0.4,3.2,0.9,5.8,0.7,6.7
						c-0.1,0.6-0.3,2.1-1.1,2.7c-0.8,0.5-2.3,0.6-2.7,0.5"/>
					<path class="st8" d="M79.5,196.1c0.3,1.4,0.4,3.5,0.3,4.6c-0.1,1-0.3,2.8-1.8,3.3c-1,0.3-2.3-0.4-2.6-0.6"/>
					<path class="st8" d="M76.5,196.7c0.4,1.2,0.2,3.5,0,4.6c-0.2,1-0.6,2.7-2.1,3.1c-1,0.3-2.7-0.7-3-0.9"/>
					<path class="st5" d="M74.3,157c-2.1,0-4.2,0.2-6.4,0.2c-0.2-2.8-0.4-5.3-0.6-7.6c-0.3-4-0.4-7.7-0.4-11.9
						c1.7,0.3,3.4,0.4,5.4,0.6c0.3,0,0.8,0,1.3,0.1c0,0.8,0,1.6,0,2.7C73.8,147,74.1,152.6,74.3,157z"/>
					<path class="st7" d="M79.3,138.3c-0.1,2.7-0.2,5.8-0.3,8.6c-0.2,5.5-0.3,8.4-0.3,10.5c-1.8,0-3.4,0-5.2,0.1
						c-0.3-4.5-0.6-10-0.7-16.1c0-0.9-0.1-2.2-0.1-3C75.1,138.4,77.3,138.4,79.3,138.3z"/>
					<path class="st6" d="M80.9,138.3c-0.3,4.3-0.5,8.1-0.7,11.4c-0.1,2.7-0.2,5.4-0.3,7.6c-0.5,0-0.7,0.3-1.3,0.3c0-2,0-5.5,0.2-11
						c0.1-2.8,0.2-5.6,0.3-8.3C79.7,138.3,80.2,138.3,80.9,138.3z"/>
				</g>
				<g>
					<path class="st12" d="M94.3,94c-0.1-0.4-1.8-5.1,1.1-8.7c3.1-3.8,8.5-3,9.8-2.8c5.8,0.9,8.9,5.8,9.3,6.5"/>
					<g>
						<path class="st13" d="M139.8,130.2c-0.4,2.5-1.4,4.3-2.3,4.8c0-0.7-0.2-1.8-0.8-3.1c-0.4-0.8-0.9-1.4-1.4-1.8
							c-0.4,1.3-0.6,3-1,4.3c-0.4,2.8-0.3,4-0.3,4s-1-1.1-1.7-2.4c-0.8-1.5-1.4-3-1.7-3.9c-0.1,1.6-0.4,4.3-2.1,7.2
							c-1,1.7-2.2,3.1-3.1,4c0.1-0.8,0.2-2.2-0.2-3.9c-0.3-1.1-0.8-2-1.3-2.7c-0.2,1.3-0.7,3.3-1.9,5.4c-1,1.8-2.2,3.3-3.1,4.1
							c0-0.7-0.1-1.6-0.6-2.8c-0.6-1.5-1.6-2.5-2.1-3.1c-0.3,1.1-0.9,2.7-2.2,4.3c-1.4,1.9-3,3.1-4,3.7c0.1-1.2,0.3-3.5-0.6-6
							c-0.6-1.8-1.5-3.2-2.2-4c-0.6,0.5-1.4,1.2-2.1,2.1c-0.9,1.3-1.4,2.5-1.5,3.4c-0.8-0.6-2.1-1.7-3.1-3.5c-1.7-3-1.6-5.7-1.5-6.9
							c-0.9,0.3-2.3,0.8-3.6,1.9c-1.8,1.4-2.6,3-3.1,3.9c0-0.2-0.1-0.5-0.1-0.7c-0.8-4.4-0.9-8.4-0.9-12.7c-3.1-2-4.2-8.3-4.2-11.2
							c0-3.6,0-10,3.2-15.8c3.3-3.6,8-8.5,12.5-8.8c1.9-0.2,4.7,1,4.9,1.1c1.5,1.2,3.1,2.9,2.1,11.1c-0.9,7.2-2.3,8.7-0.9,11.2
							c1.5,2.7,3.8,3.3,4.4,3.5c0.4,0.2,3.8,1.8,6.5-0.9c1.7-1.7,1.9-5,1.8-5.6c0.6,0.3,3.1,2.5,4,3.9c1.5,2.3,0.6,4.3,0.5,4.8
							c0.5,0,0.7-0.3,1.7-0.8c1.4-0.8,1.6-3.5,1.4-5.2c0.6,1,2.8,3.8,3.3,5.4c0.4,1.3-0.3,1.9-0.2,2.9c0.4-0.4,0.6-0.8,1-2.5
							c0.2-0.9,0.6-2.9,0.5-3.4c1,1.5,3.3,3.9,4.3,6c0.9,2,0.8,5.5,1.3,7.3C139.7,129.4,139.8,129.8,139.8,130.2L139.8,130.2z"/>
						<path class="st14" d="M140.5,123.4c-0.2,2-0.5,4-0.9,5.6c-0.4-1.8-1.1-3.9-2.1-5.9c-0.9-2.1-2-3.9-3-5.4
							c0.1,0.5,0.1,1.3-0.1,2.2c-0.4,1.7-1.6,2.9-2.1,3.2c-0.1-1-0.3-2.1-0.7-3.5c-0.5-1.7-1.1-3.1-1.8-4.2c0.1,1.8-0.6,3.5-2,4.4
							c-0.8,0.5-1.8,0.6-2.3,0.6c0.1-0.5,0.8-3-0.6-5.3c-0.8-1.3-1.9-2-2.5-2.3c0.1,0.6,0.3,3.1-1.4,4.8c-2.6,2.8-7.4,1-7.9,0.9
							c-0.6-0.2-3.2-1.3-4.7-4c-1.4-2.5-0.6-4.4,0.3-11.7c1-8.3-0.3-9.9-1.8-11.1c-0.2-0.2-2.4-0.8-4.3-0.7c-4.4,0.4-8.9,4.4-12.2,8
							c1-1.8,2.4-3.7,4.3-5.3c3.5-3.2,7.2-4.4,9.6-5.1c0.8-0.2,18.2-5.5,28.4,4.6c4,3.9,5.2,8.6,6.5,13.3
							C141.4,113.5,140.9,119.6,140.5,123.4L140.5,123.4z"/>
						<path class="st8" d="M138.9,132.7c0.8-2.5,0.6-4.5,1-8.9c0.4-3.7,0.9-9.9-0.9-17c-1.3-4.7-2.5-9.4-6.6-13.3
							c-10.2-10-27.6-4.8-28.4-4.6c-2.4,0.7-6,1.9-9.6,5.1c-7.5,6.8-7.5,16.3-7.5,21.1c0,3.1,1.3,9.7,4.7,11.4"/>
						<path class="st15" d="M91.5,117.7c-0.3,8.3-0.7,14.3,0.6,21.4c0,0.2,0.1,0.5,0.1,0.7c0.4-0.9,1.4-2.4,3.1-3.9
							c1.4-1.1,2.7-1.6,3.6-1.9c-0.1,1.1-0.2,4,1.5,6.9c0.9,1.7,2.2,2.9,3.1,3.5c0.2-0.8,0.6-2,1.6-3.4c0.7-1,1.5-1.7,2.1-2.1
							c0.7,0.8,1.6,2.2,2.2,4c0.8,2.5,0.7,4.8,0.6,6c1-0.6,2.6-1.7,4.1-3.7c1.3-1.6,1.9-3.3,2.2-4.3c0.5,0.5,1.5,1.5,2.1,3.1
							c0.4,1.1,0.5,2.1,0.6,2.8c0.9-0.9,2.1-2.2,3.1-4.1c1.1-2.1,1.7-4.1,1.9-5.4c0.4,0.6,0.9,1.5,1.3,2.8c0.4,1.6,0.4,3.1,0.3,3.9
							c0.9-0.9,2.1-2.1,3.1-4c1.7-2.9,2-5.6,2.1-7.2c0.3,0.9,0.8,2.3,1.7,3.9c0.6,1.3,1.7,2.4,1.7,2.4s-0.1-1.3,0.3-4
							c0.4-1.3,0.6-3,1-4.3c0.4,0.4,0.9,1,1.4,1.8c0.6,1.2,0.7,2.3,0.8,3.1c1.4-0.7,2.7-4,2.6-8.3"/>
					</g>
					<g>
						<line class="st8" x1="118.7" y1="80.2" x2="118.9" y2="99.5"/>
						<line class="st8" x1="122.9" y1="75.2" x2="122.9" y2="110"/>
						<line class="st8" x1="127.2" y1="83.6" x2="127.4" y2="105.5"/>
						<line class="st8" x1="131.4" y1="89.1" x2="131.4" y2="111.4"/>
						<line class="st8" x1="135.5" y1="80.1" x2="135.8" y2="108.8"/>
						<path class="st16" d="M140.5,84.7c2.8,4.6,4.6,7.4,5.1,9.2c1.3,3.7,0.3,5-0.2,5.9c-0.8,1.5-2.6,3.1-4.6,3.2
							c-3.2,0.2-5.5-1.7-6.3-3.5c-0.5-1.1-1-2.7,0-5.6C135.4,91.9,139.2,86.1,140.5,84.7L140.5,84.7z"/>
					</g>
				</g>
			</g>
		</g>
	</g>
</g>
</svg>
