<?xml version="1.0" encoding="UTF-8"?>
<svg id="Layer_2" data-name="Layer 2" xmlns="http://www.w3.org/2000/svg" viewBox="0 0 101.56289 137.46462">
  <defs>
    <style>
      .cls-1 {
        fill: #ad89ac;
      }

      .cls-2 {
        fill: #baa2b9;
      }

      .cls-3 {
        fill: #7e594e;
      }

      .cls-4, .cls-5, .cls-6, .cls-7 {
        stroke-miterlimit: 10;
      }

      .cls-4, .cls-5, .cls-6, .cls-7, .cls-8 {
        stroke: #4e381a;
      }

      .cls-4, .cls-7, .cls-8 {
        fill: none;
      }

      .cls-9 {
        fill: #9e8098;
      }

      .cls-10 {
        fill: #796245;
      }

      .cls-11 {
        fill: #5f4f4b;
      }

      .cls-12 {
        fill: #81684b;
      }

      .cls-5 {
        fill: #00aeef;
      }

      .cls-13 {
        fill: #e0ae84;
      }

      .cls-14 {
        fill: #948063;
      }

      .cls-6, .cls-15 {
        fill: #eac4a0;
      }

      .cls-16 {
        fill: #ca9b71;
      }

      .cls-7 {
        stroke-dasharray: 0 2;
      }

      .cls-8 {
        stroke-linecap: round;
        stroke-linejoin: round;
      }
    </style>
  </defs>
  <g id="Layer_1-2" data-name="Layer 1">
    <g>
      <g>
        <g>
          <polygon class="cls-14" points="7.53583 84.48751 4.21841 136.73806 1.7384 136.76475 3.62842 84.47477 7.53583 84.48751"/>
          <polygon class="cls-14" points="65.27838 136.13475 63.09839 136.16444 59.70411 84.59008 63.50842 84.60478 65.27838 136.13475"/>
          <polygon class="cls-10" points="57.31842 136.24473 52.58838 136.31474 40.00842 96.47477 33.94842 96.47477 20.62842 136.55473 15.71838 136.60478 27.06842 84.52476 45.2384 84.56474 57.31842 136.24473"/>
          <polygon class="cls-10" points="52.58838 136.31474 50.62842 136.34477 47.08838 136.39476 35.08838 100.39476 23.71838 136.51475 20.62842 136.55473 33.94842 96.47477 40.00842 96.47477 52.58838 136.31474"/>
          <polygon class="cls-12" points="28.56485 85.93457 15.71838 136.60478 3.59839 136.74473 6.69842 84.48478 28.56485 85.93457"/>
          <polygon class="cls-12" points="63.26271 136.15477 56.77272 136.24473 44.6927 84.56474 60.3727 84.59477 63.26271 136.15477"/>
        </g>
        <polygon class="cls-4" points="47.02349 136.57968 65.21297 136.32704 63.44454 84.7902 3.57086 84.66389 1.67612 136.95862 23.65507 136.70599 35.02349 100.57968 47.02349 136.57968"/>
        <polyline class="cls-4" points="20.5677 136.74389 33.8877 96.66389 39.9477 96.66389 52.5277 136.50389"/>
        <line class="cls-7" x1="50.5677" y1="136.53389" x2="38.8177" y2="99.06389"/>
      </g>
      <g>
        <g>
          <path class="cls-2" d="m35.30912,40.63079c-6.16513,1.81915-9.72183,23.29745-.7579,28.98947,3.04343,1.93256,7.62067,2.10281,10.48419,0,6.31332-4.63617,4.22198-20.26666-3.97894-26.71579-1.52698-1.20081-3.67056-2.88647-5.74734-2.27368Z"/>
          <path class="cls-9" d="m36.08312,22.10942c-.51001,2.54999-2.6289,3.63875-5.17895,6.33876-2.08997,2.21002-2.51629-.0561-3.72632,5.91387.29004-.89996-2.68353,4.3267-1.98352,3.84672-1.57001,3.34003-3.27002,7.67999-4.44,12.90997-.54999,2.44-.91998,4.75-1.15002,6.91003h-.01001c-.32996,3.01001-.39996,5.70001-.35999,7.98999,1.48004.38,3.13.73999,4.92999,1.03998.02002,4.10004.17004,7.78003.42999,11.72003H.30433c.20001-11.62.41003-23.23999.62-34.85999-.56-10.37,2.67999-20.39001,8.85004-28.16003,4.75-1.27997,9.55876-4.30932,14.30876-4.44934.90002-.02002,3.88738.1568,5.74737,1.13684,3.08002,1.63,6.89259,6.44319,6.25263,9.66316Z"/>
          <path class="cls-9" d="m25.12433,86.16879c-8.32001.13-16.64001.25-24.96002.38.05005-2.59003.09003-5.18005.14001-7.77002h24.28998c.14001,2.32001.33002,4.73999.53003,7.39001Z"/>
          <path class="cls-1" d="m73.14435,18.62875c-.19-.13-.48004-.22998-.82001-.32001h-.01001c-1.22998-1.27997-3.41998-3.31995-6.59003-4.70996-1.01996-.44-9.45996-3.98999-15.53998.57001-.73999.56-3.95001,2.96997-4.35999,7.19995-.5,5.28003,3.78998,8.80005,4.16998,9.10004.97003.81,1.95001,1.62,2.91998,2.42999,1.67999,1.40002,3.36005,2.79999,5.04004,4.20001,1.69995,11.48999,3.40997,22.98999,5.10999,34.47998v7.20001h-25.20001c.16998-3.33002.39001-7.03998.66003-11.23999h.03998c0-.17999-.01001-.35004-.01001-.53003v-.01001c-.04999-2.17999-.08997-4.33997-.14001-6.51996-.12-5.82001-.23999-11.63-.35999-17.45001-.16998,3.14001-.51001,9.66998-.87,17.56-2,.14001-5.87438-.60727-8.36437-.83725-.03998-.76001.13-.92444,0-1.91443-.5-3.72998-.91509-6.97124-.25512-10.05125.36005-1.67999-.32001-2.66728,0-4.35729.17999-.94.12-1.81493,0-2.43492-.29004-1.44.44356-2.37366-1.57646-2.27368-.57996.03003-.96264.22839-1.45263.56842-.70001.47998-1.59141.13042-1.88145,1.03039,1.21002-5.96997,3.60004-9.53998,5.69-11.75,2.55005-2.70001,4.60004-3.32001,5.11005-5.87.63995-3.21997-1.65002-7.08997-4.73004-8.71997-1.85999-.98004-3.64996-.97003-4.54999-.95001-4.75.14001-10.64996,1.45001-15.39996,2.72998,2.69995-3.41998,5.95996-6.39996,9.71997-8.78998,13.65002-8.69,31.19-7.91998,42.44-.38,6,4.02997,10.03003,9.87,11.21002,12.03998Z"/>
          <path class="cls-1" d="m37.18434,60.58877c-.10999,2.26001-.05997,4.88623-.16995,7.32623-1.91998.13-4.20004-.07623-6.51004-.18622-.03998-3.75.02997-5.39001-.09003-7.21002,2.48999.22998,4.77002.21002,6.77002.07001Z"/>
          <path class="cls-1" d="m63.06434,78.77878v6.82001l-25.5.39001c.07001-2.19.17999-4.58002.29999-7.21002h25.20001Z"/>
          <path class="cls-1" d="m72.31434,18.30875c-1.57001-.39996-4.41003-.51996-6.02002-1.48999-3.51996-2.09998-8.28998-2.35999-11.94-.19-1.12.67004-3.54999,2.11005-3.97998,4.54999-.40002,2.23004,1.32001,2.84003,2.08002,7.58002.29999,1.84003.67999,2.77002.45996,4.14001-.96997-.81-1.94995-1.62-2.91998-2.42999-.38-.29999-4.66998-3.82001-4.16998-9.10004.40997-4.22998,3.62-6.63995,4.35999-7.19995,6.08002-4.56,14.52002-1.01001,15.53998-.57001,3.17004,1.39001,5.36005,3.42999,6.59003,4.70996Z"/>
          <path class="cls-16" d="m34.01435,117.05875c-.04999,6.20001-.77002,11.52002-1.54999,15.58002-.17004.13-.36005.22998-.58002.29999-.85999.27002-2.22003-.44-2.75-.76996-.21002.19995-.45001.37-.73999.51996-.22003.11005-1.87.96002-2.94.19-.48999-.35999-1.21002-1.35999-.79004-1.59998.34003-.19,1.32001-.03003,2.12-.58002,1.44-.98999.88-4.03998.85004-4.16998-.27002-1.42999-.77002-1.39001-1.13-2.84003-.42999-1.70996-.09003-3.14996.19-4.35999.45996-2.08002,1.37-3.58997,1.97998-4.45001-1.41998-8.26001-2.63-17.28998-3.40997-27-.04999-.57996-.09003-1.14996-.14001-1.70996,2.03998-.03003,4.08002-.06,6.12-.09003.22003,3.15002.42999,5.78003.59003,7.72998,1.22998,14.86005,2.25,15.59003,2.17999,23.25Z"/>
          <path class="cls-15" d="m39.81434,128.90878c-.12.58002-.1221,2.03042-.84207,2.59042-1.72003-11.04999-2.76792-19.63046-2.99796-24.11044-.19-3.64996-.19-7.01001-.19-7.01001,0-3.54999.13-6.17999.19-7.38995.16003-3.22003.17004-4.45001.24005-6.98004.44995-.01001.89996-.01996,1.34998-.01996-.09998,2.59998-.16003,4.92999-.20001,7.06995-.15997,8.46002.5,19.54004,1.70001,29.27002.38,3.06.94,5.70001.75,6.58002Z"/>
          <path class="cls-13" d="m38.9249,131.0492c-.03003.03003-1.84102.52472-1.87105.54474-.70996.45001-.3595.54483-.84949.48483h-.01001c-.21002.26001-.48999.46002-.85004.58002-.87994.27997-1.91998-.23999-2.35999-.52002-.14996.19-.32001.37-.51996.5.77997-4.06,1.5-9.38,1.54999-15.58002.07001-7.65997-.95001-8.38995-2.17999-23.25-.16003-1.94995-.37-4.57996-.59003-7.72998,1.65997-.02002,3.32001-.04999,4.97003-.07001-.07001,2.53003-.08002,3.76001-.24005,6.98004-.06,1.20996-.19,3.83997-.19,7.38995,0,0,.09405,3.05624.5827,6.67834.64273,4.76431,2.10789,13.40526,2.55789,23.99211Z"/>
          <path class="cls-9" d="m30.16431,57.96878c.13.98999.21002,1.78998.25,2.54999-.60999-.04999-1.23999-.12-1.88-.21002-3.51996-.48999-6.51996-1.37-8.92999-2.27997.23004-2.16003.60004-4.47003,1.15002-6.91003,1.16998-5.22998,2.87-9.56995,4.44-12.90997.48999-.34003,1.07001-.54999,1.64996-.58002,2.02002-.09998,3.38,1.88,3.67004,3.32001.12.62.01996,1.04999-.16003,1.98999-.32001,1.69-.45996,3.40002-.82001,5.08002-.65997,3.08002.13,6.22003.63,9.95001Z"/>
          <path class="cls-9" d="m30.50434,67.72879c-.34003-.02002-.69-.04004-1.03998-.06-1.89001-.13-3.66003-.34003-5.30005-.61005-1.79999-.29999-3.44995-.65997-4.92999-1.03998-.03998-2.28998.03003-4.97998.35999-7.98999h.01001c2.41003.90997,5.41003,1.78998,8.92999,2.27997.64001.09003,1.27002.16003,1.88.21002.12,1.82001.05005,3.46002.09003,7.21002Z"/>
          <path class="cls-4" d="m73.83543,19.28341c.23514-.21793-4.16779-7.92557-11.55789-12.88422-11.24615-7.54602-28.78903-8.3092-42.44211.37897C7.52827,14.60985.46455,28.79601,1.26701,43.72551c-.25262,14.21054-.50528,28.42105-.7579,42.63159,20.96841-.3158,41.93686-.63159,62.90527-.94739v-14.02106c-1.70526-11.49472-3.41052-22.98947-5.11578-34.48419-2.65265-2.21054-5.30527-4.42105-7.95792-6.63159-.37607-.2981-4.67038-3.8179-4.1684-9.09473.40289-4.23495,3.61349-6.64194,4.35788-7.20001,6.08356-4.56085,14.517-1.01505,15.53683-.56842,5.01184,2.19482,7.59744,6.03217,7.76843,5.87369Z"/>
          <path class="cls-4" d="m73.7249,18.66762c-.59595-.96982-4.93793-.74573-7.08948-2.03683-3.51361-2.10846-8.28613-2.3613-11.93683-.18948-1.12012.66635-3.54715,2.1102-3.97894,4.54736-.39526,2.23096,1.31653,2.83813,2.0842,7.57895.311,1.92072.7191,2.85161.42632,4.33421"/>
          <line class="cls-4" x1=".13017" y1="78.58867" x2="63.79332" y2="78.58867"/>
          <path class="cls-4" d="m25.77226,37.53603c-1.64401,3.4054-3.43848,7.91263-4.67368,13.3895-1.31613,5.83572-1.5907,10.96939-1.51578,14.90524,2.82007.72366,6.26959,1.37634,10.23157,1.64212,3.42361.22968,6.49152.12094,9.09473-.12631-.16843-8.16843-.33682-16.33685-.50525-24.50528"/>
          <path class="cls-4" d="m19.94016,57.83709h.01c2.41.91,5.41,1.79,8.93,2.28,3.77.52,7.13.45,9.88.17"/>
          <path class="cls-4" d="m24.50911,66.52552c.01715,7.18356.45358,13.01683,1.10525,21.15789.77792,9.71817,1.98157,18.74503,3.41055,27-.61282.86148-1.52118,2.37048-1.9895,4.45264-.27295,1.21347-.61603,2.65506-.18945,4.35791.36334,1.45047.86044,1.41751,1.13684,2.8421.02612.13467.5838,3.18015-.85263,4.16843-.7998.55026-1.78422.39472-2.1158.5842-.42309.24176.29664,1.23529.78947,1.59473,1.06644.77774,2.71173-.07303,2.93686-.18945,1.65796-.85733,1.92972-2.6361,2.0842-3.25264.43817-1.7489.13416-3.16749-.09472-3.66316"/>
          <path class="cls-4" d="m38.90911,66.65183c-.7724,11.80515-1.08086,19.82488-1.2,26.21053-.15789,8.46316.50526,19.54737,1.70526,29.27368.37817,3.06521.93158,5.7.74211,6.58421-.12986.606-.26262,2.09998-1.07368,2.60526-.77533.48303-2.2496.64136-2.63684.53684"/>
          <path class="cls-4" d="m37.07753,124.72551c.34737,1.3579.36316,3.37895.28422,4.54737-.06832,1.01107-.31718,2.74981-1.67368,3.18947-.97299.31537-2.15357-.3695-2.47895-.6"/>
          <path class="cls-4" d="m34.18806,125.26236c.37895,1.20789.22105,3.42632.01579,4.45263-.19874.9937-.62046,2.59174-1.97696,3.03141-.97299.31537-2.5924-.65354-2.91777-.88404"/>
          <g>
            <path class="cls-16" d="m77.32523,105.28837c-2.35999.26001-6.29092,1.44041-7.47091,2.16038-.90997-12.13-2.22998-23.21997-3.75-34.91998-.03998-1.22998-.07001-2.46002-.09998-3.70001,2.21997-.31,6.51026-.90965,8.73023-1.22966,1.29004,12.23999,2.05062,24.74927,2.59066,37.68927Z"/>
            <path class="cls-13" d="m81.18433,106.30875c-1.92999-.73999-3.92999-.85999-5.73999-.64996-.54004-12.94-1.48999-25.53003-2.78003-37.77002,2.02002-.27997,4.04004-.57001,6.06-.84998,1.21002,12.71997,2.06,25.81,2.46002,39.26996Z"/>
            <path class="cls-15" d="m82.67432,107.00876c-.48999-.27997-.98999-.51001-1.48999-.70001-.40002-13.45996-1.25-26.54999-2.46002-39.26996.69-.10004,1.37-.19,2.06-.29004.63,13.42004,1.26001,26.84003,1.89001,40.26001Z"/>
            <path class="cls-4" d="m66.43545,74.88341c.59637,3.99704,1.55029,10.47821,2.08417,18.37894.47906,7.08945,1.33245,14.12397,1.3347,14.18641h0c4.26532-1.73376,5.5899-1.78995,5.59003-1.78998,1.27734-.22382,4.99108.37201,6.88582.84569.02228-8.03363-.5518-16.73169-1.10526-25.54737-.30157-4.80331-.40097-9.47885-.85263-14.02105-4.67371.7579-10.30523.74735-14.97893,1.50526.28088,1.6102.65027,3.8158,1.04211,6.44211Z"/>
          </g>
          <path class="cls-16" d="m32.10486,86.43403c-2.03998.03003-4.02809.15384-6.06807.18387-.20001-2.65002-.44194-5.16385-.58196-7.48386-.25995-3.94-.40997-7.62-.42999-11.72003,1.64001.27002,3.31265.43859,5.20266.5686.34998.01996.83694.0424,1.17697.06241.01001.75-.01958,1.629.00038,2.569.12,5.98004.41003,11.41003.70001,15.82001Z"/>
          <path class="cls-13" d="m36.88806,68.00044c-.10999,2.63995-.20129,5.69929-.30133,8.42927-.20001,5.38-.27997,8.24005-.32996,10.26001-1.65002.02002-3.31006.04999-4.97003.07001-.28998-4.40997-.58002-9.83997-.70001-15.82001-.01996-.94-.05498-2.17145-.06499-2.92145,2.31.10999,4.44633.11217,6.36632-.01783Z"/>
          <path class="cls-15" d="m38.33489,67.94931c-.27002,4.20001-.49005,7.90997-.66003,11.23999-.12,2.63-.23126,5.29753-.30127,7.48753-.45001,0-.73426.2742-1.18421.28421.04999-2.01996-.03454-5.42176.16547-10.80177.10004-2.72998.20032-5.50997.3103-8.14992.57001-.03003,1.13971-.01005,1.66974-.06004Z"/>
        </g>
        <g>
          <path class="cls-6" d="m51.28872,24.55043c-.12775-.36606-1.66949-5.01959,1.13684-8.52631,2.96686-3.70728,8.16782-2.85184,9.37894-2.65265,5.60791.92236,8.45966,5.672,8.90527,6.44211"/>
          <g>
            <path class="cls-11" d="m94.99348,60.10253c-.40997,2.47003-1.29999,4.21002-2.21002,4.71002-.02997-.67999-.16998-1.77002-.75995-2.96997-.40002-.81-.88-1.42004-1.26001-1.83002-.42004,1.34998-.59003,2.88-1.01001,4.22998-.38,2.65002-.32001,3.92004-.32001,3.92004,0,0-.95001-1.14001-1.58002-2.40002-.76001-1.53998-1.26001-2.85999-1.57996-3.78998-.08002,1.56-.44,4.22998-2.02002,7.06995-.95001,1.73004-2.07001,2.99005-2.97003,3.85004.12-.83002.19-2.19-.25-3.79004-.32001-1.14996-.79999-2.03998-1.19995-2.64996-.21002,1.31-.67004,3.22998-1.77002,5.31-.96002,1.82001-2.09003,3.15002-2.96002,4.03998-.02997-.65997-.14001-1.63-.57001-2.71997-.58997-1.48004-1.47998-2.45001-2.01996-2.97003-.32001,1.06-.91003,2.62-2.09003,4.23999-1.33997,1.85004-2.85999,2.97003-3.84998,3.60004.14996-1.22003.26001-3.39001-.57001-5.88-.58002-1.76001-1.42999-3.06-2.08002-3.90997-.57001.45996-1.29999,1.15997-1.96002,2.13995-.85999,1.27002-1.25995,2.48004-1.44995,3.29004-.82001-.63-2.02002-1.72003-2.97003-3.41003-1.60999-2.85999-1.5-5.64001-1.39001-6.76001-.87.28003-2.15997.83002-3.47998,1.89001-1.65997,1.35999-2.53998,2.90002-2.96002,3.78998-.04999-.22998-.08997-.45996-.12994-.68994-.77002-4.30005-.93005-8.23004-.85004-12.51001-2.97998-2.02002-4.03998-8.11005-4.04999-10.95001-.01001-3.51001-.02002-9.75,3.12-15.46002,3.15002-3.53998,7.73388-8.26628,11.96386-8.64628,1.80005-.16003,4.52688.95685,4.73684,1.13684,1.41998,1.23999,2.95789,2.83565,1.95789,10.91567-.88,7.13-2.16872,8.5401-.86874,11.00012,1.38,2.59998,3.61458,3.16053,4.24458,3.41053.44.17004,3.62102,1.84577,6.161-.88421,1.59998-1.71997,1.76526-4.90477,1.70526-5.49474.56.31,3.03947,2.50951,3.78947,3.78947,1.39001,2.33002.64528,4.22164.50526,4.67165.48999.01001.74893-.299,1.57895-.81902,1.33002-.83002,1.46627-3.364,1.32632-5.14402.57996,1.04004,2.67791,3.67352,3.15789,5.3335.37,1.27002-.30154,1.86167-.19149,2.84171.44995-.37.60257-.81185,1.01254-2.53182.21997-.89001.60992-2.7683.52991-3.27831,1,1.49005,3.16064,3.82364,4.08062,5.87368.90002,2.00995.76985,5.39524,1.2198,7.22525.11005.40997.20001.81.28003,1.20996Z"/>
            <path class="cls-3" d="m95.56349,53.38256c-.20001,2.02002-.5,3.85999-.85004,5.51001-.44995-1.83002-1.08997-3.79004-1.98999-5.79999-.91998-2.05005-1.94-3.81-2.94-5.30005.08002.51001.12,1.29004-.09998,2.18005-.40997,1.71997-1.53003,2.75-1.97998,3.12-.11005-.98004-.30005-2.14001-.67004-3.41003-.47998-1.65997-1.12-3.02997-1.69995-4.07001.13995,1.78003-.57001,3.42999-1.90002,4.26001-.83002.52002-1.69.58002-2.17999.57001.14001-.45001.82001-2.88-.57001-5.21002-.75-1.27997-1.79999-1.95996-2.35999-2.26996.06.58997.26996,3.01001-1.33002,4.72998-2.53998,2.72998-7.14001,1.03003-7.58002.85999-.63-.25-3.07001-1.28998-4.45001-3.88995-1.29999-2.46002-.59998-4.33002.28003-11.46002,1-8.08002-.28003-9.66003-1.70001-10.90002-.20996-.17999-2.27997-.82001-4.08002-.65997-4.22998.38-8.50995,4.31-11.65997,7.84998,1-1.82001,2.33002-3.58997,4.08002-5.20001,3.39996-3.10999,6.91998-4.28998,9.19-5.01996.76001-.23999,17.51001-5.35999,27.28998,4.45996,3.81,3.82001,5.02002,8.36005,6.25,12.97003,1.87,7.02002,1.32001,13.02997.95001,16.67999Z"/>
            <path class="cls-4" d="m94.11186,62.43847c.75562-2.49606.60113-4.35722,1.0421-8.7158.3689-3.64569.92426-9.65515-.94739-16.67368-1.23029-4.61365-2.44147-9.15555-6.25262-12.97894-9.78284-9.81436-26.53015-4.69504-27.28421-4.45264-2.27649.73184-5.79871,1.90546-9.18945,5.02106-7.23734,6.65009-7.21234,16.02478-7.20001,20.65265.0079,2.96936,1.1647,9.48001,4.45264,11.21051"/>
            <path class="cls-8" d="m48.6066,47.78584c-.31732,8.0538-.66803,14.03195.56842,20.96841.04135.23206.08347.46362.12631.69473.42337-.89224,1.30045-2.43283,2.96841-3.78946,1.31204-1.06717,2.61069-1.61157,3.47369-1.89474-.10858,1.12228-.22018,3.89825,1.38947,6.7579.94992,1.68759,2.14832,2.78088,2.96841,3.41052.19788-.81183.5975-2.0206,1.45264-3.28421.66461-.98209,1.39029-1.68097,1.95792-2.14737.65387.84918,1.50027,2.15775,2.0842,3.9158.82596,2.48672.72156,4.65283.56842,5.87369.98953-.62219,2.50842-1.74991,3.85263-3.60001,1.17459-1.61664,1.77106-3.1727,2.0842-4.2316.54758.51495,1.43506,1.48776,2.02106,2.96844.42825,1.08206.54379,2.052.56842,2.71579.87521-.88403,2.00314-2.21536,2.96841-4.04211,1.09894-2.07971,1.55942-3.99228,1.76843-5.30527.3956.6048.88071,1.49631,1.20001,2.65262.43958,1.59189.36459,2.96024.25262,3.78949.89777-.86209,2.01224-2.12659,2.96841-3.85263,1.57278-2.83917,1.93509-5.51538,2.02109-7.0737.31616.92981.81714,2.25607,1.57892,3.78949.62708,1.26224,1.57892,2.39999,1.57892,2.39999,0,0-.06313-1.26316.31582-3.91579.42108-1.34738.58946-2.8842,1.01054-4.23158.38531.41241.86475,1.01721,1.26312,1.83157.58441,1.19473.72571,2.29135.75793,2.96841,1.29016-.71082,2.55207-3.90645,2.46314-8.14735"/>
          </g>
          <g>
            <line class="cls-4" x1="74.62556" y1="11.03464" x2="74.81504" y2="29.98201"/>
            <line class="cls-4" x1="78.69925" y1="6.10832" x2="78.69925" y2="40.30832"/>
            <line class="cls-4" x1="82.86767" y1="14.35043" x2="83.05714" y2="35.85569"/>
            <line class="cls-4" x1="86.84661" y1="19.75043" x2="86.84661" y2="41.63464"/>
            <line class="cls-4" x1="90.73084" y1="10.84515" x2="91.01505" y2="39.07675"/>
            <path class="cls-5" d="m95.56241,15.48727c2.72366,4.52368,4.35578,7.27373,4.92631,9.03157,1.16842,3.6.26577,4.94551-.18946,5.84211-.7851,1.54623-2.4509,3.01184-4.35791,3.12631-3.13101.18793-5.25761-1.70458-5.96842-3.41053-.47368-1.13684-.99315-2.55186.03339-5.53423.69293-2.01314,4.39548-7.75375,5.55609-9.05524Z"/>
          </g>
        </g>
      </g>
    </g>
  </g>
</svg>