<?xml version="1.0" encoding="utf-8"?>
<!-- Generator: Adobe Illustrator 27.1.1, SVG Export Plug-In . SVG Version: 6.00 Build 0)  -->
<svg version="1.1" id="Layer_2_00000149360121871537483710000004647418743776061362_"
	 xmlns="http://www.w3.org/2000/svg" xmlns:xlink="http://www.w3.org/1999/xlink" x="0px" y="0px" viewBox="0 0 146.9 224.6"
	 style="enable-background:new 0 0 146.9 224.6;" xml:space="preserve">
<style type="text/css">
	.st0{fill:#E0AE84;stroke:#4E381A;stroke-width:1.0013;stroke-miterlimit:10;}
	.st1{fill:none;stroke:#4E381A;stroke-width:1.0013;stroke-miterlimit:10;}
	.st2{fill:#7E594E;stroke:#4E381A;stroke-width:1.0013;stroke-miterlimit:10;}
	.st3{fill:none;stroke:#4E381A;stroke-width:0.4207;stroke-miterlimit:10;}
	.st4{fill:#4E381A;stroke:#4E381A;stroke-width:1.0013;stroke-miterlimit:10;}
	.st5{fill:#F0EFEF;stroke:#4E381A;stroke-width:1.0013;stroke-miterlimit:10;}
	.st6{fill:#AB6670;stroke:#4E381A;stroke-width:1.0013;stroke-miterlimit:10;}
	.st7{fill:#CA9B71;}
	.st8{fill:#5F4F4B;stroke:#4E381A;stroke-width:1.0013;stroke-miterlimit:10;}
	.st9{fill:#4E381A;stroke:#4E381A;stroke-miterlimit:10;}
	.st10{fill:#CA9B71;stroke:#4E381A;stroke-width:0.8892;stroke-miterlimit:10;}
	.st11{fill:#AD89AC;stroke:#4E381A;stroke-width:1.0955;stroke-miterlimit:10;}
	.st12{fill:none;stroke:#4E381A;stroke-width:1.0719;stroke-miterlimit:10;}
	.st13{fill:#9E8098;}
	.st14{fill:none;stroke:#4E381A;stroke-width:0.9589;stroke-miterlimit:10;}
	.st15{fill:none;stroke:#4E381A;stroke-width:1.0487;stroke-miterlimit:10;}
	.st16{fill:none;}
	.st17{fill:#E0AE84;stroke:#4E381A;stroke-width:0.8893;stroke-miterlimit:10;}
	.st18{fill:#E0AE84;stroke:#4E381A;stroke-width:0.8892;stroke-miterlimit:10;}
	.st19{fill:#EAC4A0;}
	.st20{fill:#948063;}
	.st21{fill:#796245;}
	.st22{fill:#81684B;}
	.st23{fill:none;stroke:#4E381A;stroke-width:1.1493;stroke-miterlimit:10;}
	.st24{fill:none;stroke:#4E381A;stroke-width:1.1493;stroke-miterlimit:10;stroke-dasharray:0,2.2986;}
</style>
<g id="Layer_1-2">
	<g>
		<g>
			<path class="st0" d="M64.8,82.2c1.1,4.3,5.9,8.3,10,8.7c4.7,0.4,9.3-2.8,10.7-7.6c0.1-0.8,0-1.5-0.1-2v-0.1c-2.4-0.5-6-1.6-9.6-4
				C68.4,72,65.8,64.6,65,62l-0.2,16.4V82.2"/>
			<path class="st1" d="M77,48.6c-0.1-0.1-0.2-0.2-0.3-0.4C76.8,48.4,76.9,48.5,77,48.6z"/>
			<path class="st1" d="M76.3,47.9c-0.1-0.1-0.2-0.2-0.3-0.3l0.1,0.1C76.2,47.7,76.2,47.8,76.3,47.9z"/>
			<path class="st2" d="M71.9,39.6c8.2,4.1,14.8,6.1,19.3,7.1c1.9,0.4,3.4,0.7,5.2,0.5c3.7-0.3,7.3-2.1,10-4.5
				c1.8-1.6,3.2-3.5,4.1-5.4c3.7-7.6,0.5-18.6-8.6-25.3c-1,0.7-2.5,1.8-4.7,2.7c-5.1,2-8.7,0.6-16.3,0.3c-4.8-0.2-8.8-0.3-13.5,1
				c-2.7,0.7-8.2,2.2-12.3,6.7c-1.4,1.5-2.4,3.1-3.2,4.8"/>
			<path class="st0" d="M58.3,56.8c0.6,3.1,3.4,5.4,6.7,5.2c0.8,2.6,3.4,10,10.8,15.1c3.6,2.4,7.1,3.5,9.6,4v0.1
				c1.7,0.3,7.5,0.9,14.8-5.9c7.4-7,6.7-16.4,6.6-17.5c-0.2-6-0.2-9.1-0.4-15.1c-2.7,2.4-6.3,4.2-10,4.5c-1.8,0.1-3.3-0.1-5.2-0.5
				c-4.5-1-11.1-3-19.2-7.1c-0.1-0.1-0.2-0.1-0.3-0.2c0.4,1.5,1.2,3.4,2.4,5.4c0.1,0.1,0.2,0.3,0.3,0.5c0.1,0.1,0.1,0.2,0.2,0.3
				l0.1,0.1c0.1,0.2,0.3,0.4,0.4,0.6c0.2,0.2,0.3,0.4,0.5,0.7c0.2,0.2,0.4,0.4,0.5,0.6l0,0l0,0c0.1,0.1,0.2,0.2,0.2,0.2l0,0
				c0.1,0.1,0.2,0.2,0.3,0.3s0.2,0.3,0.3,0.4c-1.9,1.6-3.8,3.1-5.6,4.7c0,3.8-0.1,7.7-0.1,11.5c-1.3-2.3-2.6-4.6-3.9-7.1
				c-1.5-2.8-2.9-5.6-4.1-8.3C59.8,50.2,57.7,53.5,58.3,56.8z M65,58.3c-1.2-1.1-2.3-2.3-3.5-3.4c0.2-0.1,1.3-0.5,2.3,0
				c0.1,0.1,0.2,0.1,0.3,0.2l0,0c0.1,0.1,0.2,0.1,0.2,0.2l0.1,0.1l0.1,0.1c0.2,0.2,0.3,0.4,0.4,0.7v0.1c0.1,0.2,0.1,0.4,0.1,0.6V57
				c0,0.2,0,0.3,0,0.5c0,0.1,0,0.1,0,0.2c0,0.1,0,0.2,0,0.3s0,0.1-0.1,0.2l0,0C65,58.2,65,58.2,65,58.3L65,58.3z M87.8,53.1
				c0,1.9-0.9,3.4-1.9,3.4c-1.1,0-1.9-1.5-1.9-3.4s0.9-3.4,1.9-3.4C87,49.7,87.8,51.2,87.8,53.1z M100,56.9c-1.1,0-1.9-1.5-1.9-3.4
				s0.9-3.4,1.9-3.4s1.9,1.5,1.9,3.4S101.1,56.9,100,56.9z M98.2,61.8c-0.8,0.5-2.3,1.2-4.6,1.4c2.4-0.7,3.9-1.6,3.8-2.3
				c0-0.2-0.2-0.5-0.9-0.8c-0.6-0.5-1.3-1.1-1.8-2c-1.5-2.4-1.3-4.8-1.1-5.7c0.3,2.7,1.3,4.2,2.3,5.1c1.6,1.5,3.7,2.2,3.6,3.2
				C99.3,61.1,98.9,61.4,98.2,61.8z M93.7,75c-0.4,0-0.9,0-1.5,0c-1,0-2.4-0.2-4-0.5c-0.4-0.1-2.1-0.7-3.7-2
				c-1.8-1.4-2.6-2.8-2.9-3.9s-0.3-1.9-0.3-2.4l17.5,0.3L98.4,69l-1.8-0.1L93.7,75L93.7,75z"/>
			<path class="st3" d="M85.4,81.2c-0.2,0-0.4-0.1-0.4-0.1"/>
			<path class="st3" d="M106.4,42.7L106.4,42.7"/>
			<path class="st4" d="M61.5,54.9c1.2,1.1,2.3,2.3,3.5,3.4c0.5-1.4-0.1-2.8-1.2-3.4C62.8,54.3,61.7,54.8,61.5,54.9z"/>
			<path class="st4" d="M98.1,53.5c0,1.9,0.9,3.4,1.9,3.4s1.9-1.5,1.9-3.4s-0.9-3.4-1.9-3.4S98.1,51.6,98.1,53.5z"/>
			<path class="st4" d="M84,53.1c0,1.9,0.9,3.4,1.9,3.4c1.1,0,1.9-1.5,1.9-3.4s-0.8-3.4-1.9-3.4C84.9,49.7,84,51.2,84,53.1z"/>
			<path class="st4" d="M93.6,63.2c2.3-0.2,3.8-0.9,4.6-1.4c0.6-0.4,1.1-0.7,1.1-1.1c0.2-1.1-2-1.7-3.6-3.2c-1-0.9-2-2.5-2.3-5.1
				c-0.2,0.9-0.4,3.3,1.1,5.7c0.6,0.9,1.3,1.6,1.8,2c0.8,0.3,0.9,0.6,0.9,0.8C97.5,61.6,96,62.5,93.6,63.2z"/>
			<path class="st1" d="M93.7,75c0.7,0,1.2-0.1,1.4-0.1c1-0.1,1.8-0.2,2.4-0.4"/>
			<path class="st1" d="M81.3,66.1L81.3,66.1"/>
			<path class="st5" d="M81.6,68.6l15,0.5l1.8,0.1l0.4-2.5l-17.5-0.3C81.3,66.7,81.3,67.5,81.6,68.6z"/>
			<line class="st1" x1="100.8" y1="66.6" x2="98.8" y2="66.5"/>
			<line class="st1" x1="81.3" y1="66.2" x2="81.1" y2="66.2"/>
			<line class="st1" x1="98.4" y1="69.1" x2="98.4" y2="69.2"/>
			<line class="st1" x1="98.9" y1="66.4" x2="98.8" y2="66.5"/>
			<line class="st1" x1="98.7" y1="69.1" x2="98.4" y2="69.1"/>
			<line class="st1" x1="81.6" y1="68.6" x2="81.5" y2="68.6"/>
			<path class="st6" d="M81.6,68.6c0.4,1.1,1.2,2.5,2.9,3.9c1.6,1.3,3.3,1.9,3.7,2c1.6,0.3,3,0.5,4,0.5c0.5,0,1,0,1.5,0l2.9-6
				L81.6,68.6L81.6,68.6z"/>
			<line class="st3" x1="93.7" y1="75" x2="93.7" y2="75"/>
			<line class="st1" x1="96.7" y1="68.9" x2="96.6" y2="69"/>
			<path class="st7" d="M58.7,56.7c0.4,1.9,1.8,3.4,3.5,4.3c0.9,0.4,2.2,0.6,3.2,0.5c0.8,2.5,3.1,10,10.3,14.9
				c3.4,2.3,4.3,2.7,6.8,3.5c0,0,1.4,0.4,1.4,0.5c0.3,0.1,1.3,0.4,1.8,0.4l1.8,0.1c1.6,0.1,3.3-0.2,6.4-1.7
				c-3,0.3-12.7,0.5-18.1-6.3c-2.3-2.9-3.5-5.1-4.2-6.4l-1.5-2.6c-1-1.7-2.4-4.1-3.4-5.9c-1.4-2.7-2.8-5.3-4-7.8
				C59.6,50.9,58.1,54,58.7,56.7L58.7,56.7z M60.8,54.7c0.2-0.1,2.2-1.2,4.1,0.2c0.9,0.7,0.9,3,0.5,4.3
				C64.2,58.2,61.9,55.8,60.8,54.7L60.8,54.7z"/>
			<path class="st7" d="M85,81.5c-2.4-0.5-4.8-1.3-8.3-3.5c-7.3-4.7-10.3-10.6-11.1-13.1l-0.2,7.4c0.8,1.3,2,3.3,3.4,4.6
				C74.7,82.5,81.4,81.8,85,81.5"/>
			<path class="st8" d="M53.7,62.9c3.4,6.4,9.7,13.5,9.9,13.7c0,0,0.9,0.1,1.1,0.1v1.6l0.2-16.4c-3.3,0.1-6.1-2.1-6.7-5.2
				c-0.6-3.3,1.5-6.6,4.9-7.4c1.3,2.7,2.7,5.5,4.1,8.3c1.3,2.5,2.6,4.9,3.9,7.1c0-3.8,0.1-7.7,0.1-11.5c1.9-1.6,3.8-3.1,5.6-4.7
				c-0.1-0.1-0.2-0.2-0.3-0.4c-0.1-0.1-0.2-0.2-0.3-0.3l0,0c-0.1-0.1-0.2-0.1-0.3-0.2l0,0l0,0c-0.1-0.1-0.3-0.3-0.5-0.6
				c-0.2-0.2-0.4-0.4-0.5-0.7c-0.1-0.2-0.3-0.4-0.4-0.6l-0.1-0.1c-0.1-0.1-0.1-0.2-0.2-0.3c-0.1-0.2-0.2-0.4-0.3-0.5
				c-1.3-2-2-4-2.4-5.4c0.1,0.1,0.2,0.1,0.3,0.2C68.5,36,63.7,32,57,29.2c-1.8-0.8-3.6-1.3-5.2-1.8c-2.1,4.5-2.3,9.4-2.5,13.9
				C49.1,44.6,48.8,53.7,53.7,62.9L53.7,62.9z"/>
			<path class="st1" d="M76.9,48.6c-0.1-0.1-0.2-0.2-0.3-0.4C76.6,48.3,76.7,48.5,76.9,48.6z"/>
			<path class="st1" d="M76.1,47.8c-0.1-0.1-0.1-0.2-0.2-0.3l0.1,0.1C76,47.7,76.1,47.7,76.1,47.8z"/>
			<path class="st2" d="M71.8,39.6c8.1,4.1,14.7,6,19.2,7.1c1.9,0.4,3.4,0.7,5.2,0.5c3.7-0.3,7.3-2.1,10-4.5
				c1.8-1.6,3.2-3.5,4.1-5.4c3.7-7.6,0.5-18.6-8.6-25.3c-1,0.7-2.5,1.8-4.7,2.7c-5.1,2-8.7,0.6-16.3,0.3c-4.8-0.2-8.8-0.3-13.5,1
				c-2.7,0.7-8.2,2.2-12.3,6.7c-1.4,1.5-2.4,3.1-3.2,4.8"/>
			<path class="st3" d="M85.3,81.2c-0.2,0-0.4-0.1-0.4-0.1"/>
			<path class="st3" d="M106.2,42.7L106.2,42.7"/>
			<path class="st9" d="M97.9,53.5c0,1.9,0.9,3.4,1.9,3.4s1.9-1.5,1.9-3.4s-0.9-3.4-1.9-3.4S97.9,51.6,97.9,53.5z"/>
			<path class="st9" d="M83.8,53.1c0,1.9,0.9,3.4,1.9,3.4c1.1,0,1.9-1.5,1.9-3.4s-0.9-3.4-1.9-3.4S83.8,51.2,83.8,53.1z"/>
			<path class="st1" d="M93.6,75c0.7,0,1.2-0.1,1.4-0.1c1-0.1,1.8-0.2,2.4-0.4"/>
			<path class="st1" d="M81.1,66.1L81.1,66.1"/>
			<path class="st5" d="M81.4,68.5l15,0.5l1.8,0.1l0.4-2.5l-17.5-0.3C81.1,66.7,81.1,67.5,81.4,68.5z"/>
			<line class="st1" x1="100.6" y1="66.5" x2="98.6" y2="66.5"/>
			<line class="st1" x1="81.1" y1="66.2" x2="80.9" y2="66.2"/>
			<line class="st1" x1="98.3" y1="69.1" x2="98.2" y2="69.1"/>
			<line class="st1" x1="98.7" y1="66.3" x2="98.6" y2="66.5"/>
			<line class="st1" x1="98.5" y1="69.1" x2="98.3" y2="69.1"/>
			<line class="st1" x1="81.4" y1="68.5" x2="81.3" y2="68.5"/>
			<path class="st6" d="M81.4,68.5c0.4,1.1,1.2,2.5,2.9,3.9c1.6,1.3,3.3,1.9,3.7,2c1.6,0.3,3,0.5,4,0.5c0.5,0,1,0,1.5,0l2.9-6
				L81.4,68.5L81.4,68.5z"/>
			<line class="st3" x1="93.6" y1="75" x2="93.5" y2="75"/>
			<line class="st1" x1="96.5" y1="68.9" x2="96.4" y2="69"/>
		</g>
		<g>
			<g>
				<path class="st10" d="M122.9,105.8C122.9,105.8,122.8,105.8,122.9,105.8c-0.5,0.2-1.1,0.4-1.8,0.4c-0.3,0.1-0.5,0.1-0.8,0.2
					c-0.2,0.1-0.4,0.1-0.7,0.2c-2.5,0.5-5,0.9-7.5,1.2c-0.4,0.2-0.8,0.3-1.3,0.3c-0.4,0.1-0.8,0.1-1.2,0.1c0,0,0,0-0.1,0
					c-0.5,0.3-0.5,0.2-1,0.2c-0.3,1.6-0.5,5.7-2.4,11.4c-1.5,4.6-4.7,9.9-7.1,12.1c-0.2,0-0.3,0-0.5,0c0.8,1.5,1.6,3,2.2,4.5
					c2.8,1.9,7.3,3.2,10,3.7c3.8-4.6,8.1-11.3,10.4-20.2C122.7,114.6,123,109.7,122.9,105.8L122.9,105.8z"/>
				<g>
					<g>
						<path class="st11" d="M43.4,154.1c20.6,0.1,41.3-0.6,61.9-0.5c0.2-5,1.1-7.7,1.1-13.7c0-5.7-0.1-11.5-0.3-17.5
							c-0.3-6.6-0.6-13.1-1.1-19.4c-0.3-2.9-0.5-5.8-0.8-8.8c0.7,2.9,1.3,5.8,2,8.7c0.6,3,1.2,6.1,1.8,9.1c4.9-1.4,9.8-2.8,14.7-4.2
							c1-7.7-1.3-12.9-2.4-16c-1.7-4.8-3.1-8.2-7.2-11.1c-1.6-1.1-6.3-2.7-9.9-1.6c-2.6,0.7-6,1.5-8.5,2.4c-2.3,0.3-4.5,0.5-6.8,0.8
							c-1.7,4.4-5.6,7.4-9.2,8c-15.1,0.1-13.8-9.9-13.8-9.9s-1.9,0-4.6-0.5c-2.9-0.5-4.9-1-7.7-2.2c-3.6-0.6-5-1.1-8.5-0.3
							c-2.7,0.6-3.6,1-4.6,2.1c-6.1,7-9.2,23.8-9.7,26.2c5.6,1,11.2,2,16.8,2.9c1.8-4.9,3.7-9.8,5.5-14.8c-1.9,7.2-4.6,18.8-6.7,32
							c-1.1,6.8-1.5,11-1.7,13.8c0,0.6-0.3,2.8-0.5,5.9c0,0.7,0,3.7,0,4c0.2,2.8,0.5,4.7,1,6.6L43.4,154.1z"/>
						<path class="st12" d="M60.2,80c0.3,1.1-0.1,11.4,10.6,14.4c4.3,1.2,8.5,1.7,14.7-0.8c7.4-3,8.2-11.1,8.2-11.6"/>
						<path class="st13" d="M83.1,153.2c-13-0.1-25.8,0.6-38.8,0.5c-0.5-1.9-0.7-1.8-0.9-4.3c0-0.3-0.1-3.3,0-4
							c0.2-3.2,0.4-5.3,0.5-5.9c0.2-2.8,0.6-7,1.7-13.8c2-12.7,4.6-24,6.5-31.3c3.3,1.7,11.3,6.5,12.8,10.6c0.6,1.6,0.7,2.9,0.7,5
							c0.4,11.6,0.7,16.9,1.4,21.5c0.9,5.9,2,7.5,2.5,8.2c2.7,3.6,7,2.5,10.5,5.7C81.6,146.8,82.7,148.3,83.1,153.2z"/>
					</g>
					<path class="st14" d="M30.6,102.6c1.5-0.3,5.3,0.1,7.5,0.4c5.4,0.9,7.6,1.4,9.5,2.6"/>
					<path class="st15" d="M107.3,108.7c1.1-1,4.5-2.3,6.5-2.9c5-1.4,7.2-1.8,9.4-1.4"/>
					<path class="st16" d="M51.4,94.5c2.9,1.3,11.7,6.5,13.4,10.8c0.6,1.6,0.7,2.9,0.7,5c0.3,11.6,0.7,16.9,1.4,21.5
						c0.9,5.9,2,7.5,2.5,8.2c2.7,3.6,7,2.5,10.4,5.7c1.6,1.5,3.1,5.9,3.5,10.8"/>
				</g>
				<path class="st17" d="M106,140.1c-0.1-0.4-0.2-0.8-0.3-1c-0.8-0.3-1.8-0.9-2.8-1.8c-2.1-2-2.4-4.3-2.4-5.1
					c-13.6,0.1-31.2,1-44.7,1.1c-2.5-2.4-5.9-7.7-7.4-12.4c-1.8-5.8-1.9-9.8-2.2-11.5c-0.6-0.1-0.6,0-1.1-0.3H45
					c-0.5,0-0.9-0.1-1.3-0.2c-0.5-0.1-1-0.2-1.4-0.4c-2.9-0.4-5.1-0.8-6.1-1c-0.1,0-1.4-0.3-2.2-0.5c-0.2-0.1-0.5-0.1-0.7-0.2
					c-0.3-0.1-0.6-0.1-0.9-0.2c-0.7,0-1.4-0.2-1.9-0.4l0,0c-0.3,3.9-0.2,8.8,1.2,14.2c3.2,12.8,11.2,21.4,15.5,25.4
					c16.6-1.3,33.7-2.2,51.3-2.5c2.4,0,4.7-0.1,7.1-0.1C105.7,142.7,106.3,141.6,106,140.1L106,140.1z"/>
				<g>
					<path class="st18" d="M112.6,121.6c1.4,3.1,1.6,3.5,2.1,5.4c1.7,6.3,1.1,8.9,0.5,10.4c-0.5,1.4-1,2.6-2.3,3.3
						c-2.8,1.5-7.3-0.5-9.7-2.2c-3.1-2.2-4.3-5.1-5.4-8.4c-3.2-9.4-4.3-17.3-5.8-26c-0.6-3.7-1.2-8.9-1.5-10.7
						c1.2-0.2,2.3-0.6,4-1.3c2-0.8,3.9-2,4.8-2.8C103.2,97.9,108.7,113.2,112.6,121.6"/>
					<path class="st18" d="M99.3,89.4c-0.3-1.4-0.4-3.2-0.6-4.7c-0.1-0.8-0.2-1.4-0.3-2.1c0,0-0.1-1-0.2-3L98.1,78
						c0,0,0-0.8-0.1-0.8c-0.1-0.1-2.3,2.4-3.6,3.1c-1.2,0.6-3.3,1.3-4.3,1.4c-0.9,0.1-2.1,0.1-8.2-2.4c-2.7-1.1-5.8-2.5-5.8-2.5
						c-0.1,0-1.1-0.1-1.5,0.4c-0.4,0.5-0.1,1.6,1.1,2.2c3.5,1.4,6.9,2.8,10.4,4.2c-1.5-0.9-2.8-1.1-3.3-0.7c-0.3,0.3-0.2,0.8-0.1,1
						c0.3,0.8,1.5,1.2,3,1.1c0.2,0,0.4,0,0.4,0c0-0.1-2.8-0.6-3.3,0.1c-0.2,0.4,0.3,1.1,0.8,1.4c0.9,0.6,2,0.4,2.1,0.3
						c0.2-0.1,0.5-0.1,0.5-0.1s-2,0.1-2.3,0.7c-0.2,0.4,0.3,1,1.3,1.9s3.3,2.8,5.4,3.9c1.1,0,2.3-0.4,4.1-1.1
						C97.2,91.4,98.5,90.2,99.3,89.4L99.3,89.4z"/>
				</g>
				<path class="st19" d="M46.6,144.9c-4.6-4.4-11.2-12.1-14.3-23c-1.5-5.4-1.8-10.1-1.6-14.1V107c0.1,0,0.3,3,0.4,3
					c0.3,1.8,2,9.7,2.6,11.4c2.1,5.5,6.4,14.5,9.7,19.2C44.2,141.7,45.4,143.1,46.6,144.9L46.6,144.9z"/>
				<path class="st7" d="M88.9,132.8c-7.6,2.4-21.9,4.2-33.1,0.9C65.8,133.6,77.9,133.1,88.9,132.8z"/>
				<path class="st7" d="M54.4,133.2c-2.3-1.2-5.6-4.3-8.6-9.1c-3.9-6.1-3.2-11.9-2.5-14.7c0.4,0.1,0.8,0.1,1.3,0.2h0.1
					c0.5,0.3,0.5,0.2,1.1,0.3c0.3,1.6,0.4,5.7,2.2,11.5c1.4,4.5,4.8,9.6,7.2,12.1l0.4,0.3C55,133.5,55,133.5,54.4,133.2L54.4,133.2z
					"/>
			</g>
			<path class="st19" d="M106.9,140c-1-0.4-2.7-1.3-3.4-1.8c-3.1-2.2-4.3-5.1-5.4-8.5c-3.2-9.4-4-16.6-5.5-25.3
				c-0.6-3.7-1.2-8.8-1.5-10.6c0.4-0.1,1.1-0.2,1.6-0.3c0.7,7.9,1.7,19.8,5.3,30.6C100.4,131.1,101.9,134.9,106.9,140L106.9,140z"/>
			<path class="st7" d="M114.6,137.7c-0.2,0.6-0.6,1.1-0.9,1.6c-1.4-6.5-3.2-13.5-5.7-20.9c-3.5-10.5-7.1-18.9-11-26.7
				c0.8-0.5,1.7-1.1,2.1-1.5c3.9,8.5,8.9,22.6,12.8,31.1c1.4,3.1,1.7,4.2,2.3,6.1C115.9,133.6,115.1,136.2,114.6,137.7z"/>
		</g>
	</g>
</g>
<g id="Layer_1-2_00000167367053703457945030000009064844705958829992_">
	<g>
		<g>
			<g>
				<polygon class="st20" points="47.9,153.9 44.4,222.9 41.9,223 43.8,153.9 				"/>
				<polygon class="st20" points="105.5,222.1 102.9,222.2 100.1,154 103.7,154.1 				"/>
				<polygon class="st21" points="97.5,222.3 92.8,222.4 80.2,169.7 74.1,169.7 60.8,222.7 55.1,222.8 65.9,154 86.5,154 				"/>
				<polygon class="st21" points="92.8,222.4 90.8,222.4 87.3,222.5 75.3,174.9 63.9,222.6 60.8,222.7 74.1,169.7 80.2,169.7 				
					"/>
				<polygon class="st22" points="67.3,154 55.9,222.8 43.8,222.9 46.9,153.9 				"/>
				<polygon class="st22" points="104,222.2 96.7,222.3 85.4,154 101.1,154.1 				"/>
			</g>
			<polygon class="st23" points="87.2,222.7 105.4,222.4 103.6,154.3 43.8,154.1 41.9,223.2 63.8,222.9 75.2,175.2 			"/>
			<polyline class="st23" points="60.8,222.9 74.1,170 80.1,170 92.7,222.6 			"/>
			<line class="st24" x1="90.8" y1="222.7" x2="79" y2="173.2"/>
		</g>
	</g>
</g>
</svg>
