<?xml version="1.0" encoding="UTF-8"?>
<svg id="Layer_2" data-name="Layer 2" xmlns="http://www.w3.org/2000/svg" viewBox="0 0 94.32029 210.19841">
  <defs>
    <style>
      .cls-1 {
        stroke-dasharray: 0 2.2205;
      }

      .cls-1, .cls-2, .cls-3, .cls-4, .cls-5, .cls-6, .cls-7, .cls-8, .cls-9, .cls-10, .cls-11, .cls-12, .cls-13, .cls-14, .cls-15, .cls-16, .cls-17, .cls-18 {
        stroke: #4e381a;
        stroke-miterlimit: 10;
      }

      .cls-1, .cls-4, .cls-8, .cls-10, .cls-11, .cls-19, .cls-13, .cls-14 {
        fill: none;
      }

      .cls-1, .cls-10 {
        stroke-width: 1.11025px;
      }

      .cls-2 {
        fill: #ab6670;
      }

      .cls-2, .cls-3, .cls-5, .cls-6, .cls-11, .cls-17, .cls-18 {
        stroke-width: 1.00134px;
      }

      .cls-3 {
        fill: #7e594e;
      }

      .cls-20 {
        fill: #d7d4cf;
      }

      .cls-4 {
        stroke-width: 1.07189px;
      }

      .cls-21 {
        fill: #9e8098;
      }

      .cls-5 {
        fill: #f0efef;
      }

      .cls-22 {
        fill: #796245;
      }

      .cls-6, .cls-9 {
        fill: #4e381a;
      }

      .cls-7 {
        fill: #ad89ac;
        stroke-width: 1.09555px;
      }

      .cls-23 {
        fill: #81684b;
      }

      .cls-8 {
        stroke-width: .95895px;
      }

      .cls-12, .cls-15 {
        stroke-width: .88923px;
      }

      .cls-12, .cls-16, .cls-18 {
        fill: #e0ae84;
      }

      .cls-24 {
        fill: #948063;
      }

      .cls-13 {
        stroke-width: 1.04868px;
      }

      .cls-14 {
        stroke-width: .42073px;
      }

      .cls-25, .cls-15 {
        fill: #ca9b71;
      }

      .cls-26 {
        fill: #eac4a0;
      }

      .cls-16 {
        stroke-width: .88926px;
      }

      .cls-17 {
        fill: #5f4f4b;
      }
    </style>
  </defs>
  <g id="Layer_1-2" data-name="Layer 1">
    <g>
      <g>
        <path class="cls-18" d="m35.66116,70.78667c1.13596,4.3083,5.85757,8.32711,10.02703,8.68893,4.69539.40815,9.25612-2.75577,10.6782-7.5942.09257-.78682.03367-1.4852-.05891-2.03217-.00421-.03364-.01261-.06307-.01682-.09676-2.44867-.50907-5.9702-1.59038-9.56746-4.03903-7.43434-5.05722-10.05131-12.46632-10.84229-15.09169l-.21037,16.37068v3.92968"/>
        <path class="cls-11" d="m47.89282,37.2298c-.11358-.11361-.2314-.23137-.34919-.35761.122.13045.2398.25243.34919.35761Z"/>
        <path class="cls-11" d="m47.18179,36.4851c-.09255-.10097-.18931-.20615-.28188-.31555.02945.0379.05049.05896.0547.06738.07573.08413.15146.16825.22719.24817Z"/>
        <path class="cls-3" d="m42.80618,28.25559c8.12435,4.10215,14.74668,6.05014,19.22328,7.05991,1.93536.43753,3.38268.67737,5.20867.53013,3.74451-.29876,7.27446-2.09108,9.99659-4.5313,1.77972-1.58617,3.21441-3.45004,4.14002-5.35176,3.70244-7.62363.54695-18.59216-8.61239-25.29862-.95928.74892-2.53703,1.83018-4.67436,2.65901-5.14134,1.9859-8.65448.60167-16.26131.31976-4.78373-.18094-8.75545-.32813-13.50133.95507-2.73055.74049-8.15802,2.20885-12.32747,6.69809-1.40105,1.50621-2.44025,3.11338-3.21862,4.78789"/>
        <path class="cls-18" d="m29.18706,45.41309c.5764,3.08395,3.43738,5.35592,6.69385,5.20867.79098,2.62537,3.40795,10.03447,10.84229,15.09169,3.59726,2.44864,7.11879,3.52995,9.56746,4.03903.00421.03369.01261.06312.01682.09676,1.73763.33661,7.48485.90459,14.7551-5.94075,7.37967-6.95046,6.69387-16.37494,6.59288-17.53617-.24822-5.97439-.18091-9.12988-.42073-15.05799-2.72213,2.44022-6.25208,4.23255-9.99659,4.5313-1.82599.14725-3.27331-.0926-5.20867-.53013-4.4766-1.00977-11.09893-2.95776-19.22328-7.05991-.10939-.0547-.223-.10939-.33658-.1683.42913,1.45993,1.1612,3.38271,2.44864,5.42325.07154.11782.18094.28191.31555.48385.0547.07991.11361.16409.17251.25243.03367.04627.06309.0926.09676.13882.12621.17673.26506.3703.41234.56803.16407.21879.33658.44179.51749.66474.18933.23137.37446.44595.46701.55113.01682.01685.02524.03369.03788.04633.0084.00842.01261.01685.01682.02106.07573.08413.15146.16825.22719.24817.00842.01263.02106.02527.03367.0379.10939.12203.21879.23564.32818.34919.122.13045.2398.25243.34919.35761-1.87645,1.55674-3.75714,3.11764-5.63359,4.67439-.03367,3.82866-.07154,7.65311-.10518,11.48176-1.31271-2.27197-2.62958-4.64907-3.93387-7.12303-1.4936-2.83152-2.87361-5.59993-4.14421-8.28842-3.3785.82883-5.5074,4.15684-4.88891,7.43858Zm6.69385,1.48936c-1.16962-1.13596-2.33927-2.27192-3.5089-3.40787.16407-.07159,1.29584-.54276,2.33927,0,.10518.05465.20194.11355.29449.18089.00421.00421.00842.00842.01263.00842.07994.05886.15567.12624.22719.19352.03788.0379.07154.0757.10518.10939.03367.03785.06733.0757.09679.11361.15988.19773.29031.42073.38707.66474.01682.03364.02945.07154.04627.10939.06733.19778.11782.40394.14306.61852.0084.04622.01261.09676.01682.14298.01263.15151.01263.30718,0,.46285-.00421.06307-.01261.13045-.02103.19352-.00842.08834-.02524.18089-.04627.26928-.01685.06733-.03367.13882-.0547.20615,0,.00842,0,.01685-.00421.02101-.00842.0379-.02103.07575-.03367.11361Zm22.79951-5.15398c0,1.8765-.85407,3.39955-1.91433,3.39955-1.05604,0-1.91012-1.52305-1.91012-3.39955s.85407-3.40371,1.91012-3.40371c1.06025,0,1.91433,1.52305,1.91433,3.40371Zm12.1718,3.7698c-1.05604,0-1.91433-1.52305-1.91433-3.3995,0-1.8765.85829-3.39955,1.91433-3.39955s1.91014,1.52305,1.91014,3.39955-.8541,3.3995-1.91014,3.3995Zm-1.77548,4.89313c-.76153.47543-2.26354,1.22851-4.61124,1.38002,2.36873-.68164,3.88336-1.56511,3.79081-2.29724-.02103-.1851-.16409-.49649-.92141-.82883-.58061-.4628-1.26641-1.12338-1.84281-2.01949-1.53147-2.36878-1.28323-4.76694-1.12756-5.69674.26506,2.68007,1.30005,4.21996,2.25512,5.14555,1.57775,1.53147,3.73611,2.16257,3.58465,3.21441-.05891.43332-.47964.70264-1.12756,1.10232Zm-4.48082,13.20676c-.42073.01263-.90877.01685-1.45153-.00416-1.0392-.03785-2.42761-.15988-4.04324-.49649-.36182-.11782-2.05739-.66895-3.68141-1.99427-1.76708-1.43887-2.57488-2.80626-2.94513-3.92126-.34922-1.0602-.29873-1.8933-.29031-2.35183l17.49829.30713-.38709,2.54961-1.83018-.0547-2.8694,5.96596Z"/>
        <path class="cls-14" d="m56.30749,69.84925c-.20616-.03787-.35342-.07573-.44177-.09677"/>
        <path class="cls-14" d="m77.23474,31.31433c0-.04628-.00421-.09256-.00421-.14305"/>
        <path class="cls-6" d="m32.37201,43.49457c1.16962,1.13596,2.33927,2.27192,3.5089,3.40787.47122-1.4136-.07994-2.84416-1.16962-3.40787-1.04343-.54276-2.17521-.07159-2.33927,0Z"/>
        <path class="cls-6" d="m68.93789,42.11877c0,1.87645.85829,3.3995,1.91433,3.3995s1.91014-1.52305,1.91014-3.3995-.8541-3.39955-1.91014-3.39955-1.91433,1.52305-1.91433,3.39955Z"/>
        <path class="cls-6" d="m54.85597,41.74847c0,1.8765.85407,3.39955,1.91012,3.39955,1.06025,0,1.91433-1.52305,1.91433-3.39955s-.85407-3.40371-1.91433-3.40371c-1.05604,0-1.91012,1.52305-1.91012,3.40371Z"/>
        <path class="cls-6" d="m64.4655,51.79141c2.3477-.15151,3.84972-.90459,4.61124-1.38002.64792-.39968,1.06865-.669,1.12756-1.10232.15146-1.05183-2.0069-1.68293-3.58465-3.21441-.95507-.92559-1.99006-2.46549-2.25512-5.14555-.15567.9298-.40391,3.32796,1.12756,5.69674.5764.89611,1.2622,1.55669,1.84281,2.01949.75731.33234.90037.64373.92141.82883.09255.73212-1.42208,1.6156-3.79081,2.29724Z"/>
        <path class="cls-11" d="m64.59593,63.61819c.68159-.01683,1.17384-.0589,1.38842-.07994.97189-.08835,1.79653-.23982,2.44867-.38287"/>
        <path class="cls-11" d="m52.18431,54.76598v.08415"/>
        <path class="cls-5" d="m52.47461,57.20198l14.99071.45021,1.83018.0547.38709-2.54961-17.49829-.30713c-.00842.45853-.05891,1.29163.29031,2.35183Z"/>
        <line class="cls-11" x1="71.67686" y1="55.19092" x2="69.68259" y2="55.15726"/>
        <line class="cls-11" x1="52.18431" y1="54.85012" x2="51.94449" y2="54.84591"/>
        <line class="cls-11" x1="69.29551" y1="57.7069" x2="69.28289" y2="57.79525"/>
        <line class="cls-11" x1="69.70783" y1="54.98055" x2="69.68259" y2="55.15726"/>
        <line class="cls-11" x1="69.52271" y1="57.71531" x2="69.29551" y2="57.7069"/>
        <line class="cls-11" x1="52.47461" y1="57.20202" x2="52.34419" y2="57.19781"/>
        <path class="cls-2" d="m52.47461,57.20198c.37025,1.115,1.17805,2.48239,2.94513,3.92126,1.62402,1.32532,3.31959,1.87645,3.68141,1.99427,1.61563.33661,3.00404.45864,4.04324.49649.54276.02101,1.0308.01679,1.45153.00416l2.8694-5.96596-14.99071-.45021Z"/>
        <line class="cls-14" x1="64.59593" y1="63.61819" x2="64.5791" y2="63.65606"/>
        <line class="cls-11" x1="67.52844" y1="57.51757" x2="67.46533" y2="57.6522"/>
        <path class="cls-25" d="m29.52695,45.36644c.37831,1.92594,1.81147,3.42003,3.53457,4.25364.9139.44707,2.16683.58936,3.24579.54104.75688,2.51299,3.14018,10.01706,10.25405,14.8578,3.44219,2.34383,4.29901,2.66869,6.84658,3.50515.00403.03225,1.42897.44577,1.433.47797.30195.05639,1.29157.40997,1.83106.43814l1.81675.09337c1.56208.08461,3.309-.16483,6.3929-1.74352-2.99129.3222-12.68011.53525-18.11171-6.35-2.32621-2.94877-3.51277-5.05553-4.16659-6.38738l-1.50136-2.61528c-.97027-1.71157-2.42797-4.08425-3.39018-5.90859-1.42921-2.71032-2.75553-5.27243-3.97135-7.84584-3.23286.79335-4.74625,3.97135-4.2135,6.68349Zm2.08254-2.03411c.15699-.06853,2.20922-1.20783,4.06821.24216.92575.72207.93522,2.95727.48431,4.31037-1.1192-1.08733-3.43332-3.46519-4.55252-4.55252Z"/>
        <path class="cls-25" d="m55.80818,70.14843c-2.40206-.47379-4.75292-1.25651-8.28172-3.53547-7.29284-4.70676-10.34041-10.61619-11.11633-13.05962l-.16811,7.44162c.83369,1.32745,2.04471,3.34793,3.39018,4.60095,5.94325,5.54474,12.66782,4.79143,16.17598,4.55252"/>
        <path class="cls-17" d="m24.54145,51.54051c3.42477,6.42039,9.6937,13.45924,9.88304,13.71167,0,0,.87932.08834,1.06444.10939v1.59454s.21037-16.37068.21037-16.37068c-3.25647.14725-6.11745-2.12472-6.69385-5.20867-.61849-3.28174,1.51042-6.60975,4.88891-7.43858,1.2706,2.68849,2.65061,5.45689,4.14421,8.28842,1.30429,2.47396,2.62116,4.85106,3.93387,7.12303.03364-3.82866.07152-7.65311.10518-11.48176,1.87645-1.55674,3.75714-3.11764,5.63359-4.67439-.10939-.10518-.22719-.22716-.34919-.35761-.10939-.11355-.21879-.22716-.32818-.34919-.01261-.01263-.02524-.02527-.03367-.0379-.07573-.07991-.15146-.16404-.22719-.24817-.00421-.00421-.00842-.01263-.01682-.02106-.01263-.01263-.02106-.02948-.03788-.04633-.09255-.10518-.27767-.31976-.46701-.55113-.18091-.22295-.35343-.44595-.51749-.66474-.13885-.18515-.2777-.37446-.41234-.56803-.03367-.04622-.06309-.09255-.09676-.13882-.05891-.08834-.11782-.17251-.17251-.25243-.13461-.20194-.24401-.36604-.31555-.48385-1.28744-2.04054-2.01951-3.96332-2.44864-5.42325.11358.05891.22719.11361.33658.1683-3.29435-3.55522-8.1412-7.64473-14.78456-10.40472-1.80915-.75313-3.56781-1.32953-5.24234-1.76711-2.09524,4.48503-2.31822,9.41605-2.5244,13.91788-.14303,3.24383-.44598,12.3695,4.46818,21.57519Z"/>
        <path class="cls-11" d="m47.71121,37.19348c-.11358-.11361-.2314-.23137-.34919-.35761.122.13045.2398.25243.34919.35761Z"/>
        <path class="cls-11" d="m47.00017,36.44877c-.09255-.10097-.18931-.20615-.28188-.31555.02945.0379.05049.05896.0547.06738.07573.08413.15146.16825.22719.24817Z"/>
        <path class="cls-3" d="m42.62456,28.21927c8.12435,4.10215,14.74668,6.05014,19.22328,7.05991,1.93536.43753,3.38268.67737,5.20867.53013,3.74451-.29876,7.27446-2.09108,9.99659-4.5313,1.77972-1.58617,3.21441-3.45004,4.14002-5.35176,3.70244-7.62363.54695-18.59216-8.61239-25.29862-.95928.74892-2.53703,1.83018-4.67436,2.65901-5.14134,1.9859-8.65448.60167-16.26131.31976-4.78373-.18094-8.75545-.32813-13.50133.95507-2.73055.74049-8.15802,2.20885-12.32747,6.69809-1.40105,1.50621-2.44025,3.11338-3.21862,4.78789"/>
        <path class="cls-14" d="m56.12587,69.81292c-.20616-.03787-.35342-.07573-.44177-.09677"/>
        <path class="cls-14" d="m77.05313,31.278c0-.04628-.00421-.09256-.00421-.14305"/>
        <path class="cls-9" d="m68.75627,42.08244c0,1.87645.85829,3.3995,1.91433,3.3995s1.91014-1.52305,1.91014-3.3995-.8541-3.39955-1.91014-3.39955-1.91433,1.52305-1.91433,3.39955Z"/>
        <path class="cls-9" d="m54.67436,41.71214c0,1.8765.85407,3.39955,1.91012,3.39955,1.06025,0,1.91433-1.52305,1.91433-3.39955,0-1.88066-.85407-3.40371-1.91433-3.40371-1.05604,0-1.91012,1.52305-1.91012,3.40371Z"/>
        <path class="cls-11" d="m64.41431,63.58187c.68159-.01683,1.17384-.0589,1.38842-.07994.97189-.08835,1.79653-.23982,2.44867-.38287"/>
        <path class="cls-11" d="m52.00269,54.72965v.08415"/>
        <path class="cls-5" d="m52.293,57.16565l14.99071.45021,1.83018.0547.38709-2.54961-17.49829-.30713c-.00842.45853-.05891,1.29163.29031,2.35183Z"/>
        <line class="cls-11" x1="71.49524" y1="55.15459" x2="69.50097" y2="55.12093"/>
        <line class="cls-11" x1="52.00269" y1="54.8138" x2="51.76287" y2="54.80959"/>
        <line class="cls-11" x1="69.1139" y1="57.67057" x2="69.10127" y2="57.75893"/>
        <line class="cls-11" x1="69.52621" y1="54.94423" x2="69.50097" y2="55.12093"/>
        <line class="cls-11" x1="69.34109" y1="57.67899" x2="69.1139" y2="57.67057"/>
        <line class="cls-11" x1="52.293" y1="57.1657" x2="52.16257" y2="57.16149"/>
        <path class="cls-2" d="m52.293,57.16565c.37025,1.115,1.17805,2.48239,2.94513,3.92126,1.62402,1.32532,3.31959,1.87645,3.68141,1.99427,1.61563.33661,3.00404.45864,4.04324.49649.54276.02101,1.0308.01679,1.45153.00416l2.8694-5.96596-14.99071-.45021Z"/>
        <line class="cls-14" x1="64.41431" y1="63.58187" x2="64.39748" y2="63.61974"/>
        <line class="cls-11" x1="67.34682" y1="57.48125" x2="67.28371" y2="57.61588"/>
      </g>
      <g>
        <g>
          <path class="cls-15" d="m93.71514,94.42835c-.0061-.00019-.01184-.00093-.01795-.00113-.49884.2308-1.07954.36795-1.74142.38421-.25908.06892-.52204.11767-.78228.1803-.20557.06537-.42332.1151-.65198.15031-2.46355.5466-4.97078.86943-7.48424,1.21237-.38254.17372-.81257.29278-1.29009.34529-.362.08683-.75276.13599-1.1803.12951-.02419-.00037-.04632-.00371-.07039-.00438-.46818.2562-.47906.16091-1.0156.23887-.34728,1.64826-.54669,5.65193-2.39889,11.38536-1.50215,4.6498-4.7371,9.85137-7.06387,12.14533-.16008-.00654-.32729-.015-.4886-.02186.78524,1.49504,1.55896,2.98479,2.17761,4.49557,2.75294,1.92269,7.28517,3.20472,9.9677,3.66829,3.77366-4.57538,8.1215-11.31149,10.43875-20.19209,1.3999-5.365,1.70961-10.18897,1.60156-14.11597Z"/>
          <g>
            <g>
              <path class="cls-7" d="m15.08534,144.73192c20.64335.13936,41.28673.27868,61.93011.41803.17439-5.0244.28706-10.59058.28359-16.62759-.00326-5.68849-.10955-11.52043-.33464-17.48814-.25057-6.64356-.6349-13.09767-1.12909-19.35266-.2579-2.91712-.51577-5.83422-.77368-8.75134.66508,2.89725,1.33015,5.79449,1.99523,8.69174.59328,3.0289,1.18657,6.05779,1.77985,9.0867,4.89849-1.38591,9.79694-2.77181,14.69546-4.1577.9781-7.68215-1.27103-12.8801-2.40949-16.03965-1.74224-4.83527-3.07702-8.21531-7.23015-11.06092-1.63451-1.1199-6.31383-2.65858-9.91248-1.64365-2.61806.73839-5.95673,1.47697-8.4978,2.43402-2.25039.26456-4.50079.52911-6.75118.79366-1.69549,4.43113-5.61666,7.35794-9.23478,7.99081-15.09532.12639-13.83511-9.91805-13.83511-9.91805,0,0-1.91881-.02397-4.59205-.52404-2.91521-.54534-4.93764-1.0297-7.67697-2.16635-3.55861-.62567-4.98863-1.11136-8.53861-.30294-2.70069.61502-3.63497,1.03746-4.55356,2.09558-6.0847,7.00885-9.21334,23.75267-9.66283,26.23619,5.60914.98106,11.21828,1.96212,16.82739,2.94317,1.82901-4.91693,3.65802-9.83389,5.487-14.75083-1.85757,7.21743-4.60837,18.79167-6.67332,31.95626-1.06723,6.80383-1.47398,10.98972-1.66536,13.76982-.04432.64385-.33268,2.75201-.50244,5.93528-.03467.65012.00463,3.70839.02088,3.9826.15341,2.59081.4238,4.53628.95403,6.45001Z"/>
              <path class="cls-4" d="m31.06911,68.58313c.3364,1.14384-.08975,11.374,10.62975,14.35867,4.32624,1.20457,8.52305,1.6923,14.71413-.84442,7.39887-3.0316,8.17621-11.1251,8.15262-11.64577"/>
              <path class="cls-21" d="m54.34444,144.60101c-13.04552-.09266-26.09126-.17488-39.13678-.26761-.53999-1.91028-.80571-3.85842-.95975-6.44595-.01621-.27349-.05113-3.33205-.01571-3.98306.16456-3.18171.44893-5.28968.49529-5.94052.19976-2.77125.60388-6.9582,1.66395-13.76234,2.00375-12.74832,4.6437-24.00528,6.50054-31.25974,3.31217,1.65803,11.29341,6.51853,12.84981,10.56703.63286,1.64897.66132,2.91047.71654,4.99204.35007,11.57553.68837,16.87709,1.42298,21.52265.92783,5.87795,1.97747,7.47018,2.52001,8.20352,2.7131,3.64565,6.96979,2.48068,10.45652,5.73872,1.5771,1.47413,3.08404,5.79512,3.4866,10.63526Z"/>
            </g>
            <path class="cls-8" d="m1.40918,91.23797c1.47238-.31348,5.31976.05505,7.45716.40449,5.36951.87787,7.6326,1.41564,9.54946,2.57941"/>
            <path class="cls-13" d="m78.19251,97.2973c1.08067-1.01854,4.533-2.33727,6.52752-2.90628,5.01056-1.42945,7.21115-1.84223,9.44987-1.39112"/>
            <path class="cls-19" d="m22.24604,83.07598c2.88704,1.34726,11.72881,6.54731,13.37388,10.83051.63273,1.64743.66386,2.90588.72525,4.98887.34124,11.57816.68161,16.8746,1.41778,21.52586.93021,5.87723,1.97656,7.46547,2.52348,8.20197,2.70745,3.64594,6.9664,2.47829,10.44915,5.73362,1.60437,1.49961,3.12023,5.90905,3.50549,10.80534"/>
          </g>
          <path class="cls-16" d="m76.89088,128.75613c-.07295-.40107-.20155-.75072-.34299-1.04352-.76834-.33535-1.80108-.89408-2.75806-1.80701-2.07141-1.97608-2.38173-4.27023-2.44594-5.12494-13.57496.10565-31.17164,1.00988-44.7466,1.11557-2.51296-2.36735-5.91806-7.66962-7.40061-12.36464-1.82813-5.78925-1.8755-9.79666-2.19295-11.455-.59939-.09517-.61585-.00029-1.13057-.2714-.02702-.0001-.05204.00253-.0793.00212-.48061-.0073-.91747-.069-1.32036-.16742-.53416-.06785-1.01211-.20069-1.43423-.38661-2.89484-.42296-5.09154-.79515-6.12702-.99079-.12569-.02375-1.35226-.2555-2.22829-.46172-.24197-.05696-.48451-.11207-.72585-.17121-.28966-.07098-.58297-.12814-.87101-.20536-.74287-.03756-1.38931-.1933-1.93954-.44001-.00688-.00002-.01333.00054-.02021.00054-.29468,3.9209-.15951,8.75161,1.17657,14.1581,3.16467,12.80519,11.19856,21.37261,15.51724,25.3631,16.58022-1.33691,33.70464-2.21718,51.34567-2.5442,2.36026-.04374,4.71087-.07724,7.05179-.10075.32791-.52641.93021-1.68614.67227-3.10485Z"/>
          <g>
            <path class="cls-12" d="m83.41935,110.24573c1.40201,3.12038,1.56002,3.49974,2.07502,5.43085,1.6669,6.25009,1.05021,8.90256.51339,10.39116-.51342,1.42367-.95961,2.60162-2.25618,3.28849-2.78203,1.47381-7.2539-.49205-9.67749-2.22341-3.09211-2.2089-4.2725-5.05204-5.41689-8.38887-3.22552-9.40491-4.30082-17.29567-5.77932-26.04612-.63044-3.73103-1.15797-8.85053-1.49696-10.65083,1.15464-.16377,2.28952-.57108,3.98516-1.25997,2.04281-.82993,3.86164-1.99078,4.78897-2.76036,3.87596,8.45201,9.38836,23.76704,13.26432,32.21905"/>
            <path class="cls-12" d="m70.15503,78.02668c-.28078-1.36603-.40218-3.23769-.64376-4.67306-.12771-.75893-.1554-1.38353-.26572-2.12619,0-.0001-.05314-1.03837-.15943-2.96678l-.10629-1.58228s-.02585-.77919-.05314-.79114c-.11437-.05-2.27311,2.41562-3.61376,3.11511-1.2176.63529-3.33177,1.33402-4.25149,1.3845-.94512.0519-2.09026.1389-8.18522-2.40849-2.69216-1.12519-5.8424-2.5287-5.84246-2.5287-.07036-.00558-1.10972-.07643-1.52859.44408-.43805.54435-.12468,1.64491,1.10798,2.24926,3.45519,1.40222,6.91044,2.80443,10.36564,4.20665-1.50123-.87865-2.80402-1.09221-3.26779-.67253-.3003.27174-.20306.76756-.08233,1.03711.33659.75171,1.51928,1.22536,2.95459,1.07613.23052-.00594.42603-.01702.42719-.03848.00435-.08227-2.83035-.60243-3.28396.10599-.24832.38778.26494,1.06852.76069,1.41329.87345.60748,1.96514.36148,2.08349.33302.21846-.05579.46947-.12308.46492-.13865-.0125-.04264-2.00868.05519-2.3248.74352-.19463.42376.2809.9925,1.29777,1.88869.99454.87653,3.33781,2.78749,5.37237,3.94926,1.08915-.0445,2.26291-.37868,4.09399-1.06712,2.54122-.95548,3.91876-2.14544,4.68014-2.95321Z"/>
          </g>
          <path class="cls-26" d="m17.4314,133.50413c-4.61085-4.39437-11.20782-12.09667-14.30157-23.03938-1.52618-5.36749-1.75867-10.13816-1.60309-14.06917.0115-.00032.00665-.82379.01815-.8241.08151.02904.31824,2.9646.3994,2.98326.31377,1.80848,1.97692,9.66237,2.63242,11.35616,2.12409,5.48854,6.41564,14.45108,9.69458,19.2346.8069,1.17715,1.99582,2.5737,3.1601,4.35864Z"/>
          <path class="cls-25" d="m59.76838,121.42198c-7.64616,2.3696-21.93809,4.16501-33.10262.89771,10.01473-.09391,22.08757-.59501,33.10262-.89771Z"/>
          <path class="cls-25" d="m25.23671,121.82745c-2.33412-1.21086-5.55384-4.34851-8.60075-9.07725-3.90933-6.05441-3.19646-11.88965-2.50654-14.70803.37938.09391.79329.14609,1.25324.15654h.08049c.51742.27142.52893.16705,1.12678.27142.32198,1.64933.36794,5.65773,2.19615,11.45124,1.41422,4.47816,4.77736,9.58209,7.24944,12.08739-.01151,0,.41091.32964.3994.32964-.62086-.19834-.6118-.20825-1.19821-.51094Z"/>
        </g>
        <path class="cls-26" d="m77.76718,128.60983c-.95435-.44885-2.67541-1.31199-3.37676-1.81303-3.09295-2.21299-4.30804-5.13141-5.44639-8.47179-3.23092-9.40518-4.04731-16.5585-5.51901-25.31649-.63237-3.72661-1.19158-8.78608-1.52499-10.5815.43693-.06263,1.12622-.19393,1.59761-.32964.67841,7.92297,1.6787,19.82798,5.34654,30.63196,2.38008,7.03564,3.89417,10.77929,8.92301,15.88049Z"/>
        <path class="cls-25" d="m85.41936,126.34354c-.24148.64719-.56044,1.1166-.85933,1.63853-1.39128-6.48243-3.23099-13.50762-5.66855-20.93994-3.46082-10.53263-7.08689-18.89797-10.9732-26.71658.78185-.46969,1.6575-1.14051,2.10594-1.51635,3.8748,8.45535,8.90607,22.64032,12.78087,31.08522,1.40279,3.12115,1.73375,4.16725,2.25118,6.09837,1.66722,6.24236.89202,8.85803.36309,10.35075Z"/>
        <path class="cls-20" d="m92.86277,96.18132c-.00705.10393-1.34344.49446-2.61427.79114-2.46058.55328-4.45333,1.50156-6.97138,1.84599-.37938.16705-.86048.27746-1.34344.32964"/>
      </g>
      <g>
        <g>
          <polygon class="cls-24" points="20.38273 144.95624 17.82596 209.35302 14.57543 209.39615 16.46545 144.94049 20.38273 144.95624"/>
          <polygon class="cls-24" points="78.11541 208.61957 75.80141 208.65841 71.92028 145.07966 76.34545 145.10074 78.11541 208.61957"/>
          <polygon class="cls-22" points="71.06728 208.65841 65.42541 208.84144 52.84545 159.73239 46.78546 159.73239 33.46545 209.13726 26.82425 209.22071 37.91033 144.9967 59.31967 145.05476 71.06728 208.65841"/>
          <polygon class="cls-22" points="65.42541 208.84144 63.46545 208.87845 59.92541 208.94007 47.92541 164.56438 36.55542 209.08798 33.46545 209.13726 46.78546 159.73239 52.84545 159.73239 65.42541 208.84144"/>
          <polygon class="cls-23" points="39.90545 145.00211 28.55542 209.19895 16.43542 209.37147 19.53546 144.95283 39.90545 145.00211"/>
          <polygon class="cls-23" points="76.64544 208.64424 70.15545 208.75514 58.07543 145.05139 73.75543 145.08841 76.64544 208.64424"/>
        </g>
        <polygon class="cls-10" points="59.86053 209.16801 78.05 208.8566 76.28158 145.32931 16.4079 145.1736 14.51316 209.63512 36.49211 209.32372 47.86053 164.79233 59.86053 209.16801"/>
        <polyline class="cls-10" points="33.40474 209.37043 46.72474 159.9655 52.78474 159.9655 65.36474 209.07459"/>
        <line class="cls-1" x1="63.40474" y1="209.11157" x2="51.65474" y2="162.92388"/>
      </g>
    </g>
  </g>
</svg>