<?xml version="1.0" encoding="utf-8"?>
<!-- Generator: Adobe Illustrator 27.1.1, SVG Export Plug-In . SVG Version: 6.00 Build 0)  -->
<svg version="1.1" id="Layer_2_00000165954930190467079980000005525424125351757191_"
	 xmlns="http://www.w3.org/2000/svg" xmlns:xlink="http://www.w3.org/1999/xlink" x="0px" y="0px" viewBox="0 0 146.9 224.6"
	 style="enable-background:new 0 0 146.9 224.6;" xml:space="preserve">
<style type="text/css">
	.st0{fill:#E0AE84;stroke:#4E381A;stroke-width:1.0013;stroke-miterlimit:10;}
	.st1{fill:none;stroke:#4E381A;stroke-width:1.0013;stroke-miterlimit:10;}
	.st2{fill:#7E594E;stroke:#4E381A;stroke-width:1.0013;stroke-miterlimit:10;}
	.st3{fill:none;stroke:#4E381A;stroke-width:0.4207;stroke-miterlimit:10;}
	.st4{fill:#4E381A;stroke:#4E381A;stroke-width:1.0013;stroke-miterlimit:10;}
	.st5{fill:#F0EFEF;stroke:#4E381A;stroke-width:1.0013;stroke-miterlimit:10;}
	.st6{fill:#AB6670;stroke:#4E381A;stroke-width:1.0013;stroke-miterlimit:10;}
	.st7{fill:#CA9B71;}
	.st8{fill:#5F4F4B;stroke:#4E381A;stroke-width:1.0013;stroke-miterlimit:10;}
	.st9{fill:#4E381A;stroke:#4E381A;stroke-miterlimit:10;}
	.st10{fill:#948063;}
	.st11{fill:#796245;}
	.st12{fill:#81684B;}
	.st13{fill:none;stroke:#4E381A;stroke-width:1.1493;stroke-miterlimit:10;}
	.st14{fill:none;stroke:#4E381A;stroke-width:1.1493;stroke-miterlimit:10;stroke-dasharray:0,2.2986;}
	.st15{fill:#E0AE84;}
	.st16{fill:#D4A57D;}
	.st17{fill:#EAC4A0;}
	.st18{fill:none;stroke:#4E381A;stroke-width:0.9074;stroke-miterlimit:10;}
	.st19{fill:none;stroke:#4E381A;stroke-width:0.9309;stroke-miterlimit:10;}
	.st20{fill:#AD89AC;stroke:#4E381A;stroke-width:1.0452;stroke-miterlimit:10;}
	.st21{fill:none;stroke:#4E381A;stroke-width:1.0452;stroke-miterlimit:10;}
	.st22{fill:#9E8098;}
	.st23{fill:none;stroke:#4E381A;stroke-width:0.9351;stroke-miterlimit:10;}
	.st24{fill:none;stroke:#4E381A;stroke-width:1.0226;stroke-miterlimit:10;}
	.st25{fill:none;}
</style>
<g id="Layer_1-2_00000167367053703457945030000009064844705958829992_">
	<g>
		<g>
			<path class="st0" d="M64.6,86.2c1.1,4.3,5.9,8.3,10,8.7c4.7,0.4,9.3-2.8,10.7-7.6c0.1-0.8,0-1.5-0.1-2v-0.1c-2.4-0.5-6-1.6-9.6-4
				c-7.4-5.1-10-12.5-10.8-15.1l-0.2,16.3V86.2"/>
			<path class="st1" d="M76.8,52.7c-0.1-0.1-0.2-0.2-0.3-0.4C76.6,52.5,76.7,52.6,76.8,52.7z"/>
			<path class="st1" d="M76.1,51.9c-0.1-0.1-0.2-0.2-0.3-0.3l0.1,0.1C76,51.8,76,51.9,76.1,51.9z"/>
			<path class="st2" d="M71.7,43.7c8.1,4.1,14.7,6.1,19.2,7.1c1.9,0.4,3.4,0.7,5.2,0.5c3.7-0.3,7.3-2.1,10-4.5
				c1.8-1.6,3.2-3.5,4.1-5.4c3.7-7.6,0.5-18.6-8.6-25.3c-1,0.7-2.5,1.8-4.7,2.7c-5.1,2-8.7,0.6-16.3,0.3c-4.8-0.2-8.8-0.3-13.5,1
				c-2.7,0.7-8.2,2.2-12.3,6.7c-1.4,1.5-2.4,3.1-3.2,4.8"/>
			<path class="st0" d="M58.1,60.9c0.6,3.1,3.4,5.4,6.7,5.2c0.8,2.6,3.4,10,10.8,15.1c3.6,2.4,7.1,3.5,9.6,4v0.1
				c1.7,0.3,7.5,0.9,14.8-5.9c7.4-7,6.7-16.4,6.6-17.5c-0.2-6-0.2-9.1-0.4-15.1c-2.7,2.4-6.3,4.2-10,4.5c-1.8,0.1-3.3-0.1-5.2-0.5
				c-4.5-1-11.1-3-19.2-7.1c-0.1-0.1-0.2-0.1-0.3-0.2c0.4,1.5,1.2,3.4,2.4,5.4c0.1,0.1,0.2,0.3,0.3,0.5c0.1,0.1,0.1,0.2,0.2,0.3
				l0.1,0.1c0.1,0.2,0.3,0.4,0.4,0.6c0.2,0.2,0.3,0.4,0.5,0.7c0.2,0.2,0.4,0.4,0.5,0.6l0,0l0,0c0.1,0.1,0.2,0.2,0.2,0.2l0,0
				c0.1,0.1,0.2,0.2,0.3,0.3c0.1,0.1,0.2,0.3,0.3,0.4c-1.9,1.6-3.8,3.1-5.6,4.7c0,3.8-0.1,7.7-0.1,11.5c-1.3-2.3-2.6-4.6-3.9-7.1
				c-1.5-2.8-2.9-5.6-4.1-8.3C59.6,54.3,57.5,57.6,58.1,60.9L58.1,60.9z M64.8,62.4c-1.2-1.1-2.3-2.3-3.5-3.4c0.2-0.1,1.3-0.5,2.3,0
				c0.1,0.1,0.2,0.1,0.3,0.2l0,0c0.1,0.1,0.2,0.1,0.2,0.2l0.1,0.1l0.1,0.1c0.2,0.2,0.3,0.4,0.4,0.7v0.1c0.1,0.2,0.1,0.4,0.1,0.6v0.1
				c0,0.2,0,0.3,0,0.5c0,0.1,0,0.1,0,0.2c0,0.1,0,0.2,0,0.3s0,0.1-0.1,0.2l0,0C64.8,62.3,64.8,62.3,64.8,62.4L64.8,62.4z M87.6,57.2
				c0,1.9-0.9,3.4-1.9,3.4c-1.1,0-1.9-1.5-1.9-3.4s0.9-3.4,1.9-3.4S87.6,55.3,87.6,57.2z M99.8,61c-1.1,0-1.9-1.5-1.9-3.4
				s0.9-3.4,1.9-3.4s1.9,1.5,1.9,3.4S100.8,61,99.8,61z M98,65.9c-0.8,0.5-2.3,1.2-4.6,1.4c2.4-0.7,3.9-1.6,3.8-2.3
				c0-0.2-0.2-0.5-0.9-0.8c-0.6-0.5-1.3-1.1-1.8-2c-1.5-2.4-1.3-4.8-1.1-5.7c0.3,2.7,1.3,4.2,2.3,5.1c1.6,1.5,3.7,2.2,3.6,3.2
				C99.1,65.2,98.6,65.5,98,65.9z M93.5,79.1c-0.4,0-0.9,0-1.5,0c-1,0-2.4-0.2-4-0.5c-0.4-0.1-2.1-0.7-3.7-2
				c-1.8-1.4-2.6-2.8-2.9-3.9s-0.3-1.9-0.3-2.4l17.5,0.3l-0.4,2.5L96.4,73L93.5,79.1L93.5,79.1z"/>
			<path class="st3" d="M85.2,85.3c-0.2,0-0.4-0.1-0.4-0.1"/>
			<path class="st3" d="M106.2,46.8L106.2,46.8"/>
			<path class="st4" d="M61.3,58.9c1.2,1.1,2.3,2.3,3.5,3.4c0.5-1.4-0.1-2.8-1.2-3.4C62.6,58.4,61.5,58.9,61.3,58.9z"/>
			<path class="st4" d="M97.9,57.6c0,1.9,0.9,3.4,1.9,3.4s1.9-1.5,1.9-3.4s-0.9-3.4-1.9-3.4S97.9,55.7,97.9,57.6z"/>
			<path class="st4" d="M83.8,57.2c0,1.9,0.9,3.4,1.9,3.4c1.1,0,1.9-1.5,1.9-3.4s-0.9-3.4-1.9-3.4C84.6,53.8,83.8,55.3,83.8,57.2z"
				/>
			<path class="st4" d="M93.4,67.2c2.3-0.2,3.8-0.9,4.6-1.4c0.6-0.4,1.1-0.7,1.1-1.1c0.2-1.1-2-1.7-3.6-3.2c-1-0.9-2-2.5-2.3-5.1
				c-0.2,0.9-0.4,3.3,1.1,5.7c0.6,0.9,1.3,1.6,1.8,2c0.8,0.3,0.9,0.6,0.9,0.8C97.3,65.7,95.8,66.6,93.4,67.2z"/>
			<path class="st1" d="M93.5,79.1c0.7,0,1.2-0.1,1.4-0.1c1-0.1,1.8-0.2,2.4-0.4"/>
			<path class="st1" d="M81.1,70.2L81.1,70.2"/>
			<path class="st5" d="M81.4,72.7l15,0.5l1.8,0.1l0.4-2.5l-17.5-0.3C81.1,70.8,81,71.6,81.4,72.7z"/>
			<line class="st1" x1="100.6" y1="70.6" x2="98.6" y2="70.6"/>
			<line class="st1" x1="81.1" y1="70.3" x2="80.9" y2="70.3"/>
			<line class="st1" x1="98.2" y1="73.2" x2="98.2" y2="73.3"/>
			<line class="st1" x1="98.6" y1="70.4" x2="98.6" y2="70.6"/>
			<line class="st1" x1="98.4" y1="73.2" x2="98.2" y2="73.2"/>
			<line class="st1" x1="81.4" y1="72.7" x2="81.3" y2="72.7"/>
			<path class="st6" d="M81.4,72.7c0.4,1.1,1.2,2.5,2.9,3.9c1.6,1.3,3.3,1.9,3.7,2c1.6,0.3,3,0.5,4,0.5c0.5,0,1,0,1.5,0l2.9-6
				L81.4,72.7L81.4,72.7z"/>
			<line class="st3" x1="93.5" y1="79.1" x2="93.5" y2="79.1"/>
			<line class="st1" x1="96.5" y1="73" x2="96.4" y2="73.1"/>
			<path class="st7" d="M58.5,60.8c0.4,1.9,1.8,3.4,3.5,4.3c0.9,0.4,2.2,0.6,3.2,0.5c0.8,2.5,3.1,10,10.3,14.9
				c3.4,2.3,4.3,2.7,6.8,3.5c0,0,1.4,0.4,1.4,0.5c0.3,0.1,1.3,0.4,1.8,0.4l1.8,0.1c1.6,0.1,3.3-0.2,6.4-1.7
				c-3,0.3-12.7,0.5-18.1-6.3c-2.3-2.9-3.5-5.1-4.2-6.4L69.9,68c-1-1.7-2.4-4.1-3.4-5.9c-1.4-2.7-2.8-5.3-4-7.8
				C59.4,54.9,57.9,58.1,58.5,60.8L58.5,60.8z M60.5,58.8c0.2-0.1,2.2-1.2,4.1,0.2c0.9,0.7,0.9,3,0.5,4.3
				C64,62.3,61.7,59.9,60.5,58.8L60.5,58.8z"/>
			<path class="st7" d="M84.7,85.6c-2.4-0.5-4.8-1.3-8.3-3.5C69.1,77.4,66.1,71.5,65.3,69l-0.2,7.4c0.8,1.3,2,3.3,3.4,4.6
				C74.5,86.6,81.2,85.8,84.7,85.6"/>
			<path class="st8" d="M53.5,67c3.4,6.4,9.7,13.5,9.9,13.7c0,0,0.9,0.1,1.1,0.1v1.6L64.6,66c-3.3,0.1-6.1-2.1-6.7-5.2
				c-0.6-3.3,1.5-6.6,4.9-7.4c1.3,2.7,2.7,5.5,4.1,8.3c1.3,2.5,2.6,4.9,3.9,7.1c0-3.8,0.1-7.7,0.1-11.5c1.9-1.6,3.8-3.1,5.6-4.7
				c-0.1-0.1-0.2-0.2-0.3-0.4c-0.1-0.1-0.2-0.2-0.3-0.3l0,0c-0.1-0.1-0.2-0.2-0.2-0.2l0,0l0,0c-0.1-0.1-0.3-0.3-0.5-0.6
				c-0.2-0.2-0.4-0.4-0.5-0.7c-0.1-0.2-0.3-0.4-0.4-0.6l-0.1-0.1c-0.1-0.1-0.1-0.2-0.2-0.3c-0.1-0.2-0.2-0.4-0.3-0.5
				c-1.3-2-2-4-2.4-5.4c0.1,0.1,0.2,0.1,0.3,0.2c-3.3-3.6-8.1-7.6-14.8-10.4c-1.8-0.8-3.6-1.3-5.2-1.8c-2.1,4.5-2.3,9.4-2.5,13.9
				C48.9,48.7,48.6,57.8,53.5,67L53.5,67z"/>
			<path class="st1" d="M76.6,52.6c-0.1-0.1-0.2-0.2-0.3-0.4C76.4,52.4,76.5,52.5,76.6,52.6z"/>
			<path class="st1" d="M75.9,51.9c-0.1-0.1-0.2-0.2-0.3-0.3l0.1,0.1C75.8,51.7,75.8,51.8,75.9,51.9z"/>
			<path class="st2" d="M71.5,43.7c8.1,4.1,14.7,6.1,19.2,7.1c1.9,0.4,3.4,0.7,5.2,0.5c3.7-0.3,7.3-2.1,10-4.5
				c1.8-1.6,3.2-3.5,4.1-5.4c3.7-7.6,0.5-18.6-8.6-25.3c-1,0.7-2.5,1.8-4.7,2.7c-5.1,2-8.7,0.6-16.3,0.3c-4.8-0.2-8.8-0.3-13.5,1
				c-2.7,0.7-8.2,2.2-12.3,6.7c-1.4,1.5-2.4,3.1-3.2,4.8"/>
			<path class="st3" d="M85,85.3c-0.2,0-0.4-0.1-0.4-0.1"/>
			<path class="st3" d="M106,46.7L106,46.7"/>
			<path class="st9" d="M97.7,57.5c0,1.9,0.9,3.4,1.9,3.4s1.9-1.5,1.9-3.4s-0.9-3.4-1.9-3.4S97.7,55.7,97.7,57.5z"/>
			<path class="st9" d="M83.6,57.2c0,1.9,0.9,3.4,1.9,3.4c1.1,0,1.9-1.5,1.9-3.4s-0.9-3.4-1.9-3.4S83.6,55.3,83.6,57.2z"/>
			<path class="st1" d="M93.3,79c0.7,0,1.2-0.1,1.4-0.1c1-0.1,1.8-0.2,2.4-0.4"/>
			<path class="st1" d="M80.9,70.2L80.9,70.2"/>
			<path class="st5" d="M81.2,72.6l15,0.5l1.8,0.1l0.4-2.5l-17.5-0.3C80.9,70.7,80.9,71.6,81.2,72.6z"/>
			<line class="st1" x1="100.4" y1="70.6" x2="98.4" y2="70.6"/>
			<line class="st1" x1="80.9" y1="70.3" x2="80.7" y2="70.3"/>
			<line class="st1" x1="98" y1="73.1" x2="98" y2="73.2"/>
			<line class="st1" x1="98.4" y1="70.4" x2="98.4" y2="70.6"/>
			<line class="st1" x1="98.3" y1="73.1" x2="98" y2="73.1"/>
			<line class="st1" x1="81.2" y1="72.6" x2="81.1" y2="72.6"/>
			<path class="st6" d="M81.2,72.6c0.4,1.1,1.2,2.5,2.9,3.9c1.6,1.3,3.3,1.9,3.7,2c1.6,0.3,3,0.5,4,0.5c0.5,0,1,0,1.5,0l2.9-6
				L81.2,72.6L81.2,72.6z"/>
			<line class="st3" x1="93.3" y1="79" x2="93.3" y2="79.1"/>
			<line class="st1" x1="96.3" y1="72.9" x2="96.2" y2="73.1"/>
		</g>
		<g>
			<g>
				<path class="st10" d="M42.3,224.9h1.8l3.4-67.2h-4.1l-1.8,67.3C41.8,224.9,42,224.9,42.3,224.9z"/>
				<path class="st10" d="M105,224.5l-1.8-66.6l-3.6-0.1l2.7,66.8C103.3,224.5,104.2,224.5,105,224.5z"/>
				<path class="st11" d="M96.8,224.5l-10.8-66.8H65.5l-10.5,67.1h5.8l12.9-51.4h6.1l12.2,51C93.6,224.4,95.2,224.5,96.8,224.5z"/>
				<path class="st11" d="M92,224.4l-12.2-51h-6.1l-12.9,51.4h3.1l11-46.2l11.6,46C88.3,224.4,90.1,224.4,92,224.4z"/>
				<polygon class="st12" points="55.7,224.9 66.9,157.7 46.5,157.6 43.4,224.9 				"/>
				<path class="st12" d="M99.9,224.6c0.2,0,0.4,0,0.5,0c1,0,2.1-0.1,3.1-0.1l-2.8-66.7L85,157.7l11,66.8
					C97.3,224.6,98.6,224.6,99.9,224.6z"/>
			</g>
			<polygon class="st13" points="86.2,224.1 104.9,224.1 103.2,158 43.4,157.8 41.8,224.6 63.9,224.6 74.8,178.9 			"/>
			<polyline class="st13" points="60.9,224.6 73.7,173.7 79.7,173.7 91.6,223.7 			"/>
			<path class="st14" d="M89.8,224c-3.8-15.7-7.7-31.3-11.2-47"/>
		</g>
		<g>
			<g>
				<g>
					<path class="st15" d="M109.4,144c-0.2,9.5,0.2,21-1.3,28.9c0.1-0.1,0.1-0.2,0.1-0.3c-0.9,2.8-1.5,6.1-2.4,8.9
						c0,0.4,0.3,0.7,0.8,0.9c0.4,0.1,0.9,0,1.2-0.2c1.1-2.8,2-6,3.1-8.9c-0.4,2.3-0.6,4.9-1,7.2c-0.3,0.4,0,0.9,0.5,1.1
						c0.4,0.1,1,0,1.2-0.3c0.6-2.5,1.1-5.5,1.8-8c-0.1,1.7-0.1,4-0.2,5.7c0,0.1,0,0.3,0.1,0.6c0,0.1,0.4,0.5,0.9,0.5
						c0.4,0,0.7-0.3,0.7-0.6c0.9-4.7,1.6-10.1,1.6-10.1c-0.2-1.1,0.3-5.1,1.3-12.7l0,0c-0.3-6.2,0.8-29.4,1.2-49.4
						c-0.3-1.6-0.6-3.1-0.9-4.3c-3.1-0.1-4.4-0.1-5.1-0.2c-0.4,0-0.8,0-1.1,0c-0.5,0-0.9,0-1.4,0C109.8,113.2,109.7,131.4,109.4,144
						L109.4,144z"/>
					<path class="st16" d="M100.2,171c-0.1,0.1-0.4,0.6-0.3,0.9c0,0.6,0.9,0.9,1.5,0.8c0.6-0.1,0.8-0.7,0.9-0.7
						c0-0.2,0.5-0.5,0.7-0.9c0.2-0.5,0.8-1.4,1.7-1.9c1-0.6,1.4-0.6,1.8-0.6c-0.1,1.1-0.4,2.1-0.5,3.1c-1.1,2.5-1.9,5.1-2.9,7.7
						c-0.1,0.4,0.2,0.8,0.7,1c0.4,0.1,0.9,0.1,1.2-0.1c1.3-2.3,2.3-5,3.6-7.3c1.4-7.8,1.5-18.1,1.8-27.8c0.3-7.9-0.5-26.8,0.6-42.5
						c-1.3,0-2.6-0.1-3.9-0.1c0.2,3.1,0.5,7.8,0.5,13.5c0,6.1-0.2,6.8-0.2,12.9c-0.1,11.5,0.8,13.4,0.4,21.4
						c-0.2,3.3-0.6,7.8-1.5,13.2c-1.4,1-2.5,2.1-3.2,3.4C102,168.5,100.8,169.6,100.2,171L100.2,171z"/>
					<path class="st17" d="M117.6,107.1c-0.1,20-1,43.2-0.5,49.4c0.2-1.2,0.3-2.5,0.5-4c0.8-5.4,0.9-5.3,1.2-8.3
						c0.7-6.4,0.3-11.7-0.2-15.2c0.5-4.3,0.6-9.3,0-14.9c-0.2-2.2-0.6-4.5-0.6-4.5C118,108.8,117.8,107.9,117.6,107.1z"/>
				</g>
				<path class="st18" d="M100,170.9c-0.1,0.1-0.4,0.6-0.3,0.9c0,0.6,0.9,0.9,1.5,0.8c0.6-0.1,0.8-0.7,0.9-0.7
					c0-0.2,0.5-0.5,0.7-0.9c0.2-0.5,0.8-1.4,1.7-1.9c1-0.6,1.4-0.6,1.8-0.6c-0.1,1.1-0.4,2.1-0.5,3.1c-1.1,2.5-1.9,5.1-2.9,7.7
					c-0.1,0.4,0.2,0.8,0.7,1c0.4,0.1,0.9,0.1,1.2-0.1c1-1.8,1.9-3.9,2.8-5.8c-0.6,2.3-1.2,4.8-1.9,7c0,0.4,0.3,0.7,0.8,0.9
					c0.4,0.1,0.9,0,1.2-0.2c1.1-2.8,2-6,3.1-8.9c-0.4,2.3-0.6,4.9-1,7.2c-0.3,0.4,0,0.9,0.5,1.1c0.4,0.1,1,0,1.2-0.3
					c0.6-2.5,1.1-5.5,1.8-8c-0.1,1.7-0.1,4-0.2,5.7c0,0.1,0,0.3,0.1,0.6c0,0.1,0.4,0.5,0.9,0.5c0.4,0,0.7-0.3,0.7-0.6
					c0.9-4.7,1.6-10.1,1.6-10.1c-0.2-1.1,0.3-5.1,1.3-12.7l0,0c0.2-1.2,0.3-2.5,0.5-4c0.7-5.4,0.9-5.4,1.2-8.3
					c0.7-6.4,0.4-11.7,0.1-15.2c0.5-4.3,0.7-9.3,0.2-14.9c-0.2-2.2-0.5-4.4-0.5-4.4c-0.1-0.9-0.3-1.7-0.4-2.6
					c-0.3-1.6-0.6-3.1-0.9-4.3c-3.1-0.1-4.4-0.1-5.1-0.2c-0.4,0-0.8,0-1.1,0c-0.5,0-0.9,0-1.4,0l0,0c-1.2,0-2.4-0.1-3.5-0.1
					c0.2,3.1,0.5,7.8,0.5,13.5c0,6.1-0.2,6.8-0.2,12.9c-0.1,11.5,0.8,13.4,0.4,21.4c-0.2,3.3-0.6,7.8-1.5,13.2
					c-1.4,1-2.5,2.1-3.2,3.4C101.8,168.3,100.6,169.4,100,170.9L100,170.9z"/>
			</g>
			<g>
				<g>
					<path class="st15" d="M38.6,145.7c-0.1,9.5-0.9,21,0.3,29c-0.1-0.1-0.1-0.2-0.1-0.3c0.8,2.8,1.4,6.1,2.2,8.9
						c0,0.4-0.3,0.7-0.8,0.9c-0.5,0.1-1,0-1.3-0.3c-1.1-2.9-1.9-6-3-8.9c0.4,2.3,0.4,4.9,0.8,7.2c0.3,0.4,0,0.9-0.5,1.1
						c-0.5,0.1-1,0-1.3-0.4c-0.5-2.5-1-5.5-1.6-8c0.1,1.7,0,4,0.1,5.7c0,0.1,0,0.3-0.2,0.6c0,0.1-0.4,0.5-0.9,0.5
						c-0.4,0-0.7-0.3-0.7-0.6c-0.8-4.7-1.3-10.2-1.3-10.2c0.2-1.1-0.2-5.1-1-12.8l0,0c0.6-6.2,0.2-29.4,0.4-49.4
						c0.4-1.6,0.7-3.1,1.1-4.3c3.2,0,4.6,0,5.3,0c0.4,0,0.8,0,1.2,0c0.5,0,1,0,1.5,0C39.2,114.8,38.7,133.1,38.6,145.7L38.6,145.7z"
						/>
					<path class="st16" d="M47.2,173c0.1,0.1,0.4,0.6,0.3,0.9c0,0.6-1,0.9-1.6,0.8c-0.6-0.1-0.9-0.7-0.9-0.7c0-0.2-0.5-0.5-0.7-0.9
						c-0.2-0.5-0.8-1.4-1.7-1.9c-1-0.6-1.5-0.6-1.9-0.6c0,1.1,0.4,2.1,0.4,3.2c1,2.6,1.8,5.2,2.8,7.7c0.1,0.4-0.3,0.8-0.8,0.9
						c-0.4,0.1-0.9,0.1-1.3-0.1c-1.3-2.3-2.2-5-3.5-7.4c-1.2-7.9-0.9-18.2-1-27.9c-0.1-7.9,1.4-26.8,0.8-42.5c1.4,0,2.7,0,4.1,0
						c-0.3,3.1-0.8,7.8-1,13.5c-0.3,6.1,0,6.8-0.2,12.9c-0.3,11.5-1.3,13.4-1.1,21.3c0.1,3.3,0.3,7.8,1.2,13.2
						c1.4,1.1,2.5,2.1,3.3,3.5C45.4,170.5,46.6,171.6,47.2,173z"/>
					<path class="st17" d="M30.8,108.6c-0.7,20-0.6,43.2-1.4,49.5c-0.1-1.2-0.3-2.6-0.4-4c-0.6-5.5-0.8-5.4-1-8.4
						c-0.5-6.4,0.2-11.7,0.8-15.2c-0.4-4.4-0.3-9.4,0.6-14.9c0.4-2.2,0.9-4.5,0.9-4.5C30.3,110.3,30.5,109.4,30.8,108.6L30.8,108.6z
						"/>
				</g>
				<path class="st19" d="M47.6,172.7c0.1,0.1,0.4,0.6,0.3,0.9c0,0.6-1,0.9-1.6,0.8c-0.6-0.1-0.9-0.7-0.9-0.7c0-0.2-0.5-0.5-0.7-0.9
					c-0.2-0.5-0.8-1.4-1.7-1.9c-1.1-0.6-1.5-0.6-1.9-0.6c0,1.1,0.4,2.1,0.4,3.2c1,2.6,1.8,5.2,2.8,7.7c0.1,0.4-0.3,0.8-0.8,0.9
					c-0.4,0.1-0.9,0.1-1.3-0.1c-1-1.8-1.8-3.9-2.7-5.8c0.6,2.4,1.1,4.8,1.7,7.1c0,0.4-0.3,0.7-0.8,0.9c-0.5,0.1-1,0-1.3-0.3
					c-1.1-2.9-1.9-6-3-8.9c0.4,2.3,0.4,4.9,0.8,7.2c0.3,0.4,0,0.9-0.5,1.1c-0.5,0.1-1,0-1.3-0.4c-0.6-2.5-1-5.5-1.6-8
					c0.1,1.7,0,4,0.1,5.7c0,0.1,0,0.3-0.2,0.6c0,0.1-0.4,0.5-0.9,0.5c-0.4,0-0.7-0.3-0.7-0.6c-0.8-4.7-1.3-10.2-1.3-10.2
					c0.2-1.1-0.2-5.1-1-12.8l0,0c-0.1-1.2-0.3-2.6-0.4-4c-0.6-5.5-0.8-5.4-1-8.4c-0.5-6.4,0-11.7,0.4-15.2
					c-0.4-4.4-0.4-9.4,0.3-14.9c0.3-2.2,0.7-4.4,0.7-4.4c0.2-0.9,0.3-1.7,0.5-2.5c0.4-1.6,0.7-3.1,1.1-4.3c3.3,0,4.7,0,5.4,0
					c0.4,0,0.8,0,1.2,0c0.5,0,1,0,1.5,0l0,0c1.2,0,2.5,0,3.7,0c-0.3,3.1-0.8,7.8-1,13.5c-0.3,6.1,0,6.8-0.2,12.9
					c-0.3,11.5-1.3,13.4-1.1,21.3c0.1,3.3,0.3,7.8,1.2,13.2c1.4,1.1,2.5,2.1,3.3,3.5C45.8,170.1,47,171.2,47.6,172.7L47.6,172.7z"/>
			</g>
			<g>
				<path class="st20" d="M43,158.1c20.6-0.2,41.2-0.3,61.9-0.5c0.1-4.8,0.1-10.1-0.1-15.8c-0.1-5.4-0.3-11-0.7-16.6
					c-0.4-6.3-0.9-12.5-1.5-18.4c-0.3-2.8-0.6-5.5-1-8.3c0.7,2.7,1.4,5.5,2.2,8.2c0.7,2.9,1.3,5.7,2,8.6c4.9-1.4,9.7-2.8,14.6-4.2
					c0.8-7.3-1.5-12.2-2.7-15.2c-1.8-4.6-3.2-7.8-7.5-10.4c-1.7-1-6.4-2.4-9.9-1.4c-2.6,0.7-5.9,1.5-8.4,2.4
					c-2.2,0.3-4.5,0.6-6.7,0.9c-1,3.8-4,6.7-7.6,7.4c-5,0.9-10.8-2.7-12-8.6c-2.5,0.2-5.6-0.9-8.1-0.7c-2.8-1-5-0.9-7.7-2
					c-3.6-0.5-5-1-8.5-0.2c-2.7,0.6-3.6,1-4.5,2.1c-5.9,6.8-8.7,22.7-9.1,25.1l16.9,2.6c1.7-4.7,3.5-9.4,5.2-14.1
					c-1.7,6.9-4.2,17.9-6,30.5c-0.9,6.5-1.2,10.5-1.4,13.1c0,0.6-0.3,2.6-0.4,5.7c0,0.6,0.1,3.5,0.1,3.8
					C42.1,154.5,42.4,156.3,43,158.1L43,158.1z"/>
				<path class="st21" d="M57.4,85.4c0.4,1.1,3.3,12.6,14,15.3c1.9,0.5,7.9,2,13.2-1.3c6.7-4.2,6.2-12.2,6.2-12.7"/>
				<path class="st22" d="M82.2,157.5c-13,0.1-26.1,0.2-39.1,0.3c-0.6-1.8-0.9-3.7-1.1-6.1c0-0.3-0.1-3.2-0.1-3.8
					c0.1-3,0.3-5,0.4-5.7c0.1-2.6,0.5-6.6,1.4-13.1c1.7-12.2,4.1-22.9,5.8-29.8c3.3,1.5,11.4,6,13.1,9.9c0.7,1.6,0.7,2.8,0.8,4.7
					c0.6,11,1,16,1.9,20.5c1,5.6,2.1,7.1,2.7,7.8c2.8,3.4,7,2.3,10.6,5.3C80.1,148.8,81.7,152.9,82.2,157.5L82.2,157.5z"/>
			</g>
			<path class="st23" d="M28.2,107.4c1.5-0.3,5.3,0,7.5,0.3c5.4,0.8,7.7,1.2,9.6,2.3"/>
			<path class="st24" d="M105.1,112.1c1.1-1,4.5-2.3,6.5-2.9c5-1.4,7.2-1.9,9.4-1.5"/>
			<path class="st25" d="M48.9,99.4c2.9,1.2,11.9,6.1,13.6,10.1c0.7,1.6,0.7,2.8,0.8,4.7c0.6,11,1,16,1.9,20.5
				c1.1,5.6,2.1,7.1,2.7,7.8c2.8,3.4,7,2.3,10.6,5.3c1.6,1.4,3.2,5.6,3.7,10.2"/>
		</g>
	</g>
</g>
</svg>
