<?xml version="1.0" encoding="UTF-8"?>
<svg id="Layer_2" data-name="Layer 2" xmlns="http://www.w3.org/2000/svg" viewBox="0 0 146.94138 224.55798">
  <defs>
    <style>
      .cls-1 {
        fill: #ab6670;
      }

      .cls-1, .cls-2, .cls-3, .cls-4, .cls-5, .cls-6, .cls-7, .cls-8, .cls-9, .cls-10, .cls-11, .cls-12, .cls-13, .cls-14, .cls-15 {
        stroke: #4e381a;
        stroke-miterlimit: 10;
      }

      .cls-1, .cls-2, .cls-4, .cls-5, .cls-7, .cls-13, .cls-15 {
        stroke-width: 1.00134px;
      }

      .cls-2 {
        fill: #7e594e;
      }

      .cls-3 {
        stroke-width: 1.09994px;
      }

      .cls-3, .cls-7, .cls-9, .cls-10, .cls-11, .cls-14 {
        fill: none;
      }

      .cls-16 {
        fill: #9e8098;
      }

      .cls-4 {
        fill: #f0efef;
      }

      .cls-17 {
        fill: #796245;
      }

      .cls-5, .cls-6 {
        fill: #4e381a;
      }

      .cls-18 {
        fill: #81684b;
      }

      .cls-8 {
        fill: #ad89ac;
        stroke-width: 1.0339px;
      }

      .cls-19, .cls-12, .cls-15 {
        fill: #e0ae84;
      }

      .cls-9 {
        stroke-width: 1.0369px;
      }

      .cls-20 {
        fill: #948063;
      }

      .cls-10 {
        stroke-width: .42073px;
      }

      .cls-21 {
        fill: #ca9b71;
      }

      .cls-11, .cls-14 {
        stroke-width: 1.1262px;
      }

      .cls-22 {
        fill: #eac4a0;
      }

      .cls-12 {
        stroke-width: 1.03529px;
      }

      .cls-13 {
        fill: #5f4f4b;
      }

      .cls-14 {
        stroke-dasharray: 0 2.2524;
      }
    </style>
  </defs>
  <g id="Layer_1-2" data-name="Layer 1">
    <g>
      <g>
        <path class="cls-15" d="m85.96563,86.13454c-1.13596,4.3083-5.85757,8.32711-10.02703,8.68893-4.69539.40815-9.25612-2.75577-10.6782-7.5942-.09257-.78682-.03367-1.4852.05891-2.03217.00421-.03364.01261-.06307.01682-.09676,2.44867-.50907,5.9702-1.59038,9.56746-4.03903,7.43434-5.05722,10.05131-12.46632,10.84229-15.09169l.21037,16.37068v3.92968"/>
        <path class="cls-7" d="m73.73397,52.57768c.11358-.11361.2314-.23137.34919-.35761-.122.13045-.2398.25243-.34919.35761Z"/>
        <path class="cls-7" d="m74.44501,51.83297c.09255-.10097.18931-.20615.28188-.31555-.02945.0379-.05049.05896-.0547.06738-.07573.08413-.15146.16825-.22719.24817Z"/>
        <path class="cls-2" d="m78.82061,43.60346c-8.12435,4.10215-14.74668,6.05014-19.22328,7.05991-1.93536.43753-3.38268.67737-5.20867.53013-3.74451-.29876-7.27446-2.09108-9.99659-4.5313-1.77972-1.58617-3.21441-3.45004-4.14002-5.35176-3.70244-7.62363-.54695-18.59216,8.61239-25.29862.95928.74892,2.53703,1.83018,4.67436,2.65901,5.14134,1.9859,8.65448.60167,16.26131.31976,4.78373-.18094,8.75545-.32813,13.50133.95507,2.73055.74049,8.15802,2.20885,12.32747,6.69809,1.40105,1.50621,2.44025,3.11338,3.21862,4.78789"/>
        <path class="cls-15" d="m87.55082,53.32238c-1.2706,2.68849-2.65061,5.45689-4.14421,8.28842-1.30429,2.47396-2.62116,4.85106-3.93387,7.12303-.03364-3.82866-.07152-7.65311-.10518-11.48176-1.87645-1.55674-3.75714-3.11764-5.63359-4.67439.10939-.10518.22719-.22716.34919-.35761.10939-.11355.21879-.22716.32818-.34919.01261-.01263.02524-.02527.03367-.0379.07573-.07991.15146-.16404.22719-.24817.00421-.00421.00842-.01263.01682-.02106.01263-.01263.02106-.02948.03788-.04633.09255-.10518.27767-.31976.46701-.55113.18091-.22295.35343-.44595.51749-.66474.14727-.19773.28612-.3913.41234-.56803.03367-.04622.06309-.09255.09676-.13882.05891-.08834.11782-.17251.17251-.25243.13461-.20194.24401-.36604.31555-.48385,1.28744-2.04054,2.01951-3.96332,2.44864-5.42325-.11358.05891-.22719.11361-.33658.1683-8.12435,4.10215-14.74668,6.05014-19.22328,7.05991-1.93536.43753-3.38268.67737-5.20867.53013-3.74451-.29876-7.27446-2.09108-9.99659-4.5313-.23982,5.92811-.17251,9.08361-.42073,15.05799-.101,1.16123-.78679,10.5857,6.59288,17.53617,7.27025,6.84533,13.01748,6.27735,14.7551,5.94075.00421-.03364.01261-.06307.01682-.09676,2.44867-.50907,5.9702-1.59038,9.56746-4.03903,7.43434-5.05722,10.05131-12.46632,10.84229-15.09169,3.25647.14725,6.11745-2.12472,6.69385-5.20867.61849-3.28174-1.51042-6.60975-4.88891-7.43858Zm-1.8386,8.81433c-.00421-.00416-.00421-.01258-.00421-.02101-.02103-.06733-.03785-.13882-.0547-.20615-.02103-.08839-.03785-.18094-.04627-.26928-.00842-.06307-.01682-.13045-.02103-.19352-.01263-.15567-.01263-.31134,0-.46285.00421-.04622.00842-.09676.01682-.14298.02524-.21458.07573-.42073.14306-.61852.01682-.03785.02945-.07575.04627-.10939.09676-.24401.22719-.46701.38707-.66474.02945-.0379.06312-.07575.09679-.11361.03364-.03369.06731-.07149.10518-.10939.07152-.06728.14725-.13466.22719-.19352.00421,0,.00842-.00421.01263-.00842.09255-.06733.18931-.12624.29449-.18089,1.04343-.54276,2.17521-.07159,2.33927,0-1.16962,1.13596-2.33927,2.27192-3.5089,3.40787-.01263-.03785-.02524-.0757-.03367-.11361Zm-20.85152-8.44409c1.05604,0,1.91012,1.52305,1.91012,3.40371,0,1.8765-.85407,3.39955-1.91012,3.39955-1.06025,0-1.91433-1.52305-1.91433-3.39955,0-1.88066.85407-3.40371,1.91433-3.40371Zm-15.99627,3.77401c0-1.8765.8541-3.39955,1.91014-3.39955s1.91433,1.52305,1.91433,3.39955-.85829,3.3995-1.91433,3.3995-1.91014-1.52305-1.91014-3.3995Zm2.55806,7.19031c-.15146-1.05183,2.0069-1.68293,3.58465-3.21441.95507-.92559,1.99006-2.46549,2.25512-5.14555.15567.9298.40391,3.32796-1.12756,5.69674-.5764.89611-1.2622,1.55669-1.84281,2.01949-.75731.33234-.90037.64373-.92141.82883-.09255.73212,1.42208,1.6156,3.79081,2.29724-2.3477-.15151-3.84972-.90459-4.61124-1.38002-.64792-.39968-1.06865-.669-1.12756-1.10232Zm2.73897,8.34311l-1.83018.0547-.38709-2.54961,17.49829-.30713c.00842.45853.05891,1.29163-.29031,2.35183-.37025,1.115-1.17805,2.48239-2.94513,3.92126-1.62402,1.32532-3.31959,1.87645-3.68141,1.99427-1.61563.33661-3.00404.45864-4.04324.49649-.54276.02101-1.0308.01679-1.45153.00416l-2.8694-5.96596Z"/>
        <path class="cls-10" d="m65.3193,85.19712c.20616-.03787.35342-.07573.44177-.09677"/>
        <path class="cls-10" d="m44.39205,46.6622c0-.04628.00421-.09256.00421-.14305"/>
        <path class="cls-5" d="m89.25478,58.84245c-1.16962,1.13596-2.33927,2.27192-3.5089,3.40787-.47122-1.4136.07994-2.84416,1.16962-3.40787,1.04343-.54276,2.17521-.07159,2.33927,0Z"/>
        <path class="cls-5" d="m52.6889,57.46664c0,1.87645-.85829,3.3995-1.91433,3.3995s-1.91014-1.52305-1.91014-3.3995.8541-3.39955,1.91014-3.39955,1.91433,1.52305,1.91433,3.39955Z"/>
        <path class="cls-5" d="m66.77082,57.09634c0,1.8765-.85407,3.39955-1.91012,3.39955-1.06025,0-1.91433-1.52305-1.91433-3.39955,0-1.88066.85407-3.40371,1.91433-3.40371,1.05604,0,1.91012,1.52305,1.91012,3.40371Z"/>
        <path class="cls-5" d="m57.16129,67.13929c-2.3477-.15151-3.84972-.90459-4.61124-1.38002-.64792-.39968-1.06865-.669-1.12756-1.10232-.15146-1.05183,2.0069-1.68293,3.58465-3.21441.95507-.92559,1.99006-2.46549,2.25512-5.14555.15567.9298.40391,3.32796-1.12756,5.69674-.5764.89611-1.2622,1.55669-1.84281,2.01949-.75731.33234-.90037.64373-.92141.82883-.09255.73212,1.42208,1.6156,3.79081,2.29724Z"/>
        <path class="cls-7" d="m57.03086,78.96607c-.68159-.01683-1.17384-.0589-1.38842-.07994-.97189-.08835-1.79653-.23982-2.44867-.38287"/>
        <path class="cls-7" d="m69.44248,70.11385v.08415"/>
        <path class="cls-4" d="m69.15218,72.54985l-14.99071.45021-1.83018.0547-.38709-2.54961,17.49829-.30713c.00842.45853.05891,1.29163-.29031,2.35183Z"/>
        <line class="cls-7" x1="49.94993" y1="70.53879" x2="51.9442" y2="70.50513"/>
        <line class="cls-7" x1="69.44248" y1="70.198" x2="69.6823" y2="70.19379"/>
        <line class="cls-7" x1="52.33128" y1="73.05477" x2="52.3439" y2="73.14313"/>
        <line class="cls-7" x1="51.91896" y1="70.32843" x2="51.9442" y2="70.50513"/>
        <line class="cls-7" x1="52.10408" y1="73.06319" x2="52.33128" y2="73.05477"/>
        <line class="cls-7" x1="69.15218" y1="72.54989" x2="69.28261" y2="72.54569"/>
        <path class="cls-1" d="m69.15218,72.54985c-.37025,1.115-1.17805,2.48239-2.94513,3.92126-1.62402,1.32532-3.31959,1.87645-3.68141,1.99427-1.61563.33661-3.00404.45864-4.04324.49649-.54276.02101-1.0308.01679-1.45153.00416l-2.8694-5.96596,14.99071-.45021Z"/>
        <line class="cls-10" x1="57.03086" y1="78.96607" x2="57.04769" y2="79.00394"/>
        <line class="cls-7" x1="54.09836" y1="72.86544" x2="54.16147" y2="73.00008"/>
        <path class="cls-21" d="m87.88634,54.03083c-1.21582,2.57341-2.54214,5.13552-3.97135,7.84584-.96221,1.82435-2.41991,4.19702-3.39018,5.90859l-1.50136,2.61528c-.65382,1.33185-1.84038,3.43861-4.16659,6.38738-5.43159,6.88524-15.12042,6.67219-18.11171,6.35,3.0839,1.57869,4.83083,1.82812,6.3929,1.74352l1.81675-.09337c.53949-.02817,1.52911-.38176,1.83106-.43814.00403-.0322,1.42897-.44573,1.433-.47797,2.54756-.83646,3.40438-1.16132,6.84658-3.50515,7.11387-4.84074,9.49717-12.34481,10.25405-14.8578,1.07896.04832,2.33189-.09397,3.24579-.54104,1.7231-.83361,3.15626-2.3277,3.53457-4.25364.53274-2.71214-.98064-5.89014-4.2135-6.68349Zm-2.42155,9.20191c-.45091-1.35309-.44144-3.5883.48431-4.31037,1.85899-1.44999,3.91122-.31069,4.06821-.24216-1.1192,1.08733-3.43332,3.46519-4.55252,4.55252Z"/>
        <path class="cls-21" d="m65.81861,85.49631c2.40206-.47379,4.75292-1.25651,8.28172-3.53547,7.29284-4.70676,10.34041-10.61619,11.11633-13.05962l.16811,7.44162c-.83369,1.32745-2.04471,3.34793-3.39018,4.60095-5.94325,5.54474-12.66782,4.79143-16.17598,4.55252"/>
        <path class="cls-13" d="m97.08534,66.88839c-3.42477,6.42039-9.6937,13.45924-9.88304,13.71167,0,0-.87932.08834-1.06444.10939v1.59454s-.21037-16.37068-.21037-16.37068c3.25647.14725,6.11745-2.12472,6.69385-5.20867.61849-3.28174-1.51042-6.60975-4.88891-7.43858-1.2706,2.68849-2.65061,5.45689-4.14421,8.28842-1.30429,2.47396-2.62116,4.85106-3.93387,7.12303-.03364-3.82866-.07152-7.65311-.10518-11.48176-1.87645-1.55674-3.75714-3.11764-5.63359-4.67439.10939-.10518.22719-.22716.34919-.35761.10939-.11355.21879-.22716.32818-.34919.01261-.01263.02524-.02527.03367-.0379.07573-.07991.15146-.16404.22719-.24817.00421-.00421.00842-.01263.01682-.02106.01263-.01263.02106-.02948.03788-.04633.09255-.10518.27767-.31976.46701-.55113.18091-.22295.35343-.44595.51749-.66474.13885-.18515.2777-.37446.41234-.56803.03367-.04622.06309-.09255.09676-.13882.05891-.08834.11782-.17251.17251-.25243.13461-.20194.24401-.36604.31555-.48385,1.28744-2.04054,2.01951-3.96332,2.44864-5.42325-.11358.05891-.22719.11361-.33658.1683,3.29435-3.55522,8.1412-7.64473,14.78456-10.40472,1.80915-.75313,3.56781-1.32953,5.24234-1.76711,2.09524,4.48503,2.31822,9.41605,2.5244,13.91788.14303,3.24383.44598,12.3695-4.46818,21.57519Z"/>
        <path class="cls-7" d="m73.91558,52.54135c.11358-.11361.2314-.23137.34919-.35761-.122.13045-.2398.25243-.34919.35761Z"/>
        <path class="cls-7" d="m74.62662,51.79665c.09255-.10097.18931-.20615.28188-.31555-.02945.0379-.05049.05896-.0547.06738-.07573.08413-.15146.16825-.22719.24817Z"/>
        <path class="cls-2" d="m79.00223,43.56714c-8.12435,4.10215-14.74668,6.05014-19.22328,7.05991-1.93536.43753-3.38268.67737-5.20867.53013-3.74451-.29876-7.27446-2.09108-9.99659-4.5313-1.77972-1.58617-3.21441-3.45004-4.14002-5.35176-3.70244-7.62363-.54695-18.59216,8.61239-25.29862.95928.74892,2.53703,1.83018,4.67436,2.65901,5.14134,1.9859,8.65448.60167,16.26131.31976,4.78373-.18094,8.75545-.32813,13.50133.95507,2.73055.74049,8.15802,2.20885,12.32747,6.69809,1.40105,1.50621,2.44025,3.11338,3.21862,4.78789"/>
        <path class="cls-10" d="m65.50092,85.1608c.20616-.03787.35342-.07573.44177-.09677"/>
        <path class="cls-10" d="m44.57367,46.62588c0-.04628.00421-.09256.00421-.14305"/>
        <path class="cls-6" d="m52.87052,57.43032c0,1.87645-.85829,3.3995-1.91433,3.3995s-1.91014-1.52305-1.91014-3.3995.8541-3.39955,1.91014-3.39955,1.91433,1.52305,1.91433,3.39955Z"/>
        <path class="cls-6" d="m66.95243,57.06002c0,1.8765-.85407,3.39955-1.91012,3.39955-1.06025,0-1.91433-1.52305-1.91433-3.39955,0-1.88066.85407-3.40371,1.91433-3.40371,1.05604,0,1.91012,1.52305,1.91012,3.40371Z"/>
        <path class="cls-7" d="m57.21248,78.92975c-.68159-.01683-1.17384-.0589-1.38842-.07994-.97189-.08835-1.79653-.23982-2.44867-.38287"/>
        <path class="cls-7" d="m69.6241,70.07753v.08415"/>
        <path class="cls-4" d="m69.3338,72.51353l-14.99071.45021-1.83018.0547-.38709-2.54961,17.49829-.30713c.00842.45853.05891,1.29163-.29031,2.35183Z"/>
        <line class="cls-7" x1="50.13155" y1="70.50247" x2="52.12582" y2="70.46881"/>
        <line class="cls-7" x1="69.6241" y1="70.16167" x2="69.86392" y2="70.15747"/>
        <line class="cls-7" x1="52.5129" y1="73.01845" x2="52.52552" y2="73.1068"/>
        <line class="cls-7" x1="52.10058" y1="70.2921" x2="52.12582" y2="70.46881"/>
        <line class="cls-7" x1="52.2857" y1="73.02687" x2="52.5129" y2="73.01845"/>
        <line class="cls-7" x1="69.33379" y1="72.51357" x2="69.46422" y2="72.50936"/>
        <path class="cls-1" d="m69.3338,72.51353c-.37025,1.115-1.17805,2.48239-2.94513,3.92126-1.62402,1.32532-3.31959,1.87645-3.68141,1.99427-1.61563.33661-3.00404.45864-4.04324.49649-.54276.02101-1.0308.01679-1.45153.00416l-2.8694-5.96596,14.99071-.45021Z"/>
        <line class="cls-10" x1="57.21248" y1="78.92975" x2="57.22931" y2="78.96761"/>
        <line class="cls-7" x1="54.27997" y1="72.82912" x2="54.34308" y2="72.96376"/>
      </g>
      <g>
        <g>
          <path class="cls-8" d="m126.29924,70.84893c-3.42704-1.59038-7.56019-3.34065-11.22561-4.98151-.009-.00421-.01798-.00842-.02698-.01263-.88598-.39968-1.74051-.79093-2.55454-1.1696-.94895,2.73476-2.02835,7.90132-5.56783,11.69634-6.94404,7.45121-15.98838,9.5086-19.93714,10.12286-.37777.05891-.7061.10097-.98494.13887-1.21429,4.3083-5.0866,7.43011-9.54354,7.79193-5.01915.40815-9.89436-2.75577-11.41449-7.5942-.06297-.18936-.11694-.38288-.1664-.57645-1.53364-.01258-4.18711-.13461-7.39829-.87089-3.02226-.68159-6.53926-1.90172-10.06976-4.06851-8.30675-5.10344-11.97667-13.94304-13.08302-16.84195-.04499-.11777-.08545-.22716-.12144-.32392-.04049.01679-.08095.03785-.12144.0547-.66111.29449-1.32672.59741-2.00134.90453v.00421c-1.03891.47548-2.09582.97192-3.15271,1.46835v.00421c-2.38814,1.11916-4.79878,2.2636-7.10594,3.29858-.01801.00842-.04049.01685-.05847.02527-.09446.04622-.19341.08834-.28784.1304.03149.13882.07195.28191.11244.43753.45875,1.72505,1.44366,4.44296,2.39714,6.88323.23835.60162.47223,1.18644.6971,1.73758,1.34473,3.29016,3.64291,7.95612,7.49271,12.85762,5.10908,6.5003,10.84781,10.72869,15.03042,13.29936.43176-1.17381.85903-2.35188,1.29079-3.52574.44974-1.23272.89949-2.46128,1.34923-3.69405-.15292.64373.7079-.95023.55497-.29386.12712-.15258-.15866.08237-1.01822,2.2503-2.2892,9.85781-4.24107,20.91043-5.4284,33.0065-.83652,8.56611-1.1918,16.63579-1.21879,24.13323,20.5173.12619,41.03459.25664,61.54739.38288.07195-11.17469-.22487-22.98048-1.01642-35.34577-.35079-5.5537-1.18733-14.99914-1.2458-15.68072.23388,1.26641,5.11808-2.28876,6.93506-4.27045,6.04455-6.60975,11.63036-12.8702,15.64206-24.70542.76007-2.24249,1.79-5.03621,2.13628-6.35727.009-.03369.01801-.06733.02698-.10097-.1529-.07154-.30582-.14309-.46322-.21458Zm-25.26211,26.24527c.11244-.01258.13214,1.49926,1.04514,10.24631-.83652-7.11877-1.10358-10.23789-1.04514-10.24631Z"/>
          <g>
            <path class="cls-16" d="m44.57792,132.5228c1.26502-12.90737,3.40913-24.62134,5.89631-34.96127-.88976,2.40699-2.49006,4.82269-3.36916,7.22962-4.18105-2.57747-9.4606-6.60281-14.57433-13.11165-3.84865-4.89418-6.18238-9.68089-7.53318-12.97039-.13937-.34101-.19413-.6786-.3549-1.05971,2.13338.02008,4.90607-.43915,7.85423-1.96358,1.96188,3.32965,4.96262,6.79205,7.61057,9.90103,1.62955,1.8955,9.47701,11.86437,15.03025,13.67962.79331.26076,2.93742.87252,4.87784,2.65772,2.06906,1.90548,2.83025,4.13196,3.45199,6.27819,1.84397,6.31828,3.0554,10.45024,3.04467,16.71839,0,3.4099-.36453,5.52601.40739,9.30692.55749,2.68784.88983,4.35263,2.24056,5.89708,2.83025,3.24946,6.829,2.16631,10.15241,4.18215,2.34781,1.42411,4.75993,4.62337,4.88858,12.59647-13.61513-.08025-27.23026-.1605-40.84533-.25073.03213-7.49172.38592-15.56509,1.22209-24.12986Z"/>
            <path class="cls-16" d="m124.39472,76.81013q-.01073.01004-.01073.02008c-4.00948,11.83425-9.59492,18.09236-15.64134,24.70152-1.54376,1.68487-4.9766,4.64266-6.20943,4.67272-.12695-1.0095-.22852-2.07839-.29199-3.05226-.01073-.02008-.0127-.13438-.0127-.15439-.22509-.67199-.16644-2.73558-.38086-3.33729l-.2793-2.66033c0-.10033,4.29044-6.67085,4.74075-7.18234,1.26502-1.43415,5.69262-7.83268,9.86287-14.00056.88983.4212,1.86537.75218,2.92676.97285.22509.05013.43951.09023.66467.12034.88976.14036,1.84391.18052,2.85164.12034.54676-.04016,1.13638-.10033,1.77965-.22067Z"/>
            <path class="cls-16" d="m119.92594,68.6391c.46104.18052-.45025-.18052,0,0,.1501.06017.30014.12034.45025.18058,1.92969.76216,4.36162,1.45733,5.95898,2.20951-.3216,1.28375-1.56411,5.00451-2.34669,7.30113-.64327.12034-2.39012.33782-2.93688.37798-1.00774.06017-1.96188.02002-2.85164-.12034-.22516-.03012-.45031-.07021-.66467-.12034-1.06139-.22067-1.4738-.16946-2.36363-.59067-.27875-.13038.03498.07117-.22231-.06919l1.67579-2.56532,3.30081-6.60333Z"/>
            <path class="cls-16" d="m33.40976,77.47916c-3.05634,1.32491-6.28571,1.39158-8.41219,1.22995-1.04201-2.97507-2.58539-6.84816-2.87473-8.69731,2.18887-.79946,4.67168-1.79047,7.14303-2.77224.93358,2.98792,2.32865,6.54952,4.14388,10.2396Z"/>
          </g>
          <path class="cls-19" d="m24.386,46.23575c-.53602-1.18341-3.04461-6.7495-3.59136-12.48614-.03728-.39911-.06574-.79478-.08754-1.18208-1.60795.28155-3.25381.4554-4.84748.82683-.59194.13795-1.17742.28946-1.76054.44564,4.62414,10.60871,10.08126,22.78187,14.83245,32.75471.01073.02008.02144.05013.03217.07021l3.14112-1.48427c-.01073-.02008-.01073-.04016-.02147-.06019-3.0232-7.92295-5.49964-13.9905-7.69736-18.8847Z"/>
          <path class="cls-22" d="m22.47778,32.19163c-.582.15028-1.17347.27133-1.77067.3759.0218.3873.05026.78297.08754,1.18208.54675,5.73665,3.05534,11.30273,3.59136,12.48614,2.19772,4.8942,4.67416,10.96175,7.69736,18.8847l1.89757-.90258c-1.98327-4.64347-3.55924-8.53473-4.65275-11.36297-5.04586-12.97893-6.56979-18.13697-6.85041-20.66326Z"/>
          <path class="cls-21" d="m10.23262,34.92455c.3921.23944.76773.44893,1.11722.63028.64321,5.20508,1.7903,11.33287,3.85938,18.05227,1.96186,6.35845,4.30968,11.85432,6.60391,16.41752l7.15058-3.3597c-4.76186-9.98552-10.23037-22.19201-14.86437-32.82497-1.29787.3476-2.58012.7256-3.86671,1.0846Z"/>
          <path class="cls-21" d="m136.74625,33.41049c-.95315-.40913-1.90839-.81414-2.86706-1.21238-1.77924,9.72421-5.35443,22.54839-12.86872,36.18179,1.59735.72211,3.1947,1.45423,4.80279,2.17629.07508.04011.16086.07026.23591.11032,2.18695-4.65348,4.3954-10.06914,6.26083-16.19688,2.1441-7.0103,3.40912-13.4389,4.17026-19.00498.19965-.12074.38474-.24252.5745-.36403-.328-.49356-.43201-1.11726-.30851-1.69012Z"/>
          <path class="cls-19" d="m132.08321,31.46593c-1.88034-.7369-3.42229-.91881-5.39945-1.232-.46564-.07375-.95801-.15932-1.44975-.27179.03654.50743.04505.93021.01836,1.38053-.11639,2.05595-.77217,3.57037-1.06831,4.24225-2.82413,6.56902-7.97537,20.0581-9.61483,24.58123-.41247,1.12322-.94135,2.63759-1.53372,4.43279,2.73955,1.26364,5.47911,2.51731,8.21861,3.78095,7.40699-13.62071,10.93466-26.43365,12.69183-36.15457-.61875-.25751-1.23776-.51451-1.86274-.75939Z"/>
          <path class="cls-9" d="m23.94865,77.36437c1.0291.14287,10.83341-1.58353,13.67719-6.11243"/>
          <path class="cls-9" d="m110.37899,71.822c.47358.86659,4.53264,5.93591,14.11729,5.98575"/>
          <path class="cls-9" d="m57.46453,85.21869c.50782,7.88599,8.74809,15.86849,17.26575,15.58196,8.08441-.27197,15.03136-3.51544,16.14856-14.91687"/>
          <path class="cls-9" d="m22.22208,70.68185c-5.69624-10.99497-8.84444-22.77549-10.64342-34.97675,0,0-.44974-.42073-.88615-.37209"/>
          <path class="cls-9" d="m34.40967,64.98114c-4.39153-10.34306-8.88896-21.28211-11.85954-32.47849"/>
          <line class="cls-3" x1="21.57885" y1="70.49184" x2="34.6128" y2="64.34773"/>
          <path class="cls-3" d="m126.01972,71.44195c5.19071-10.91361,8.33891-22.2734,10.13789-34.05392,0-.84147.44974-1.2622.77941-1.82506"/>
          <path class="cls-3" d="m125.26864,30.41595c.54487,2.76476-1.2541,5.70989-2.15359,8.65502-3.59795,8.41466-7.64564,16.82931-9.89436,25.6647,4.49743,2.94513,9.44461,4.62806,14.15322,6.70628"/>
        </g>
        <g>
          <path class="cls-12" d="m136.2807,36.48457c2.1995-3.05381,4.08072-7.10655,6.19226-12.11708,1.1184-2.65387,2.73504-7.02144,3.73893-12.5375.00504-.02763.01023-.05583.01051-.05793.02745-.19881-.02049-.49089-.19884-.63772-.32807-.2701-.96228.0625-.99418.07971-.00004,0-.31811.17144-.51129.47831-.35612.56577-2.27725,4.77998-4.82813,10.5818-.08962.23507-.10895.26131-.11432.25983-.08176-.02301,2.17323-6.7345,4.38855-15.18624.16012-.61086.28473-1.09615.34086-1.31536-.00962-.84676-.15166-1.31176-.42608-1.39506-.41763-.12675-1.14193.63043-2.17297,2.27197-1.93153,4.53063-3.86306,9.06122-5.79459,13.59185,1.40604-5.04879,2.81209-10.09759,4.21813-15.14638.0842-.55031.55079-3.6921-.08522-3.8663-.67297-.18433-2.21478,3.05391-2.42861,3.50761-1.71849,4.6369-3.43699,9.27384-5.15548,13.91074.31245-4.37122.6249-8.74238.93735-13.11359-.04568-.75662-.21937-3.08549-.80953-3.14882-.68111-.07308-1.54605,2.91118-1.7043,3.46771-.76693,4.35791-3.29496,20.19517-4.06189,24.55308"/>
          <path class="cls-12" d="m131.33826,31.56862c.64568-.58914,1.89134-1.91436,2.04515-3.77329.23875-2.8855-2.24666-5.92816-6.24906-7.12144-.24248-.70952-.86237-2.18399-2.38601-3.45446-2.09354-1.74564-4.48876-1.935-5.2265-1.96638,1.45095,2.36041,3.02296,5.40255,4.26073,9.08782.89877,2.67601,1.43722,5.14299,1.76109,7.28091"/>
        </g>
        <g>
          <path class="cls-12" d="m11.34984,35.55483c-2.58769-3.15909-4.4355-7.05289-6.81085-12.25027C1.57656,16.82259,1.88525,16.59077.53391,12.75523c-.07283-.20667.1092-2.53536.34086-2.68383.35591-.22809,2.2772,3.17116,2.49962,3.5873,1.70429,3.18871,4.57146,7.82579,4.31754,7.89205-.31178.08135-2.78367-8.26406-3.97668-11.7185-.0831-.24062-1.06637-3.46294-1.02257-4.78307.01916-.57753.33459-1.81303.68172-1.91323.63785-.18412,2.32972,2.92724,7.81134,16.18274-1.42024-5.39423-2.84049-10.78852-4.26073-16.18276-.3049-1.28654.10776-2.36981.68172-2.55095.62153-.19614,1.81996.54317,2.30079,2.07264,1.61908,5.18166,3.09613,9.75216,4.71521,14.93382-.14203-4.75651-.14202-8.90181-.28405-13.65832.21795-1.15589.91609-1.93639,1.44865-1.91323.58008.02527.82374,1.70065,1.1646,3.13557.93736,4.72991,3.4938,21.36439,4.43116,26.09429"/>
          <line class="cls-12" x1="7.35107" y1="22.05564" x2="16.8383" y2="18.06975"/>
          <path class="cls-12" d="m22.57608,32.81755c-.41054-4.3877.55784-7.43724,1.61908-9.48642,1.89643-3.6619,3.8349-6.63962,4.94244-7.97179.5965-.71748-.89269-.523-1.02257-.55802-2.51765-.6785-6.30766,4.83068-6.47631,5.10196-.60793.15916-3.69411,1.02944-5.45373,3.98587-2.10613,3.53858.00573,10.45357.19883,10.86819"/>
        </g>
        <line class="cls-12" x1="131.65071" y1="20.19556" x2="140.28578" y2="22.32137"/>
        <g>
          <path class="cls-12" d="m136.47484,36.44824c2.1995-3.05381,4.08072-7.10655,6.19226-12.11708,1.1184-2.65387,2.73504-7.02144,3.73893-12.5375.00504-.02763.01023-.05583.01051-.05793.02745-.19881-.02049-.49089-.19884-.63772-.32807-.2701-.96228.0625-.99418.07971-.00004,0-.31811.17144-.51129.47831-.35612.56577-2.27725,4.77998-4.82813,10.5818-.08962.23507-.10895.26131-.11432.25983-.08176-.02301,2.17323-6.7345,4.38855-15.18624.16012-.61086.28473-1.09615.34086-1.31536-.00962-.84676-.15166-1.31176-.42608-1.39506-.41763-.12675-1.14193.63043-2.17297,2.27197-1.93153,4.53063-3.86306,9.06122-5.79459,13.59185,1.40604-5.04879,2.81209-10.09759,4.21813-15.14638.0842-.55031.55079-3.6921-.08522-3.8663-.67297-.18433-2.21478,3.05391-2.42861,3.50761-1.71849,4.6369-3.43699,9.27384-5.15548,13.91074.31245-4.37122.6249-8.74238.93735-13.11359-.04568-.75662-.21937-3.08549-.80953-3.14882-.68111-.07308-1.54605,2.91118-1.7043,3.46771-.76693,4.35791-3.29496,20.19517-4.06189,24.55308"/>
          <path class="cls-12" d="m131.5324,31.5323c.64568-.58914,1.89134-1.91436,2.04515-3.77329.23875-2.8855-2.24666-5.92816-6.24906-7.12144-.24248-.70952-.86237-2.18399-2.38601-3.45446-2.09354-1.74564-4.48876-1.935-5.2265-1.96638,1.45095,2.36041,3.02296,5.40255,4.26073,9.08782.89877,2.67601,1.43722,5.14299,1.76109,7.28091"/>
        </g>
        <g>
          <path class="cls-12" d="m11.54398,35.5185c-2.58769-3.15909-4.4355-7.05289-6.81085-12.25027-2.96244-6.48197-2.65374-6.71378-4.00508-10.54932-.07283-.20667.1092-2.53536.34086-2.68383.35591-.22809,2.2772,3.17116,2.49962,3.5873,1.70429,3.18871,4.57146,7.82579,4.31754,7.89205-.31178.08135-2.78367-8.26406-3.97668-11.7185-.0831-.24062-1.06637-3.46294-1.02257-4.78307.01916-.57753.33459-1.81303.68172-1.91323.63785-.18412,2.32972,2.92724,7.81134,16.18274-1.42024-5.39423-2.84049-10.78852-4.26073-16.18276-.3049-1.28654.10776-2.36981.68172-2.55095.62153-.19614,1.81996.54317,2.30079,2.07264,1.61908,5.18166,3.09613,9.75216,4.71521,14.93382-.14203-4.75651-.14202-8.90181-.28405-13.65832.21795-1.15589.91609-1.93639,1.44865-1.91323.58008.02527.82374,1.70065,1.1646,3.13557.93736,4.72991,3.4938,21.36439,4.43116,26.09429"/>
          <line class="cls-12" x1="7.54521" y1="22.01932" x2="17.03243" y2="18.03343"/>
          <path class="cls-12" d="m22.77022,32.78123c-.41054-4.3877.55784-7.43724,1.61908-9.48642,1.89643-3.6619,3.8349-6.63962,4.94244-7.97179.5965-.71748-.89269-.523-1.02257-.55802-2.51765-.6785-6.30766,4.83068-6.47631,5.10196-.60793.15916-3.69411,1.02944-5.45373,3.98587-2.10613,3.53858.00573,10.45357.19883,10.86819"/>
        </g>
        <line class="cls-12" x1="131.84485" y1="20.15924" x2="140.47992" y2="22.28505"/>
      </g>
      <g>
        <g>
          <polygon class="cls-20" points="47.64802 157.67917 44.8061 223.9422 41.7917 223.98335 43.68172 157.66277 47.64802 157.67917"/>
          <polygon class="cls-20" points="105.33168 222.94143 103.15169 222.97908 99.65901 157.56566 103.56172 157.58479 105.33168 222.94143"/>
          <polygon class="cls-17" points="98.14417 223.06642 92.64168 223.16972 80.06172 172.63977 74.00173 172.63977 60.68172 223.4741 54.74965 223.55079 66.0269 157.48025 86.01622 157.53603 98.14417 223.06642"/>
          <polygon class="cls-17" points="92.64168 223.16972 90.68172 223.2078 87.14168 223.2712 75.14168 177.61158 63.77169 223.4234 60.68172 223.4741 74.00173 172.63977 80.06172 172.63977 92.64168 223.16972"/>
          <polygon class="cls-18" points="67.12172 157.4833 55.77169 223.53758 43.65169 223.71509 46.75173 157.43259 67.12172 157.4833"/>
          <polygon class="cls-18" points="103.86171 222.96682 97.37172 223.08092 85.2917 157.534 100.9717 157.57209 103.86171 222.96682"/>
        </g>
        <polygon class="cls-11" points="87.0768 223.50574 105.26627 223.18532 103.49785 157.81996 43.62416 157.65975 41.72943 223.98637 63.70838 223.66595 75.0768 177.84611 87.0768 223.50574"/>
        <polyline class="cls-11" points="60.62101 223.71401 73.94101 172.87963 80.00101 172.87963 92.58101 223.40961"/>
        <line class="cls-14" x1="90.62101" y1="223.44766" x2="78.87101" y2="175.9236"/>
      </g>
    </g>
  </g>
</svg>