<?xml version="1.0" encoding="UTF-8"?>
<svg id="Layer_2" data-name="Layer 2" xmlns="http://www.w3.org/2000/svg" viewBox="0 0 94.13706 212.05009">
  <defs>
    <style>
      .cls-1, .cls-2, .cls-3, .cls-4, .cls-5, .cls-6, .cls-7, .cls-8, .cls-9, .cls-10, .cls-11, .cls-12, .cls-13, .cls-14, .cls-15, .cls-16, .cls-17 {
        stroke: #4e381a;
        stroke-miterlimit: 10;
      }

      .cls-1, .cls-3, .cls-5, .cls-8, .cls-11, .cls-18, .cls-12, .cls-13, .cls-14, .cls-17 {
        fill: none;
      }

      .cls-1, .cls-9 {
        stroke-width: 1.04524px;
      }

      .cls-2 {
        fill: #ab6670;
      }

      .cls-2, .cls-4, .cls-6, .cls-7, .cls-11, .cls-15, .cls-16 {
        stroke-width: 1.00134px;
      }

      .cls-3 {
        stroke-width: .93086px;
      }

      .cls-4 {
        fill: #7e594e;
      }

      .cls-19 {
        fill: #9e8098;
      }

      .cls-5, .cls-13 {
        stroke-width: 1.1493px;
      }

      .cls-6 {
        fill: #f0efef;
      }

      .cls-20 {
        fill: #796245;
      }

      .cls-21 {
        fill: #d4a57d;
      }

      .cls-7, .cls-10 {
        fill: #4e381a;
      }

      .cls-8 {
        stroke-width: .90736px;
      }

      .cls-22 {
        fill: #81684b;
      }

      .cls-9 {
        fill: #ad89ac;
      }

      .cls-23, .cls-16 {
        fill: #e0ae84;
      }

      .cls-24 {
        fill: #948063;
      }

      .cls-12 {
        stroke-width: .42073px;
      }

      .cls-25 {
        fill: #ca9b71;
      }

      .cls-13 {
        stroke-dasharray: 0 2.2986;
      }

      .cls-26 {
        fill: #eac4a0;
      }

      .cls-14 {
        stroke-width: .93511px;
      }

      .cls-15 {
        fill: #5f4f4b;
      }

      .cls-17 {
        stroke-width: 1.0226px;
      }
    </style>
  </defs>
  <g id="Layer_1-2" data-name="Layer 1">
    <g>
      <g>
        <path class="cls-16" d="m37.66384,70.78667c1.13596,4.3083,5.85757,8.32711,10.02703,8.68893,4.69539.40815,9.25612-2.75577,10.6782-7.5942.09257-.78682.03367-1.4852-.05891-2.03217-.00421-.03364-.01261-.06307-.01682-.09676-2.44867-.50907-5.9702-1.59038-9.56746-4.03903-7.43434-5.05722-10.05131-12.46632-10.84229-15.09169l-.21037,16.37068v3.92968"/>
        <path class="cls-11" d="m49.89551,37.2298c-.11358-.11361-.2314-.23137-.34919-.35761.122.13045.2398.25243.34919.35761Z"/>
        <path class="cls-11" d="m49.18447,36.4851c-.09255-.10097-.18931-.20615-.28188-.31555.02945.0379.05049.05896.0547.06738.07573.08413.15146.16825.22719.24817Z"/>
        <path class="cls-4" d="m44.80886,28.25559c8.12435,4.10215,14.74668,6.05014,19.22328,7.05991,1.93536.43753,3.38268.67737,5.20867.53013,3.74451-.29876,7.27446-2.09108,9.99659-4.5313,1.77972-1.58617,3.21441-3.45004,4.14002-5.35176,3.70244-7.62363.54695-18.59216-8.61239-25.29862-.95928.74892-2.53703,1.83018-4.67436,2.65901-5.14134,1.9859-8.65448.60167-16.26131.31976-4.78373-.18094-8.75545-.32813-13.50133.95507-2.73055.74049-8.15802,2.20885-12.32747,6.69809-1.40105,1.50621-2.44025,3.11338-3.21862,4.78789"/>
        <path class="cls-16" d="m31.18974,45.41309c.5764,3.08395,3.43738,5.35592,6.69385,5.20867.79098,2.62537,3.40795,10.03447,10.84229,15.09169,3.59726,2.44864,7.11879,3.52995,9.56746,4.03903.00421.03369.01261.06312.01682.09676,1.73763.33661,7.48485.90459,14.7551-5.94075,7.37967-6.95046,6.69387-16.37494,6.59288-17.53617-.24822-5.97439-.18091-9.12988-.42073-15.05799-2.72213,2.44022-6.25208,4.23255-9.99659,4.5313-1.82599.14725-3.27331-.0926-5.20867-.53013-4.4766-1.00977-11.09893-2.95776-19.22328-7.05991-.10939-.0547-.223-.10939-.33658-.1683.42913,1.45993,1.1612,3.38271,2.44864,5.42325.07154.11782.18094.28191.31555.48385.0547.07991.11361.16409.17251.25243.03367.04627.06309.0926.09676.13882.12621.17673.26506.3703.41234.56803.16407.21879.33658.44179.51749.66474.18933.23137.37446.44595.46701.55113.01682.01685.02524.03369.03788.04633.0084.00842.01261.01685.01682.02106.07573.08413.15146.16825.22719.24817.00842.01263.02106.02527.03367.0379.10939.12203.21879.23564.32818.34919.122.13045.2398.25243.34919.35761-1.87645,1.55674-3.75714,3.11764-5.63359,4.67439-.03367,3.82866-.07154,7.65311-.10518,11.48176-1.31271-2.27197-2.62958-4.64907-3.93387-7.12303-1.4936-2.83152-2.87361-5.59993-4.14421-8.28842-3.3785.82883-5.5074,4.15684-4.88891,7.43858Zm6.69385,1.48936c-1.16962-1.13596-2.33927-2.27192-3.5089-3.40787.16407-.07159,1.29584-.54276,2.33927,0,.10518.05465.20194.11355.29449.18089.00421.00421.00842.00842.01263.00842.07994.05886.15567.12624.22719.19352.03788.0379.07154.0757.10518.10939.03367.03785.06733.0757.09679.11361.15988.19773.29031.42073.38707.66474.01682.03364.02945.07154.04627.10939.06733.19778.11782.40394.14306.61852.0084.04622.01261.09676.01682.14298.01263.15151.01263.30718,0,.46285-.00421.06307-.01261.13045-.02103.19352-.00842.08834-.02524.18089-.04627.26928-.01685.06733-.03367.13882-.0547.20615,0,.00842,0,.01685-.00421.02101-.00842.0379-.02103.07575-.03367.11361Zm22.79951-5.15398c0,1.8765-.85407,3.39955-1.91433,3.39955-1.05604,0-1.91012-1.52305-1.91012-3.39955s.85407-3.40371,1.91012-3.40371c1.06025,0,1.91433,1.52305,1.91433,3.40371Zm12.1718,3.7698c-1.05604,0-1.91433-1.52305-1.91433-3.3995,0-1.8765.85829-3.39955,1.91433-3.39955s1.91014,1.52305,1.91014,3.39955-.8541,3.3995-1.91014,3.3995Zm-1.77548,4.89313c-.76153.47543-2.26354,1.22851-4.61124,1.38002,2.36873-.68164,3.88336-1.56511,3.79081-2.29724-.02103-.1851-.16409-.49649-.92141-.82883-.58061-.4628-1.26641-1.12338-1.84281-2.01949-1.53147-2.36878-1.28323-4.76694-1.12756-5.69674.26506,2.68007,1.30005,4.21996,2.25512,5.14555,1.57775,1.53147,3.73611,2.16257,3.58465,3.21441-.05891.43332-.47964.70264-1.12756,1.10232Zm-4.48082,13.20676c-.42073.01263-.90877.01685-1.45153-.00416-1.0392-.03785-2.42761-.15988-4.04324-.49649-.36182-.11782-2.05739-.66895-3.68141-1.99427-1.76708-1.43887-2.57488-2.80626-2.94513-3.92126-.34922-1.0602-.29873-1.8933-.29031-2.35183l17.49829.30713-.38709,2.54961-1.83018-.0547-2.8694,5.96596Z"/>
        <path class="cls-12" d="m58.31017,69.84925c-.20616-.03787-.35342-.07573-.44177-.09677"/>
        <path class="cls-12" d="m79.23742,31.31433c0-.04628-.00421-.09256-.00421-.14305"/>
        <path class="cls-7" d="m34.37469,43.49457c1.16962,1.13596,2.33927,2.27192,3.5089,3.40787.47122-1.4136-.07994-2.84416-1.16962-3.40787-1.04343-.54276-2.17521-.07159-2.33927,0Z"/>
        <path class="cls-7" d="m70.94057,42.11877c0,1.87645.85829,3.3995,1.91433,3.3995s1.91014-1.52305,1.91014-3.3995-.8541-3.39955-1.91014-3.39955-1.91433,1.52305-1.91433,3.39955Z"/>
        <path class="cls-7" d="m56.85865,41.74847c0,1.8765.85407,3.39955,1.91012,3.39955,1.06025,0,1.91433-1.52305,1.91433-3.39955s-.85407-3.40371-1.91433-3.40371c-1.05604,0-1.91012,1.52305-1.91012,3.40371Z"/>
        <path class="cls-7" d="m66.46818,51.79141c2.3477-.15151,3.84972-.90459,4.61124-1.38002.64792-.39968,1.06865-.669,1.12756-1.10232.15146-1.05183-2.0069-1.68293-3.58465-3.21441-.95507-.92559-1.99006-2.46549-2.25512-5.14555-.15567.9298-.40391,3.32796,1.12756,5.69674.5764.89611,1.2622,1.55669,1.84281,2.01949.75731.33234.90037.64373.92141.82883.09255.73212-1.42208,1.6156-3.79081,2.29724Z"/>
        <path class="cls-11" d="m66.59861,63.61819c.68159-.01683,1.17384-.0589,1.38842-.07994.97189-.08835,1.79653-.23982,2.44867-.38287"/>
        <path class="cls-11" d="m54.18699,54.76598v.08415"/>
        <path class="cls-6" d="m54.47729,57.20198l14.99071.45021,1.83018.0547.38709-2.54961-17.49829-.30713c-.00842.45853-.05891,1.29163.29031,2.35183Z"/>
        <line class="cls-11" x1="73.67954" y1="55.19092" x2="71.68527" y2="55.15726"/>
        <line class="cls-11" x1="54.18699" y1="54.85012" x2="53.94717" y2="54.84591"/>
        <line class="cls-11" x1="71.29819" y1="57.7069" x2="71.28557" y2="57.79525"/>
        <line class="cls-11" x1="71.71051" y1="54.98055" x2="71.68527" y2="55.15726"/>
        <line class="cls-11" x1="71.52539" y1="57.71531" x2="71.29819" y2="57.7069"/>
        <line class="cls-11" x1="54.47729" y1="57.20202" x2="54.34687" y2="57.19781"/>
        <path class="cls-2" d="m54.47729,57.20198c.37025,1.115,1.17805,2.48239,2.94513,3.92126,1.62402,1.32532,3.31959,1.87645,3.68141,1.99427,1.61563.33661,3.00404.45864,4.04324.49649.54276.02101,1.0308.01679,1.45153.00416l2.8694-5.96596-14.99071-.45021Z"/>
        <line class="cls-12" x1="66.59861" y1="63.61819" x2="66.58178" y2="63.65606"/>
        <line class="cls-11" x1="69.53112" y1="57.51757" x2="69.46801" y2="57.6522"/>
        <path class="cls-25" d="m31.52963,45.36644c.37831,1.92594,1.81147,3.42003,3.53457,4.25364.9139.44707,2.16683.58936,3.24579.54104.75688,2.51299,3.14018,10.01706,10.25405,14.8578,3.44219,2.34383,4.29901,2.66869,6.84658,3.50515.00403.03225,1.42897.44577,1.433.47797.30195.05639,1.29157.40997,1.83106.43814l1.81675.09337c1.56208.08461,3.309-.16483,6.3929-1.74352-2.99129.3222-12.68011.53525-18.11171-6.35-2.32621-2.94877-3.51277-5.05553-4.16659-6.38738l-1.50136-2.61528c-.97027-1.71157-2.42797-4.08425-3.39018-5.90859-1.42921-2.71032-2.75553-5.27243-3.97135-7.84584-3.23286.79335-4.74625,3.97135-4.2135,6.68349Zm2.08254-2.03411c.15699-.06853,2.20922-1.20783,4.06821.24216.92575.72207.93522,2.95727.48431,4.31037-1.1192-1.08733-3.43332-3.46519-4.55252-4.55252Z"/>
        <path class="cls-25" d="m57.81086,70.14843c-2.40206-.47379-4.75292-1.25651-8.28172-3.53547-7.29284-4.70676-10.34041-10.61619-11.11633-13.05962l-.16811,7.44162c.83369,1.32745,2.04471,3.34793,3.39018,4.60095,5.94325,5.54474,12.66782,4.79143,16.17598,4.55252"/>
        <path class="cls-15" d="m26.54413,51.54051c3.42477,6.42039,9.6937,13.45924,9.88304,13.71167,0,0,.87932.08834,1.06444.10939v1.59454s.21037-16.37068.21037-16.37068c-3.25647.14725-6.11745-2.12472-6.69385-5.20867-.61849-3.28174,1.51042-6.60975,4.88891-7.43858,1.2706,2.68849,2.65061,5.45689,4.14421,8.28842,1.30429,2.47396,2.62116,4.85106,3.93387,7.12303.03364-3.82866.07152-7.65311.10518-11.48176,1.87645-1.55674,3.75714-3.11764,5.63359-4.67439-.10939-.10518-.22719-.22716-.34919-.35761-.10939-.11355-.21879-.22716-.32818-.34919-.01261-.01263-.02524-.02527-.03367-.0379-.07573-.07991-.15146-.16404-.22719-.24817-.00421-.00421-.00842-.01263-.01682-.02106-.01263-.01263-.02106-.02948-.03788-.04633-.09255-.10518-.27767-.31976-.46701-.55113-.18091-.22295-.35343-.44595-.51749-.66474-.13885-.18515-.2777-.37446-.41234-.56803-.03367-.04622-.06309-.09255-.09676-.13882-.05891-.08834-.11782-.17251-.17251-.25243-.13461-.20194-.24401-.36604-.31555-.48385-1.28744-2.04054-2.01951-3.96332-2.44864-5.42325.11358.05891.22719.11361.33658.1683-3.29435-3.55522-8.1412-7.64473-14.78456-10.40472-1.80915-.75313-3.56781-1.32953-5.24234-1.76711-2.09524,4.48503-2.31822,9.41605-2.5244,13.91788-.14303,3.24383-.44598,12.3695,4.46818,21.57519Z"/>
        <path class="cls-11" d="m49.71389,37.19348c-.11358-.11361-.2314-.23137-.34919-.35761.122.13045.2398.25243.34919.35761Z"/>
        <path class="cls-11" d="m49.00285,36.44877c-.09255-.10097-.18931-.20615-.28188-.31555.02945.0379.05049.05896.0547.06738.07573.08413.15146.16825.22719.24817Z"/>
        <path class="cls-4" d="m44.62724,28.21927c8.12435,4.10215,14.74668,6.05014,19.22328,7.05991,1.93536.43753,3.38268.67737,5.20867.53013,3.74451-.29876,7.27446-2.09108,9.99659-4.5313,1.77972-1.58617,3.21441-3.45004,4.14002-5.35176,3.70244-7.62363.54695-18.59216-8.61239-25.29862-.95928.74892-2.53703,1.83018-4.67436,2.65901-5.14134,1.9859-8.65448.60167-16.26131.31976-4.78373-.18094-8.75545-.32813-13.50133.95507-2.73055.74049-8.15802,2.20885-12.32747,6.69809-1.40105,1.50621-2.44025,3.11338-3.21862,4.78789"/>
        <path class="cls-12" d="m58.12855,69.81292c-.20616-.03787-.35342-.07573-.44177-.09677"/>
        <path class="cls-12" d="m79.05581,31.278c0-.04628-.00421-.09256-.00421-.14305"/>
        <path class="cls-10" d="m70.75895,42.08244c0,1.87645.85829,3.3995,1.91433,3.3995s1.91014-1.52305,1.91014-3.3995-.8541-3.39955-1.91014-3.39955-1.91433,1.52305-1.91433,3.39955Z"/>
        <path class="cls-10" d="m56.67704,41.71214c0,1.8765.85407,3.39955,1.91012,3.39955,1.06025,0,1.91433-1.52305,1.91433-3.39955,0-1.88066-.85407-3.40371-1.91433-3.40371-1.05604,0-1.91012,1.52305-1.91012,3.40371Z"/>
        <path class="cls-11" d="m66.41699,63.58187c.68159-.01683,1.17384-.0589,1.38842-.07994.97189-.08835,1.79653-.23982,2.44867-.38287"/>
        <path class="cls-11" d="m54.00537,54.72965v.08415"/>
        <path class="cls-6" d="m54.29568,57.16565l14.99071.45021,1.83018.0547.38709-2.54961-17.49829-.30713c-.00842.45853-.05891,1.29163.29031,2.35183Z"/>
        <line class="cls-11" x1="73.49793" y1="55.15459" x2="71.50365" y2="55.12093"/>
        <line class="cls-11" x1="54.00537" y1="54.8138" x2="53.76555" y2="54.80959"/>
        <line class="cls-11" x1="71.11658" y1="57.67057" x2="71.10396" y2="57.75893"/>
        <line class="cls-11" x1="71.5289" y1="54.94423" x2="71.50365" y2="55.12093"/>
        <line class="cls-11" x1="71.34377" y1="57.67899" x2="71.11658" y2="57.67057"/>
        <line class="cls-11" x1="54.29568" y1="57.1657" x2="54.16525" y2="57.16149"/>
        <path class="cls-2" d="m54.29568,57.16565c.37025,1.115,1.17805,2.48239,2.94513,3.92126,1.62402,1.32532,3.31959,1.87645,3.68141,1.99427,1.61563.33661,3.00404.45864,4.04324.49649.54276.02101,1.0308.01679,1.45153.00416l2.8694-5.96596-14.99071-.45021Z"/>
        <line class="cls-12" x1="66.41699" y1="63.58187" x2="66.40016" y2="63.61974"/>
        <line class="cls-11" x1="69.3495" y1="57.48125" x2="69.28639" y2="57.61588"/>
      </g>
      <g>
        <g>
          <polygon class="cls-24" points="20.55462 142.15844 17.08841 211.17506 14.6084 211.21032 16.49841 142.14097 20.55462 142.15844"/>
          <polygon class="cls-24" points="78.14838 210.37815 75.55086 210.42488 72.78249 142.29433 76.37842 142.31269 78.14838 210.37815"/>
          <polygon class="cls-20" points="70.18842 210.52343 65.45837 210.6159 52.87842 157.99166 46.81842 157.99166 33.49841 210.9329 27.80896 211.00951 38.57895 142.20304 59.16703 142.26288 70.18842 210.52343"/>
          <polygon class="cls-20" points="65.45837 210.6159 63.49841 210.65557 59.95837 210.7216 47.95837 163.16953 36.58838 210.8801 33.49841 210.9329 46.81842 157.99166 52.87842 157.99166 65.45837 210.6159"/>
          <polygon class="cls-22" points="39.93842 142.207 28.58838 210.99901 16.46838 211.18388 19.56842 142.15419 39.93842 142.207"/>
          <polygon class="cls-22" points="76.67841 210.4046 69.39493 210.53796 58.1084 142.2598 73.78839 142.29947 76.67841 210.4046"/>
        </g>
        <polygon class="cls-5" points="59.89349 210.96585 78.08296 210.63216 76.31454 142.55761 16.44086 142.39077 14.54612 211.4664 36.52507 211.1327 47.89349 163.41379 59.89349 210.96585"/>
        <polyline class="cls-5" points="33.4377 211.18276 46.7577 158.24146 52.8177 158.24146 65.3977 210.86575"/>
        <line class="cls-13" x1="63.4377" y1="210.90537" x2="51.6877" y2="161.41159"/>
      </g>
      <g>
        <g>
          <g>
            <path class="cls-23" d="m82.46363,128.57903c-.24752,9.45608.22874,20.96194-1.26183,28.94924.05223-.08953.09398-.18004.1454-.26181-.89498,2.81939-1.49839,6.05927-2.3925,8.87087-.02146.3835.29886.73584.77079.86631.44137.1198.92706.03127,1.23121-.23147,1.11998-2.84564,1.99986-6.00469,3.11978-8.85033-.41228,2.28223-.58452,4.87788-.99685,7.16011-.28916.41359-.02886.92555.48145,1.09105.42923.13437.98284.00501,1.24246-.33269.60486-2.49241,1.13953-5.49482,1.75487-7.98626-.10927,1.74409-.13706,3.99131-.23671,5.74412-.02086.09245-.03548.3192.13913.55575.03578.0584.35626.50515.87686.48286.36186-.02137.67389-.25979.73033-.57704.89866-4.65984,1.59259-10.14109,1.59259-10.14109-.17363-1.10175.32096-5.07547,1.33222-12.74553l.00087-.00779c-.34361-6.23081.7862-29.42619,1.18529-49.3778-.28393-1.63124-.58691-3.09117-.87135-4.33696-3.08819-.09094-4.44778-.13104-5.10099-.1525-.37935-.01175-.76918-.02444-1.14859-.0362-.47438-.01268-.93834-.02444-1.41277-.03718-.75679,10.51786-.85043,28.76732-1.18164,41.35434Z"/>
            <path class="cls-21" d="m73.25861,155.56837c-.0523.08957-.39454.60044-.29752.86909-.00818.6443.90685.87898,1.50938.78563.56937-.08069.83574-.6695.88283-.71231.03724-.24039.50628-.46414.70036-.87877.22201-.47487.81774-1.36338,1.67893-1.88104,1.01985-.61303,1.44892-.57307,1.79864-.57982-.07673,1.07056-.40986,2.07005-.47611,3.14159-1.06354,2.52839-1.8715,5.1356-2.9255,7.67275-.06589.40289.21873.79127.69675.96163.38646.13826.85561.10331,1.20428-.08451,1.28086-2.29569,2.30854-4.97688,3.57111-7.2979,1.41855-7.83959,1.45943-18.12021,1.83952-27.84756.30914-7.91168-.52662-26.80345.60401-42.45602-1.30734-.03523-2.61462-.07041-3.92103-.11343.2163,3.09598.46878,7.76857.51198,13.46794.04878,6.12471-.20448,6.78551-.24371,12.94129-.0653,11.52625.76828,13.44461.36509,21.35227-.15851,3.3285-.55328,7.83073-1.52723,13.16789-1.36306,1.03729-2.45313,2.09217-3.24652,3.42637-.90739,1.50454-2.09774,2.60511-2.72528,4.0649Z"/>
            <path class="cls-26" d="m90.69167,91.64901c-.09847,19.97961-.98884,43.19728-.47396,49.44404.1612-1.22791.34494-2.54807.53914-3.96169.75241-5.43648.94001-5.34824,1.24704-8.33248.6504-6.40572.26284-11.68876-.18339-15.22305.49518-4.34341.63208-9.3495.01484-14.89779-.2445-2.24113-.63894-4.46478-.63894-4.46478-.15958-.89591-.3234-1.75289-.50473-2.56425Z"/>
          </g>
          <path class="cls-8" d="m73.09723,155.43782c-.05223.08953-.39454.60044-.29752.86909-.00818.6443.90685.87898,1.50938.78563.56937-.08069.83574-.6695.88283-.71231.03731-.24039.50628-.46419.70042-.87876.22195-.47492.81768-1.36343,1.67887-1.88105,1.01985-.61303,1.44892-.57307,1.79864-.57982-.07673,1.07056-.40986,2.07005-.47611,3.14159-1.06354,2.52839-1.8715,5.1356-2.92549,7.6727-.0659.40294.21873.79132.69675.96168.38646.13826.85561.10331,1.20428-.08451,1.00487-1.8101,1.85607-3.85479,2.79885-5.77294-.64073,2.3396-1.1706,4.8233-1.87248,7.04706-.02146.38345.29886.73584.77079.86631.44137.11975.92706.03127,1.23121-.23147,1.11992-2.84564,1.9998-6.0047,3.11978-8.85033-.41228,2.28223-.58451,4.87783-.99685,7.16006-.28916.41359-.02886.92555.48145,1.0911.42916.13436.98284.00501,1.24246-.33269.60486-2.49241,1.13953-5.49482,1.75487-7.98626-.10926,1.74404-.13705,3.99126-.23671,5.74412-.02086.09245-.03548.3192.13913.55575.03579.05836.35619.50514.87686.48281.36186-.02132.67389-.25975.73032-.577.89866-4.65984,1.59259-10.14109,1.59259-10.14109-.17363-1.10175.32096-5.07547,1.33222-12.74553l.00087-.00779c.15764-1.22824.33621-2.54893.52516-3.96304.73144-5.43844.89107-5.35275,1.20161-8.33672.65913-6.40486.40965-11.67509.08226-15.19831.49343-4.34352.68975-9.34408.24729-14.87614-.17459-2.23457-.47816-4.44976-.47816-4.44976-.12287-.89249-.25007-1.74606-.39287-2.55388-.28394-1.63119-.58692-3.09112-.87142-4.33692-3.08813-.09094-4.44772-.13103-5.10092-.15255-.37935-.01171-.76918-.02444-1.1486-.03615-.47444-.01274-.93834-.02444-1.41277-.03718l-.00259.02333c-1.17042-.03031-2.35124-.06163-3.52073-.09973.21631,3.09593.46878,7.76857.51198,13.46794.04878,6.12466-.20448,6.78546-.24371,12.94129-.0653,11.52625.76828,13.44461.36509,21.35227-.15851,3.3285-.55327,7.83068-1.52723,13.16789-1.36306,1.03729-2.45313,2.09217-3.24646,3.42637-.90746,1.50454-2.0978,2.60511-2.72535,4.06489Z"/>
        </g>
        <g>
          <g>
            <path class="cls-23" d="m11.69552,130.22221c-.05884,9.46125-.94234,20.95717.34628,28.97558-.05154-.09062-.0921-.182-.14307-.26485.84005,2.83807,1.36149,6.09054,2.2009,8.9208.00954.38395-.3368.7296-.83404.85022-.46496.11059-.96922.01192-1.27803-.25716-1.07415-2.86901-1.88703-6.04643-2.96111-8.91545.35397,2.29084.44674,4.89008.80077,7.18091.28811.41963-.00092.92616-.53942,1.081-.45277.12541-1.02659-.0155-1.28639-.35862-.54804-2.50503-1.00566-5.51861-1.56468-8.02289.05558,1.74637.00919,3.99417.05444,5.74906.01868.09289.02634.31994-.16395.55284-.03933.05766-.38901.49771-.93195.46456-.37719-.02892-.69506-.27386-.74335-.59229-.78213-4.67859-1.32288-10.17433-1.32288-10.17433.21831-1.09813-.16486-5.08217-.96357-12.77333l-.00064-.00781c.56795-6.22364.16645-29.4426.41922-49.40254.35127-1.62532.71667-3.07892,1.05554-4.31877,3.22819-.02649,4.64941-.03821,5.33231-.04604.39657-.00384.80411-.00838,1.20074-.01223.49584-.00278.98077-.00486,1.47667-.00769.43738,10.53365-.07726,28.78507-.15377,41.37901Z"/>
            <path class="cls-21" d="m20.25119,157.59409c.05161.09066.39189.60868.28155.87529-.01308.64447-.97656.86005-1.60268.75413-.59191-.09257-.85033-.68694-.89808-.73073-.03083-.24117-.51315-.47471-.70193-.89338-.21592-.4795-.80825-1.38045-1.69026-1.91608-1.0445-.63431-1.49394-.60331-1.85894-.61736.04421,1.07216.35856,2.0786.3918,3.15152,1.02586,2.55058,1.78214,5.17466,2.79774,7.73381.05529.40426-.25499.78671-.75992.94709-.40823.13019-.89702.08545-1.25485-.10964-1.26062-2.32242-2.24389-5.02506-3.48456-7.37243-1.21836-7.8692-.91605-18.15067-.98655-27.88596-.05734-7.91813,1.44947-26.79247.79398-42.46863,1.36649-.00795,2.73293-.01584,4.09871-.0316-.32979,3.09146-.75027,7.75879-.98666,13.45726-.25648,6.12369-.01416,6.78977-.17978,12.94638-.31861,11.52761-1.25354,13.42858-1.09784,21.34465.05384,3.33181.31502,7.84228,1.15305,13.19976,1.38869,1.06573,2.4917,2.14337,3.2755,3.49413.89714,1.52348,2.10334,2.64889,2.70972,4.12178Z"/>
            <path class="cls-26" d="m3.83645,93.15533c-.66308,19.98825-.5884,43.22975-1.39012,49.46952-.12825-1.2312-.2775-2.55507-.43453-3.97264-.60999-5.45173-.81775-5.36679-1.03714-8.35752-.46149-6.41949.16437-11.69747.78672-15.22505-.37193-4.35371-.32804-9.36395.55825-14.90319.35275-2.23756.86815-4.45497.86815-4.45497.20837-.89338.41987-1.74774.64867-2.55617Z"/>
          </g>
          <path class="cls-3" d="m20.7267,157.26608c.05186.09059.39434.60852.28304.87519-.01355.64451-.98396.86058-1.61444.75495-.59604-.0923-.85595-.68655-.90401-.73033-.03096-.24116-.5165-.47452-.70642-.89306-.2171-.47947-.81309-1.38017-1.70102-1.91535-1.05152-.63383-1.50412-.6026-1.87169-.61648.04387,1.07219.35988,2.07851.39273,3.15147,1.03159,2.55019,1.7917,5.174,2.81298,7.73271.05545.40428-.25723.78692-.76584.94755-.41117.13039-.90339.08587-1.26365-.10904-.99459-1.83067-1.81951-3.89281-2.74512-5.83027.59345,2.35279,1.06533,4.84742,1.72706,7.08558.00936.38393-.33962.72981-.84044.85067-.46832.11078-.97609.0124-1.28691-.25656-1.08001-2.86861-1.89678-6.04575-2.97687-8.91436.35514,2.29076.44705,4.89002.80227,7.18077.28988.41949-.00147.9262-.54388,1.08133-.45596.12563-1.03383-.01497-1.29524-.358-.55047-2.50486-1.00956-5.51834-1.57109-8.02244.05496,1.74636.00694,3.99427.05151,5.74926.01876.09289.02634.31995-.16545.55296-.03965.05761-.39199.49789-.93881.46497-.37982-.02869-.69979-.27347-.74825-.5919-.78493-4.6784-1.32632-10.17408-1.32632-10.17408.2205-1.09828-.16305-5.08228-.96294-12.77337l-.00063-.00781c-.12356-1.23152-.26596-2.55592-.4161-3.97396-.58227-5.45365-.75313-5.3712-.97714-8.36166-.47302-6.41864-.02947-11.68409.43597-15.20085-.36961-4.35381-.40419-9.35865.25132-14.88202.26045-2.23113.65585-4.44027.65585-4.44027.15992-.89004.32304-1.74106.50101-2.54603.35468-1.62551.72353-3.07934,1.06556-4.31941,3.25094-.02807,4.68221-.04048,5.36995-.0487.39936-.00398.80979-.00877,1.20922-.01276.4994-.00308.98771-.00534,1.48711-.00842l.00193.02339c1.23197-.00647,2.47493-.01376,3.70619-.02804-.33392,3.0917-.76008,7.75946-1.00145,13.45827-.26184,6.12402-.01821,6.79001-.18858,12.94699-.32755,11.52823-1.27021,13.42974-1.11802,21.34605.05229,3.33191.31269,7.84239,1.15353,13.19973,1.39788,1.06511,2.50804,2.14223,3.29652,3.49267.90265,1.52311,2.11672,2.64797,2.72653,4.12062Z"/>
        </g>
        <g>
          <path class="cls-9" d="m16.08006,142.68732c20.62485-.16522,41.24973-.33047,61.87461-.4957.06992-4.78365.06695-10.08194-.06178-15.8266-.12133-5.41302-.34855-10.96104-.69727-16.63657-.38819-6.31827-.90606-12.45433-1.52957-18.39934-.31818-2.77216-.63632-5.5443-.9545-8.31645.72454,2.74738,1.44905,5.49474,2.17357,8.24211.65553,2.87369,1.31105,5.74736,1.96658,8.62105,4.86466-1.38947,9.72928-2.77895,14.59394-4.16841.81767-7.3243-1.53701-12.23811-2.73987-15.22826-1.84078-4.57602-3.24433-7.77315-7.45222-10.42105-1.65604-1.0421-6.36246-2.43877-9.9363-1.42105-2.60004.7404-5.91992,1.49139-8.4385,2.43877-2.24255.28421-4.48513.56842-6.72771.85263-.96987,3.78569-3.9545,6.73506-7.55572,7.38948-5.00106.9088-10.83058-2.67378-12.00637-8.62105-2.51858.1579-5.60347-.85983-8.12205-.70193-2.76008-1.0421-4.95388-.9086-7.71395-1.9507-3.56791-.54404-5.00653-.98558-8.53606-.16508-2.68512.62421-3.60965,1.03967-4.50534,2.05981-5.93295,6.75728-8.71083,22.73552-9.1083,25.10527l16.87103,2.55789c1.72506-4.70526,3.45011-9.41052,5.17517-14.11578-1.70585,6.89478-4.2136,17.94829-6.0032,30.50526-.92489,6.48979-1.24437,10.47888-1.37784,13.12712-.03091.61331-.27523,2.62357-.37873,5.65515-.02114.61914.08159,3.52876.10349,3.78947.20702,2.46315.51753,4.31053,1.0869,6.12395Z"/>
          <path class="cls-1" d="m30.46688,69.99495c.35979,1.0836,3.28039,12.59796,14.04196,15.31579,1.90257.48048,7.92811,2.00224,13.24841-1.32632,6.66036-4.16695,6.24456-12.19962,6.21019-12.69473"/>
          <path class="cls-19" d="m55.29577,141.99634c-13.03392.10004-26.06785.21002-39.10177.31-.57908-1.81-.88495-3.65997-1.09253-6.12-.02187-.26001-.12023-3.16998-.09836-3.78998.09836-3.03003.33868-5.04004.37149-5.66003.14203-2.63995.45885-6.63,1.3766-13.12,1.73709-12.15997,4.14068-22.90997,5.84503-29.83997,3.34315,1.52997,11.41699,6.03998,13.05579,9.87.66643,1.56.72104,2.76001.8194,4.73999.58994,11.01001,1.03792,16.04999,1.86819,20.46002,1.04886,5.57996,2.13045,7.07996,2.68766,7.76996,2.78595,3.42999,7.01405,2.26001,10.56479,5.31,1.60606,1.38,3.20112,5.47003,3.70371,10.07001Z"/>
        </g>
        <path class="cls-14" d="m1.30789,91.98079c1.46434-.31955,5.31539-.02437,7.45783.27732,5.38217.75789,7.65407,1.23698,9.59309,2.31674"/>
        <path class="cls-17" d="m78.13737,96.63894c1.05841-.98482,4.4798-2.2895,6.46044-2.85974,4.9757-1.43253,7.16544-1.85707,9.4112-1.4601"/>
        <path class="cls-18" d="m21.95375,83.91337c2.91201,1.24037,11.85254,6.06108,13.5848,10.11316.66626,1.55853.72348,2.7556.82804,4.73685.58118,11.01263,1.03112,16.04771,1.86306,20.46315,1.05122,5.57924,2.12945,7.07549,2.69109,7.76843,2.78031,3.43034,7.01062,2.25778,10.55732,5.30525,1.63383,1.40385,3.23963,5.57793,3.72611,10.23158"/>
      </g>
    </g>
  </g>
</svg>