<?xml version="1.0" encoding="UTF-8"?>
<svg id="Layer_2" data-name="Layer 2" xmlns="http://www.w3.org/2000/svg" viewBox="0 0 88.59106 271.95259">
  <defs>
    <style>
      .cls-1 {
        stroke-dasharray: 0 0 3.05346 3.05346;
      }

      .cls-1, .cls-2, .cls-3, .cls-4, .cls-5, .cls-6, .cls-7, .cls-8, .cls-9, .cls-10, .cls-11, .cls-12, .cls-13 {
        stroke: #4e381a;
        stroke-miterlimit: 10;
      }

      .cls-1, .cls-3, .cls-4, .cls-5, .cls-9, .cls-10, .cls-14, .cls-12, .cls-13 {
        fill: none;
      }

      .cls-2 {
        fill: #f0efef;
      }

      .cls-3 {
        stroke-dasharray: 0 3;
      }

      .cls-15, .cls-8 {
        fill: #4e381a;
      }

      .cls-16 {
        fill: #d7d4cf;
      }

      .cls-5 {
        stroke-width: .89057px;
      }

      .cls-6, .cls-17 {
        fill: #e0ae84;
      }

      .cls-18 {
        fill: #d4a57d;
      }

      .cls-19 {
        fill: #a0bdb1;
      }

      .cls-7 {
        fill: #e6e7e8;
      }

      .cls-20 {
        fill: #bc6d65;
      }

      .cls-9 {
        stroke-width: .86808px;
      }

      .cls-10 {
        stroke-width: 1.00134px;
      }

      .cls-21 {
        fill: #525246;
      }

      .cls-22, .cls-11 {
        fill: #f1f2f2;
      }

      .cls-23 {
        fill: #c9e2da;
      }

      .cls-24 {
        fill: #bac157;
      }

      .cls-12 {
        stroke-width: .89464px;
      }

      .cls-25 {
        fill: #ca9b71;
      }

      .cls-26 {
        fill: #eac4a0;
      }

      .cls-27 {
        fill: #5a5c5d;
      }

      .cls-28 {
        fill: #acd5cb;
      }

      .cls-13 {
        stroke-width: .97834px;
      }
    </style>
  </defs>
  <g id="Layer_1-2" data-name="Layer 1">
    <g>
      <g>
        <path class="cls-19" d="m50.52171,145.6983c-5.79999-.03998-11.60999-.08002-17.41003-.10999h-.12c-4.12-.03003-8.25-.06-12.37-.08002l.42999,12.46002.01001.27997,1.04004,30.27002v.07001l.37,10.69v.07996l.00995.25c.87006-.00995,1.75-.01996,2.63-.02997,4.01001-.03998,8.17004-.07001,12.36005-.10999,2.27997-.02002,4.57001-.04004,6.87-.05005.28998-.00995.58997-.00995.88-.00995,0-.02002-.01001-.05005-.01001-.07001,0-.04004-.01001-.08002-.01001-.12-1.97003-15.61005-.32001-24.57001,1.73999-29.98004.51001-1.32996,2-4.94995,2.94-10.13.97998-5.44.91003-10.10999.64001-13.40997Zm-26.67999,6.08002v-.25c-.01001-.66003-.03003-1.27002-.04999-1.80005,2.26996.01001,3.96997-.00995,6.15997,0h.21997c-.16998.57001-.39996,1.18005-.69,1.80005-.03998.07996-.07996.16998-.12.25-.63995,1.31-1.57996,2.65997-2.95996,3.82996-.81.70001-1.66003,1.23004-2.46002,1.62,0-.09998-.01001-.20996-.01001-.31995-.02997-1.5-.06-3.43005-.08997-5.13Z"/>
        <path class="cls-19" d="m30.17425,149.72581c-.19.64996-.46002,1.34998-.81,2.04999h-5.52002c-.01001-.75-.03003-1.45001-.04999-2.04999,2.34998.01001,4.07996-.01001,6.38,0Z"/>
        <path class="cls-19" d="m29.36425,151.7758c-.64001,1.31-1.58002,2.66003-2.96002,3.83002-.81.70001-1.66003,1.22998-2.46002,1.62-.03998-1.53998-.07001-3.63-.09998-5.45001h5.52002Z"/>
        <path class="cls-19" d="m22.57726,199.27904c-.88798,0-1.77588.00993-2.64905.00993-.76948.00993-1.53905.00993-2.30861.01987.02963-.97254.04444-2.49095,0-4.32688-.23674-8.95153-1.84985-15.5808-2.24936-17.29765-1.1987-5.32922-1.15208-14.57525-.30853-32.09126,2.07178.00993,3.04628-.04288,5.11815-.03295l2.3974,53.71894Z"/>
        <path class="cls-28" d="m71.00169,162.82831c-.46997,14.08002-.16998,26.20001-3.16998,36.23999v.02002c-.54999.01001-1.14001.01001-1.73999.01996-.21002,0-.42004.01001-.64001.01001-5.83002.08002-13.54999.25-19.16998.29004h-1.06c0-.02002-.01001-.05005-.01001-.07001,0-.04004-.01001-.08002-.01001-.12-1.97003-15.61005-.32001-24.57001,1.73999-29.98004.51001-1.32996,2-4.94995,2.94-10.13.97998-5.44.91003-10.10999.64001-13.40997,6.67999.03998,13.35999.08002,20.03998.12.45001,5.22998.65002,10.91998.44,17.01001Z"/>
        <path class="cls-23" d="m73.60906,176.19305c-1.09998,8.66998-.49365,15.65159-2.27368,22.83158-.85999.01001-4.39368.16945-5.27368.18947,3-10.04004,4.47254-22.29829,4.94251-36.38832.21002-6.08997.01001-11.77997-.44-17.01001.84003.01001,1.69.01001,2.53003.02002.85999,12.25,1.41485,23.22725.51483,30.35726Z"/>
        <path class="cls-4" d="m71.80906,199.49832c.81442-8.75503,1.3517-12.83584,1.51579-24.15789.09474-6.53684.4806-17.50408-.37894-29.74737-19.38948-.12631-38.77895-.25262-58.16843-.37894-.56924,17.65225.12979,27.03885.94737,32.39999.2645,1.73441,1.35921,8.41006,1.51578,17.43158.03224,1.85736.01715,3.37894,0,4.35788,15.66316-.18948,39.09474-.18946,54.7579-.37894"/>
        <line class="cls-4" x1="20.4617" y1="144.772" x2="22.35643" y2="199.84568"/>
        <g>
          <line class="cls-4" x1="18.94589" y1="144.51933" x2="18.99076" y2="146.01866"/>
          <line class="cls-1" x1="19.08206" y1="149.07078" x2="20.49753" y2="196.37821"/>
          <line class="cls-4" x1="20.54318" y1="197.90422" x2="20.58805" y2="199.40354"/>
        </g>
        <path class="cls-3" d="m21.34591,161.06675c1.36337-.30646,5.10287-1.33829,8.08421-4.80002,4.20294-4.88019,3.59363-10.75146,3.47368-11.74738"/>
        <path class="cls-4" d="m20.43883,158.09318c1.27415-.23419,3.62764-.85901,5.82243-2.73213,4.20946-3.59253,4.37973-8.82792,4.39449-9.73037"/>
        <path class="cls-4" d="m23.80906,157.2141c-.07368-2.16843-.08421-5.56841-.15789-7.73683,2.47368.01053,4.25263-.01054,6.72631,0"/>
        <line class="cls-4" x1="23.24064" y1="151.52989" x2="29.65117" y2="151.52989"/>
      </g>
      <g>
        <g>
          <path class="cls-25" d="m26.25236,211.50248c-.38,14.94-.75,29.88-1.13,44.83002,0,.13-.01001.26001-.01001.39001-1.73999.75-3.34003,1.96997-4.15002,3.26996.09003-.26996.19-.56.29999-.87.12-.32996.25-.69.38-1.07996.12-3.16003.21002-6.35004.28003-9.56.26001-11.59003.17999-22.84003-.19-33.73004-.70001-2.39996-1.34003-5.13-1.79999-8.14996-.27002-1.80005-.41003-4.84003-.51001-6.49005,1.16998,0,2.34998-.00995,3.53998-.01996.87-.01001,1.75-.02002,2.63-.03003.22003,3.81.44,7.63.66003,11.44Z"/>
          <path class="cls-26" d="m40.54234,199.88248c-.98999,5.71002-2.54999,12.89001-3.92999,19.70001-1.64001,8.06-2.40002,11.02997-3.29004,16.41998-.92999,5.60999-1.67999,13.90002-2.02997,20.90002-.01001.03998-.01001.07001-.01001.10999-.45001-.40002-.94-.69-1.45001-.85999-.13995-.04004-.27997-.08002-.41998-.10999,0-.07001,0-.15002.01001-.22003.16998-7.02997.85999-12.96997,1.63-17.79999,1.07001-6.60999,2.60999-12.84998,5.31-28.53998.59998-3.49005,1.12-6.70001,1.58002-9.59003.81-.01001,1.62-.01001,2.41998-.01001h.17999Z"/>
          <path class="cls-17" d="m37.94236,199.89249c-.46002,2.89001-.98004,6.09998-1.58002,9.59003-2.70001,15.69-4.23999,21.92999-5.31,28.53998-.77002,4.83002-1.46002,10.77002-1.63,17.79999-.01001.07001-.01001.15002-.01001.22003-1.27002-.27002-2.83002.02997-4.29999.67999,0-.13.01001-.26001.01001-.39001.38-14.95001.75-29.89001,1.13-44.83002-.22003-3.81-.44-7.63-.66003-11.44,4.10999-.04999,8.27002-.13995,12.35004-.16998Z"/>
          <path class="cls-4" d="m34.16233,264.44251c-.01.06-.01.12-.02.18m-13.21-5.02c.1-.16.21-.32.33-.48.88-1.15,2.31-2.16,3.86-2.79,1.47-.59,3.03-.84,4.3-.51.09.02.18.05.27.08.51.17,1,.47,1.45.87.05.03.1.07.15.13m-13.73,11.41h-.26m19.17-.33h-.27m-16.92-68.11c-.01-.04-.01-.07-.01-.1m-.12,65.14c-.18.05-.32.09-.43.12"/>
          <path class="cls-11" d="m40.40232,199.63248c-.01001.08002-.02997.16003-.03998.25-.79999,0-1.60999,0-2.41998.01001-4.08002.03003-8.24005.12-12.35004.16998-.88.01001-1.76001.02002-2.63.03003-1.19.01001-2.37.01996-3.53998.01996.09998,1.65002.23999,4.69.51001,6.49005.45996,3.01996,1.09998,5.75,1.79999,8.14996.37,10.89001.45001,22.14001.19,33.73004-.07001,3.20996-.16003,6.39996-.28003,9.56-.13.38995-.26001.75-.38,1.07996-.10999.31-.20996.60004-.29999.87.81-1.29999,2.41003-2.51996,4.15002-3.26996,1.46997-.65002,3.02997-.95001,4.29999-.67999.14001.02997.28003.06995.41998.10999.51001.16998,1,.45996,1.45001.85999,0-.03998,0-.07001.01001-.10999,1.90997,1.75,3.10999,5.14001,2.87,7.53998-.21002-.13-.46002-.26001-.72998-.39001-3.90002-1.82996-11.94.19-14.28003.85004.09003-.14001.17999-.29004.26001-.47003.27002-.57996.22998-.94.38-1.70996.10999-.52002.20001-.72003.65997-1.98004.25-.67999.61005-1.66998,1.05005-2.94.12-3.15997.20996-6.34998.27997-9.56995.25-11.59003.16998-22.84003-.19-33.73004-.70001-2.39996-1.33997-5.12-1.79999-8.14001-.27002-1.79999-.40002-4.83997-.51001-6.48999,6.94,0,14.17999-.23999,21.12-.23999Z"/>
          <path class="cls-11" d="m36.20231,267.98252l-18.63995.32996c.12-1.51996.50995-2.26996.90997-2.64996.10999-.10004.40002-.35004.67999-.75v-.01001c2.34003-.66003,10.38-2.67999,14.28003-.85004.26996.13.51996.26001.72998.39001.90997.58002,1.29999,1.16998,1.45001,1.41003.40997.69.57001,1.42999.58997,2.13Z"/>
          <path class="cls-7" d="m36.20231,267.98252c.03003,1.45996-.53998,2.75995-.67999,3.07996-5.96997.13-11.94.25-17.90997.38-.10999-1.29999-.12-2.32001-.04999-3.13l18.63995-.32996Z"/>
          <path class="cls-4" d="m19.13233,199.87251h.15"/>
          <path class="cls-4" d="m40.36233,199.88251c-.99,5.67-2.53,12.75-3.89,19.46-1.64,8.06-2.4,11.02-3.29,16.42-.93,5.64-1.69,13.99-2.04,21.01v.08"/>
        </g>
        <g>
          <path class="cls-25" d="m48.21232,211.10251c-.38,14.94-.75,29.87-1.13,44.82001,0,.12994-.01001.26996-.01001.39996-1.73999.75-3.33997,1.97003-4.14996,3.27002.08997-.27002.19-.56.29999-.87.12-.33002.25-.69.38-1.08002.12-3.15997.21002-6.34998.27997-9.56.26001-11.59003.18005-22.84003-.18994-33.72998-.70001-2.40002-1.34003-5.13-1.80005-8.15002-.26996-1.79999-.40997-4.84003-.51001-6.48999,1.17004,0,2.35004-.01001,3.54004-.02002.87-.01001,1.75-.01996,2.63-.02997.21997,3.81.44,7.63.65997,11.44Z"/>
          <path class="cls-26" d="m62.50236,199.48252c-.99005,5.70996-2.55005,12.88995-3.93005,19.69995-1.63995,8.06-2.39996,11.03003-3.28998,16.42004-.92999,5.60999-1.67999,13.89996-2.02997,20.89996-.01001.04004-.01001.07001-.01001.10999-.45001-.39996-.94-.68994-1.45001-.85999-.14001-.03998-.28003-.07996-.41998-.10999,0-.07001,0-.15002.00995-.21997.17004-7.03003.86005-12.97003,1.63-17.80005,1.07001-6.60999,2.61005-12.84998,5.31-28.53998.60004-3.48999,1.12006-6.70001,1.58002-9.59003.81-.00995,1.60999-.00995,2.41003-.00995h.19Z"/>
          <path class="cls-17" d="m59.90232,199.49247c-.45996,2.89001-.97998,6.10004-1.58002,9.59003-2.69995,15.69-4.23999,21.92999-5.31,28.53998-.76996,4.83002-1.45996,10.77002-1.63,17.80005-.00995.06995-.00995.14996-.00995.21997-1.27002-.27002-2.83002.03003-4.30005.67999,0-.13.01001-.27002.01001-.39996.38-14.95001.75-29.88,1.13-44.82001-.21997-3.81-.44-7.63-.65997-11.44,4.10999-.05005,8.26996-.14001,12.34998-.17004Z"/>
          <path class="cls-4" d="m56.12233,264.04251c-.01.06-.01.12-.02.18m-13.21-5.02c.1-.16.21-.32.33-.48.88-1.15,2.31-2.17,3.86-2.8,1.47-.58,3.03-.83,4.3-.5.09.02.18.05.27.08.51.17.99.47,1.44.86.05.03.11.08.16.14m-13.73,11.41h-.27m19.17-.33h-.26m-16.92-68.03v-.08c-.01-.04-.01-.07-.01-.1m-.12,65.13c-.18.05-.33.1-.44.13"/>
          <path class="cls-11" d="m62.35233,199.25248c-.02002.08002-.03003.15002-.03998.23004-.80005,0-1.60004,0-2.41003.00995-4.08002.03003-8.23999.12-12.34998.17004-.88.01001-1.76001.01996-2.63.02997-1.19.01001-2.37.02002-3.54004.02002.10004,1.64996.24005,4.69.51001,6.48999.46002,3.02002,1.10004,5.75,1.80005,8.15002.37,10.88995.44995,22.13995.18994,33.72998-.06995,3.21002-.15997,6.40002-.27997,9.56-.13.39001-.26001.75-.38,1.08002-.10999.31-.21002.59998-.29999.87.81-1.29999,2.40997-2.52002,4.14996-3.27002,1.47003-.64996,3.03003-.95001,4.30005-.67999.13995.03003.27997.07001.41998.10999.51001.17004,1,.46002,1.45001.85999,0-.03998,0-.06995.01001-.10999,1.90997,1.75,3.10999,5.14001,2.87,7.54004-.21002-.13-.46002-.26001-.73004-.39001-3.89996-1.83002-11.91998.19-14.27997.84998.08997-.14001.17999-.28998.26001-.46997.26996-.58002.21997-.94.38-1.70001.09998-.53003.19995-.72998.65997-1.98999.25-.67999.60999-1.66998,1.03998-2.94.12-3.16003.22003-6.35004.29004-9.57001.25-11.59003.16998-22.84003-.19-33.72998-.70001-2.40002-1.34003-5.12-1.79999-8.14001-.27002-1.78003-.40002-4.73999-.51001-6.41003.28998-.00995.58997-.00995.88-.00995h1.06c5.62-.04004,13.33997-.21002,19.16998-.29004Z"/>
          <path class="cls-11" d="m58.16233,267.58249l-18.64001.33002c.10999-1.53003.5-2.27002.90002-2.65002.10999-.10999.40997-.34998.69-.76001,2.35999-.65997,10.38-2.67999,14.27997-.84998.27002.13.52002.26001.73004.39001.90997.57996,1.29999,1.16998,1.44995,1.40997.41003.69.57001,1.42999.59003,2.13Z"/>
          <path class="cls-7" d="m58.16233,267.58249c.03003,1.46002-.53998,2.76001-.69,3.08002-5.96002.13-11.92999.25-17.90002.38-.10999-1.30005-.12-2.33002-.04999-3.13l18.64001-.33002Z"/>
          <path class="cls-4" d="m41.09233,199.47251h1.02c5.11-.02,10.38-.15,15.55-.21h.6c.73-.01,1.45-.02,2.17-.02.2-.01.41-.01.61-.01h1.31v.02"/>
          <path class="cls-4" d="m62.31233,199.48251c-.98,5.67-2.53,12.75-3.89,19.46-1.64,8.06-2.4,11.02-3.28,16.42-.93,5.64-1.69,13.98-2.05,21v.09"/>
        </g>
      </g>
      <path class="cls-20" d="m65.11783,60.82686c-2.38-.02002-4.87-.03998-7.31995-.04999,2.42999.03998,4.91998.08997,7.06995.15997-.38,1.23004-1.27997,3.16003-1.67999,4.42999-2.25.27002-5.13.19-7.32001-1.25995-1.35999-.91003-2.25-2.22003-2.84998-3.60004.51001.01001,1.03998.02002,1.57001.02002.54999.01001,1.09998.01996,1.66998.01996.60004,0,1.21002.01001,1.83002.02002,2.42999.04004,4.91998.09003,7.07001.16003-.01001.02997-.02002.06-.04004.09998Z"/>
      <g>
        <g>
          <g>
            <path class="cls-17" d="m77.88469,131.78059c-.22656,9.45608.20937,20.96194-1.15496,28.94924.0478-.08953.08602-.18004.13309-.26181-.81918,2.81939-1.37148,6.05927-2.18987,8.87087-.01964.3835.27355.73584.70551.86631.40398.1198.84854.03127,1.12693-.23147,1.02512-2.84564,1.83048-6.00469,2.85554-8.85033-.37736,2.28223-.53501,4.87788-.91242,7.16011-.26467.41359-.02642.92555.44068,1.09105.39287.13437.89959.00501,1.13723-.33269.55363-2.49241,1.04302-5.49482,1.60624-7.98626-.10001,1.74409-.12545,3.99131-.21666,5.74412-.01909.09245-.03248.3192.12735.55575.03275.0584.32608.50515.80259.48286.33121-.02137.61681-.25979.66847-.57704.82255-4.65984,1.4577-10.14109,1.4577-10.14109-.15893-1.10175.29377-5.07547,1.21939-12.74553l.00079-.00779c-.31451-6.23081.71961-29.42619,1.0849-49.3778-.25989-1.63124-.5372-3.09117-.79755-4.33696-2.82663-.09094-4.07107-.13104-4.66895-.1525-.34722-.01175-.70403-.02444-1.05131-.0362-.4342-.01268-.85886-.02444-1.29312-.03718-.69269,10.51786-.7784,28.76732-1.08156,41.35434Z"/>
            <path class="cls-18" d="m69.45931,158.76993c-.04787.08957-.36113.60044-.27232.86909-.00749.6443.83004.87898,1.38154.78563.52115-.08069.76495-.6695.80806-.71231.03409-.24039.4634-.46414.64104-.87877.20321-.47487.74848-1.36338,1.53673-1.88104.93347-.61303,1.3262-.57307,1.6463-.57982-.07023,1.07056-.37514,2.07005-.43579,3.14159-.97347,2.52839-1.71299,5.1356-2.67772,7.67275-.06031.40289.20021.79127.63774.96163.35372.13826.78314.10331,1.10229-.08451,1.17238-2.29569,2.11301-4.97688,3.26865-7.2979,1.2984-7.83959,1.33582-18.12021,1.68372-27.84756.28296-7.91168-.48202-26.80345.55286-42.45602-1.19661-.03523-2.39317-.07041-3.58893-.11343.19798,3.09598.42908,7.76857.46862,13.46794.04465,6.12471-.18717,6.78551-.22307,12.94129-.05977,11.52625.70321,13.44461.33417,21.35227-.14509,3.3285-.50642,7.83073-1.39788,13.16789-1.24761,1.03729-2.24536,2.09217-2.97155,3.42637-.83054,1.50454-1.92007,2.60511-2.49446,4.0649Z"/>
            <path class="cls-26" d="m86.1371,95.37933c-.09013,19.97961-.90509,43.19728-.43381,49.44404.14755-1.22791.31572-2.54807.49347-3.96169.68869-5.43648.86039-5.34824,1.14142-8.33248.59531-6.40572.24058-11.68876-.16786-15.22305.45324-4.34341.57854-9.3495.01358-14.89779-.22379-2.24113-.58483-4.46478-.58483-4.46478-.14606-.89591-.29601-1.75289-.46198-2.56425Z"/>
          </g>
          <path class="cls-9" d="m69.31159,158.63938c-.0478.08953-.36113.60044-.27232.86909-.00749.6443.83004.87898,1.38154.78563.52115-.08069.76495-.6695.80806-.71231.03415-.24039.4634-.46419.6411-.87876.20315-.47492.74842-1.36343,1.53667-1.88105.93347-.61303,1.3262-.57307,1.6463-.57982-.07023,1.07056-.37514,2.07005-.43579,3.14159-.97347,2.52839-1.71299,5.1356-2.67771,7.6727-.06032.40294.2002.79132.63773.96168.35372.13826.78314.10331,1.10229-.08451.91976-1.8101,1.69887-3.85479,2.5618-5.77294-.58647,2.3396-1.07145,4.8233-1.71389,7.04706-.01964.38345.27355.73584.70551.86631.40399.11975.84854.03127,1.12693-.23147,1.02506-2.84564,1.83042-6.0047,2.85554-8.85033-.37736,2.28223-.535,4.87783-.91242,7.16006-.26467.41359-.02642.92555.44067,1.0911.39281.13436.89959.00501,1.13723-.33269.55363-2.49241,1.04302-5.49482,1.60624-7.98626-.10001,1.74404-.12545,3.99126-.21666,5.74412-.01909.09245-.03248.3192.12735.55575.03276.05836.32602.50514.8026.48281.33121-.02132.61681-.25975.66847-.577.82255-4.65984,1.4577-10.14109,1.4577-10.14109-.15893-1.10175.29377-5.07547,1.21939-12.74553l.00079-.00779c.14429-1.22824.30773-2.54893.48068-3.96304.66949-5.43844.8156-5.35275,1.09984-8.33672.6033-6.40486.37495-11.67509.07529-15.19831.45163-4.34352.63133-9.34408.22635-14.87614-.1598-2.23457-.43766-4.44976-.43766-4.44976-.11246-.89249-.22889-1.74606-.35959-2.55388-.25989-1.63119-.53721-3.09112-.79762-4.33692-2.82657-.09094-4.07101-.13103-4.66889-.15255-.34722-.01171-.70403-.02444-1.05132-.03615-.43425-.01274-.85886-.02444-1.29312-.03718l-.00237.02333c-1.07129-.03031-2.1521-.06163-3.22253-.09973.19799,3.09593.42908,7.76857.46862,13.46794.04465,6.12466-.18716,6.78546-.22307,12.94129-.05977,11.52625.70321,13.44461.33417,21.35227-.14509,3.3285-.50641,7.83068-1.39788,13.16789-1.24761,1.03729-2.24536,2.09217-2.97149,3.42637-.8306,1.50454-1.92013,2.60511-2.49452,4.06489Z"/>
        </g>
        <g>
          <g>
            <path class="cls-17" d="m13.11041,133.42377c-.05386,9.46125-.86253,20.95717.31695,28.97558-.04717-.09062-.0843-.182-.13095-.26485.7689,2.83807,1.24618,6.09054,2.01449,8.9208.00874.38395-.30828.7296-.7634.85022-.42558.11059-.88713.01192-1.16979-.25716-.98317-2.86901-1.72721-6.04643-2.71032-8.91545.32399,2.29084.4089,4.89008.73295,7.18091.2637.41963-.00084.92616-.49373,1.081-.41442.12541-.93964-.0155-1.17744-.35862-.50162-2.50503-.92049-5.51861-1.43216-8.02289.05087,1.74637.00841,3.99417.04983,5.74906.0171.09289.02411.31994-.15007.55284-.036.05766-.35606.49771-.85301.46456-.34524-.02892-.63619-.27386-.68039-.59229-.71589-4.67859-1.21084-10.17433-1.21084-10.17433.19982-1.09813-.1509-5.08217-.88196-12.77333l-.00059-.00781c.51985-6.22364.15235-29.4426.38371-49.40254.32152-1.62532.65597-3.07892.96614-4.31877,2.95477-.02649,4.25562-.03821,4.88068-.04604.36298-.00384.736-.00838,1.09904-.01223.45384-.00278.8977-.00486,1.3516-.00769.40034,10.53365-.07072,28.78507-.14075,41.37901Z"/>
            <path class="cls-18" d="m20.94144,160.79566c.04724.09066.3587.60868.2577.87529-.01197.64447-.89385.86005-1.46694.75413-.54178-.09257-.77831-.68694-.82201-.73073-.02822-.24117-.46969-.47471-.64248-.89338-.19763-.4795-.73979-1.38045-1.5471-1.91608-.95604-.63431-1.36741-.60331-1.7015-.61736.04046,1.07216.32819,2.0786.35861,3.15152.93897,2.55058,1.6312,5.17466,2.56078,7.73381.05061.40426-.23339.78671-.69556.94709-.37366.13019-.82104.08545-1.14857-.10964-1.15385-2.32242-2.05384-5.02506-3.18943-7.37243-1.11517-7.8692-.83847-18.15067-.903-27.88596-.05249-7.91813,1.32671-26.79247.72674-42.46863,1.25076-.00795,2.50146-.01584,3.75156-.0316-.30186,3.09146-.68673,7.75879-.90309,13.45726-.23476,6.12369-.01296,6.78977-.16456,12.94638-.29163,11.52761-1.14737,13.42858-1.00486,21.34465.04928,3.33181.28834,7.84228,1.05539,13.19976,1.27107,1.06573,2.28066,2.14337,2.99808,3.49413.82115,1.52348,1.92519,2.64889,2.48022,4.12178Z"/>
            <path class="cls-26" d="m5.91697,96.3569c-.60692,19.98825-.53856,43.22975-1.27238,49.46952-.11739-1.2312-.25399-2.55507-.39773-3.97264-.55833-5.45173-.74849-5.36679-.94929-8.35752-.42241-6.41949.15045-11.69747.72009-15.22505-.34043-4.35371-.30025-9.36395.51096-14.90319.32287-2.23756.79462-4.45497.79462-4.45497.19072-.89338.38431-1.74774.59373-2.55617Z"/>
          </g>
          <path class="cls-5" d="m21.37667,160.46765c.04746.09059.36094.60852.25907.87519-.01241.64451-.90062.86058-1.4777.75495-.54556-.0923-.78345-.68655-.82744-.73033-.02834-.24116-.47275-.47452-.64659-.89306-.19871-.47947-.74422-1.38017-1.55695-1.91535-.96246-.63383-1.37673-.6026-1.71316-.61648.04015,1.07219.3294,2.07851.35947,3.15147.94422,2.55019,1.63995,5.174,2.57473,7.73271.05075.40428-.23544.78692-.70097.94755-.37635.13039-.82687.08587-1.15662-.10904-.91035-1.83067-1.66541-3.89281-2.51261-5.83027.54318,2.35279.9751,4.84742,1.58079,7.08558.00857.38393-.31085.72981-.76926.85067-.42866.11078-.89342.0124-1.17791-.25656-.98854-2.86861-1.73613-6.04575-2.72474-8.91436.32506,2.29076.40919,4.89002.73432,7.18077.26533.41949-.00135.9262-.49782,1.08133-.41734.12563-.94627-.01497-1.18554-.358-.50385-2.50486-.92405-5.51834-1.43802-8.02244.0503,1.74636.00635,3.99427.04714,5.74926.01717.09289.02411.31995-.15143.55296-.03629.05761-.35879.49789-.8593.46497-.34765-.02869-.64052-.27347-.68487-.5919-.71845-4.6784-1.21398-10.17408-1.21398-10.17408.20183-1.09828-.14924-5.08228-.88139-12.77337l-.00058-.00781c-.1131-1.23152-.24344-2.55592-.38085-3.97396-.53296-5.45365-.68934-5.3712-.89438-8.36166-.43296-6.41864-.02698-11.68409.39904-15.20085-.33831-4.35381-.36995-9.35865.23004-14.88202.23839-2.23113.6003-4.44027.6003-4.44027.14637-.89004.29568-1.74106.45857-2.54603.32464-1.62551.66225-3.07934.97531-4.31941,2.9756-.02807,4.28564-.04048,4.91514-.0487.36554-.00398.7412-.00877,1.10681-.01276.4571-.00308.90405-.00534,1.36115-.00842l.00177.02339c1.12763-.00647,2.26531-.01376,3.39229-.02804-.30564,3.0917-.6957,7.75946-.91663,13.45827-.23966,6.12402-.01667,6.79001-.17261,12.94699-.29981,11.52823-1.16263,13.42974-1.02333,21.34605.04786,3.33191.28621,7.84239,1.05583,13.19973,1.27948,1.06511,2.29562,2.14223,3.01732,3.49267.8262,1.52311,1.93744,2.64797,2.4956,4.12062Z"/>
        </g>
        <g>
          <path class="cls-2" d="m17.12359,145.88888c18.87799-.16522,37.75601-.33047,56.63403-.4957.064-4.78365.06128-10.08194-.05655-15.8266-.11105-5.41302-.31903-10.96104-.63821-16.63657-.35532-6.31827-.82932-12.45433-1.40002-18.39934-.29123-2.77216-.58243-5.5443-.87366-8.31645.66318,2.74738,1.32632,5.49474,1.98947,8.24211.60001,2.87369,1.20001,5.74736,1.80002,8.62105,4.45264-1.38947,8.90524-2.77895,13.35788-4.16841.74841-7.3243-1.40683-12.23811-2.50781-15.22826-1.68488-4.57602-2.96954-7.77315-6.82104-10.42105-1.51578-1.0421-5.82358-2.43877-9.09473-1.42105-2.37982.7404-5.41852,1.49139-7.72379,2.43877-2.05261.28421-4.10526.56842-6.1579.85263-.88773,3.78569-3.61957,6.73506-6.91577,7.38948-4.57748.9088-9.91327-2.67378-10.98947-8.62105-2.30527.1579-5.12888-.85983-7.43414-.70193-2.52631-1.0421-4.5343-.9086-7.06061-1.9507-3.26572-.54404-4.58249-.98558-7.81308-.16508-2.4577.62421-3.30392,1.03967-4.12375,2.05981-5.43045,6.75728-7.97305,22.73552-8.33685,25.10527l15.44211,2.55789c1.57895-4.70526,3.1579-9.41052,4.73685-14.11578-1.56137,6.89478-3.85672,17.94829-5.49475,30.50526-.84656,6.48979-1.13898,10.47888-1.26114,13.12712-.02829.61331-.25192,2.62357-.34665,5.65515-.01935.61914.07468,3.52876.09473,3.78947.18948,2.46315.47369,4.31053.99484,6.12395Z"/>
          <path class="cls-4" d="m30.29189,73.19652c.32932,1.0836,3.00255,12.59796,12.85265,15.31579,1.74142.48048,7.25662,2.00224,12.12631-1.32632,6.09625-4.16695,5.71567-12.19962,5.6842-12.69473"/>
          <path class="cls-16" d="m53.01785,145.1979c-11.92999.10004-23.85999.21002-35.78998.31-.53003-1.81-.81-3.65997-1-6.12-.02002-.26001-.11005-3.16998-.09003-3.78998.09003-3.03003.31-5.04004.34003-5.66003.13-2.63995.41998-6.63,1.26001-13.12,1.58997-12.15997,3.78998-22.90997,5.34998-29.83997,3.06,1.52997,10.45001,6.03998,11.95001,9.87.60999,1.56.65997,2.76001.75,4.73999.53998,11.01001.95001,16.04999,1.70996,20.46002.96002,5.57996,1.95001,7.07996,2.46002,7.76996,2.54999,3.42999,6.41998,2.26001,9.66998,5.31,1.47003,1.38,2.92999,5.47003,3.39001,10.07001Z"/>
        </g>
        <path class="cls-12" d="m3.60257,95.18235c1.34032-.31955,4.86519-.02437,6.82617.27732,4.92632.75789,7.0058,1.23698,8.78059,2.31674"/>
        <path class="cls-13" d="m73.92485,99.84051c.96877-.98482,4.10037-2.2895,5.91326-2.85974,4.55427-1.43253,6.55855-1.85707,8.6141-1.4601"/>
        <path class="cls-14" d="m22.4998,87.11494c2.66537,1.24037,10.84867,6.06108,12.43421,10.11316.60983,1.55853.6622,2.7556.7579,4.73685.53195,11.01263.94379,16.04771,1.70526,20.46315.96219,5.57924,1.9491,7.07549,2.46317,7.76843,2.54483,3.43034,6.41684,2.25778,9.66315,5.30525,1.49545,1.40385,2.96524,5.57793,3.41052,10.23158"/>
      </g>
      <g>
        <path class="cls-22" d="m68.15808,60.49154c-.08997.04004-.08997-.00995-.09998-.01996-3.20001-.04999-6.73999-.07001-10.19-.09003-.62-.01001-1.22998-.02002-1.83002-.02002-.57001,0-1.12-.00995-1.66998-.01996-.53998-.01001-1.06-.01001-1.57001-.02002-.41998-.95001-.69-1.94-.85999-2.83997,5.14001.15997,10.96997.33997,16.21997.5.04999.70996-.07996,1.85999,0,2.50995Z"/>
        <g>
          <path class="cls-17" d="m72.49482,42.18335c-.59998,0-1.25-.07001-1.92999-.25-3.92999-1-5.51001-4.60999-5.69-5.04999.21002,1.75.42004,3.5.62,5.25v.00995c.01001.02002.01001.03003.01001.05005-.41998.02997-1.54999.09998-3.01996-.12h-.01001c-1.97003-.27002-4.56-1.03003-6.95001-3.04004-3.34003-2.82001-4.28003-6.39001-4.53998-7.58002-3.05005,3.03003-4.62006,5.98004-5.43005,7.83002-.39996.90002-4.20996,9.91998-.88995,19.58002.85999,2.47998,1.75,3.76001,2.35999,5.44,2.58002,1.58997,5.69,3.04999,9.33002,4,3.44995.89996,6.62,1.14996,9.27997,1.09998,2.66003-1.69,4.26001-3.95001,5.15002-5.20001.13-.17999.26001-.37.37-.54999.01001-.01001.01001-.01996.01001-.01996.17999-.31.33997-.64001.5-.97003l.01001-.01001c.44995-3.78998.76996-7.88.87994-12.25.07001-2.87.04004-5.60999-.06-8.21997Zm-9.34998,4.23999c1.10999,4.28998,2.31,5.46997,3.28003,5.65002.29999.06.95996.08997,1.03998.37994.12.46002-1.29999,1.24005-2.17999,1.61005-.07001.02997.67682-.37171.60681-.35169-1.10999-1.05005-1.93472-1.8203-2.24472-3.28033-.32001-1.52002-.60877-2.44788-.50211-4.008Zm-8.66998-1.56c.23999-.83002.70996-1.39001,1.23999-1.39001.78998,0,1.41998,1.21002,1.41998,2.70001s-.63,2.70001-1.41998,2.70001c-.71002,0-1.31-1.01001-1.40002-2.33002-.01996-.12-.01996-.23999-.01996-.37,0-.47003.06995-.91998.17999-1.31Zm12.09998,19.90002c.06-.02002.09003-.03003.10004-.03003,0,0-.03003.01001-.10004.03003Zm1.72003-4.10004c-.01001.02002-.17004.10999-.26001.16003-.12.06-.12,0-.13-.01001-3.20001-.04999-6.73999-.07001-10.19-.09003,2.42999.04004,4.91998.09003,7.07001.16003-.39001,1.25995-1.32001,3.25-1.71002,4.51996,1.72998-.28998,2.70001-.46997,3.19-.57001-1.42999.40002-7.08002,1.88-10.77002-.56995-1.35999-.91003-2.25-2.22003-2.84998-3.60004-.45001-1.02997-.72998-2.09998-.90997-3.06,5.21997.16003,11.19995.34998,16.56.51001.04999.71997-.08002,1.90002,0,2.54999Zm1.81995-14.35999c-.01996,1.46002-.63995,2.64001-1.41998,2.64001-.77997,0-1.41998-1.21002-1.41998-2.70001s.64001-2.70001,1.41998-2.70001c.79004,0,1.41998,1.21002,1.41998,2.70001v.06Z"/>
          <path class="cls-26" d="m74.57483,53.36334c-.21997,1.53998-.56,3.10999-1.04999,4.65997-.53998,1.72003-1.17999,3.26001-1.84998,4.63.44995-3.78998.76996-7.88.87994-12.25.07001-2.87.04004-5.60999-.06-8.21997.78003,0,1.47003-.10999,2.04004-.26001,0,3.35999.03998,8.15997.03998,11.44Z"/>
          <path class="cls-25" d="m65.63483,69.40332c-.72998.47003-1.52997.89001-2.42999,1.23999-2.63,1.02002-5.35999,1.01001-7.79999.56-3.60999-.64996-6.57001-2.25995-7.64001-2.88995-.02002-.33002-.04999-.62-.07001-.86005-.12-1.29999-.34998-2.27997-.66998-3.14996,2.58002,1.58997,5.69,3.04999,9.33002,4,3.44995.89996,6.62,1.14996,9.27997,1.09998Z"/>
          <path class="cls-25" d="m55.21485,74.46331c-.03003.20001-.04999.39001-.08002.58002-1.29999.03003-2.73999-.03998-4.27997-.29999-1.37-.22998-2.64001-.57001-3.79004-.97998.76001-2.03003.78003-4.07001.70001-5.45001,1.07001.63,4.03003,2.23999,7.64001,2.88995,0,1.90002.06,1.22003-.19,3.26001Z"/>
          <path class="cls-17" d="m55.13483,75.04333c-.25,1.90002-.47998,3.20001-1.44,4.44-1.88,2.44-5.06,2.69-5.87,2.75-.54999.03998-3.78998.23999-6.63-2.09003-.72998-.58997-1.82001-1.94-2.52997-3.08997,2.07001-1.67999,3.04999-3.66998,3.46997-4.66998.04999,2.17999.09003,4.37.13,6.56.85999-.41003,2.08002-1.14001,3.16003-2.40002.75995-.88,1.27997-1.83002,1.63995-2.77997,1.15002.40997,2.42004.75,3.79004.97998,1.53998.26001,2.97998.33002,4.27997.29999Z"/>
          <path class="cls-26" d="m67.46485,52.4533c.12.46002-1.29999,1.24005-2.17999,1.61005-.07001.02997-.13.04999-.20001.07001-1.10999-1.05005-1.89001-2.37-2.20001-3.83002-.32001-1.52002-.07001-2.88.26001-3.88,1.10999,4.28998,2.31,5.46997,3.28003,5.65002.29999.06.95996.08997,1.03998.37994Z"/>
        </g>
        <path class="cls-27" d="m86.41539,78.91916c-.86005.06-4.94.29999-8.33002-2.66003-2.03998-1.76996-2.89001-3.87-3.22998-4.91998-.18005,1.83002-.37006,3.66003-.56,5.48999-.47003-.17999-3.76001-1.51996-4.93005-5.10999-.83997-2.59998-.07996-4.82001.19-5.5.54004-.81,1.11005-1.75,1.67004-2.81v-.01001c2.62-4.01996,3.19995-7.98999,3.34998-9.95001v-.23999c.52002-3.54999.45001-6.91998.22998-9.42999v-.02002c.01001-.71997.02002-1.40997.02002-2.04999-.08002.03003-.15997.04999-.25.07001-1.02002.26001-2.44.41998-4.01001.02002-3.92999-1-5.5-4.62-5.67999-5.06.03998.34998.08002.69.12,1.03998-.22998-.40997.0179-.90024-.03209-1.01029.19,1.62006.34684,3.36942.53684,4.98947.01001.07996-.31475.23084-.31475.31085-.53998.02997-1.46997.03998-2.64996-.11005h-.01001c-1.97003-.26996-4.60004-1.03998-7-3.07001-3.34003-2.81-4.29004-6.38995-4.55005-7.57996-.08997.08997-.17999.17999-.25995.26996-.01001-.01996-.02002-.03998-.02002-.06-3.04999,3.03003-4.62,5.98004-5.42999,7.83002-.40002.90002-3.64317,9.64387-.32316,19.3039.85999,2.47998,1.75843,3.87792,2.36842,5.55791.32001.87.54317,1.73158.66317,3.03157.01996.23999-.01997,1.65947,0,1.98948.08002,1.37994-.4384,2.56715-1.19841,4.59712-.36005.95001-.88,1.90002-1.64001,2.78003-.45001.52002-.91998.95001-1.38,1.31-.03998.02997-.08002.06-.10999.07001-.51001.35999-.98004.62-1.38.82001-.04999-2.19-.09003-4.38-.13-6.57001-.07001.17999-.16998.39001-.28003.62,0-.14001-.00995-.27002-.00995-.41003-.40002.95001-1.31,2.81-3.19,4.44-.09003.07001-.18005.15002-.28003.23004,0,0,0,.01001.01001.01001-.01001.00995-.03003.01996-.03998.02997-.74005.57001-1.5,1-2.24005,1.33002.30005-.97003-.25634-2.36624.01368-3.91623,2.82001-4.77002,1.65266-9.08891,1.71266-12.37895.10004-5.14996.02855-7.39318.3485-17.42314.11005-3.52002.32538-8.03688,1.61536-12.57686.84003-2.96002,1.83667-4.3532,2.64667-6.06316-2.44,1.00995-5.06578,2.65315-7.51579,3.66316.31-.52997,1.68602-3.86685,2.35607-4.73684,1.13-1.46997,2.54026-3.30685,4.97025-4.73684,3.95001-2.32996,6.2998-2.02514,7.94977-2.02514-1.83997-.77002-3.00288-.60589-5.61293-1.19591-2.19-.48999-5.27054-.94368-7.01053-1.07368,2.46002-1.45001,7.89347-4.72303,12.62345-5.78303,3.77002-.84003,5.22265-.43326,7.74267-.34329-3.10999-1.57001-5.65206-2.56011-8.76205-4.13012,3.85004,0,9.56223.72003,13.29222,2.30005,9.81006,4.15997,14.13,12.44995,15.03003,14.26996,3,6.08002,3.17999,11.73004,3.04999,14.72003,1.91003,3.38995,2.39001,3.89996,2.76001,7.76996.34003,3.52002-.13,5.89001-1.27002,8.71002-.73999,1.85999-3.69,9.84003-.56,18.17999.64001,1.72003,1.96002,4.39001,4.92004,7.20001Z"/>
        <path class="cls-21" d="m60.33907,10.46514c-3.11005-1.57001-6.22003-3.13-9.33002-4.70001h-.01001c-2.40002,0-4.77002.28003-7.06.81-.40002.10004-.79999.20001-1.20001.31006-4.66998,1.25995-8.95996,3.56-12.33997,6.60999-4.66003,4.20001-6.66003,8.95996-7.83002,11.75-.82001,1.95001-2.22998,5.27997-2.90002,9.48999v.01001c0,.02997-.01001.04999-.01001.07996-.56,3.46002-.62,7.51001.55005,11.85004.01996.08997.03998.17999.07001.27002.07996.29999.16998.60999.26996.90997,3.19,10.14001,11.02002,15.28998,13.5,16.73999.59003,3.58002,1.16003,7.79999.90002,8.52002-1.22998,3.46997-3.39001,5.56-4.41998,6.44.50995.02997,1.62.03998,3.00995-.25.10004-.01001,3.06109-.5695,3.17108-.59947,1.28003-1.59003,1.31896-3.18208,2.17895-4.64211.13-.21997-1.59001.16156-1.47002-.05841,2.52002-4.49005,3.28003-8.36005,3.34003-11.5.09998-5.15002-1.71002-8.41003-1.39001-18.44.10999-3.52002.47998-7.46002,1.77002-12,.83997-2.96002,1.83997-5.36005,2.64996-7.07001-2.44,1.01001-4.88,2.01996-7.32996,3.02997.31-.52997.76996-1.29999,1.44-2.15997q0-.01001.00995-.02002c1.13-1.46997,2.82001-3.20996,5.25-4.64001,3.95001-2.32996,7.70001-2.52997,9.35004-2.52997-1.84003-.77002-4.09003-1.56-6.70001-2.15002-2.19-.48999-4.19-.75-5.92999-.88,2.46002-1.44995,6.13-3.23999,10.85999-4.29999,3.77002-.83997,7.08002-.96997,9.60004-.88Zm-27.74005,41.10999c-1.94995-.94995-2.94995-3.07996-2.44995-4.98999.39996-1.53998,1.73999-2.73999,3.39996-3.07001v.01001c-.31,2.62-.62,5.23004-.92999,7.85004,0,.07001-.01001.13-.02002.19995Z"/>
        <path class="cls-24" d="m20.27537,46.94912c-.67999-.37994-1.37-.72998-2.02002-1.12994-1.77002-1.06006-3.20001-2.43005-3.02002-5.54004.02002-.33997.07001-.65997.15002-.95996.71002-2.87006,3.64001-4.26001,4.28003-4.57001-.58002,3.54999-.64001,7.71997.60999,12.19995Z"/>
        <path class="cls-27" d="m17.13536,66.54916c.71002,5.60999.16003,10.08997-.13,12.38-.33002,2.60999-.95001,5.89996-2.14996,9.59998-.54004-1.87-1.04004-4.16998-1.26001-6.82001-.34003-4.08997.09998-7.56.63-10.09998-1.16003,3.20001-2.84003,9.29999-1.51001,16.66998.57001,3.16003,1.54999,5.79004,2.51996,7.83002-.91998-.08002-9.82996-1.03998-13.50995-8.08002-2.57001-4.91998-1.22003-10.20996-.51001-13.01001,1.34998-5.28998,3-4.32001,4.67999-9.72998.89001-2.88,1.52997-8.06,2.77997-18.32001.07001-.64996.26001-2.14996,1.26001-3.65997,1.26001-1.89001,4.21002-3.53003,5.45001-3.98999-.08002.29999-.13.62-.15002.95996-.17999,3.10999,1.25,4.47998,3.02002,5.54004-.83002,2.16998-2.83002,7.47998-2.76001,11.25995.06,3.80005,1.01001,4.51001,1.64001,9.47003Z"/>
        <g>
          <line class="cls-4" x1="57.05933" y1=".5" x2="57.05925" y2=".50006"/>
          <g>
            <g>
              <g>
                <path class="cls-15" d="m36.99433,34.90572c-.48535,2.51785-1.40999,4.8299-1.93677,7.28659-1.63747,7.29359-1.73422,14.99483-.06292,22.28601.00013.00031.28715,1.26269.28723,1.26303,0,0-1.10936-.65369-1.10936-.65369-9.61893-5.54769-16.03408-16.51072-15.08099-27.70905.37202-5.53941,2.36915-10.76622,4.76297-15.71923,4.81294-10.13715,15.8503-16.35033,26.91569-16.47097,11.1522-.34056,21.99368,6.24109,27.05302,16.14901,2.48753,4.87087,3.82961,10.38349,3.38773,15.8605-.02085.04178.11215.09268-.38504.10779-.49323-.06982-.35629-.10379-.37323-.14691,0,0,.00323-.12592.00323-.12592,0,0,.00653-.25174.00653-.25174.68672-16.51226-13.0194-31.03972-29.67563-30.56265-7.99256.15-16.02793,3.41939-21.48437,9.32125-3.67069,3.93938-5.82458,9.02758-7.56327,14.06373-4.66464,13.24542.90632,27.52777,12.99282,34.52015-.00023.00007-.82236.60895-.82236.60895-1.6538-7.48551-1.49341-15.31338.3536-22.73166.65392-2.44846,1.29337-4.94864,2.7311-7.09518h0Z"/>
                <path class="cls-15" d="m34.56275,63.87938c1.12689,2.72527,1.14836,5.62983,1.21134,8.55029-.50712,2.9286-2.46793,5.49649-4.63227,7.45862-.00013-.00006-.3141-.91025-.3141-.91025,4.71366.23729,9.32431-2.62881,11.08672-7.02226.00004.00007,1.01589-2.44558,1.01589-2.44558l.04948,2.6481s.12271,6.5683.12271,6.5683l-.78912-.48523c1.87361-.88571,3.4194-2.40109,4.26479-4.28296,1.25855-2.80185,1.19495-6.28587.37304-9.23651-1.15587-3.02223-2.91382-5.96386-3.3935-9.25186-1.61885-8.74537.85727-18.37119,7.34219-24.59718-.00005-.00004.67271-.67045.67271-.67045.35238,1.86079.97551,3.69739,2.0152,5.29043,2.52426,4.07727,7.42753,6.34909,12.16658,5.9771-.00002.00005-.46746.56972-.46746.56972l-.62866-5.30539-.39737-3.35364,1.37094,3.09848c1.60693,4.02708,6.46907,6.21086,10.44227,4.28519-.00007.00018-.29099.38488-.29099.38488.9466-5.6242-.1213-11.46479-2.69932-16.53276-.33437-.69778-.73348-1.40835-1.12688-2.0748-.02054-.01711.01754-.07094.27947-.26751.35851-.16574.32509-.20121.40416-.07078,3.68122,5.55602,4.96783,12.51889,4.13347,19.09027-.00006,0-.03787.27424-.03787.27424,0,0-.25333.11075-.25333.11075-3.26022,1.52807-7.39003.79083-9.83235-1.87795-.81282-.86048-1.47798-1.82874-1.95677-2.93137,0,0,.97348-.25513.97348-.25513.05194.48952.66792,5.54457.698,5.83613-7.09505.89491-14.20708-4.03733-15.60669-11.09614-.00013.00018.8775.25823.8775.25823-7.72361,7.4858-9.67948,20.11259-4.98229,29.71028,3.46545,6.07517,2.70143,15.51142-4.63514,18.27485-.03219-.32879-.11653-6.84077-.14662-7.41797.00006.00007,1.0653.20249,1.0653.20249-2.15053,5.39228-7.82725,8.25776-13.47476,7.57346,2.40723-1.94111,4.72357-4.50413,5.41617-7.58994.23496-2.81895-.53402-5.63147-.31592-8.48618h0Z"/>
                <path class="cls-15" d="m74.81011,41.37938c.92679,2.0344.77143,4.27759.874,6.44758.15761,6.57178-1.69963,13.1782-5.38702,18.63058-.53144,1.29552-.7491,4.09619.16458,5.76553.81344,1.82702,2.45406,3.27676,4.30785,4.03531l-.73532.44934.57275-5.49408.26263-2.51904.78366,2.40903c1.38542,4.66756,6.20812,7.6628,11.00477,7.22004-.00007.00012-.31977.90597-.31977.90597-5.82638-5.19586-7.52225-13.66383-5.90774-21.0782.62779-3.67792,2.74188-6.94891,2.80212-10.71474.07846-2.70049-.13313-5.52994-1.49043-7.92706-.19649-.33637-.78087-1.5033-.97479-1.84724,0-.00006-.16277-.31103-.16277-.31103,0,0-.08136-.15549-.08136-.15549l-.04068-.07773c.01895-.04416-.16364.02484.28806-.26245.48038-.23648.32648-.1167.37411-.11008l.04541.07462c.04103.08415.22464.35729.2723.44772,2.19171,3.02204,2.71454,6.54498,2.71022,10.19906.07784,3.8471-2.1218,7.19323-2.747,10.88712-1.52135,7.12096.04346,15.13673,5.6352,20.11164-.00012.00005.87793.82027.87793.82027l-1.19781.08582c-5.25099.50068-10.58657-2.8148-12.11072-7.93772-.00009.00013,1.04612-.10989,1.04612-.10989l-.56403,5.495-.07349.71579c-4.84521-1.52204-7.73697-6.92602-5.66298-11.68671,3.55401-5.32384,5.38108-11.64072,5.44399-18.02679.13299-2.17251-.31537-4.2583-.00981-6.44218h0Z"/>
              </g>
              <path class="cls-10" d="m20.05222,34.62147c-.29906.18216-4.30989,1.80685-4.53159,5.58948-.25262,4.31055,2.57343,5.2662,5.14737,6.72632"/>
              <path class="cls-10" d="m15.74169,39.21622c-1.20879.43835-4.24523,2.0951-5.52632,4.02631-1.00272,1.51157-1.18353,3.00732-1.26316,3.66315-1.24461,10.25095-1.88515,15.43521-2.77895,18.3158-1.6791,5.41153-3.3242,4.44052-4.67368,9.72632-.71584,2.80386-2.06501,8.08844.50526,13.01053,3.67813,7.04364,12.59127,7.9993,13.51579,8.08423-.96968-2.03925-1.95648-4.67285-2.52631-7.8316-1.32905-7.36749.3537-13.47125,1.51578-16.67368-.53384,2.54211-.9727,6.01819-.63158,10.10526.22104,2.64825.71892,4.94662,1.26315,6.82108,1.19801-3.70438,1.8154-6.99405,2.14737-9.60001.29254-2.29645.83319-6.76819.12633-12.37897-.62567-4.96631-1.57944-5.67133-1.64211-9.47366-.06361-3.86035,2.02378-9.32963,2.81052-11.40001"/>
              <path class="cls-15" d="m53.92065,29.22148c1.03808,5.7204,5.25306,9.79841,9.77935,13.0271-.00021.00018-.10592.2193-.10592.2193-1.42978-.39833-2.54031-1.36038-3.61053-2.29074-3.23922-2.77493-5.63059-6.69347-6.0629-10.95566h0Z"/>
              <path class="cls-15" d="m59.4906,33.38991c.67716,3.62501,3.19356,6.81606,6.55212,8.28018-.00002.00002-.30206.62609-.30206.62609-3.38207-1.73188-5.78925-5.16038-6.25006-8.90627h0Z"/>
              <path class="cls-15" d="m65.55377,29.22522c.99012,5.66646,4.99294,10.06604,10.31091,12.05041-.00018.00019-.43526.90206-.43526.90206-5.31364-2.36357-9.20707-7.0978-9.87564-12.95247h0Z"/>
              <path class="cls-15" d="m23.6445,35.91411c1.83248-.43523,4.17353-1.28438,4.42269-3.35629.0709-.93282-.18767-2.16112-.0638-3.31055.48949-6.15018,5.39278-10.12516,11.23318-10.95194-4.24241.90519-8.51047,3.48447-9.74151,7.84655-.51659,1.5585-.73898,3.13533-.49871,4.74419.06423.53737.1748,1.10263.14813,1.74981-.04807,1.33325-.90378,2.50546-1.90375,3.19919-1.00241.72598-2.12201,1.13953-3.23343,1.47275l-.36279-1.39371h0Z"/>
              <path class="cls-15" d="m22.09122,35.85538c.54989-12.56597,10.42019-23.67004,22.79801-25.61265-11.96594,2.43746-21.157,13.48671-21.16007,25.67131-.00019-.00015-1.63794-.05866-1.63794-.05866h0Z"/>
              <path class="cls-15" d="m23.10587,39.67926c2.77452,2.2724,4.33985,5.77846,4.34567,9.33006.37817,3.3878,2.50223,6.32872,4.86908,8.69636-2.55959-2.27784-4.86717-5.1244-5.46939-8.61082-.2195-3.37434-1.76869-6.4749-4.51595-8.47849.00015-.00006.77059-.93712.77059-.93712h0Z"/>
              <path class="cls-15" d="m43.56274,35.41097c-9.11361,18.93836,6.82792,23.99077.08995,42.86821.00005,0-.93785-.34696-.93785-.34696,6.99849-18.253-8.69161-23.81864.8479-42.52126h0Z"/>
              <path class="cls-15" d="m38.45593,44.11462c-2.28461,5.43434-2.80586,11.49038-1.48329,17.2307,1.38577,5.73514,1.48856,11.86126-.36454,17.52963.00014,0-.65009-.2095-.65009-.2095,1.93201-5.56336,1.93909-11.53119.67865-17.25722-1.21727-5.78299-.57906-11.89478,1.81927-17.29361h0Z"/>
              <path class="cls-6" d="m33.54904,43.52514c-.31,2.62-.62,5.23004-.92999,7.85004-1.77997-1.01001-2.66998-3.03003-2.19-4.85004.38-1.45996,1.58002-2.59998,3.12-3Z"/>
              <path class="cls-4" d="m33.82906,43.44518c-.32001,2.69-.63,5.37994-.95001,8.06995-.09003-.03998-.17999-.08997-.26001-.13995.31-2.62.62-5.23004.92999-7.85004.09003-.03998.19-.06.28003-.07996Z"/>
              <path class="cls-4" d="m75.11011,41.53729c0,3.44211-.25264,8.39998-.25264,11.84209-.16283,2.0744-.78979,6.3721-3.78946,10.61053-1.12471,1.58917-3.41791,4.82941-7.57895,6.44211-7.04822,2.73172-14.76985-1.51778-15.72422-2.11867"/>
              <path class="cls-15" d="m63.01538,44.37938c.97115,2.51571,1.78076,5.81486,4.5121,6.83567.18925.13859.45738.13973.78899.65884.14572.29353.08902.60933.00784.7812-1.11289,1.47837-3.19042,2.00284-4.92993,1.76652,1.34792-.63014,2.85928-1.26636,3.74626-2.24037-.03172.02856-.06056.17687.00712.33062.1633.24593.09906.15588-.00168.21307-3.47818.65413-3.83617-6.03551-4.13071-8.34555h0Z"/>
              <path class="cls-4" d="m70.15221,57.95833c-5.73685-.17896-12.38947-.38947-18.12632-.56842.42981,2.26801,1.38554,5.08206,3.7579,6.66315,4.26433,2.84201,11.16916.40967,11.17894.47369.00296.01935-.83154.20799-3.6.66316.38947-1.26315,1.3158-3.25264,1.70526-4.51579-3.82105-.12632-8.71579-.18947-12.44211-.22105,4.91534.07245,10.65172.08171,15.56707.15415.011.00583.00557.06743.12767.00374.09142-.0477.24916-.13396.25581-.15376-.07474-.69611.07156-1.99224-.00318-2.68834"/>
              <g>
                <ellipse class="cls-8" cx="56.00484" cy="45.96622" rx="1.42105" ry="2.7"/>
                <path class="cls-15" d="m54.73538,45.15425c-1.23263-.22943-2.11573-1.47072-1.85682-2.64596.08926.99053.99689,1.77848,1.93262,1.64883-.00003.00002-.0758.99713-.0758.99713h0Z"/>
                <path class="cls-15" d="m54.65643,46.84372c-1.23263-.22943-2.11573-1.47072-1.85682-2.64595.08926.9905.99691,1.7785,1.93262,1.64881-.00003.00002-.0758.99713-.0758.99713h0Z"/>
              </g>
              <g>
                <ellipse class="cls-8" cx="68.98379" cy="46.03727" rx="1.42105" ry="2.69999"/>
                <path class="cls-15" d="m70.36655,44.27065c.78999.22456,1.62375-.4501,1.66357-1.32296.33662,1.05472-.56533,2.23683-1.68925,2.32258.00004.00004.02567-.99962.02567-.99962h0Z"/>
                <path class="cls-15" d="m70.4093,45.59842c.78998.22453,1.62374-.4501,1.66357-1.32296.33657,1.05473-.56531,2.23682-1.68925,2.32258.00004.00004.02567-.99962.02567-.99962h0Z"/>
              </g>
              <path class="cls-15" d="m22.37326,40.46358c-.04147,3.54942,1.6877,7.00694,3.2736,10.15651,1.71403,3.25065,3.67912,6.38825,5.97901,9.26455-1.24779-1.36065-2.40123-2.81022-3.49531-4.3022-3.13349-4.59603-6.66635-9.37061-7.14699-15.11877.00023-.0001,1.3897-.0001,1.3897-.0001h0Z"/>
              <path class="cls-15" d="m23.94955,37.33704c3.78429.25615,5.86506-1.99308,7.75921-5.01583,1.55726-2.01432,2.59955-4.69584,4.90377-6.01332.77727-.40788,1.63664-.63021,2.49758-.68641-1.7199.20347-3.27311,1.15303-4.18451,2.62423-2.94717,4.42307-4.57243,10.53372-10.97079,10.48111.00005.00015-.00526-1.38979-.00526-1.38979h0Z"/>
              <path class="cls-15" d="m24.0087,38.65816c2.3234,2.24596,5.88848,3.14224,8.98988,1.93276-3.05856,1.71921-7.04074,1.22119-9.87143-.8497-.00001.00007.88155-1.08306.88155-1.08306h0Z"/>
            </g>
            <path class="cls-4" d="m55.68906,70.87413c0,2.05263.07626,1.30112-.18948,3.37897-.28375,2.21866-.46838,3.66223-1.51578,5.02106-1.88126,2.44067-5.06387,2.68515-5.87369,2.74734-.54929.04221-3.78806.23911-6.63159-2.0842-.77637-.63431-1.95788-2.11581-2.65262-3.31581"/>
          </g>
        </g>
      </g>
    </g>
  </g>
</svg>