<?xml version="1.0" encoding="utf-8"?>
<!-- Generator: Adobe Illustrator 27.1.1, SVG Export Plug-In . SVG Version: 6.00 Build 0)  -->
<svg version="1.1" id="Layer_2_00000064320077428488294960000000705740171181271982_"
	 xmlns="http://www.w3.org/2000/svg" xmlns:xlink="http://www.w3.org/1999/xlink" x="0px" y="0px" viewBox="0 0 136.5 271"
	 style="enable-background:new 0 0 136.5 271;" xml:space="preserve">
<style type="text/css">
	.st0{fill:#A0BDB1;}
	.st1{fill:#ACD5CB;}
	.st2{fill:#C9E2DA;}
	.st3{fill:none;stroke:#4E381A;stroke-miterlimit:10;}
	.st4{fill:none;stroke:#4E381A;stroke-miterlimit:10;stroke-dasharray:0,0,3.0535,3.0535;}
	.st5{fill:none;stroke:#4E381A;stroke-miterlimit:10;stroke-dasharray:0,3;}
	.st6{fill:#CA9B71;}
	.st7{fill:#EAC4A0;}
	.st8{fill:#E0AE84;}
	.st9{fill:#F1F2F2;stroke:#4E381A;stroke-miterlimit:10;}
	.st10{fill:#E6E7E8;stroke:#4E381A;stroke-miterlimit:10;}
	.st11{fill:#BC6D65;}
	.st12{fill:#D4A57D;}
	.st13{fill:none;stroke:#4E381A;stroke-width:0.8681;stroke-miterlimit:10;}
	.st14{fill:none;stroke:#4E381A;stroke-width:0.8906;stroke-miterlimit:10;}
	.st15{fill:#F0EFEF;stroke:#4E381A;stroke-miterlimit:10;}
	.st16{fill:#D7D4CF;}
	.st17{fill:none;stroke:#4E381A;stroke-width:0.8946;stroke-miterlimit:10;}
	.st18{fill:none;stroke:#4E381A;stroke-width:0.9783;stroke-miterlimit:10;}
	.st19{fill:none;}
	.st20{fill:#F1F2F2;}
	.st21{fill:#5A5C5D;}
	.st22{fill:#525246;}
	.st23{fill:#BAC157;}
	.st24{fill:#4E381A;}
	.st25{fill:none;stroke:#4E381A;stroke-width:1.0013;stroke-miterlimit:10;}
	.st26{fill:#E0AE84;stroke:#4E381A;stroke-miterlimit:10;}
	.st27{fill:#4E381A;stroke:#4E381A;stroke-miterlimit:10;}
</style>
<g id="Layer_1-2_00000078729982370873912950000010420151297582685623_">
	<g>
		<g>
			<path class="st0" d="M74.1,145.2c-5.8,0-11.6-0.1-17.4-0.1h-0.1c-4.1,0-8.2-0.1-12.4-0.1l0.4,12.5l0,0.3l1,30.3v0.1l0.4,10.7v0.1
				l0,0.2c0.9,0,1.8,0,2.6,0c4,0,8.2-0.1,12.4-0.1c2.3,0,4.6,0,6.9-0.1c0.3,0,0.6,0,0.9,0c0,0,0-0.1,0-0.1c0,0,0-0.1,0-0.1
				c-2-15.6-0.3-24.6,1.7-30c0.5-1.3,2-4.9,2.9-10.1C74.5,153.2,74.4,148.5,74.1,145.2z M47.5,151.3v-0.2c0-0.7,0-1.3,0-1.8
				c2.3,0,4,0,6.2,0h0.2c-0.2,0.6-0.4,1.2-0.7,1.8c0,0.1-0.1,0.2-0.1,0.2c-0.6,1.3-1.6,2.7-3,3.8c-0.8,0.7-1.7,1.2-2.5,1.6
				c0-0.1,0-0.2,0-0.3C47.5,154.9,47.5,153,47.5,151.3L47.5,151.3z"/>
			<path class="st0" d="M53.8,149.3c-0.2,0.6-0.5,1.3-0.8,2h-5.5c0-0.8,0-1.5,0-2C49.8,149.3,51.5,149.3,53.8,149.3z"/>
			<path class="st0" d="M53,151.3c-0.6,1.3-1.6,2.7-3,3.8c-0.8,0.7-1.7,1.2-2.5,1.6c0-1.5-0.1-3.6-0.1-5.5H53z"/>
			<path class="st0" d="M46.2,198.8c-0.9,0-1.8,0-2.6,0c-0.8,0-1.5,0-2.3,0c0-1,0-2.5,0-4.3c-0.2-9-1.8-15.6-2.2-17.3
				c-1.2-5.3-1.2-14.6-0.3-32.1c2.1,0,3,0,5.1,0L46.2,198.8L46.2,198.8z"/>
			<path class="st1" d="M94.6,162.4c-0.5,14.1-0.2,26.2-3.2,36.2v0c-0.5,0-1.1,0-1.7,0c-0.2,0-0.4,0-0.6,0
				c-5.8,0.1-13.5,0.2-19.2,0.3h-1.1c0,0,0-0.1,0-0.1c0,0,0-0.1,0-0.1c-2-15.6-0.3-24.6,1.7-30c0.5-1.3,2-4.9,2.9-10.1
				c1-5.4,0.9-10.1,0.6-13.4c6.7,0,13.4,0.1,20,0.1C94.6,150.6,94.8,156.3,94.6,162.4z"/>
			<path class="st2" d="M97.2,175.7c-1.1,8.7-0.5,15.7-2.3,22.8c-0.9,0-4.4,0.2-5.3,0.2c3-10,4.5-22.3,4.9-36.4
				c0.2-6.1,0-11.8-0.4-17c0.8,0,1.7,0,2.5,0C97.6,157.6,98.1,168.6,97.2,175.7L97.2,175.7z"/>
			<path class="st3" d="M95.4,199c0.8-8.8,1.4-12.8,1.5-24.2c0.1-6.5,0.5-17.5-0.4-29.7c-19.4-0.1-38.8-0.3-58.2-0.4
				c-0.6,17.7,0.1,27,0.9,32.4c0.3,1.7,1.4,8.4,1.5,17.4c0,1.9,0,3.4,0,4.4c15.7-0.2,39.1-0.2,54.8-0.4"/>
			<line class="st3" x1="44.1" y1="144.3" x2="46" y2="199.4"/>
			<g>
				<line class="st3" x1="42.6" y1="144.1" x2="42.6" y2="145.6"/>
				<line class="st4" x1="42.7" y1="148.6" x2="44.1" y2="195.9"/>
				<line class="st3" x1="44.2" y1="197.4" x2="44.2" y2="198.9"/>
			</g>
			<path class="st5" d="M45,160.6c1.4-0.3,5.1-1.3,8.1-4.8c4.2-4.9,3.6-10.8,3.5-11.7"/>
			<path class="st3" d="M44.1,157.6c1.3-0.2,3.6-0.9,5.8-2.7c4.2-3.6,4.4-8.8,4.4-9.7"/>
			<path class="st3" d="M47.4,156.8c-0.1-2.2-0.1-5.6-0.2-7.7c2.5,0,4.3,0,6.7,0"/>
			<line class="st3" x1="46.9" y1="151.1" x2="53.3" y2="151.1"/>
		</g>
		<g>
			<g>
				<path class="st6" d="M49.9,211c-0.4,14.9-0.8,29.9-1.1,44.8c0,0.1,0,0.3,0,0.4c-1.7,0.8-3.3,2-4.2,3.3c0.1-0.3,0.2-0.6,0.3-0.9
					c0.1-0.3,0.2-0.7,0.4-1.1c0.1-3.2,0.2-6.4,0.3-9.6c0.3-11.6,0.2-22.8-0.2-33.7c-0.7-2.4-1.3-5.1-1.8-8.1
					c-0.3-1.8-0.4-4.8-0.5-6.5c1.2,0,2.3,0,3.5,0c0.9,0,1.8,0,2.6,0C49.4,203.4,49.7,207.2,49.9,211L49.9,211z"/>
				<path class="st7" d="M64.2,199.4c-1,5.7-2.5,12.9-3.9,19.7c-1.6,8.1-2.4,11-3.3,16.4c-0.9,5.6-1.7,13.9-2,20.9c0,0,0,0.1,0,0.1
					c-0.5-0.4-0.9-0.7-1.5-0.9c-0.1,0-0.3-0.1-0.4-0.1c0-0.1,0-0.2,0-0.2c0.2-7,0.9-13,1.6-17.8c1.1-6.6,2.6-12.8,5.3-28.5
					c0.6-3.5,1.1-6.7,1.6-9.6c0.8,0,1.6,0,2.4,0H64.2z"/>
				<path class="st8" d="M61.6,199.4c-0.5,2.9-1,6.1-1.6,9.6c-2.7,15.7-4.2,21.9-5.3,28.5c-0.8,4.8-1.5,10.8-1.6,17.8
					c0,0.1,0,0.2,0,0.2c-1.3-0.3-2.8,0-4.3,0.7c0-0.1,0-0.3,0-0.4c0.4-15,0.8-29.9,1.1-44.8c-0.2-3.8-0.4-7.6-0.7-11.4
					C53.3,199.6,57.5,199.5,61.6,199.4z"/>
				<path class="st3" d="M57.8,264c0,0.1,0,0.1,0,0.2 M44.6,259.1c0.1-0.2,0.2-0.3,0.3-0.5c0.9-1.1,2.3-2.2,3.9-2.8
					c1.5-0.6,3-0.8,4.3-0.5c0.1,0,0.2,0.1,0.3,0.1c0.5,0.2,1,0.5,1.5,0.9c0,0,0.1,0.1,0.2,0.1 M41.2,267.9h-0.3 M60.1,267.5h-0.3
					 M42.9,199.4c0,0,0-0.1,0-0.1 M42.8,264.5c-0.2,0-0.3,0.1-0.4,0.1"/>
				<path class="st9" d="M64,199.2c0,0.1,0,0.2,0,0.2c-0.8,0-1.6,0-2.4,0c-4.1,0-8.2,0.1-12.4,0.2c-0.9,0-1.8,0-2.6,0
					c-1.2,0-2.4,0-3.5,0c0.1,1.7,0.2,4.7,0.5,6.5c0.5,3,1.1,5.8,1.8,8.1c0.4,10.9,0.5,22.1,0.2,33.7c-0.1,3.2-0.2,6.4-0.3,9.6
					c-0.1,0.4-0.3,0.8-0.4,1.1c-0.1,0.3-0.2,0.6-0.3,0.9c0.8-1.3,2.4-2.5,4.2-3.3c1.5-0.7,3-1,4.3-0.7c0.1,0,0.3,0.1,0.4,0.1
					c0.5,0.2,1,0.5,1.5,0.9c0,0,0-0.1,0-0.1c1.9,1.8,3.1,5.1,2.9,7.5c-0.2-0.1-0.5-0.3-0.7-0.4c-3.9-1.8-11.9,0.2-14.3,0.9
					c0.1-0.1,0.2-0.3,0.3-0.5c0.3-0.6,0.2-0.9,0.4-1.7c0.1-0.5,0.2-0.7,0.7-2c0.2-0.7,0.6-1.7,1.1-2.9c0.1-3.2,0.2-6.3,0.3-9.6
					c0.2-11.6,0.2-22.8-0.2-33.7c-0.7-2.4-1.3-5.1-1.8-8.1c-0.3-1.8-0.4-4.8-0.5-6.5C49.9,199.4,57.1,199.2,64,199.2z"/>
				<path class="st9" d="M59.8,267.5l-18.6,0.3c0.1-1.5,0.5-2.3,0.9-2.6c0.1-0.1,0.4-0.4,0.7-0.8v0c2.3-0.7,10.4-2.7,14.3-0.9
					c0.3,0.1,0.5,0.3,0.7,0.4c0.9,0.6,1.3,1.2,1.5,1.4C59.7,266.1,59.8,266.8,59.8,267.5z"/>
				<path class="st10" d="M59.8,267.5c0,1.5-0.5,2.8-0.7,3.1c-6,0.1-11.9,0.2-17.9,0.4c-0.1-1.3-0.1-2.3,0-3.1L59.8,267.5z"/>
				<path class="st3" d="M42.8,199.4h0.1"/>
				<path class="st3" d="M64,199.4c-1,5.7-2.5,12.8-3.9,19.5c-1.6,8.1-2.4,11-3.3,16.4c-0.9,5.6-1.7,14-2,21v0.1"/>
			</g>
			<g>
				<path class="st6" d="M71.8,210.6c-0.4,14.9-0.8,29.9-1.1,44.8c0,0.1,0,0.3,0,0.4c-1.7,0.8-3.3,2-4.1,3.3
					c0.1-0.3,0.2-0.6,0.3-0.9c0.1-0.3,0.2-0.7,0.4-1.1c0.1-3.2,0.2-6.3,0.3-9.6c0.3-11.6,0.2-22.8-0.2-33.7
					c-0.7-2.4-1.3-5.1-1.8-8.2c-0.3-1.8-0.4-4.8-0.5-6.5c1.2,0,2.4,0,3.5,0c0.9,0,1.8,0,2.6,0C71.4,203,71.6,206.8,71.8,210.6z"/>
				<path class="st7" d="M86.1,199c-1,5.7-2.6,12.9-3.9,19.7c-1.6,8.1-2.4,11-3.3,16.4c-0.9,5.6-1.7,13.9-2,20.9c0,0,0,0.1,0,0.1
					c-0.5-0.4-0.9-0.7-1.5-0.9c-0.1,0-0.3-0.1-0.4-0.1c0-0.1,0-0.2,0-0.2c0.2-7,0.9-13,1.6-17.8c1.1-6.6,2.6-12.8,5.3-28.5
					c0.6-3.5,1.1-6.7,1.6-9.6c0.8,0,1.6,0,2.4,0C85.9,199,86.1,199,86.1,199z"/>
				<path class="st8" d="M83.5,199c-0.5,2.9-1,6.1-1.6,9.6c-2.7,15.7-4.2,21.9-5.3,28.5c-0.8,4.8-1.5,10.8-1.6,17.8
					c0,0.1,0,0.1,0,0.2c-1.3-0.3-2.8,0-4.3,0.7c0-0.1,0-0.3,0-0.4c0.4-15,0.8-29.9,1.1-44.8c-0.2-3.8-0.4-7.6-0.7-11.4
					C75.3,199.2,79.5,199.1,83.5,199L83.5,199z"/>
				<path class="st3" d="M79.8,263.6c0,0.1,0,0.1,0,0.2 M66.5,258.7c0.1-0.2,0.2-0.3,0.3-0.5c0.9-1.2,2.3-2.2,3.9-2.8
					c1.5-0.6,3-0.8,4.3-0.5c0.1,0,0.2,0.1,0.3,0.1c0.5,0.2,1,0.5,1.4,0.9c0,0,0.1,0.1,0.2,0.1 M63.2,267.5h-0.3 M82.1,267.1h-0.3
					 M64.9,199.1L64.9,199.1c0-0.1,0-0.2,0-0.2 M64.7,264c-0.2,0-0.3,0.1-0.4,0.1"/>
				<path class="st9" d="M86,198.8c0,0.1,0,0.2,0,0.2c-0.8,0-1.6,0-2.4,0c-4.1,0-8.2,0.1-12.3,0.2c-0.9,0-1.8,0-2.6,0
					c-1.2,0-2.4,0-3.5,0c0.1,1.6,0.2,4.7,0.5,6.5c0.5,3,1.1,5.8,1.8,8.2c0.4,10.9,0.4,22.1,0.2,33.7c-0.1,3.2-0.2,6.4-0.3,9.6
					c-0.1,0.4-0.3,0.8-0.4,1.1c-0.1,0.3-0.2,0.6-0.3,0.9c0.8-1.3,2.4-2.5,4.1-3.3c1.5-0.6,3-1,4.3-0.7c0.1,0,0.3,0.1,0.4,0.1
					c0.5,0.2,1,0.5,1.5,0.9c0,0,0-0.1,0-0.1c1.9,1.8,3.1,5.1,2.9,7.5c-0.2-0.1-0.5-0.3-0.7-0.4c-3.9-1.8-11.9,0.2-14.3,0.8
					c0.1-0.1,0.2-0.3,0.3-0.5c0.3-0.6,0.2-0.9,0.4-1.7c0.1-0.5,0.2-0.7,0.7-2c0.2-0.7,0.6-1.7,1-2.9c0.1-3.2,0.2-6.4,0.3-9.6
					c0.2-11.6,0.2-22.8-0.2-33.7c-0.7-2.4-1.3-5.1-1.8-8.1c-0.3-1.8-0.4-4.7-0.5-6.4c0.3,0,0.6,0,0.9,0h1.1
					C72.4,199,80.2,198.9,86,198.8L86,198.8z"/>
				<path class="st9" d="M81.8,267.1l-18.6,0.3c0.1-1.5,0.5-2.3,0.9-2.7c0.1-0.1,0.4-0.3,0.7-0.8c2.4-0.7,10.4-2.7,14.3-0.8
					c0.3,0.1,0.5,0.3,0.7,0.4c0.9,0.6,1.3,1.2,1.4,1.4C81.6,265.7,81.8,266.4,81.8,267.1z"/>
				<path class="st10" d="M81.8,267.1c0,1.5-0.5,2.8-0.7,3.1c-6,0.1-11.9,0.2-17.9,0.4c-0.1-1.3-0.1-2.3,0-3.1L81.8,267.1z"/>
				<path class="st3" d="M64.7,199h1c5.1,0,10.4-0.1,15.6-0.2h0.6c0.7,0,1.4,0,2.2,0c0.2,0,0.4,0,0.6,0H86v0"/>
				<path class="st3" d="M85.9,199c-1,5.7-2.5,12.8-3.9,19.5c-1.6,8.1-2.4,11-3.3,16.4c-0.9,5.6-1.7,14-2,21v0.1"/>
			</g>
		</g>
		<path class="st11" d="M88.7,60.4c-2.4,0-4.9,0-7.3,0c2.4,0,4.9,0.1,7.1,0.2c-0.4,1.2-1.3,3.2-1.7,4.4c-2.2,0.3-5.1,0.2-7.3-1.3
			c-1.4-0.9-2.2-2.2-2.8-3.6c0.5,0,1,0,1.6,0c0.5,0,1.1,0,1.7,0c0.6,0,1.2,0,1.8,0C84.1,60.1,86.6,60.2,88.7,60.4
			C88.8,60.3,88.8,60.3,88.7,60.4L88.7,60.4z"/>
		<g>
			<g>
				<g>
					<path class="st8" d="M101.5,131.3c-0.2,9.5,0.2,21-1.2,28.9c0-0.1,0.1-0.2,0.1-0.3c-0.8,2.8-1.4,6.1-2.2,8.9
						c0,0.4,0.3,0.7,0.7,0.9c0.4,0.1,0.8,0,1.1-0.2c1-2.8,1.8-6,2.9-8.9c-0.4,2.3-0.5,4.9-0.9,7.2c-0.3,0.4,0,0.9,0.4,1.1
						c0.4,0.1,0.9,0,1.1-0.3c0.6-2.5,1-5.5,1.6-8c-0.1,1.7-0.1,4-0.2,5.7c0,0.1,0,0.3,0.1,0.6c0,0.1,0.3,0.5,0.8,0.5
						c0.3,0,0.6-0.3,0.7-0.6c0.8-4.7,1.5-10.1,1.5-10.1c-0.2-1.1,0.3-5.1,1.2-12.7l0,0c-0.3-6.2,0.7-29.4,1.1-49.4
						c-0.3-1.6-0.5-3.1-0.8-4.3c-2.8-0.1-4.1-0.1-4.7-0.2c-0.3,0-0.7,0-1.1,0c-0.4,0-0.9,0-1.3,0
						C101.9,100.5,101.8,118.7,101.5,131.3L101.5,131.3z"/>
					<path class="st12" d="M93.1,158.3c0,0.1-0.4,0.6-0.3,0.9c0,0.6,0.8,0.9,1.4,0.8c0.5-0.1,0.8-0.7,0.8-0.7c0-0.2,0.5-0.5,0.6-0.9
						c0.2-0.5,0.7-1.4,1.5-1.9c0.9-0.6,1.3-0.6,1.6-0.6c-0.1,1.1-0.4,2.1-0.4,3.1c-1,2.5-1.7,5.1-2.7,7.7c-0.1,0.4,0.2,0.8,0.6,1
						c0.4,0.1,0.8,0.1,1.1-0.1c1.2-2.3,2.1-5,3.3-7.3c1.3-7.8,1.3-18.1,1.7-27.8c0.3-7.9-0.5-26.8,0.6-42.5c-1.2,0-2.4-0.1-3.6-0.1
						c0.2,3.1,0.4,7.8,0.5,13.5c0,6.1-0.2,6.8-0.2,12.9c-0.1,11.5,0.7,13.4,0.3,21.4c-0.1,3.3-0.5,7.8-1.4,13.2
						c-1.2,1-2.2,2.1-3,3.4C94.8,155.8,93.7,156.9,93.1,158.3L93.1,158.3z"/>
					<path class="st7" d="M109.8,94.9c-0.1,20-0.9,43.2-0.4,49.4c0.1-1.2,0.3-2.5,0.5-4c0.7-5.4,0.9-5.3,1.1-8.3
						c0.6-6.4,0.2-11.7-0.2-15.2c0.5-4.3,0.6-9.3,0-14.9c-0.2-2.2-0.6-4.5-0.6-4.5C110.1,96.6,109.9,95.7,109.8,94.9L109.8,94.9z"/>
				</g>
				<path class="st13" d="M92.9,158.2c0,0.1-0.4,0.6-0.3,0.9c0,0.6,0.8,0.9,1.4,0.8c0.5-0.1,0.8-0.7,0.8-0.7c0-0.2,0.5-0.5,0.6-0.9
					c0.2-0.5,0.7-1.4,1.5-1.9c0.9-0.6,1.3-0.6,1.6-0.6c-0.1,1.1-0.4,2.1-0.4,3.1c-1,2.5-1.7,5.1-2.7,7.7c-0.1,0.4,0.2,0.8,0.6,1
					c0.4,0.1,0.8,0.1,1.1-0.1c0.9-1.8,1.7-3.9,2.6-5.8c-0.6,2.3-1.1,4.8-1.7,7c0,0.4,0.3,0.7,0.7,0.9c0.4,0.1,0.8,0,1.1-0.2
					c1-2.8,1.8-6,2.9-8.9c-0.4,2.3-0.5,4.9-0.9,7.2c-0.3,0.4,0,0.9,0.4,1.1c0.4,0.1,0.9,0,1.1-0.3c0.6-2.5,1-5.5,1.6-8
					c-0.1,1.7-0.1,4-0.2,5.7c0,0.1,0,0.3,0.1,0.6c0,0.1,0.3,0.5,0.8,0.5c0.3,0,0.6-0.3,0.7-0.6c0.8-4.7,1.5-10.1,1.5-10.1
					c-0.2-1.1,0.3-5.1,1.2-12.7l0,0c0.1-1.2,0.3-2.5,0.5-4c0.7-5.4,0.8-5.4,1.1-8.3c0.6-6.4,0.4-11.7,0.1-15.2
					c0.5-4.3,0.6-9.3,0.2-14.9c-0.2-2.2-0.4-4.4-0.4-4.4c-0.1-0.9-0.2-1.7-0.4-2.6c-0.3-1.6-0.5-3.1-0.8-4.3
					c-2.8-0.1-4.1-0.1-4.7-0.2c-0.3,0-0.7,0-1.1,0c-0.4,0-0.9,0-1.3,0l0,0c-1.1,0-2.2-0.1-3.2-0.1c0.2,3.1,0.4,7.8,0.5,13.5
					c0,6.1-0.2,6.8-0.2,12.9c-0.1,11.5,0.7,13.4,0.3,21.4c-0.1,3.3-0.5,7.8-1.4,13.2c-1.2,1-2.2,2.1-3,3.4
					C94.6,155.6,93.5,156.7,92.9,158.2z"/>
			</g>
			<g>
				<g>
					<path class="st8" d="M36.7,133c-0.1,9.5-0.9,21,0.3,29c0-0.1-0.1-0.2-0.1-0.3c0.8,2.8,1.2,6.1,2,8.9c0,0.4-0.3,0.7-0.8,0.9
						c-0.4,0.1-0.9,0-1.2-0.3c-1-2.9-1.7-6-2.7-8.9c0.3,2.3,0.4,4.9,0.7,7.2c0.3,0.4,0,0.9-0.5,1.1c-0.4,0.1-0.9,0-1.2-0.4
						c-0.5-2.5-0.9-5.5-1.4-8c0.1,1.7,0,4,0,5.7c0,0.1,0,0.3-0.2,0.6c0,0.1-0.4,0.5-0.9,0.5c-0.3,0-0.6-0.3-0.7-0.6
						c-0.7-4.7-1.2-10.2-1.2-10.2c0.2-1.1-0.2-5.1-0.9-12.8l0,0c0.5-6.2,0.2-29.4,0.4-49.4c0.3-1.6,0.7-3.1,1-4.3c3,0,4.3,0,4.9,0
						c0.4,0,0.7,0,1.1,0c0.5,0,0.9,0,1.4,0C37.3,102.1,36.8,120.4,36.7,133L36.7,133z"/>
					<path class="st12" d="M44.6,160.3c0,0.1,0.4,0.6,0.3,0.9c0,0.6-0.9,0.9-1.5,0.8c-0.5-0.1-0.8-0.7-0.8-0.7
						c0-0.2-0.5-0.5-0.6-0.9c-0.2-0.5-0.7-1.4-1.5-1.9c-1-0.6-1.4-0.6-1.7-0.6c0,1.1,0.3,2.1,0.4,3.2c0.9,2.6,1.6,5.2,2.6,7.7
						c0.1,0.4-0.2,0.8-0.7,0.9c-0.4,0.1-0.8,0.1-1.1-0.1c-1.2-2.3-2.1-5-3.2-7.4c-1.1-7.9-0.8-18.2-0.9-27.9
						c-0.1-7.9,1.3-26.8,0.7-42.5c1.3,0,2.5,0,3.8,0c-0.3,3.1-0.7,7.8-0.9,13.5c-0.2,6.1,0,6.8-0.2,12.9c-0.3,11.5-1.1,13.4-1,21.3
						c0,3.3,0.3,7.8,1.1,13.2c1.3,1.1,2.3,2.1,3,3.5C42.9,157.7,44,158.9,44.6,160.3L44.6,160.3z"/>
					<path class="st7" d="M29.5,95.9c-0.6,20-0.5,43.2-1.3,49.5c-0.1-1.2-0.3-2.6-0.4-4c-0.6-5.5-0.7-5.4-0.9-8.4
						c-0.4-6.4,0.2-11.7,0.7-15.2c-0.3-4.4-0.3-9.4,0.5-14.9c0.3-2.2,0.8-4.5,0.8-4.5C29.1,97.6,29.3,96.7,29.5,95.9L29.5,95.9z"/>
				</g>
				<path class="st14" d="M45,160c0,0.1,0.4,0.6,0.3,0.9c0,0.6-0.9,0.9-1.5,0.8c-0.5-0.1-0.8-0.7-0.8-0.7c0-0.2-0.5-0.5-0.6-0.9
					c-0.2-0.5-0.7-1.4-1.6-1.9c-1-0.6-1.4-0.6-1.7-0.6c0,1.1,0.3,2.1,0.4,3.2c0.9,2.6,1.6,5.2,2.6,7.7c0.1,0.4-0.2,0.8-0.7,0.9
					c-0.4,0.1-0.8,0.1-1.2-0.1c-0.9-1.8-1.7-3.9-2.5-5.8c0.5,2.4,1,4.8,1.6,7.1c0,0.4-0.3,0.7-0.8,0.9c-0.4,0.1-0.9,0-1.2-0.3
					c-1-2.9-1.7-6-2.7-8.9c0.3,2.3,0.4,4.9,0.7,7.2c0.3,0.4,0,0.9-0.5,1.1c-0.4,0.1-0.9,0-1.2-0.4c-0.5-2.5-0.9-5.5-1.4-8
					c0.1,1.7,0,4,0,5.7c0,0.1,0,0.3-0.2,0.6c0,0.1-0.4,0.5-0.9,0.5c-0.3,0-0.6-0.3-0.7-0.6c-0.7-4.7-1.2-10.2-1.2-10.2
					c0.2-1.1-0.1-5.1-0.9-12.8l0,0c-0.1-1.2-0.2-2.6-0.4-4c-0.5-5.5-0.7-5.4-0.9-8.4c-0.4-6.4,0-11.7,0.4-15.2
					c-0.3-4.4-0.4-9.4,0.2-14.9c0.2-2.2,0.6-4.4,0.6-4.4c0.1-0.9,0.3-1.7,0.5-2.5c0.3-1.6,0.7-3.1,1-4.3c3,0,4.3,0,4.9,0
					c0.4,0,0.7,0,1.1,0c0.5,0,0.9,0,1.4,0l0,0c1.1,0,2.3,0,3.4,0c-0.3,3.1-0.7,7.8-0.9,13.5c-0.2,6.1,0,6.8-0.2,12.9
					c-0.3,11.5-1.2,13.4-1,21.3c0,3.3,0.3,7.8,1.1,13.2c1.3,1.1,2.3,2.1,3,3.5C43.3,157.4,44.4,158.5,45,160L45,160z"/>
			</g>
			<g>
				<path class="st15" d="M40.8,145.4c18.9-0.2,37.8-0.3,56.6-0.5c0.1-4.8,0.1-10.1-0.1-15.8c-0.1-5.4-0.3-11-0.6-16.6
					c-0.4-6.3-0.8-12.5-1.4-18.4c-0.3-2.8-0.6-5.5-0.9-8.3c0.7,2.7,1.3,5.5,2,8.2c0.6,2.9,1.2,5.7,1.8,8.6c4.5-1.4,8.9-2.8,13.4-4.2
					c0.7-7.3-1.4-12.2-2.5-15.2c-1.7-4.6-3-7.8-6.8-10.4c-1.5-1-5.8-2.4-9.1-1.4c-2.4,0.7-5.4,1.5-7.7,2.4c-2.1,0.3-4.1,0.6-6.2,0.9
					c-0.9,3.8-3.6,6.7-6.9,7.4c-4.6,0.9-9.9-2.7-11-8.6c-2.3,0.2-5.1-0.9-7.4-0.7c-2.5-1-4.5-0.9-7.1-2c-3.3-0.5-4.6-1-7.8-0.2
					c-2.5,0.6-3.3,1-4.1,2.1c-5.4,6.8-8,22.7-8.3,25.1l15.4,2.6c1.6-4.7,3.2-9.4,4.7-14.1c-1.6,6.9-3.9,17.9-5.5,30.5
					c-0.8,6.5-1.1,10.5-1.3,13.1c0,0.6-0.3,2.6-0.3,5.7c0,0.6,0.1,3.5,0.1,3.8C39.9,141.8,40.2,143.6,40.8,145.4L40.8,145.4z"/>
				<path class="st3" d="M53.9,72.7c0.3,1.1,3,12.6,12.9,15.3c1.7,0.5,7.3,2,12.1-1.3c6.1-4.2,5.7-12.2,5.7-12.7"/>
				<path class="st16" d="M76.6,144.7c-11.9,0.1-23.9,0.2-35.8,0.3c-0.5-1.8-0.8-3.7-1-6.1c0-0.3-0.1-3.2-0.1-3.8
					c0.1-3,0.3-5,0.3-5.7c0.1-2.6,0.4-6.6,1.3-13.1c1.6-12.2,3.8-22.9,5.3-29.8c3.1,1.5,10.5,6,12,9.9c0.6,1.6,0.7,2.8,0.8,4.7
					c0.5,11,1,16,1.7,20.5c1,5.6,2,7.1,2.5,7.8c2.5,3.4,6.4,2.3,9.7,5.3C74.7,136,76.2,140.1,76.6,144.7L76.6,144.7z"/>
			</g>
			<path class="st17" d="M27.2,94.7c1.3-0.3,4.9,0,6.8,0.3c4.9,0.8,7,1.2,8.8,2.3"/>
			<path class="st18" d="M97.6,99.4c1-1,4.1-2.3,5.9-2.9c4.6-1.4,6.6-1.9,8.6-1.5"/>
			<path class="st19" d="M46.1,86.7c2.7,1.2,10.8,6.1,12.4,10.1c0.6,1.6,0.7,2.8,0.8,4.7c0.5,11,0.9,16,1.7,20.5
				c1,5.6,1.9,7.1,2.5,7.8c2.5,3.4,6.4,2.3,9.7,5.3c1.5,1.4,3,5.6,3.4,10.2"/>
		</g>
		<g>
			<path class="st20" d="M91.8,60C91.7,60.1,91.7,60,91.8,60c-3.3-0.1-6.8-0.1-10.3-0.1c-0.6,0-1.2,0-1.8,0c-0.6,0-1.1,0-1.7,0
				c-0.5,0-1.1,0-1.6,0c-0.4-1-0.7-1.9-0.9-2.8c5.1,0.2,11,0.3,16.2,0.5C91.8,58.2,91.7,59.4,91.8,60L91.8,60z"/>
			<g>
				<path class="st8" d="M96.1,41.7c-0.6,0-1.2-0.1-1.9-0.2c-3.9-1-5.5-4.6-5.7-5c0.2,1.8,0.4,3.5,0.6,5.2v0c0,0,0,0,0,0.1
					c-0.4,0-1.5,0.1-3-0.1h0c-2-0.3-4.6-1-7-3c-3.3-2.8-4.3-6.4-4.5-7.6c-3.1,3-4.6,6-5.4,7.8c-0.4,0.9-4.2,9.9-0.9,19.6
					c0.9,2.5,1.8,3.8,2.4,5.4c2.6,1.6,5.7,3,9.3,4c3.4,0.9,6.6,1.1,9.3,1.1c2.7-1.7,4.3-4,5.2-5.2c0.1-0.2,0.3-0.4,0.4-0.5
					c0,0,0,0,0,0c0.2-0.3,0.3-0.6,0.5-1l0,0c0.4-3.8,0.8-7.9,0.9-12.2C96.3,47.1,96.2,44.3,96.1,41.7L96.1,41.7z M86.8,46
					c1.1,4.3,2.3,5.5,3.3,5.7c0.3,0.1,1,0.1,1,0.4c0.1,0.5-1.3,1.2-2.2,1.6c-0.1,0,0.7-0.4,0.6-0.4c-1.1-1.1-1.9-1.8-2.2-3.3
					C87,48.5,86.7,47.5,86.8,46z M78.1,44.4c0.2-0.8,0.7-1.4,1.2-1.4c0.8,0,1.4,1.2,1.4,2.7s-0.6,2.7-1.4,2.7c-0.7,0-1.3-1-1.4-2.3
					c0-0.1,0-0.2,0-0.4C77.9,45.2,78,44.8,78.1,44.4L78.1,44.4z M90.2,64.3c0.1,0,0.1,0,0.1,0C90.3,64.3,90.3,64.3,90.2,64.3z
					 M91.9,60.2c0,0-0.2,0.1-0.3,0.2c-0.1,0.1-0.1,0-0.1,0c-3.2,0-6.7-0.1-10.2-0.1c2.4,0,4.9,0.1,7.1,0.2c-0.4,1.3-1.3,3.2-1.7,4.5
					c1.7-0.3,2.7-0.5,3.2-0.6c-1.4,0.4-7.1,1.9-10.8-0.6c-1.4-0.9-2.2-2.2-2.8-3.6c-0.5-1-0.7-2.1-0.9-3.1
					c5.2,0.2,11.2,0.3,16.6,0.5C92,58.4,91.8,59.6,91.9,60.2L91.9,60.2z M93.7,45.8c0,1.5-0.6,2.6-1.4,2.6c-0.8,0-1.4-1.2-1.4-2.7
					s0.6-2.7,1.4-2.7C93.1,43.1,93.7,44.3,93.7,45.8C93.7,45.8,93.7,45.8,93.7,45.8z"/>
				<path class="st7" d="M98.2,52.9c-0.2,1.5-0.6,3.1-1,4.7c-0.5,1.7-1.2,3.3-1.8,4.6c0.4-3.8,0.8-7.9,0.9-12.2
					c0.1-2.9,0-5.6-0.1-8.2c0.8,0,1.5-0.1,2-0.3C98.2,44.8,98.2,49.6,98.2,52.9L98.2,52.9z"/>
				<path class="st6" d="M89.3,68.9c-0.7,0.5-1.5,0.9-2.4,1.2c-2.6,1-5.4,1-7.8,0.6c-3.6-0.6-6.6-2.3-7.6-2.9c0-0.3,0-0.6-0.1-0.9
					c-0.1-1.3-0.3-2.3-0.7-3.1c2.6,1.6,5.7,3,9.3,4C83.4,68.7,86.6,69,89.3,68.9z"/>
				<path class="st6" d="M78.8,74c0,0.2,0,0.4-0.1,0.6c-1.3,0-2.7,0-4.3-0.3c-1.4-0.2-2.6-0.6-3.8-1c0.8-2,0.8-4.1,0.7-5.5
					c1.1,0.6,4,2.2,7.6,2.9C79,72.6,79.1,72,78.8,74L78.8,74z"/>
				<path class="st8" d="M78.8,74.6c-0.2,1.9-0.5,3.2-1.4,4.4c-1.9,2.4-5.1,2.7-5.9,2.8c-0.5,0-3.8,0.2-6.6-2.1
					c-0.7-0.6-1.8-1.9-2.5-3.1c2.1-1.7,3-3.7,3.5-4.7c0,2.2,0.1,4.4,0.1,6.6c0.9-0.4,2.1-1.1,3.2-2.4c0.8-0.9,1.3-1.8,1.6-2.8
					c1.2,0.4,2.4,0.8,3.8,1C76,74.5,77.5,74.6,78.8,74.6z"/>
				<path class="st7" d="M91.1,52c0.1,0.5-1.3,1.2-2.2,1.6c-0.1,0-0.1,0-0.2,0.1c-1.1-1.1-1.9-2.4-2.2-3.8c-0.3-1.5-0.1-2.9,0.3-3.9
					c1.1,4.3,2.3,5.5,3.3,5.7C90.4,51.7,91,51.7,91.1,52z"/>
			</g>
			<path class="st21" d="M110,78.5c-0.9,0.1-4.9,0.3-8.3-2.7c-2-1.8-2.9-3.9-3.2-4.9c-0.2,1.8-0.4,3.7-0.6,5.5
				c-0.5-0.2-3.8-1.5-4.9-5.1c-0.8-2.6-0.1-4.8,0.2-5.5c0.5-0.8,1.1-1.8,1.7-2.8v0c2.6-4,3.2-8,3.3-10v-0.2c0.5-3.5,0.5-6.9,0.2-9.4
				v0c0-0.7,0-1.4,0-2c-0.1,0-0.2,0-0.2,0.1c-1,0.3-2.4,0.4-4,0c-3.9-1-5.5-4.6-5.7-5.1c0,0.3,0.1,0.7,0.1,1c-0.2-0.4,0-0.9,0-1
				c0.2,1.6,0.3,3.4,0.5,5c0,0.1-0.3,0.2-0.3,0.3c-0.5,0-1.5,0-2.6-0.1h0c-2-0.3-4.6-1-7-3.1c-3.3-2.8-4.3-6.4-4.6-7.6
				c-0.1,0.1-0.2,0.2-0.3,0.3c0,0,0,0,0-0.1c-3,3-4.6,6-5.4,7.8c-0.4,0.9-3.6,9.6-0.3,19.3c0.9,2.5,1.8,3.9,2.4,5.6
				c0.3,0.9,0.5,1.7,0.7,3c0,0.2,0,1.7,0,2c0.1,1.4-0.4,2.6-1.2,4.6c-0.4,1-0.9,1.9-1.6,2.8c-0.5,0.5-0.9,1-1.4,1.3
				c0,0-0.1,0.1-0.1,0.1c-0.5,0.4-1,0.6-1.4,0.8c0-2.2-0.1-4.4-0.1-6.6c-0.1,0.2-0.2,0.4-0.3,0.6c0-0.1,0-0.3,0-0.4
				c-0.4,1-1.3,2.8-3.2,4.4c-0.1,0.1-0.2,0.2-0.3,0.2c0,0,0,0,0,0c0,0,0,0,0,0c-0.7,0.6-1.5,1-2.2,1.3c0.3-1-0.3-2.4,0-3.9
				c2.8-4.8,1.7-9.1,1.7-12.4c0.1-5.1,0-7.4,0.3-17.4c0.1-3.5,0.3-8,1.6-12.6c0.8-3,1.8-4.4,2.6-6.1c-2.4,1-5.1,2.7-7.5,3.7
				c0.3-0.5,1.7-3.9,2.4-4.7c1.1-1.5,2.5-3.3,5-4.7c4-2.3,6.3-2,7.9-2c-1.8-0.8-3-0.6-5.6-1.2c-2.2-0.5-5.3-0.9-7-1.1
				c2.5-1.5,7.9-4.7,12.6-5.8c3.8-0.8,5.2-0.4,7.7-0.3c-3.1-1.6-5.7-2.6-8.8-4.1c3.9,0,9.6,0.7,13.3,2.3c9.8,4.2,14.1,12.4,15,14.3
				c3,6.1,3.2,11.7,3,14.7c1.9,3.4,2.4,3.9,2.8,7.8c0.3,3.5-0.1,5.9-1.3,8.7c-0.7,1.9-3.7,9.8-0.6,18.2
				C105.8,73,107.1,75.7,110,78.5L110,78.5z"/>
			<path class="st22" d="M84,10c-3.1-1.6-6.2-3.1-9.3-4.7h0c-2.4,0-4.8,0.3-7.1,0.8c-0.4,0.1-0.8,0.2-1.2,0.3
				C61.7,7.7,57.4,10,54,13c-4.7,4.2-6.7,9-7.8,11.8c-0.8,2-2.2,5.3-2.9,9.5v0c0,0,0,0,0,0.1c-0.6,3.5-0.6,7.5,0.6,11.9
				c0,0.1,0,0.2,0.1,0.3c0.1,0.3,0.2,0.6,0.3,0.9c3.2,10.1,11,15.3,13.5,16.7c0.6,3.6,1.2,7.8,0.9,8.5c-1.2,3.5-3.4,5.6-4.4,6.4
				c0.5,0,1.6,0,3-0.2c0.1,0,3.1-0.6,3.2-0.6c1.3-1.6,1.3-3.2,2.2-4.6c0.1-0.2-1.6,0.2-1.5-0.1c2.5-4.5,3.3-8.4,3.3-11.5
				c0.1-5.2-1.7-8.4-1.4-18.4c0.1-3.5,0.5-7.5,1.8-12c0.8-3,1.8-5.4,2.6-7.1c-2.4,1-4.9,2-7.3,3c0.3-0.5,0.8-1.3,1.4-2.2
				c0,0,0,0,0,0c1.1-1.5,2.8-3.2,5.2-4.6c4-2.3,7.7-2.5,9.4-2.5c-1.8-0.8-4.1-1.6-6.7-2.2c-2.2-0.5-4.2-0.8-5.9-0.9
				c2.5-1.4,6.1-3.2,10.9-4.3C78.1,10,81.4,9.9,84,10L84,10z M56.2,51.1c-1.9-0.9-2.9-3.1-2.4-5c0.4-1.5,1.7-2.7,3.4-3.1v0
				c-0.3,2.6-0.6,5.2-0.9,7.9C56.2,51,56.2,51,56.2,51.1z"/>
			<path class="st23" d="M43.9,46.5c-0.7-0.4-1.4-0.7-2-1.1c-1.8-1.1-3.2-2.4-3-5.5c0-0.3,0.1-0.7,0.2-1c0.7-2.9,3.6-4.3,4.3-4.6
				C42.7,37.8,42.7,42,43.9,46.5z"/>
			<path class="st21" d="M40.8,66.1c0.7,5.6,0.2,10.1-0.1,12.4c-0.3,2.6-1,5.9-2.1,9.6c-0.5-1.9-1-4.2-1.3-6.8
				c-0.3-4.1,0.1-7.6,0.6-10.1c-1.2,3.2-2.8,9.3-1.5,16.7c0.6,3.2,1.5,5.8,2.5,7.8c-0.9-0.1-9.8-1-13.5-8.1
				c-2.6-4.9-1.2-10.2-0.5-13c1.3-5.3,3-4.3,4.7-9.7c0.9-2.9,1.5-8.1,2.8-18.3c0.1-0.6,0.3-2.1,1.3-3.7c1.3-1.9,4.2-3.5,5.5-4
				c-0.1,0.3-0.1,0.6-0.2,1c-0.2,3.1,1.2,4.5,3,5.5c-0.8,2.2-2.8,7.5-2.8,11.3C39.2,60.4,40.1,61.1,40.8,66.1z"/>
			<g>
				<line class="st3" x1="80.7" y1="0" x2="80.7" y2="0"/>
				<g>
					<g>
						<g>
							<path class="st24" d="M60.6,34.4c-0.5,2.5-1.4,4.8-1.9,7.3C57,49,57,56.7,58.6,64c0,0,0.3,1.3,0.3,1.3l-1.1-0.7
								c-9.6-5.5-16-16.5-15.1-27.7c0.4-5.5,2.4-10.8,4.8-15.7C52.3,11.1,63.3,4.9,74.4,4.7c11.2-0.3,22,6.2,27.1,16.1
								c2.5,4.9,3.8,10.4,3.4,15.9c0,0,0.1,0.1-0.4,0.1c-0.5-0.1-0.4-0.1-0.4-0.1l0-0.1l0-0.3c0.7-16.5-13-31-29.7-30.6
								c-8,0.2-16,3.4-21.5,9.3c-3.7,3.9-5.8,9-7.6,14.1c-4.7,13.2,0.9,27.5,13,34.5c0,0-0.8,0.6-0.8,0.6C55.9,56.8,56,49,57.9,41.5
								C58.5,39.1,59.2,36.6,60.6,34.4L60.6,34.4L60.6,34.4z"/>
							<path class="st24" d="M58.2,63.4c1.1,2.7,1.1,5.6,1.2,8.6c-0.5,2.9-2.5,5.5-4.6,7.5c0,0-0.3-0.9-0.3-0.9
								c4.7,0.2,9.3-2.6,11.1-7c0,0,1-2.4,1-2.4l0,2.6l0.1,6.6l-0.8-0.5c1.9-0.9,3.4-2.4,4.3-4.3c1.3-2.8,1.2-6.3,0.4-9.2
								c-1.2-3-2.9-6-3.4-9.3c-1.6-8.7,0.9-18.4,7.3-24.6c0,0,0.7-0.7,0.7-0.7c0.4,1.9,1,3.7,2,5.3c2.5,4.1,7.4,6.3,12.2,6
								c0,0-0.5,0.6-0.5,0.6l-0.6-5.3l-0.4-3.4l1.4,3.1c1.6,4,6.5,6.2,10.4,4.3c0,0-0.3,0.4-0.3,0.4c0.9-5.6-0.1-11.5-2.7-16.5
								c-0.3-0.7-0.7-1.4-1.1-2.1c0,0,0-0.1,0.3-0.3c0.4-0.2,0.3-0.2,0.4-0.1c3.7,5.6,5,12.5,4.1,19.1c0,0,0,0.3,0,0.3l-0.3,0.1
								c-3.3,1.5-7.4,0.8-9.8-1.9c-0.8-0.9-1.5-1.8-2-2.9l1-0.3c0.1,0.5,0.7,5.5,0.7,5.8c-7.1,0.9-14.2-4-15.6-11.1
								c0,0,0.9,0.3,0.9,0.3c-7.7,7.5-9.7,20.1-5,29.7c3.5,6.1,2.7,15.5-4.6,18.3c0-0.3-0.1-6.8-0.1-7.4c0,0,1.1,0.2,1.1,0.2
								c-2.2,5.4-7.8,8.3-13.5,7.6c2.4-1.9,4.7-4.5,5.4-7.6C58.7,69.1,58,66.3,58.2,63.4L58.2,63.4L58.2,63.4z"/>
							<path class="st24" d="M98.4,40.9c0.9,2,0.8,4.3,0.9,6.4c0.2,6.6-1.7,13.2-5.4,18.6c-0.5,1.3-0.7,4.1,0.2,5.8
								c0.8,1.8,2.5,3.3,4.3,4l-0.7,0.4l0.6-5.5l0.3-2.5l0.8,2.4c1.4,4.7,6.2,7.7,11,7.2c0,0-0.3,0.9-0.3,0.9
								c-5.8-5.2-7.5-13.7-5.9-21.1c0.6-3.7,2.7-6.9,2.8-10.7c0.1-2.7-0.1-5.5-1.5-7.9c-0.2-0.3-0.8-1.5-1-1.8c0,0-0.2-0.3-0.2-0.3
								l-0.1-0.2l0-0.1c0,0-0.2,0,0.3-0.3c0.5-0.2,0.3-0.1,0.4-0.1l0,0.1c0,0.1,0.2,0.4,0.3,0.4c2.2,3,2.7,6.5,2.7,10.2
								c0.1,3.8-2.1,7.2-2.7,10.9c-1.5,7.1,0,15.1,5.6,20.1c0,0,0.9,0.8,0.9,0.8l-1.2,0.1c-5.3,0.5-10.6-2.8-12.1-7.9
								c0,0,1-0.1,1-0.1l-0.6,5.5l-0.1,0.7c-4.8-1.5-7.7-6.9-5.7-11.7c3.6-5.3,5.4-11.6,5.4-18C98.6,45.2,98.1,43.1,98.4,40.9
								L98.4,40.9L98.4,40.9z"/>
						</g>
						<path class="st25" d="M43.7,34.2c-0.3,0.2-4.3,1.8-4.5,5.6c-0.3,4.3,2.6,5.3,5.1,6.7"/>
						<path class="st25" d="M39.4,38.8c-1.2,0.4-4.2,2.1-5.5,4c-1,1.5-1.2,3-1.3,3.7c-1.2,10.3-1.9,15.4-2.8,18.3
							c-1.7,5.4-3.3,4.4-4.7,9.7c-0.7,2.8-2.1,8.1,0.5,13c3.7,7,12.6,8,13.5,8.1c-1-2-2-4.7-2.5-7.8c-1.3-7.4,0.4-13.5,1.5-16.7
							c-0.5,2.5-1,6-0.6,10.1c0.2,2.6,0.7,4.9,1.3,6.8c1.2-3.7,1.8-7,2.1-9.6c0.3-2.3,0.8-6.8,0.1-12.4c-0.6-5-1.6-5.7-1.6-9.5
							c-0.1-3.9,2-9.3,2.8-11.4"/>
						<path class="st24" d="M77.5,28.8c1,5.7,5.3,9.8,9.8,13c0,0-0.1,0.2-0.1,0.2c-1.4-0.4-2.5-1.4-3.6-2.3
							C80.4,36.9,78,33,77.5,28.8L77.5,28.8z"/>
						<path class="st24" d="M83.1,32.9c0.7,3.6,3.2,6.8,6.6,8.3c0,0-0.3,0.6-0.3,0.6C86,40.1,83.6,36.7,83.1,32.9L83.1,32.9z"/>
						<path class="st24" d="M89.2,28.8c1,5.7,5,10.1,10.3,12.1c0,0-0.4,0.9-0.4,0.9C93.7,39.4,89.9,34.6,89.2,28.8L89.2,28.8
							L89.2,28.8z"/>
						<path class="st24" d="M47.3,35.5c1.8-0.4,4.2-1.3,4.4-3.4c0.1-0.9-0.2-2.2-0.1-3.3c0.5-6.2,5.4-10.1,11.2-11
							c-4.2,0.9-8.5,3.5-9.7,7.8c-0.5,1.6-0.7,3.1-0.5,4.7c0.1,0.5,0.2,1.1,0.1,1.7c0,1.3-0.9,2.5-1.9,3.2c-1,0.7-2.1,1.1-3.2,1.5
							L47.3,35.5C47.3,35.5,47.3,35.5,47.3,35.5z"/>
						<path class="st24" d="M45.7,35.4c0.5-12.6,10.4-23.7,22.8-25.6c-12,2.4-21.2,13.5-21.2,25.7C47.4,35.5,45.7,35.4,45.7,35.4
							S45.7,35.4,45.7,35.4z"/>
						<path class="st24" d="M46.7,39.2c2.8,2.3,4.3,5.8,4.3,9.3c0.4,3.4,2.5,6.3,4.9,8.7c-2.6-2.3-4.9-5.1-5.5-8.6
							c-0.2-3.4-1.8-6.5-4.5-8.5C46,40.2,46.7,39.2,46.7,39.2C46.7,39.2,46.7,39.2,46.7,39.2z"/>
						<path class="st24" d="M67.2,35c-9.1,18.9,6.8,24,0.1,42.9c0,0-0.9-0.3-0.9-0.3C73.3,59.2,57.7,53.7,67.2,35L67.2,35L67.2,35z"
							/>
						<path class="st24" d="M62.1,43.7c-2.3,5.4-2.8,11.5-1.5,17.2c1.4,5.7,1.5,11.9-0.4,17.5c0,0-0.7-0.2-0.7-0.2
							c1.9-5.6,1.9-11.5,0.7-17.3C59,55.2,59.7,49.1,62.1,43.7C62.1,43.7,62.1,43.7,62.1,43.7z"/>
						<path class="st26" d="M57.2,43.1c-0.3,2.6-0.6,5.2-0.9,7.9c-1.8-1-2.7-3-2.2-4.9C54.4,44.6,55.6,43.5,57.2,43.1L57.2,43.1z"/>
						<path class="st3" d="M57.5,43c-0.3,2.7-0.6,5.4-1,8.1c-0.1,0-0.2-0.1-0.3-0.1c0.3-2.6,0.6-5.2,0.9-7.9
							C57.3,43,57.4,43,57.5,43z"/>
						<path class="st3" d="M98.7,41.1c0,3.4-0.3,8.4-0.3,11.8c-0.2,2.1-0.8,6.4-3.8,10.6c-1.1,1.6-3.4,4.8-7.6,6.4
							c-7,2.7-14.8-1.5-15.7-2.1"/>
						<path class="st24" d="M86.6,43.9c1,2.5,1.8,5.8,4.5,6.8c0.2,0.1,0.5,0.1,0.8,0.7c0.1,0.3,0.1,0.6,0,0.8
							c-1.1,1.5-3.2,2-4.9,1.8c1.3-0.6,2.9-1.3,3.7-2.2c0,0-0.1,0.2,0,0.3c0.2,0.2,0.1,0.2,0,0.2C87.3,52.9,86.9,46.2,86.6,43.9
							L86.6,43.9L86.6,43.9z"/>
						<path class="st3" d="M93.8,57.5c-5.7-0.2-12.4-0.4-18.1-0.6c0.4,2.3,1.4,5.1,3.8,6.7c4.3,2.8,11.2,0.4,11.2,0.5
							c0,0-0.8,0.2-3.6,0.7c0.4-1.3,1.3-3.3,1.7-4.5C84.9,60.1,80,60,76.3,60c4.9,0.1,10.7,0.1,15.6,0.2c0,0,0,0.1,0.1,0
							c0.1,0,0.2-0.1,0.3-0.2c-0.1-0.7,0.1-2,0-2.7"/>
						<g>
							<ellipse class="st27" cx="79.6" cy="45.5" rx="1.4" ry="2.7"/>
							<path class="st24" d="M78.4,44.7c-1.2-0.2-2.1-1.5-1.9-2.6c0.1,1,1,1.8,1.9,1.6C78.4,43.7,78.4,44.7,78.4,44.7L78.4,44.7z"/>
							<path class="st24" d="M78.3,46.4c-1.2-0.2-2.1-1.5-1.9-2.6c0.1,1,1,1.8,1.9,1.6C78.4,45.4,78.3,46.4,78.3,46.4
								C78.3,46.4,78.3,46.4,78.3,46.4z"/>
						</g>
						<g>
							<ellipse class="st27" cx="92.6" cy="45.6" rx="1.4" ry="2.7"/>
							<path class="st24" d="M94,43.8c0.8,0.2,1.6-0.5,1.7-1.3c0.3,1.1-0.6,2.2-1.7,2.3C94,44.8,94,43.8,94,43.8
								C94,43.8,94,43.8,94,43.8z"/>
							<path class="st24" d="M94,45.1c0.8,0.2,1.6-0.5,1.7-1.3c0.3,1.1-0.6,2.2-1.7,2.3C94,46.1,94,45.1,94,45.1
								C94,45.1,94,45.1,94,45.1z"/>
						</g>
						<path class="st24" d="M46,40c0,3.5,1.7,7,3.3,10.2c1.7,3.3,3.7,6.4,6,9.3c-1.2-1.4-2.4-2.8-3.5-4.3c-3.1-4.6-6.7-9.4-7.1-15.1
							C44.6,40,46,40,46,40L46,40L46,40z"/>
						<path class="st24" d="M47.6,36.9c3.8,0.3,5.9-2,7.8-5c1.6-2,2.6-4.7,4.9-6c0.8-0.4,1.6-0.6,2.5-0.7c-1.7,0.2-3.3,1.2-4.2,2.6
							c-2.9,4.4-4.6,10.5-11,10.5C47.6,38.3,47.6,36.9,47.6,36.9L47.6,36.9L47.6,36.9z"/>
						<path class="st24" d="M47.6,38.2c2.3,2.2,5.9,3.1,9,1.9c-3.1,1.7-7,1.2-9.9-0.8C46.8,39.3,47.6,38.2,47.6,38.2
							C47.6,38.2,47.6,38.2,47.6,38.2z"/>
					</g>
					<path class="st3" d="M79.3,70.4c0,2.1,0.1,1.3-0.2,3.4c-0.3,2.2-0.5,3.7-1.5,5c-1.9,2.4-5.1,2.7-5.9,2.7
						c-0.5,0-3.8,0.2-6.6-2.1c-0.8-0.6-2-2.1-2.7-3.3"/>
				</g>
			</g>
		</g>
	</g>
</g>
</svg>
