<?xml version="1.0" encoding="UTF-8"?>
<svg id="Layer_2" data-name="Layer 2" xmlns="http://www.w3.org/2000/svg" viewBox="0 0 136.49858 271.0249">
  <defs>
    <style>
      .cls-1 {
        fill: #f0efef;
      }

      .cls-1, .cls-2, .cls-3, .cls-4, .cls-5, .cls-6, .cls-7, .cls-8, .cls-9, .cls-10 {
        stroke: #4e381a;
        stroke-miterlimit: 10;
      }

      .cls-2 {
        stroke-dasharray: 0 3;
      }

      .cls-2, .cls-3, .cls-4, .cls-6, .cls-9 {
        fill: none;
      }

      .cls-3 {
        stroke-width: 1.06079px;
      }

      .cls-11, .cls-8 {
        fill: #4e381a;
      }

      .cls-12 {
        fill: #d7d4cf;
      }

      .cls-5, .cls-13 {
        fill: #e0ae84;
      }

      .cls-6 {
        stroke-dasharray: 0 0 3.01257 3.01257;
      }

      .cls-14 {
        fill: #a0bdb1;
      }

      .cls-7 {
        fill: #e6e7e8;
      }

      .cls-15 {
        fill: #bc6d65;
      }

      .cls-9 {
        stroke-width: 1.00134px;
      }

      .cls-16 {
        fill: #525246;
      }

      .cls-17, .cls-10 {
        fill: #f1f2f2;
      }

      .cls-18 {
        fill: #c9e2da;
      }

      .cls-19 {
        fill: #bac157;
      }

      .cls-20 {
        fill: #ca9b71;
      }

      .cls-21 {
        fill: #eac4a0;
      }

      .cls-22 {
        fill: #5a5c5d;
      }

      .cls-23 {
        fill: #acd5cb;
      }
    </style>
  </defs>
  <g id="Layer_1-2" data-name="Layer 1">
    <g>
      <g>
        <path class="cls-1" d="m38.81061,144.9961l57.41052.37894c.06664-11.14096-.20976-22.91061-.94736-35.2421-.342-5.71765-1.15781-15.56833-1.16817-15.67313-.00002-.00009-.01364-.138-.02452-.2738,0-.00003-.00003-.00043-.00006-.00076-.0002-.00244-.00034-.00421-.00034-.00424-.00012-.00159-.00508-.05206-.01648-.16751-.79684-7.24457-.92542-8.88492-.87465-8.89108.10925-.01328,0,0,.91605,9.3374.13419,1.36771,4.76347-2.22272,6.47342-4.22162,5.63754-6.59021,10.84665-12.83109,14.58948-24.63156.72861-2.29718,1.7214-5.16752,2.02105-6.44212-4.0421-2.02106-9.26941-4.3371-13.31151-6.35816-.88875,2.7276-1.89466,7.87999-5.19375,11.66344-7.09337,8.13477-16.53299,9.82217-19.51579,10.23157-1.13445,4.29388-4.74701,7.40668-8.90526,7.76843-4.86617.42334-9.58362-2.99872-10.8-8.14737-2.77557-.02618-9.49814-.46548-16.29474-4.92633-8.06377-5.29254-11.44468-14.62384-12.31579-17.11579-3.85263,1.83157-8.02105,4.04211-11.87368,5.87368.45358,2.04324,1.85542,6.06351,2.98981,9.03174,1.25413,3.28156,3.39763,7.9361,6.98914,12.82089,4.76714,6.48376,10.11978,10.69968,14.02105,13.26315.82105-2.39999,1.64211-4.80002,2.46316-7.20001-2.31853,10.31638-4.31425,21.99411-5.49474,34.86316-.78319,8.53799-1.11459,16.58707-1.13684,24.06317Z"/>
        <g>
          <path class="cls-12" d="m40.527,120.44746c1.17999-12.87,3.17999-24.55005,5.5-34.86005-.82996,2.40002-2.3227,4.80873-3.14271,7.20869-3.90002-2.57001-8.82472-6.58369-13.59474-13.07368-3.58997-4.88-5.76684-9.65286-7.02685-12.93283-.13-.34003-.18108-.67664-.33105-1.05664,1.98999.02002,4.57632-.43788,7.32632-1.95789,1.83002,3.32001,4.62907,6.77238,7.09904,9.87236,1.52002,1.89001,8.84003,11.83002,14.02002,13.64001.73999.26001,2.73999.87,4.54999,2.65002,1.92999,1.89996,2.64001,4.12,3.21997,6.26001,1.72003,6.29999,2.85004,10.41998,2.84003,16.66998,0,3.40002-.34003,5.51001.38,9.27997.52002,2.68005.83002,4.34003,2.08997,5.88,2.64001,3.24005,6.37,2.16003,9.47003,4.17004,2.19,1.41998,4.44,4.60999,4.56,12.56-12.70001-.08002-25.40002-.16003-38.09998-.25.02997-7.47003.35999-15.52002,1.13995-24.06Z"/>
          <path class="cls-12" d="m114.97903,64.8961q-.01001.01001-.01001.02002c-3.73999,11.79999-8.95001,18.03998-14.59003,24.63-1.44,1.67999-4.64211,4.62922-5.79207,4.65919-.11842-1.00658-.21316-2.07237-.27237-3.04342-.01001-.02002-.01184-.13399-.01184-.15395-.20996-.67004-.15525-2.72766-.35526-3.32763l-.26053-2.65263c0-.10004,4.00207-6.65154,4.42211-7.16155,1.17999-1.42999,5.31-7.81,9.19995-13.96002.83002.41998,1.73999.75,2.73004.97003.20996.04999.40997.08997.62.12.82996.13995,1.71997.17999,2.65997.12.51001-.04004,1.06-.10004,1.66003-.22003Z"/>
          <path class="cls-12" d="m110.81061,56.74873c.43005.17999-.41998-.17999,0,0,.14001.06.27997.12.41998.18005,1.79999.75995,4.06846,1.45311,5.55845,2.20311-.29999,1.28003-1.45898,4.99002-2.18896,7.27999-.60004.12-2.22948.33684-2.73949.37688-.94.06-1.83002.01996-2.65997-.12-.21002-.03003-.42004-.07001-.62-.12-.99005-.22003-1.37474-.16897-2.20476-.58896-.26001-.13.03262.07097-.20737-.06899l1.56316-2.55789"/>
          <path class="cls-12" d="m30.10949,65.5632c-2.85092,1.32107-5.86322,1.38755-7.84678,1.22639-.97197-2.96645-2.41162-6.82833-2.6815-8.67213,2.04175-.79715,4.35768-1.78529,6.66293-2.76421.87083,2.97927,2.17213,6.53056,3.86536,10.20995Z"/>
        </g>
        <path class="cls-13" d="m28.89227,53.30029l-2.92999,1.47998c-.01001-.02002-.02002-.04999-.03003-.07001-5.62-12.60999-12.29999-28.75-17.10999-40.76001.70001.41003,1.41998.52002,1.94.24005.84003-.43005.60999-1.59003.51001-2.27002-.14001-.90002-.34003-1.69-.59998-2.40002v-.01001c-.21002-.63-.48004-1.19-.77002-1.70996-.01001-.01001-.01001-.02002-.01001-.03003-.13-.5-.12-.94.10999-1.14996.28003-.26001.79004-.11005,1.14001,0,1.71002.50995,3.07001.92999,3.95001,1.20996h.01001c.46997.14001.79999.25.96997.29999,1.02002.30005,1.85004.38,2.52002.39001.20996,0,.45996,0,.71997.02002-.21997,1.38-.39996,2.58997-.39996,2.62-.42999,2.83002-.54999,3.60999-.63,4.79999,0,0-.21002,2.91003.06,6,.51001,5.72003,2.84998,11.27002,3.34998,12.45001,2.04999,4.88,4.35999,10.92999,7.17999,18.83002.01001.01996.01001.03998.02002.06Z"/>
        <path class="cls-21" d="m30.64227,52.34027l-1.77002.90002c-2.82001-7.90002-5.13-13.95001-7.17999-18.83002-.5-1.17999-2.83997-6.72998-3.34998-12.45001-.27002-3.08997-.06-6-.06-6,.08002-1.19.20001-1.96997.63-4.79999,0-.03003.17999-1.23999.39996-2.62.67999.03998,1.42004.15997,1.67999.53998.52002.73004.28095,1.73076,0,2.56-.16683.49241-.91425,4.86293-1.1142,7.50294-.15002,2,.75421,6.27709,6.4242,21.86705,1.02002,2.82001,2.49005,6.70001,4.34003,11.33002Z"/>
        <path class="cls-20" d="m25.96228,54.78027l-6.66998,3.34998c-2.14001-4.54999-4.33002-10.02997-6.16003-16.37-1.92999-6.69995-3-12.81-3.59998-18-1.28003-.70996-2.92999-1.83997-4.45001-3.59998-2.38-2.73999-3.12-5.46997-3.89001-8.33002C.43225,8.9903-.15772,6.79028.81225,6.05029c.25-.19.58002-.27002.95001-.25.09003-.73004.38-2.32001,1.14001-2.88.39996-.29999.90997-.41003,1.42999-.38,1.13,2.94,2.67999,6.88,4.48999,11.40997,4.82001,12.03003,11.51001,28.21002,17.14001,40.83002Z"/>
        <path class="cls-13" d="m10.76227,14.19031c-.52002.27997-1.23999.16998-1.94-.24005-1.81-4.52997-3.35999-8.46997-4.48999-11.40997.91998.02002,1.85999.45001,2.26001.95001.09998.13.20001.25.31.37,1.08002,1.31,2.14996,2.44,2.98999,3.90997,0,.01001,0,.02002.01001.03003.13.56.42999,1.20996.77002,1.70996v.01001c.25995.71002.45996,1.5.59998,2.40002.09998.67999.33002,1.83997-.51001,2.27002Z"/>
        <path class="cls-5" d="m15.09228,7.83026c-.88-.27997-2.23999-.70001-3.95001-1.20996-.34998-.11005-.85999-.26001-1.14001,0-.22998.20996-.23999.64996-.10999,1.14996-.84003-1.46997-1.90997-2.59998-2.98999-3.90997.15997-1.20001.51001-2.89001.83002-3.02002.58997-.26001,1.72998.60004,2.96997,1.84003,1.64001,1.62,3.45001,3.91998,4.39001,5.14996Z"/>
        <path class="cls-13" d="m18.59228,8.52027c-.66998-.01001-1.5-.08997-2.52002-.39001-.16998-.04999-.5-.15997-.96997-.29999h-.01001c-.94-1.22998-2.75-3.52997-4.39001-5.14996.14001-1.11005.34998-2.25.67999-2.40002,1.38-.58997,5.59003,6.03998,7.21002,8.23999Z"/>
        <path class="cls-20" d="m131.3623,19.22028c-1,1.17999-2.65002,2.85999-5.11005,4.45001-.70996,5.54999-1.88995,11.95996-3.88995,18.95001-1.74005,6.10999-3.80005,11.50995-5.84003,16.14996-.07001-.03998-.15002-.07001-.22003-.10999-1.5-.71997-2.98999-1.45001-4.47998-2.16998,8.41998-16.33002,11.54004-31.5,12.82001-41.54004.82001.30005,1.89001.52002,2.65002,0,.15997-.10999.27997-.23999.38995-.38v-.00995c.29004-.43005.38-1,.56-1.69.08002-.33002.23004-2.07001.94-3.61005.05005-.10999.11005-.20996.17004-.31.08997-.14996.17999-.31.26001-.45996.01996-.02002.03998-.04999.04999-.08002.13995-.21002.29999-.40997.46997-.59003.37-.39996.60999-.94,1.13-1.47998.03003-.02997.07001-.06.10999-.09998.42004-.35004.92004-.67004,1.42004-.77002.25-.07001.50995-.07001.75.01001,1.50995.46002,1.97998,2.69,2.07996,3.21997.92999,4.42999-2.71997,8.71002-4.25995,10.52002Z"/>
        <path class="cls-13" d="m132.75226,5.35028c-.62.27002-1.06.57001-1.38.89001-.03998.03998-.07996.07001-.10999.09998-.46997.41003-.82001.84003-.94,1.03003-.21997.34998-.44.69-.65997,1.03998-.01001.03003-.03003.06-.04999.08002-.10004.14996-.19.29999-.26001.45996-.06.10004-.12.20001-.17004.31-.44995.83002-.84998,1.77002-1.13,2.95001-.08997.35999-.16998.72003-.22998,1.07001-.03998.25-.08002.5-.09998.72998h-.01001c-.88.76001-2.12.94-2.63.69-.28003-.13995-.5-.45996-.63-1.25995-.13-.78003-.25-2.51001,1.57001-6.13,1.09003-2.14001,1.76001-2.79004,2.02997-3.03003.20001-.17999.47003-.41998.78003-.65997.70001-.53003,1.65002-1.03003,2.56-.73004.64001.21002,1.10999,1.70001,1.35999,2.46002Z"/>
        <path class="cls-13" d="m128.83227,3.6203c-.30586.23999-.57227.47998-.76961.65997-.26635.23999-.92738.89001-2.00285,3.03003-1.79569,3.62-1.6773,5.34998-1.54903,6.13.12827.79999.3453,1.12.62159,1.25995.5032.25,1.72662.07001,2.59487-.69-.01975.20001-.02963.38-.02963.55005v.00995c-.10852.14001-.22691.27002-.38474.38-.74986.52002-1.80557.30005-2.61462,0-1.26287,10.04004-4.34124,25.21002-12.64873,41.54004-2.55536-1.26001-5.11079-2.51001-7.66621-3.77002.55258-1.78998,1.0459-3.29999,1.43064-4.41998,1.52928-4.51001,6.33427-17.96002,8.96858-24.51001.27623-.66998.88794-2.17999.99652-4.22998.04932-.89001-.02963-1.67004-.18746-3.22003-.19734-1.97998-.29598-3.01001-.55252-4.47998-.28616-1.59003-.45388-2.08002-.12827-2.65002.444-.77997,1.40101-1.01001,2.23963-1.20001.55252-.13.93732-.14996,1.31225-.13995.18746-1.26001.79918-3.97003,2.21006-5.45001.65122-.67999,1.7365-1.81,2.9106-1.53003.68078.17004,1.12478.75,1.34182,1.12.70054-.53998,1.6181-1.07996,2.5061-.75995.67091.22998,1.20367,1.85999,1.40101,2.37Z"/>
        <path class="cls-4" d="m21.2843,65.44873c.95994.14245,10.10526-1.57895,12.75789-6.09474"/>
        <path class="cls-4" d="m101.90535,59.92242c.44175.86408,4.22799,5.91872,13.16842,5.96842"/>
        <path class="cls-4" d="m52.54746,73.28031c.47368,7.86316,8.1601,15.82255,16.10526,15.53684,7.54103-.27118,14.02105-3.50526,15.06316-14.87368"/>
        <path class="cls-4" d="m19.67377,58.78556c-2.19632-4.62781-4.46649-10.24219-6.34737-16.7684-1.93103-6.70026-3.00478-12.81079-3.60001-18-1.27769-.71014-2.92709-1.83945-4.45263-3.60001-2.37876-2.74524-3.11404-5.47629-3.88421-8.33685C.62496,9.24037.03462,7.04768,1.01061,6.30137c1.00799-.77078,3.24043.34244,4.45264,1.42105,1.91222,1.70148,2.207,4.1366,2.46316,6.25262.13802,1.14014.201,1.7139-.09474,1.89474-.87926.53766-4.64382-2.29688-4.35789-5.21054.06164-.62808.29774-1.11984.47369-1.42105"/>
        <path class="cls-4" d="m31.0422,53.10136c-1.95922-4.84689-3.48242-8.9147-4.54737-11.8421-5.66895-15.58322-6.83041-20.62983-6.67993-22.62132.20009-2.64807.3725-3.99057,1.01053-6.56842.20951-.84647.39029-1.79582-.12632-2.52632-.73473-1.03897-1.60872-.31617-4.43586-1.15763-.49693-.14792-2.3118-.72946-4.92632-1.51578-.34759-.10452-.85917-.25156-1.13684,0-.51793.46924.0694,2.06125.7579,3.03159.94116,1.32645,3.10721,1.70913,3.89901,1.9313-.41581.36414-1.07122.997-1.51579,1.84737-.81783,1.56439.71053,4.40526.94737,5.02105"/>
        <path class="cls-4" d="m1.9264,6.42768c-.00385-.15094.20396-2.5303,1.16842-3.25262,1.08969-.8161,3.0583-.21718,3.69474.56842,2.02105,2.49473,4.04211,4.23158,4.67368,8.43157.10267.68277.3325,1.84297-.50526,2.27369-.70352.36169-1.7434.04156-2.65263-.7579"/>
        <path class="cls-4" d="m6.91588,3.70663c.13202-1.18985.55484-2.74814.91579-2.90527,1.41638-.61661,6.01375,5.20761,7.51579,7.20001"/>
        <path class="cls-4" d="m10.72262,2.33813c.13202-1.18985.49168-1.64288.85263-1.80002,1.41638-.61661,5.83859,6.42348,7.34063,8.41588"/>
        <line class="cls-3" x1="19.07377" y1="58.5961" x2="31.23167" y2="52.46978"/>
        <path class="cls-3" d="m116.49482,59.54347c2.11516-4.75092,4.05193-10.57716,5.86749-16.92316,1.99738-6.98154,3.37762-13.14425,4.07989-18.6979,2.46646-1.58884,4.11102-3.2731,5.1158-4.45261,1.54163-1.80972,5.18376-6.08521,4.26315-10.51581-.1091-.52502-.57333-2.75925-2.08421-3.22104-1.32745-.40573-2.93088,1.43874-3.22105,1.89473-.88421,1.38947-1.76842,2.71579-2.27368,4.83159-.35807,1.49942-.59671,3.08105,0,3.41052.65617.3623,2.02081-.98242,2.27368-1.2316,1.34822-1.32852,1.86725-2.95523,2.08421-4.07367"/>
        <path class="cls-3" d="m133.16851,5.48031c-.18147-.38538-.79401-2.0743-1.57895-2.33684-1.32631-.4436-2.70625.80798-3.34737,1.38947-.26669.24188-.93997.88953-2.02106,3.03159-1.8291,3.62418-1.7068,5.34677-1.57895,6.12631.13124.80017.35338,1.12531.63159,1.26315.57463.2847,2.27156-.86237,3.15788-1.83157"/>
        <path class="cls-3" d="m129.06324,3.96452c-.1698-.38361-.73843-2.2084-1.45262-2.46317-1.15302-.41132-2.36703.59613-3.09474,1.20001-1.66266,1.37973-2.35159,3.20602-2.65263,4.35788"/>
        <path class="cls-3" d="m125.10167,2.33123c-.21021-.36304-.66142-1.00605-1.39893-1.18223-1.19068-.28446-2.28886.84814-2.94713,1.52704-1.50402,1.55113-1.9918,3.44112-2.16676,4.61874"/>
        <path class="cls-3" d="m123.12641,18.17506c.14832-.54755.38251-1.71558,0-3.09476-.55849-2.01373-2.04073-3.06793-2.46317-3.34735.76726-.09842,1.86157-.37009,2.90526-1.13684.46175-.33923,2.09109-1.64044,2.14737-3.47369.00705-.22949.03026-.9859-.31578-1.13684-.44067-.1922-1.0249.79611-2.21053,1.45264-.76675.42459-1.43143.49265-2.52632.63156-1.77852.22568-2.10785-.12939-3.47368.18948-.85135.19876-1.82446.42596-2.27368,1.20001-.33302.57382-.1553,1.06427.12631,2.65262.26016,1.46738.36555,2.49875.56842,4.48422.15845,1.55072.23767,2.32608.18947,3.22104-.11018,2.04541-.73395,3.55493-1.01053,4.2316-2.67331,6.54044-7.53934,19.99487-9.09473,24.50525-.38629,1.12018-.89142,2.62546-1.45264,4.42105,4.08421,1.97894,8.16841,3.95789,12.25262,5.93683.42105.21054.84212.42105,1.26317.63159"/>
      </g>
      <g>
        <path class="cls-14" d="m74.16914,144.9364c-5.79999-.03998-11.60999-.08002-17.41003-.10999h-.12c-4.12-.03003-8.25-.06-12.37-.08002l.42999,12.46002.01001.27997,1.04004,30.27002v.07001l.37,10.69v.07996l.00995.25c.87006-.00995,1.75-.01996,2.63-.02997,4.01001-.03998,8.17004-.07001,12.36005-.10999,2.27997-.02002,4.57001-.04004,6.87-.05005.28998-.00995.58997-.00995.88-.00995,0-.02002-.01001-.05005-.01001-.07001,0-.04004-.01001-.08002-.01001-.12-1.97003-15.61005-.32001-24.57001,1.73999-29.98004.51001-1.32996,2-4.94995,2.94-10.13.97998-5.44.91003-10.10999.64001-13.40997Zm-26.67999,6.08002v-.25c-.01001-.66003-.03003-1.27002-.04999-1.80005,2.26996.01001,3.96997-.00995,6.15997,0h.21997c-.16998.57001-.39996,1.18005-.69,1.80005-.03998.07996-.07996.16998-.12.25-.63995,1.31-1.57996,2.65997-2.95996,3.82996-.81.70001-1.66003,1.23004-2.46002,1.62,0-.09998-.01001-.20996-.01001-.31995-.02997-1.5-.06-3.43005-.08997-5.13Z"/>
        <path class="cls-14" d="m53.82169,148.96391c-.19.64996-.46002,1.34998-.81,2.04999h-5.52002c-.01001-.75-.03003-1.45001-.04999-2.04999,2.34998.01001,4.07996-.01001,6.38,0Z"/>
        <path class="cls-14" d="m53.01169,151.0139c-.64001,1.31-1.58002,2.66003-2.96002,3.83002-.81.70001-1.66003,1.22998-2.46002,1.62-.03998-1.53998-.07001-3.63-.09998-5.45001h5.52002Z"/>
        <path class="cls-14" d="m46.22469,198.51714c-.88798,0-1.77588.00993-2.64905.00993-.76948.00993-1.53905.00993-2.30861.01987.02963-.97254.04444-2.49095,0-4.32688-.23674-8.95153-1.84985-15.5808-2.24936-17.29765-1.1987-5.32922-1.15208-14.57525-.30853-32.09126,2.07178.00993,3.04628-.04288,5.11815-.03295l2.3974,53.71894Z"/>
        <path class="cls-23" d="m94.64912,162.06641c-.46997,14.08002-.16998,26.20001-3.16998,36.23999v.02002c-.54999.01001-1.14001.01001-1.73999.01996-.21002,0-.42004.01001-.64001.01001-5.83002.08002-13.54999.25-19.16998.29004h-1.06c0-.02002-.01001-.05005-.01001-.07001,0-.04004-.01001-.08002-.01001-.12-1.97003-15.61005-.32001-24.57001,1.73999-29.98004.51001-1.32996,2-4.94995,2.94-10.13.97998-5.44.91003-10.10999.64001-13.40997,6.67999.03998,13.35999.08002,20.03998.12.45001,5.22998.65002,10.91998.44,17.01001Z"/>
        <path class="cls-18" d="m97.2565,175.43115c-1.09998,8.66998-.49365,15.65159-2.27368,22.83158-.85999.01001-4.39368.16945-5.27368.18947,3-10.04004,4.47254-22.29829,4.94251-36.38832.21002-6.08997.01001-11.77997-.44-17.01001.84003.01001,1.69.01001,2.53003.02002.85999,12.25,1.41485,23.22725.51483,30.35726Z"/>
        <path class="cls-4" d="m95.4565,198.73641c.81442-8.75503,1.3517-12.83584,1.51579-24.15789.09474-6.53684.4806-17.50408-.37894-29.74737-19.38948-.12631-38.77895-.25262-58.16843-.37894-.56924,17.65225.12979,27.03885.94737,32.39999.2645,1.73441,1.35921,8.41006,1.51578,17.43158.03224,1.85736.01715,3.37894,0,4.35788,15.66316-.18948,39.09474-.18946,54.7579-.37894"/>
        <line class="cls-4" x1="44.10913" y1="144.0101" x2="46.00387" y2="199.08378"/>
        <g>
          <line class="cls-4" x1="42.61414" y1="144.45221" x2="42.659" y2="145.95154"/>
          <line class="cls-6" x1="42.74909" y1="148.96277" x2="44.14554" y2="195.63672"/>
          <line class="cls-4" x1="44.19059" y1="197.14233" x2="44.23545" y2="198.64166"/>
        </g>
        <path class="cls-2" d="m44.99334,160.30485c1.36337-.30646,5.10287-1.33829,8.08421-4.80002,4.20294-4.88019,3.59363-10.75146,3.47368-11.74738"/>
        <path class="cls-4" d="m44.08626,157.33128c1.27415-.23419,3.62764-.85901,5.82243-2.73213,4.20946-3.59253,4.37973-8.82792,4.39449-9.73037"/>
        <path class="cls-4" d="m47.4565,156.4522c-.07368-2.16843-.08421-5.56841-.15789-7.73683,2.47368.01053,4.25263-.01054,6.72631,0"/>
        <line class="cls-4" x1="46.88808" y1="150.76799" x2="53.2986" y2="150.76799"/>
      </g>
      <g>
        <g>
          <path class="cls-20" d="m51.35868,210.78339c-.38,14.94-.96808,29.23149-1.34809,44.1815,0,.13-1.39292.69992-1.39292.82993-1.73999.75-3.34003,1.96997-4.15002,3.26996.09003-.26996.19-.56.29999-.87.12-.32996.25-.69.38-1.07996.12-3.16003.21002-6.35004.28003-9.56.26001-11.59003.17999-22.84003-.19-33.73004-.70001-2.39996-1.34003-5.13-1.79999-8.14996-.27002-1.80005-.41003-4.84003-.51001-6.49005,1.16998,0,2.34998-.00995,3.53998-.01996.87-.01001,2.74787-.02002,3.62788-.03003.22003,3.81,1.04313,7.83861,1.26316,11.64861Z"/>
          <path class="cls-21" d="m64.04767,198.95479c-.98999,5.71002-2.54999,12.89001-3.92999,19.70001-1.64001,8.06-2.40002,11.02997-3.29004,16.41998-.92999,5.60999-1.67999,13.90002-2.02997,20.90002-.01001.03998-.01001.07001-.01001.10999-.45001-.40002-.94-.69-1.45001-.85999-.13995-.04004-.27997-.08002-.41998-.10999,0-.07001,0-.15002.01001-.22003.16998-7.02997.85999-12.96997,1.63-17.79999,1.07001-6.60999,2.60999-12.84998,5.31-28.53998.59998-3.49005,1.12-6.70001,1.58002-9.59003.81-.01001,1.62-.01001,2.41998-.01001h.17999Z"/>
          <path class="cls-13" d="m61.44769,198.9648c-.46002,2.89001-.98004,6.09998-1.58002,9.59003-2.70001,15.69-4.23999,21.92999-5.31,28.53998-.77002,4.83002-1.46002,10.77002-1.63,17.79999-.01001.07001-.01001.15002-.01001.22003-1.27002-.27002-2.83002.02997-4.29999.67999,0-.13.01001-.26001.01001-.39001.38-14.95001.75-29.89001,1.13-44.83002-.22003-3.81-.44-7.63-.66003-11.44,4.10999-.04999,8.27002-.13995,12.35004-.16998Z"/>
          <path class="cls-4" d="m57.66766,263.51482c-.01.06-.01.12-.02.18m-13.21-5.02c.1-.16.21-.32.33-.48.88-1.15,2.31-2.16,3.86-2.79,1.47-.59,3.03-.84,4.3-.51.09.02.18.05.27.08.51.17,1,.47,1.45.87.05.03.1.07.15.13m-13.73,11.41h-.26m19.17-.33h-.27m-16.92-68.11c-.01-.04-.01-.07-.01-.1m-.12,65.14c-.18.05-.32.09-.43.12"/>
          <path class="cls-10" d="m63.90765,198.70479c-.01001.08002-.02997.16003-.03998.25-.79999,0-1.60999,0-2.41998.01001-4.08002.03003-8.24005.12-12.35004.16998-.88.01001-1.76001.02002-2.63.03003-1.19.01001-2.37.01996-3.53998.01996.09998,1.65002.23999,4.69.51001,6.49005.45996,3.01996,1.09998,5.75,1.79999,8.14996.37,10.89001.45001,22.14001.19,33.73004-.07001,3.20996-.16003,6.39996-.28003,9.56-.13.38995-.26001.75-.38,1.07996-.10999.31-.20996.60004-.29999.87.81-1.29999,2.41003-2.51996,4.15002-3.26996,1.46997-.65002,3.02997-.95001,4.29999-.67999.14001.02997.28003.06995.41998.10999.51001.16998,1,.45996,1.45001.85999,0-.03998,0-.07001.01001-.10999,1.90997,1.75,3.10999,5.14001,2.87,7.53998-.21002-.13-.46002-.26001-.72998-.39001-3.90002-1.82996-11.94.19-14.28003.85004.09003-.14001.17999-.29004.26001-.47003.27002-.57996.22998-.94.38-1.70996.10999-.52002.20001-.72003.65997-1.98004.25-.67999.61005-1.66998,1.05005-2.94.12-3.15997.20996-6.34998.27997-9.56995.25-11.59003.16998-22.84003-.19-33.73004-.70001-2.39996-1.33997-5.12-1.79999-8.14001-.27002-1.79999-.40002-4.83997-.51001-6.48999,6.94,0,14.17999-.23999,21.12-.23999Z"/>
          <path class="cls-10" d="m59.70764,267.05483l-18.63995.32996c.12-1.51996.50995-2.26996.90997-2.64996.10999-.10004.40002-.35004.67999-.75v-.01001c2.34003-.66003,10.38-2.67999,14.28003-.85004.26996.13.51996.26001.72998.39001.90997.58002,1.29999,1.16998,1.45001,1.41003.40997.69.57001,1.42999.58997,2.13Z"/>
          <path class="cls-7" d="m59.70764,267.05483c.03003,1.45996-.53998,2.75995-.67999,3.07996-5.96997.13-11.94.25-17.90997.38-.10999-1.29999-.12-2.32001-.04999-3.13l18.63995-.32996Z"/>
          <path class="cls-4" d="m42.63766,198.94482h.15"/>
          <path class="cls-4" d="m63.86766,198.95482c-.99,5.67-2.53,12.75-3.89,19.46-1.64,8.06-2.4,11.02-3.29,16.42-.93,5.64-1.69,13.99-2.04,21.01v.08"/>
        </g>
        <g>
          <path class="cls-20" d="m73.5271,210.21497c-.38,14.94-1.56944,29.49598-1.94944,44.44599v.73383c-1.73999.75-4.33999,1.97003-5.14999,3.27002.08997-.27002.19-.56.29999-.87.12-.33002.25-.69.38-1.08002.12-3.15997.21002-6.34998.27997-9.56.26001-11.59003.18005-22.84003-.18994-33.72998-.70001-2.40002-1.34003-5.13-1.80005-8.15002-.26996-1.79999-.40997-4.84003-.51001-6.48999,1.17004,0,2.35004-.01001,3.54004-.02002.87-.01001,2.8981-.12996,3.77811-.13997.21997,3.81,1.10136,7.78016,1.32133,11.59016Z"/>
          <path class="cls-21" d="m86.00769,198.55483c-.99005,5.70996-2.55005,12.88995-3.93005,19.69995-1.63995,8.06-2.39996,11.03003-3.28998,16.42004-.92999,5.60999-1.67999,13.89996-2.02997,20.89996-.01001.04004-.01001.07001-.01001.10999-.45001-.39996-.94-.68994-1.45001-.85999-.14001-.03998-.28003-.07996-.41998-.10999,0-.07001,0-.15002.00995-.21997.17004-7.03003.86005-12.97003,1.63-17.80005,1.07001-6.60999,2.61005-12.84998,5.31-28.53998.60004-3.48999,1.12006-6.70001,1.58002-9.59003.81-.00995,1.60999-.00995,2.41003-.00995h.19Z"/>
          <path class="cls-13" d="m83.40765,198.56478c-.45996,2.89001-.97998,6.10004-1.58002,9.59003-2.69995,15.69-4.23999,21.92999-5.31,28.53998-.76996,4.83002-1.45996,10.77002-1.63,17.80005-.00995.06995-.00995.14996-.00995.21997-1.27002-.27002-2.83002.03003-4.30005.67999,0-.13.01001-.27002.01001-.39996.38-14.95001.75-29.88,1.13-44.82001-.21997-3.81-.44-7.63-.65997-11.44,4.10999-.05005,8.26996-.14001,12.34998-.17004Z"/>
          <path class="cls-4" d="m79.62766,263.11482c-.01.06-.01.12-.02.18m-13.21-5.02c.1-.16.21-.32.33-.48.88-1.15,2.31-2.17,3.86-2.8,1.47-.58,3.03-.83,4.3-.5.09.02.18.05.27.08.51.17.99.47,1.44.86.05.03.11.08.16.14m-13.73,11.41h-.27m19.17-.33h-.26m-16.92-68.03v-.08c-.01-.04-.01-.07-.01-.1m-.12,65.13c-.18.05-.33.1-.44.13"/>
          <path class="cls-10" d="m85.85766,198.32479c-.02002.08002-.03003.15002-.03998.23004-.80005,0-1.60004,0-2.41003.00995-4.08002.03003-8.23999.12-12.34998.17004-.88.01001-1.76001.01996-2.63.02997-1.19.01001-2.37.02002-3.54004.02002.10004,1.64996.24005,4.69.51001,6.48999.46002,3.02002,1.10004,5.75,1.80005,8.15002.37,10.88995.44995,22.13995.18994,33.72998-.06995,3.21002-.15997,6.40002-.27997,9.56-.13.39001-.26001.75-.38,1.08002-.10999.31-.21002.59998-.29999.87.81-1.29999,2.40997-2.52002,4.14996-3.27002,1.47003-.64996,3.03003-.95001,4.30005-.67999.13995.03003.27997.07001.41998.10999.51001.17004,1,.46002,1.45001.85999,0-.03998,0-.06995.01001-.10999,1.90997,1.75,3.10999,5.14001,2.87,7.54004-.21002-.13-.46002-.26001-.73004-.39001-3.89996-1.83002-11.91998.19-14.27997.84998.08997-.14001.17999-.28998.26001-.46997.26996-.58002.21997-.94.38-1.70001.09998-.53003.19995-.72998.65997-1.98999.25-.67999.60999-1.66998,1.03998-2.94.12-3.16003.22003-6.35004.29004-9.57001.25-11.59003.16998-22.84003-.19-33.72998-.70001-2.40002-1.34003-5.12-1.79999-8.14001-.27002-1.78003-.40002-4.73999-.51001-6.41003.28998-.00995.58997-.00995.88-.00995h1.06c5.62-.04004,13.33997-.21002,19.16998-.29004Z"/>
          <path class="cls-10" d="m81.66766,266.6548l-18.64001.33002c.10999-1.53003.5-2.27002.90002-2.65002.10999-.10999.40997-.34998.69-.76001,2.35999-.65997,10.38-2.67999,14.27997-.84998.27002.13.52002.26001.73004.39001.90997.57996,1.29999,1.16998,1.44995,1.40997.41003.69.57001,1.42999.59003,2.13Z"/>
          <path class="cls-7" d="m81.66766,266.6548c.03003,1.46002-.53998,2.76001-.69,3.08002-5.96002.13-11.92999.25-17.90002.38-.10999-1.30005-.12-2.33002-.04999-3.13l18.64001-.33002Z"/>
          <path class="cls-4" d="m64.59766,198.54482h1.02c5.11-.02,10.38-.15,15.55-.21h.6c.73-.01,1.45-.02,2.17-.02.2-.01.41-.01.61-.01h1.31v.02"/>
          <path class="cls-4" d="m85.81766,198.55482c-.98,5.67-2.53,12.75-3.89,19.46-1.64,8.06-2.4,11.02-3.28,16.42-.93,5.64-1.69,13.98-2.05,21v.09"/>
        </g>
      </g>
      <g>
        <path class="cls-22" d="m109.07381,80.23395c-.86005.06-4.94.29999-8.33002-2.66003-2.03998-1.76996-2.89001-3.87-3.22998-4.91998-.18005,1.83002-.37006,3.66003-.56,5.48999-.47003-.17999-3.76001-1.51996-4.93005-5.10999-.83997-2.59998-.07996-4.82001.19-5.5.54004-.81,1.11005-1.75,1.67004-2.81v-.01001c2.62-4.01996,3.19995-7.98999,3.34998-9.95001v-.23999c.52002-3.54999.45001-6.91998.22998-9.42999v-.02002c.01001-.71997.02002-1.40997.02002-2.04999-.08002.03003-.15997.04999-.25.07001-1.02002.26001-2.44.41998-4.01001.02002-3.92999-1-5.5-4.62-5.67999-5.06.03998.34998.08002.69.12,1.03998-.22998-.40997.0179-.90024-.03209-1.01029.19,1.62006.34684,3.36942.53684,4.98947.01001.07996-.31475.23084-.31475.31085-.53998.02997-1.46997.03998-2.64996-.11005h-.01001c-1.97003-.26996-4.60004-1.03998-7-3.07001-3.34003-2.81-4.29004-6.38995-4.55005-7.57996-.08997.08997-.17999.17999-.25995.26996-.01001-.01996-.02002-.03998-.02002-.06-3.04999,3.03003-4.62,5.98004-5.42999,7.83002-.40002.90002-3.64317,9.64387-.32316,19.3039.85999,2.47998,1.75843,3.87792,2.36842,5.55791.32001.87.54317,1.73158.66317,3.03157.01996.23999-.01997,1.65947,0,1.98948.08002,1.37994-.4384,2.56715-1.19841,4.59712-.36005.95001-.88,1.90002-1.64001,2.78003-.45001.52002-.91998.95001-1.38,1.31-.03998.02997-.08002.06-.10999.07001-.51001.35999-.98004.62-1.38.82001-.04999-2.19-.09003-4.38-.13-6.57001-.07001.17999-.16998.39001-.28003.62,0-.14001-.00995-.27002-.00995-.41003-.40002.95001-1.31,2.81-3.19,4.44-.09003.07001-.18005.15002-.28003.23004,0,0,0,.01001.01001.01001-.01001.00995-.03003.01996-.03998.02997-.74005.57001-1.5,1-2.24005,1.33002.30005-.97003.65002-2.27002.92004-3.82001,1.42057-5.44266,2.71016-8.61318,2.77015-11.90322.10004-5.14996-1.27259-8.08028-.95264-18.11024.11005-3.52002.38765-7.64711,1.67763-12.18709.84003-2.96002,1.40189-4.73214,2.21189-6.44211-2.44,1.00995-5.03951,1.56487-7.48952,2.57488.31-.52997.89311-2.1099,1.56316-2.9799,1.13-1.46997,3.01738-3.61236,5.44737-5.04235,3.95001-2.32996,6.59214-2.28396,8.24211-2.28396-1.83997-.77002-5.15306-.48917-7.76311-1.0792-2.19-.48999-4.47058-.9121-6.21057-1.04211,2.46002-1.45001,8.95068-4.34,13.68066-5.4,3.77002-.84003,5.7309-.89523,8.25092-.80526-3.10999-1.57001-6.15479-2.62946-9.26477-4.19947,3.85004,0,9.55671.72003,13.28669,2.30005,9.81006,4.15997,14.13,12.44995,15.03003,14.26996,3,6.08002,3.17999,11.73004,3.04999,14.72003,1.91003,3.38995,2.39001,3.89996,2.76001,7.76996.34003,3.52002-.13,5.89001-1.27002,8.71002-.73999,1.85999-3.69,9.84003-.56,18.17999.64001,1.72003,1.96002,4.39001,4.92004,7.20001Z"/>
        <path class="cls-16" d="m82.9975,11.77993c-3.11005-1.57001-6.22003-3.13-9.33002-4.70001h-.01001c-2.40002,0-4.77002.28003-7.06.81-.40002.10004-.79999.20001-1.20001.31006-4.66998,1.25995-8.95996,3.56-12.33997,6.60999-4.66003,4.20001-6.66003,8.95996-7.83002,11.75-.82001,1.95001-2.22998,5.27997-2.90002,9.48999v.01001c0,.02997-.01001.04999-.01001.07996-.56,3.46002-.62,7.51001.55005,11.85004.01996.08997.03998.17999.07001.27002.07996.29999.16998.60999.26996.90997,3.19,10.14001,11.02002,15.28998,13.5,16.73999.59003,3.58002,1.16003,7.79999.90002,8.52002-1.22998,3.46997-3.39001,5.56-4.41998,6.44.50995.02997,1.62.03998,3.00995-.25.10004-.01001,3.06109-.5695,3.17108-.59947,1.28003-1.59003,1.31896-3.18208,2.17895-4.64211.13-.21997-1.59001.16156-1.47002-.05841,2.52002-4.49005,3.28003-8.36005,3.34003-11.5.09998-5.15002-1.71002-8.41003-1.39001-18.44.10999-3.52002.47998-7.46002,1.77002-12,.83997-2.96002,1.83997-5.36005,2.64996-7.07001-2.44,1.01001-4.88,2.01996-7.32996,3.02997.31-.52997.76996-1.29999,1.44-2.15997q0-.01001.00995-.02002c1.13-1.46997,2.82001-3.20996,5.25-4.64001,3.95001-2.32996,7.70001-2.52997,9.35004-2.52997-1.84003-.77002-4.09003-1.56-6.70001-2.15002-2.19-.48999-4.19-.75-5.92999-.88,2.46002-1.44995,6.13-3.23999,10.85999-4.29999,3.77002-.83997,7.08002-.96997,9.60004-.88Zm-27.74005,41.10999c-1.94995-.94995-2.94995-3.07996-2.44995-4.98999.39996-1.53998,1.73999-2.73999,3.39996-3.07001v.01001c-.31,2.62-.62,5.23004-.92999,7.85004,0,.07001-.01001.13-.02002.19995Z"/>
        <path class="cls-19" d="m42.9338,48.26391c-.67999-.37994-1.37-.72998-2.02002-1.12994-1.77002-1.06006-3.20001-2.43005-3.02002-5.54004.02002-.33997.07001-.65997.15002-.95996.71002-2.87006,3.64001-4.26001,4.28003-4.57001-.58002,3.54999-.64001,7.71997.60999,12.19995Z"/>
        <path class="cls-22" d="m39.79378,67.86395c.71002,5.60999.16003,10.08997-.13,12.38-.33002,2.60999-.95001,5.89996-2.14996,9.59998-.54004-1.87-1.04004-4.16998-1.26001-6.82001-.34003-4.08997.09998-7.56.63-10.09998-1.16003,3.20001-2.84003,9.29999-1.51001,16.66998.57001,3.16003,1.54999,5.79004,2.51996,7.83002-.91998-.08002-9.82996-1.03998-13.50995-8.08002-2.57001-4.91998-1.22003-10.20996-.51001-13.01001,1.34998-5.28998,3-4.32001,4.67999-9.72998.89001-2.88,1.52997-8.06,2.77997-18.32001.07001-.64996.26001-2.14996,1.26001-3.65997,1.26001-1.89001,4.21002-3.53003,5.45001-3.98999-.08002.29999-.13.62-.15002.95996-.17999,3.10999,1.25,4.47998,3.02002,5.54004-.83002,2.16998-2.83002,7.47998-2.76001,11.25995.06,3.80005,1.01001,4.51001,1.64001,9.47003Z"/>
        <path class="cls-17" d="m90.8165,61.80633c-.08997.04004-.08997-.00995-.09998-.01996-3.20001-.04999-6.73999-.07001-10.19-.09003-.62-.01001-1.22998-.02002-1.83002-.02002-.57001,0-1.12-.00995-1.66998-.01996-.53998-.01001-1.06-.01001-1.57001-.02002-.41998-.95001-.69-1.94-.85999-2.83997,5.14001.15997,10.96997.33997,16.21997.5.04999.70996-.07996,1.85999,0,2.50995Z"/>
        <path class="cls-15" d="m87.73445,61.90967c-2.38-.02002-4.87-.03998-7.31995-.04999,2.42999.03998,4.91998.08997,7.06995.15997-.38,1.23004-1.27997,3.16003-1.67999,4.42999-2.25.27002-5.13.19-7.32001-1.25995-1.35999-.91003-2.25-2.22003-2.84998-3.60004.51001.01001,1.03998.02002,1.57001.02002.54999.01001,1.09998.01996,1.66998.01996.60004,0,1.21002.01001,1.83002.02002,2.42999.04004,4.91998.09003,7.07001.16003-.01001.02997-.02002.06-.04004.09998Z"/>
        <g>
          <path class="cls-13" d="m95.56921,43.67312c-.59998,0-1.66597-.24499-2.34596-.42498-3.92999-1-5.51001-4.60999-5.69-5.04999.21002,1.75.42004,3.5.62,5.25v.00995c.01001.02002.01001.03003.01001.05005-.41998.02997-1.54999.09998-3.01996-.12h-.01001c-1.97003-.27002-4.56-1.03003-6.95001-3.04004-3.34003-2.82001-4.28003-6.39001-4.53998-7.58002-3.05005,3.03003-4.62006,5.98004-5.43005,7.83002-.39996.90002-4.20996,9.91998-.88995,19.58002.85999,2.47998,1.75,3.76001,2.35999,5.44,2.58002,1.58997,5.69,3.04999,9.33002,4,3.44995.89996,6.62,1.14996,9.27997,1.09998,2.66003-1.69,4.26001-3.95001,5.15002-5.20001.13-.17999.26001-.37.37-.54999.01001-.01001.01001-.01996.01001-.01996.17999-.31.33997-.64001.5-.97003l.01001-.01001c.98328-3.65909,1.14238-7.39292,1.25237-11.76292.07001-2.87.08359-5.92208-.01645-8.53207Zm-9.76594,4.06501c1.10999,4.28998,2.31,5.46997,3.28003,5.65002.29999.06.95996.08997,1.03998.37994.12.46002-1.29999,1.24005-2.17999,1.61005-.07001.02997.77682-.49057.2884-.21028-1.10999-1.05005-1.61631-2.1147-1.92631-3.57472-.32001-1.52002-.83213-2.85501-.50211-3.85501Zm-8.66998-1.56c.23999-.83002.70996-1.39001,1.23999-1.39001.78998,0,1.41998,1.21002,1.41998,2.70001s-.63,2.70001-1.41998,2.70001c-.71002,0-1.31-1.01001-1.40002-2.33002-.01996-.12-.01996-.23999-.01996-.37,0-.47003.06995-.91998.17999-1.31Zm12.09998,19.90002c.06-.02002.09003-.03003.10004-.03003,0,0-.03003.01001-.10004.03003Zm1.72003-4.10004c-.01001.02002-.17004.10999-.26001.16003-.12.06-.12,0-.13-.01001-3.20001-.04999-6.73999-.07001-10.19-.09003,2.42999.04004,4.91998.09003,7.07001.16003-.39001,1.25995-1.32001,3.25-1.71002,4.51996,1.72998-.28998,2.70001-.46997,3.19-.57001-1.42999.40002-7.08002,1.88-10.77002-.56995-1.35999-.91003-2.25-2.22003-2.84998-3.60004-.45001-1.02997-.72998-2.09998-.90997-3.06,5.21997.16003,11.19995.34998,16.56.51001.04999.71997-.08002,1.90002,0,2.54999Zm1.81995-14.35999c-.01996,1.46002-.63995,2.64001-1.41998,2.64001-.77997,0-1.41998-1.21002-1.41998-2.70001s.64001-2.70001,1.41998-2.70001c.79004,0,1.41998,1.21002,1.41998,2.70001v.06Z"/>
          <path class="cls-21" d="m97.51589,54.69416c-.21997,1.53998-.84263,3.09395-1.33262,4.64394-.53998,1.72003-1.17999,3.26001-1.84998,4.63.44995-3.78998.76996-7.88.87994-12.25.07001-2.87.04004-5.60999-.06-8.21997.78003,0,2.04528-.49603,2.61529-.64606,0,3.35999-.25264,8.56206-.25264,11.84209Z"/>
          <path class="cls-20" d="m88.29326,70.71811c-.72998.47003-1.52997.89001-2.42999,1.23999-2.63,1.02002-5.35999,1.01001-7.79999.56-3.60999-.64996-6.57001-2.25995-7.64001-2.88995-.02002-.33002-.04999-.62-.07001-.86005-.12-1.29999-.34998-2.27997-.66998-3.14996,2.58002,1.58997,5.69,3.04999,9.33002,4,3.44995.89996,6.62,1.14996,9.27997,1.09998Z"/>
          <path class="cls-20" d="m77.87327,75.7781c-.03003.20001-.04999.39001-.08002.58002-1.29999.03003-2.73999-.03998-4.27997-.29999-1.37-.22998-2.64001-.57001-3.79004-.97998.76001-2.03003.78003-4.07001.70001-5.45001,1.07001.63,4.03003,2.23999,7.64001,2.88995,0,1.90002.06,1.22003-.19,3.26001Z"/>
          <path class="cls-13" d="m77.79326,76.35812c-.25,1.90002-.47998,3.20001-1.44,4.44-1.88,2.44-5.06,2.69-5.87,2.75-.54999.03998-3.78998.23999-6.63-2.09003-.72998-.58997-1.82001-1.94-2.52997-3.08997,2.07001-1.67999,3.04999-3.66998,3.46997-4.66998.04999,2.17999.09003,4.37.13,6.56.85999-.41003,2.08002-1.14001,3.16003-2.40002.75995-.88,1.27997-1.83002,1.63995-2.77997,1.15002.40997,2.42004.75,3.79004.97998,1.53998.26001,2.97998.33002,4.27997.29999Z"/>
          <path class="cls-21" d="m90.12327,53.76809c.12.46002-1.29999,1.24005-2.17999,1.61005-.07001.02997-.13.04999-.20001.07001-1.10999-1.05005-1.89001-2.37-2.20001-3.83002-.32001-1.52002-.07001-2.88.26001-3.88,1.10999,4.28998,2.31,5.46997,3.28003,5.65002.29999.06.95996.08997,1.03998.37994Z"/>
        </g>
        <g>
          <line class="cls-4" x1="79.71776" y1="1.81479" x2="79.71767" y2="1.81485"/>
          <g>
            <g>
              <g>
                <path class="cls-11" d="m59.65274,36.22049c-.48535,2.51785-1.40997,4.82991-1.93677,7.28662-1.63749,7.29359-1.7342,14.99479-.06292,22.28601.00018.00029.28713,1.26269.28723,1.26302,0,0-1.10934-.6537-1.10934-.6537-12.51821-7.25583-18.29572-22.09666-13.45287-35.81564,1.79418-5.187,4.01227-10.37951,7.80646-14.44733,9.44998-10.2123,26.1737-12.74819,38.07991-5.42655,9.21075,5.51066,15.12094,16.14774,14.65596,26.89753-.00384.24135-.03815.66548-.05099.90227-.02092.04176.11211.09268-.38508.10777-.49323-.06979-.35629-.10378-.37323-.1469.06049-2.63195-.15727-5.2923-.69112-7.87015-4.48683-20.00599-26.72459-29.13853-44.24572-18.75046-5.8878,3.35901-9.99334,9.01409-12.36003,15.28732-3.85736,8.52258-4.33594,18.77287.45063,27.02551,2.62165,4.64511,6.52696,8.5715,11.12531,11.27266,0,0-.82214.6089-.82214.6089-1.65375-7.48555-1.49342-15.31339.35361-22.73167.65392-2.44844,1.29339-4.94864,2.7311-7.0952h0Z"/>
                <path class="cls-11" d="m57.22116,65.19418c1.12688,2.72525,1.14836,5.6298,1.21135,8.55026-.50715,2.9286-2.46792,5.49649-4.63227,7.45862-.00013-.00006-.3141-.91022-.3141-.91022,4.71364.23729,9.32429-2.62883,11.08672-7.02226.00004.00007,1.01588-2.44559,1.01588-2.44559l.0495,2.6481.12271,6.56828s-.78912-.48521-.78912-.48521c1.8736-.8857,3.4194-2.40108,4.26477-4.28294,1.25855-2.80186,1.19497-6.28587.37304-9.23653-1.15584-3.02224-2.91383-5.96386-3.39349-9.25186-1.61886-8.74536.85725-18.37123,7.34219-24.59717-.00005-.00004.67268-.67047.67268-.67047.35243,1.86078.97552,3.69737,2.01523,5.29043,2.52422,4.07729,7.42754,6.34907,12.16658,5.9771-.00002.00005-.46746.56973-.46746.56973l-.62866-5.3054-.39737-3.35365s1.37091,3.0985,1.37091,3.0985c1.60699,4.02711,6.46906,6.21084,10.4423,4.28521-.00007.00018-.29102.38485-.29102.38485.94662-5.62417-.12125-11.46479-2.69932-16.53272-.33438-.69779-.73341-1.40838-1.12688-2.0748-.02054-.01714.01757-.07094.2795-.26754.35848-.16569.32511-.2012.40413-.07078,3.68123,5.55602,4.96787,12.51891,4.1335,19.09029-.00006,0-.03787.27425-.03787.27425l-.25333.11072c-3.26015,1.52811-7.39007.79085-9.83235-1.87792-.81285-.8605-1.47798-1.82876-1.95677-2.93137l.97348-.25514c.05236.49343.66745,5.54037.698,5.83615-7.09505.8949-14.2071-4.03734-15.60669-11.09615-.00013.00018.8775.25822.8775.25822-7.72363,7.48582-9.67947,20.11258-4.98232,29.7103,3.46548,6.07513,2.70146,15.51146-4.63512,18.27485-.03213-.32906-.11656-6.84054-.14662-7.41797.00006.00007,1.0653.20249,1.0653.20249-2.15051,5.39232-7.82726,8.25773-13.47476,7.57348,2.40725-1.94114,4.72357-4.50412,5.41617-7.58997.23496-2.81892-.53399-5.63148-.31592-8.48615h0Z"/>
                <path class="cls-11" d="m97.46854,42.69415c.92679,2.03441.77143,4.27761.87397,6.4476.15769,6.57179-1.69965,13.1782-5.38699,18.63058-.53144,1.2955-.74914,4.0962.16455,5.76553.81347,1.82702,2.45406,3.27676,4.30788,4.03532l-.73535.44933.57278-5.49406.2626-2.51906.78369,2.40904c1.3854,4.66753,6.20814,7.66279,11.00477,7.22002-.00007.00012-.31977.90597-.31977.90597-5.82638-5.19584-7.52228-13.66384-5.90774-21.07819.62773-3.67796,2.7419-6.94889,2.80209-10.71477.07846-2.70048-.1331-5.52993-1.4904-7.92706-.1965-.33637-.78087-1.50329-.97479-1.84722,0-.00006-.16277-.31105-.16277-.31105l-.08139-.15547s-.04068-.07773-.04068-.07773c.01898-.04417-.16364.02484.28806-.26244.48041-.2365.32648-.1167.37415-.11008l.04538.07462c.04102.08413.22468.35728.27234.44769,2.19168,3.02207,2.71457,6.54498,2.71019,10.19909.07791,3.84706-2.12181,7.19323-2.74697,10.88709-1.52137,7.12098.04345,15.13674,5.6352,20.11167-.00012.00005.87793.82026.87793.82026l-1.19781.08582c-5.25101.50069-10.58657-2.8148-12.11072-7.93772-.00009.00013,1.04612-.10987,1.04612-.10987l-.56403,5.49498-.07349.71579c-4.8452-1.522-7.73702-6.92607-5.66298-11.68671,3.55403-5.32384,5.38103-11.64071,5.44399-18.02677.133-2.17255-.31537-4.25828-.00981-6.44221h0Z"/>
              </g>
              <path class="cls-9" d="m42.71064,35.93626c-.29906.18216-4.30989,1.80685-4.53159,5.58948-.25262,4.31055,2.57343,5.2662,5.14737,6.72632"/>
              <path class="cls-9" d="m38.40011,40.53101c-1.20879.43835-4.24523,2.0951-5.52632,4.02631-1.00272,1.51157-1.18353,3.00732-1.26316,3.66315-1.24461,10.25095-1.88515,15.43521-2.77895,18.3158-1.6791,5.41153-3.3242,4.44052-4.67368,9.72632-.71584,2.80386-2.06501,8.08844.50526,13.01053,3.67813,7.04364,12.59127,7.9993,13.51579,8.08423-.96968-2.03925-1.95648-4.67285-2.52631-7.8316-1.32905-7.36749.3537-13.47125,1.51578-16.67368-.53384,2.54211-.9727,6.01819-.63158,10.10526.22104,2.64825.71892,4.94662,1.26315,6.82108,1.19801-3.70438,1.8154-6.99405,2.14737-9.60001.29254-2.29645.83319-6.76819.12633-12.37897-.62567-4.96631-1.57944-5.67133-1.64211-9.47366-.06361-3.86035,2.02378-9.32963,2.81052-11.40001"/>
              <path class="cls-11" d="m76.57907,30.53628c1.0381,5.7204,5.25309,9.79839,9.77937,13.0271-.00021.00018-.10591.2193-.10591.2193-1.42978-.39835-2.54033-1.36038-3.61056-2.29074-3.23919-2.77494-5.63059-6.69348-6.0629-10.95566h0Z"/>
              <path class="cls-11" d="m82.14903,34.70471c.67717,3.62499,3.19356,6.81607,6.55211,8.28016-.00002.00002-.30206.62609-.30206.62609-3.38204-1.73188-5.78923-5.16036-6.25005-8.90625h0Z"/>
              <path class="cls-11" d="m88.21218,30.54c.99014,5.66645,4.99295,10.06608,10.31092,12.05041-.00018.00019-.43528.90207-.43528.90207-5.31362-2.36359-9.20708-7.09782-9.87564-12.95248h0Z"/>
              <path class="cls-11" d="m46.30292,37.22891c1.83249-.43524,4.1735-1.2844,4.42271-3.35629.0709-.93283-.1877-2.16113-.06382-3.31055.48951-6.15021,5.39277-10.12515,11.23319-10.95195-4.2424.9052-8.51049,3.48447-9.74151,7.84655-.51662,1.55851-.73897,3.13532-.49873,4.7442.06424.53735.17482,1.10263.14813,1.74981-.04807,1.33325-.90378,2.50546-1.90374,3.19919-1.00242.72598-2.122,1.13953-3.23343,1.47275,0,0-.36279-1.39371-.36279-1.39371h0Z"/>
              <path class="cls-11" d="m44.74965,37.17016c.54988-12.56597,10.42018-23.67007,22.79801-25.61265-11.96597,2.43747-21.15702,13.48669-21.16007,25.6713-.00019-.00015-1.63794-.05866-1.63794-.05866h0Z"/>
              <path class="cls-11" d="m45.76429,40.99404c2.7745,2.27242,4.33988,5.77845,4.34567,9.33008.37818,3.38778,2.50224,6.32872,4.86909,8.69635-2.55958-2.2778-4.86718-5.1244-5.46941-8.61081-.21949-3.37436-1.76865-6.4749-4.51595-8.47849.00015-.00006.7706-.93713.7706-.93713h0Z"/>
              <path class="cls-11" d="m66.22117,36.72576c-9.11362,18.93832,6.82794,23.9908.08994,42.8682.00005,0-.93783-.34696-.93783-.34696,6.99844-18.253-8.69161-23.81869.84789-42.52124h0Z"/>
              <path class="cls-11" d="m61.11437,45.42941c-2.28464,5.43437-2.80589,11.49037-1.48329,17.23072,1.38573,5.73514,1.48854,11.86125-.36455,17.52963.00014,0-.6501-.2095-.6501-.2095,1.93203-5.56337,1.93906-11.53118.67866-17.25723-1.21727-5.78299-.57907-11.8948,1.81928-17.29361h0Z"/>
              <path class="cls-5" d="m56.20746,44.83993c-.31,2.62-.62,5.23004-.92999,7.85004-1.77997-1.01001-2.66998-3.03003-2.19-4.85004.38-1.45996,1.58002-2.59998,3.12-3Z"/>
              <path class="cls-4" d="m56.48749,44.75997c-.32001,2.69-.63,5.37994-.95001,8.06995-.09003-.03998-.17999-.08997-.26001-.13995.31-2.62.62-5.23004.92999-7.85004.09003-.03998.19-.06.28003-.07996Z"/>
              <path class="cls-4" d="m97.76853,42.85208c0,3.44211-.25264,8.39998-.25264,11.84209-.16283,2.0744-.78979,6.3721-3.78946,10.61053-1.12471,1.58917-3.41791,4.82941-7.57895,6.44211-7.04822,2.73172-14.76985-1.51778-15.72422-2.11867"/>
              <path class="cls-11" d="m85.67379,45.69418c.97117,2.5157,1.78077,5.81485,4.51212,6.83567.18924.13857.45739.13973.78898.65884.14572.29352.08904.60931.00785.78119-1.1129,1.47839-3.19041,2.00284-4.92993,1.76653,1.34786-.63015,2.85938-1.26636,3.74625-2.24039-.0317.02857-.06055.17689.00714.33064.16328.24591.09908.15588-.00168.21307-3.4782.65407-3.83616-6.03549-4.13072-8.34555h0Z"/>
              <path class="cls-4" d="m92.81064,59.27312c-5.73685-.17896-12.38947-.38947-18.12632-.56842.42981,2.26801,1.38554,5.08206,3.7579,6.66315,4.26433,2.84201,11.16916.40967,11.17894.47369.00296.01935-.83154.20799-3.6.66316.38947-1.26315,1.3158-3.25264,1.70526-4.51579-3.82105-.12632-8.71579-.18947-12.44211-.22105,4.91534.07245,10.65172.08171,15.56707.15415.011.00583.00557.06743.12767.00374.09142-.0477.24916-.13396.25581-.15376-.07474-.69611.07156-1.99224-.00318-2.68834"/>
              <g>
                <ellipse class="cls-8" cx="78.66327" cy="47.28101" rx="1.42105" ry="2.7"/>
                <path class="cls-11" d="m77.39381,46.46905c-1.23263-.22943-2.11571-1.47073-1.85683-2.64596.08926.99053.99692,1.77848,1.93263,1.64881-.00003.00002-.0758.99715-.0758.99715h0Z"/>
                <path class="cls-11" d="m77.31486,48.1585c-1.23262-.22942-2.11571-1.47071-1.85683-2.64593.08926.9905.99692,1.77849,1.93263,1.64881-.00003.00002-.0758.99712-.0758.99712h0Z"/>
              </g>
              <g>
                <ellipse class="cls-8" cx="91.64221" cy="47.35207" rx="1.42105" ry="2.69999"/>
                <path class="cls-11" d="m93.02498,45.58544c.78998.22455,1.62374-.4501,1.66357-1.32296.33659,1.05472-.56533,2.23678-1.68923,2.32258.00004.00004.02567-.99962.02567-.99962h0Z"/>
                <path class="cls-11" d="m93.06774,46.9132c.78998.22455,1.62373-.4501,1.66356-1.32296.33659,1.0547-.5653,2.23685-1.68923,2.32258.00004.00004.02567-.99962.02567-.99962h0Z"/>
              </g>
              <path class="cls-11" d="m45.03169,41.77838c-.04146,3.54943,1.68768,7.00694,3.27361,10.15651,1.71404,3.25066,3.6791,6.38824,5.97901,9.26455-1.24779-1.36067-2.40123-2.81022-3.49533-4.3022-3.13347-4.59603-6.66635-9.37063-7.147-15.11877.00023-.0001,1.38971-.0001,1.38971-.0001h0Z"/>
              <path class="cls-11" d="m46.60797,38.65182c3.78433.25617,5.86503-1.99309,7.75923-5.01582,1.55723-2.01434,2.59955-4.69585,4.90376-6.01333.77726-.40786,1.63664-.63021,2.49757-.68639-1.7199.20346-3.27311,1.15302-4.1845,2.62422-2.94718,4.42309-4.57244,10.53374-10.97079,10.48113.00005.00015-.00527-1.3898-.00527-1.3898h0Z"/>
              <path class="cls-11" d="m46.66711,39.97296c2.32343,2.24593,5.88848,3.14224,8.98988,1.93274-3.05852,1.71921-7.04074,1.22119-9.8714-.84968-.00001.00007.88152-1.08306.88152-1.08306h0Z"/>
            </g>
            <path class="cls-4" d="m78.34748,72.18892c0,2.05263.07626,1.30112-.18948,3.37897-.28375,2.21866-.46838,3.66223-1.51578,5.02106-1.88126,2.44067-5.06387,2.68515-5.87369,2.74734-.54929.04221-3.78806.23911-6.63159-2.0842-.77637-.63431-1.95788-2.11581-2.65262-3.31581"/>
          </g>
        </g>
      </g>
    </g>
  </g>
</svg>