<?xml version="1.0" encoding="UTF-8"?>
<svg id="Layer_2" data-name="Layer 2" xmlns="http://www.w3.org/2000/svg" viewBox="0 0 102.01129 196.7031">
  <defs>
    <style>
      .cls-1 {
        stroke-dasharray: 0 0 3.05346 3.05346;
      }

      .cls-1, .cls-2, .cls-3, .cls-4, .cls-5, .cls-6, .cls-7, .cls-8 {
        stroke-miterlimit: 10;
      }

      .cls-1, .cls-2, .cls-3, .cls-4, .cls-5, .cls-6, .cls-7, .cls-8, .cls-9 {
        stroke: #4e381a;
      }

      .cls-1, .cls-2, .cls-3, .cls-5, .cls-9 {
        fill: none;
      }

      .cls-2 {
        stroke-dasharray: 0 3;
      }

      .cls-10 {
        fill: #baa2b9;
      }

      .cls-11 {
        fill: #4e381a;
      }

      .cls-12 {
        fill: #d7d4cf;
      }

      .cls-13 {
        fill: #f0efef;
      }

      .cls-14 {
        fill: #a0bdb1;
      }

      .cls-4 {
        fill: #e6e7e8;
      }

      .cls-5 {
        stroke-width: 1.00134px;
      }

      .cls-15 {
        fill: #525246;
      }

      .cls-16 {
        fill: #c9e2da;
      }

      .cls-6 {
        fill: #f1f2f2;
      }

      .cls-7 {
        fill: #00aeef;
      }

      .cls-17 {
        fill: #e0ae84;
      }

      .cls-8, .cls-18 {
        fill: #eac4a0;
      }

      .cls-19 {
        fill: #bac157;
      }

      .cls-20 {
        fill: #ca9b71;
      }

      .cls-21 {
        fill: #5a5c5d;
      }

      .cls-22 {
        fill: #acd5cb;
      }

      .cls-9 {
        stroke-linecap: round;
        stroke-linejoin: round;
      }
    </style>
  </defs>
  <g id="Layer_1-2" data-name="Layer 1">
    <g>
      <g>
        <path class="cls-14" d="m39.55433,70.44882c-5.79999-.03998-11.60999-.08002-17.41003-.10999h-.12c-4.12-.03003-8.25-.06-12.37-.08002l.42999,12.46002.01001.27997,1.04004,30.27002v.07001l.37,10.69v.07996l.00995.25c.87006-.00995,1.75-.01996,2.63-.02997,4.01001-.03998,8.17004-.07001,12.36005-.10999,2.27997-.02002,4.57001-.04004,6.87-.05005.28998-.00995.58997-.00995.88-.00995,0-.02002-.01001-.05005-.01001-.07001,0-.04004-.01001-.08002-.01001-.12-1.97003-15.61005-.32001-24.57001,1.73999-29.98004.51001-1.32996,2-4.94995,2.94-10.13.97998-5.44.91003-10.10999.64001-13.40997Zm-26.67999,6.08002v-.25c-.01001-.66003-.03003-1.27002-.04999-1.80005,2.26996.01001,3.96997-.00995,6.15997,0h.21997c-.16998.57001-.39996,1.18005-.69,1.80005-.03998.07996-.07996.16998-.12.25-.63995,1.31-1.57996,2.65997-2.95996,3.82996-.81.70001-1.66003,1.23004-2.46002,1.62,0-.09998-.01001-.20996-.01001-.31995-.02997-1.5-.06-3.43005-.08997-5.13Z"/>
        <path class="cls-14" d="m19.20687,74.47633c-.19.64996-.46002,1.34998-.81,2.04999h-5.52002c-.01001-.75-.03003-1.45001-.04999-2.04999,2.34998.01001,4.07996-.01001,6.38,0Z"/>
        <path class="cls-14" d="m18.39688,76.52632c-.64001,1.31-1.58002,2.66003-2.96002,3.83002-.81.70001-1.66003,1.22998-2.46002,1.62-.03998-1.53998-.07001-3.63-.09998-5.45001h5.52002Z"/>
        <path class="cls-14" d="m11.60988,124.02956c-.88798,0-1.77588.00993-2.64905.00993-.76948.00993-1.53905.00993-2.30861.01987.02963-.97254.04444-2.49095,0-4.32688-.23674-8.95153-1.84985-15.5808-2.24936-17.29765-1.1987-5.32922-1.15208-14.57525-.30853-32.09126,2.07178.00993,3.04628-.04288,5.11815-.03295l2.3974,53.71894Z"/>
        <path class="cls-22" d="m60.03431,87.57883c-.46997,14.08002-.16998,26.20001-3.16998,36.23999v.02002c-.54999.01001-1.14001.01001-1.73999.01996-.21002,0-.42004.01001-.64001.01001-5.83002.08002-13.54999.25-19.16998.29004h-1.06c0-.02002-.01001-.05005-.01001-.07001,0-.04004-.01001-.08002-.01001-.12-1.97003-15.61005-.32001-24.57001,1.73999-29.98004.51001-1.32996,2-4.94995,2.94-10.13.97998-5.44.91003-10.10999.64001-13.40997,6.67999.03998,13.35999.08002,20.03998.12.45001,5.22998.65002,10.91998.44,17.01001Z"/>
        <path class="cls-16" d="m62.64169,100.94357c-1.09998,8.66998-.49365,15.65159-2.27368,22.83158-.85999.01001-4.39368.16945-5.27368.18947,3-10.04004,4.47254-22.29829,4.94251-36.38832.21002-6.08997.01001-11.77997-.44-17.01001.84003.01001,1.69.01001,2.53003.02002.85999,12.25,1.41485,23.22725.51483,30.35726Z"/>
        <path class="cls-3" d="m60.84169,124.24883c.81442-8.75503,1.3517-12.83584,1.51579-24.15789.09474-6.53684.4806-17.50408-.37894-29.74737-19.38948-.12631-38.77895-.25262-58.16843-.37894-.56924,17.65225.12979,27.03885.94737,32.39999.2645,1.73441,1.35921,8.41006,1.51578,17.43158.03224,1.85736.01715,3.37894,0,4.35788,15.66316-.18948,39.09474-.18946,54.7579-.37894"/>
        <line class="cls-3" x1="9.49432" y1="69.52252" x2="11.38905" y2="124.5962"/>
        <g>
          <line class="cls-3" x1="7.97852" y1="69.26985" x2="8.02338" y2="70.76917"/>
          <line class="cls-1" x1="8.11468" y1="73.8213" x2="9.53015" y2="121.12873"/>
          <line class="cls-3" x1="9.57581" y1="122.65473" x2="9.62067" y2="124.15406"/>
        </g>
        <path class="cls-2" d="m10.37853,85.81727c1.36337-.30646,5.10287-1.33829,8.08421-4.80002,4.20294-4.88019,3.59363-10.75146,3.47368-11.74738"/>
        <path class="cls-3" d="m9.47145,82.8437c1.27415-.23419,3.62764-.85901,5.82243-2.73213,4.20946-3.59253,4.37973-8.82792,4.39449-9.73037"/>
        <path class="cls-3" d="m12.84169,81.96462c-.07368-2.16843-.08421-5.56841-.15789-7.73683,2.47368.01053,4.25263-.01054,6.72631,0"/>
        <line class="cls-3" x1="12.27326" y1="76.28041" x2="18.68379" y2="76.28041"/>
      </g>
      <g>
        <g>
          <path class="cls-20" d="m15.28498,136.253c-.38,14.94-.75,29.88-1.13,44.83002,0,.13-.01001.26001-.01001.39001-1.73999.75-3.34003,1.96997-4.15002,3.26996.09003-.26996.19-.56.29999-.87.12-.32996.25-.69.38-1.07996.12-3.16003.21002-6.35004.28003-9.56.26001-11.59003.17999-22.84003-.19-33.73004-.70001-2.39996-1.34003-5.13-1.79999-8.14996-.27002-1.80005-.41003-4.84003-.51001-6.49005,1.16998,0,2.34998-.00995,3.53998-.01996.87-.01001,1.75-.02002,2.63-.03003.22003,3.81.44,7.63.66003,11.44Z"/>
          <path class="cls-18" d="m29.57496,124.633c-.98999,5.71002-2.54999,12.89001-3.92999,19.70001-1.64001,8.06-2.40002,11.02997-3.29004,16.41998-.92999,5.60999-1.67999,13.90002-2.02997,20.90002-.01001.03998-.01001.07001-.01001.10999-.45001-.40002-.94-.69-1.45001-.85999-.13995-.04004-.27997-.08002-.41998-.10999,0-.07001,0-.15002.01001-.22003.16998-7.02997.85999-12.96997,1.63-17.79999,1.07001-6.60999,2.60999-12.84998,5.31-28.53998.59998-3.49005,1.12-6.70001,1.58002-9.59003.81-.01001,1.62-.01001,2.41998-.01001h.17999Z"/>
          <path class="cls-17" d="m26.97498,124.64301c-.46002,2.89001-.98004,6.09998-1.58002,9.59003-2.70001,15.69-4.23999,21.92999-5.31,28.53998-.77002,4.83002-1.46002,10.77002-1.63,17.79999-.01001.07001-.01001.15002-.01001.22003-1.27002-.27002-2.83002.02997-4.29999.67999,0-.13.01001-.26001.01001-.39001.38-14.95001.75-29.89001,1.13-44.83002-.22003-3.81-.44-7.63-.66003-11.44,4.10999-.04999,8.27002-.13995,12.35004-.16998Z"/>
          <path class="cls-3" d="m23.19495,189.19302c-.01.06-.01.12-.02.18m-13.21-5.02c.1-.16.21-.32.33-.48.88-1.15,2.31-2.16,3.86-2.79,1.47-.59,3.03-.84,4.3-.51.09.02.18.05.27.08.51.17,1,.47,1.45.87.05.03.1.07.15.13m-13.73,11.41h-.26m19.17-.33h-.27M8.31495,124.62302c-.01-.04-.01-.07-.01-.1m-.12,65.14c-.18.05-.32.09-.43.12"/>
          <path class="cls-6" d="m29.43494,124.383c-.01001.08002-.02997.16003-.03998.25-.79999,0-1.60999,0-2.41998.01001-4.08002.03003-8.24005.12-12.35004.16998-.88.01001-1.76001.02002-2.63.03003-1.19.01001-2.37.01996-3.53998.01996.09998,1.65002.23999,4.69.51001,6.49005.45996,3.01996,1.09998,5.75,1.79999,8.14996.37,10.89001.45001,22.14001.19,33.73004-.07001,3.20996-.16003,6.39996-.28003,9.56-.13.38995-.26001.75-.38,1.07996-.10999.31-.20996.60004-.29999.87.81-1.29999,2.41003-2.51996,4.15002-3.26996,1.46997-.65002,3.02997-.95001,4.29999-.67999.14001.02997.28003.06995.41998.10999.51001.16998,1,.45996,1.45001.85999,0-.03998,0-.07001.01001-.10999,1.90997,1.75,3.10999,5.14001,2.87,7.53998-.21002-.13-.46002-.26001-.72998-.39001-3.90002-1.82996-11.94.19-14.28003.85004.09003-.14001.17999-.29004.26001-.47003.27002-.57996.22998-.94.38-1.70996.10999-.52002.20001-.72003.65997-1.98004.25-.67999.61005-1.66998,1.05005-2.94.12-3.15997.20996-6.34998.27997-9.56995.25-11.59003.16998-22.84003-.19-33.73004-.70001-2.39996-1.33997-5.12-1.79999-8.14001-.27002-1.79999-.40002-4.83997-.51001-6.48999,6.94,0,14.17999-.23999,21.12-.23999Z"/>
          <path class="cls-6" d="m25.23493,192.73304l-18.63995.32996c.12-1.51996.50995-2.26996.90997-2.64996.10999-.10004.40002-.35004.67999-.75v-.01001c2.34003-.66003,10.38-2.67999,14.28003-.85004.26996.13.51996.26001.72998.39001.90997.58002,1.29999,1.16998,1.45001,1.41003.40997.69.57001,1.42999.58997,2.13Z"/>
          <path class="cls-4" d="m25.23493,192.73304c.03003,1.45996-.53998,2.75995-.67999,3.07996-5.96997.13-11.94.25-17.90997.38-.10999-1.29999-.12-2.32001-.04999-3.13l18.63995-.32996Z"/>
          <path class="cls-3" d="m8.16495,124.62302h.15"/>
          <path class="cls-3" d="m29.39495,124.63302c-.99,5.67-2.53,12.75-3.89,19.46-1.64,8.06-2.4,11.02-3.29,16.42-.93,5.64-1.69,13.99-2.04,21.01v.08"/>
        </g>
        <g>
          <path class="cls-20" d="m37.24494,135.85303c-.38,14.94-.75,29.87-1.13,44.82001,0,.12994-.01001.26996-.01001.39996-1.73999.75-3.33997,1.97003-4.14996,3.27002.08997-.27002.19-.56.29999-.87.12-.33002.25-.69.38-1.08002.12-3.15997.21002-6.34998.27997-9.56.26001-11.59003.18005-22.84003-.18994-33.72998-.70001-2.40002-1.34003-5.13-1.80005-8.15002-.26996-1.79999-.40997-4.84003-.51001-6.48999,1.17004,0,2.35004-.01001,3.54004-.02002.87-.01001,1.75-.01996,2.63-.02997.21997,3.81.44,7.63.65997,11.44Z"/>
          <path class="cls-18" d="m51.53498,124.23304c-.99005,5.70996-2.55005,12.88995-3.93005,19.69995-1.63995,8.06-2.39996,11.03003-3.28998,16.42004-.92999,5.60999-1.67999,13.89996-2.02997,20.89996-.01001.04004-.01001.07001-.01001.10999-.45001-.39996-.94-.68994-1.45001-.85999-.14001-.03998-.28003-.07996-.41998-.10999,0-.07001,0-.15002.00995-.21997.17004-7.03003.86005-12.97003,1.63-17.80005,1.07001-6.60999,2.61005-12.84998,5.31-28.53998.60004-3.48999,1.12006-6.70001,1.58002-9.59003.81-.00995,1.60999-.00995,2.41003-.00995h.19Z"/>
          <path class="cls-17" d="m48.93494,124.24299c-.45996,2.89001-.97998,6.10004-1.58002,9.59003-2.69995,15.69-4.23999,21.92999-5.31,28.53998-.76996,4.83002-1.45996,10.77002-1.63,17.80005-.00995.06995-.00995.14996-.00995.21997-1.27002-.27002-2.83002.03003-4.30005.67999,0-.13.01001-.27002.01001-.39996.38-14.95001.75-29.88,1.13-44.82001-.21997-3.81-.44-7.63-.65997-11.44,4.10999-.05005,8.26996-.14001,12.34998-.17004Z"/>
          <path class="cls-3" d="m45.15495,188.79302c-.01.06-.01.12-.02.18m-13.21-5.02c.1-.16.21-.32.33-.48.88-1.15,2.31-2.17,3.86-2.8,1.47-.58,3.03-.83,4.3-.5.09.02.18.05.27.08.51.17.99.47,1.44.86.05.03.11.08.16.14m-13.73,11.41h-.27m19.17-.33h-.26m-16.92-68.03v-.08c-.01-.04-.01-.07-.01-.1m-.12,65.13c-.18.05-.33.1-.44.13"/>
          <path class="cls-6" d="m51.38496,124.003c-.02002.08002-.03003.15002-.03998.23004-.80005,0-1.60004,0-2.41003.00995-4.08002.03003-8.23999.12-12.34998.17004-.88.01001-1.76001.01996-2.63.02997-1.19.01001-2.37.02002-3.54004.02002.10004,1.64996.24005,4.69.51001,6.48999.46002,3.02002,1.10004,5.75,1.80005,8.15002.37,10.88995.44995,22.13995.18994,33.72998-.06995,3.21002-.15997,6.40002-.27997,9.56-.13.39001-.26001.75-.38,1.08002-.10999.31-.21002.59998-.29999.87.81-1.29999,2.40997-2.52002,4.14996-3.27002,1.47003-.64996,3.03003-.95001,4.30005-.67999.13995.03003.27997.07001.41998.10999.51001.17004,1,.46002,1.45001.85999,0-.03998,0-.06995.01001-.10999,1.90997,1.75,3.10999,5.14001,2.87,7.54004-.21002-.13-.46002-.26001-.73004-.39001-3.89996-1.83002-11.91998.19-14.27997.84998.08997-.14001.17999-.28998.26001-.46997.26996-.58002.21997-.94.38-1.70001.09998-.53003.19995-.72998.65997-1.98999.25-.67999.60999-1.66998,1.03998-2.94.12-3.16003.22003-6.35004.29004-9.57001.25-11.59003.16998-22.84003-.19-33.72998-.70001-2.40002-1.34003-5.12-1.79999-8.14001-.27002-1.78003-.40002-4.73999-.51001-6.41003.28998-.00995.58997-.00995.88-.00995h1.06c5.62-.04004,13.33997-.21002,19.16998-.29004Z"/>
          <path class="cls-6" d="m47.19495,192.33301l-18.64001.33002c.10999-1.53003.5-2.27002.90002-2.65002.10999-.10999.40997-.34998.69-.76001,2.35999-.65997,10.38-2.67999,14.27997-.84998.27002.13.52002.26001.73004.39001.90997.57996,1.29999,1.16998,1.44995,1.40997.41003.69.57001,1.42999.59003,2.13Z"/>
          <path class="cls-4" d="m47.19495,192.33301c.03003,1.46002-.53998,2.76001-.69,3.08002-5.96002.13-11.92999.25-17.90002.38-.10999-1.30005-.12-2.33002-.04999-3.13l18.64001-.33002Z"/>
          <path class="cls-3" d="m30.12495,124.22302h1.02c5.11-.02,10.38-.15,15.55-.21h.6c.73-.01,1.45-.02,2.17-.02.2-.01.41-.01.61-.01h1.31v.02"/>
          <path class="cls-3" d="m51.34495,124.23302c-.98,5.67-2.53,12.75-3.89,19.46-1.64,8.06-2.4,11.02-3.28,16.42-.93,5.64-1.69,13.98-2.05,21v.09"/>
        </g>
      </g>
      <g>
        <g>
          <path class="cls-10" d="m35.30912,40.63079c-6.16513,1.81915-9.72183,23.29745-.7579,28.98947,3.04343,1.93256,7.62067,2.10281,10.48419,0,6.31332-4.63617,4.22198-20.26666-3.97894-26.71579-1.52698-1.20081-3.67056-2.88647-5.74734-2.27368Z"/>
          <path class="cls-12" d="m34.45435,22.69876c-.51001,2.54999-2.56,3.16998-5.11005,5.87-2.08997,2.21002-4.47998,5.78003-5.69,11.75.29004-.89996.84003-1.63,1.54004-2.10999-1.57001,3.34003-3.27002,7.67999-4.44,12.90997-.54999,2.44-.91998,4.75-1.15002,6.91003h-.01001c-.32996,3.01001-.39996,5.70001-.35999,7.98999,1.48004.38,3.13.73999,4.92999,1.03998.02002,4.10004.17004,7.78003.42999,11.72003H.30433c.20001-11.62.41003-23.23999.62-34.85999-.56-10.37,2.67999-20.39001,8.85004-28.16003,4.75-1.27997,10.64996-2.58997,15.39996-2.72998.90002-.02002,2.69-.03003,4.54999.95001,3.08002,1.63,5.37,5.5,4.73004,8.71997Z"/>
          <path class="cls-12" d="m25.12433,86.16879c-8.32001.13-16.64001.25-24.96002.38.05005-2.59003.09003-5.18005.14001-7.77002h24.28998c.14001,2.32001.33002,4.73999.53003,7.39001Z"/>
          <path class="cls-13" d="m73.14435,18.62875c-.19-.13-.48004-.22998-.82001-.32001h-.01001c-1.22998-1.27997-3.41998-3.31995-6.59003-4.70996-1.01996-.44-9.45996-3.98999-15.53998.57001-.73999.56-3.95001,2.96997-4.35999,7.19995-.5,5.28003,3.78998,8.80005,4.16998,9.10004.97003.81,1.95001,1.62,2.91998,2.42999,1.67999,1.40002,3.36005,2.79999,5.04004,4.20001,1.69995,11.48999,3.40997,22.98999,5.10999,34.47998v7.20001h-25.20001c.16998-3.33002.39001-7.03998.66003-11.23999h.03998c0-.17999-.01001-.35004-.01001-.53003v-.01001c-.04999-2.17999-.08997-4.33997-.14001-6.51996-.12-5.82001-.23999-11.63-.35999-17.45001-.16998,3.14001-.51001,9.66998-.87,17.56-2,.14001-4.28003.15997-6.77002-.07001-.03998-.76001-.12-1.56-.25-2.54999-.5-3.72998-1.28998-6.87-.63-9.95001.36005-1.67999.5-3.39001.82001-5.08002.17999-.94.28003-1.37.16003-1.98999-.29004-1.44-1.65002-3.41998-3.67004-3.32001-.57996.03003-1.15997.23999-1.64996.58002-.70001.47998-1.25,1.21002-1.54004,2.10999,1.21002-5.96997,3.60004-9.53998,5.69-11.75,2.55005-2.70001,4.60004-3.32001,5.11005-5.87.63995-3.21997-1.65002-7.08997-4.73004-8.71997-1.85999-.98004-3.64996-.97003-4.54999-.95001-4.75.14001-10.64996,1.45001-15.39996,2.72998,2.69995-3.41998,5.95996-6.39996,9.71997-8.78998,13.65002-8.69,31.19-7.91998,42.44-.38,6,4.02997,10.03003,9.87,11.21002,12.03998Z"/>
          <path class="cls-13" d="m37.18434,60.58877c-.10999,2.26001-.05997,4.88623-.16995,7.32623-1.91998.13-4.20004-.07623-6.51004-.18622-.03998-3.75.02997-5.39001-.09003-7.21002,2.48999.22998,4.77002.21002,6.77002.07001Z"/>
          <path class="cls-13" d="m63.06434,78.77878v6.82001l-25.5.39001c.07001-2.19.17999-4.58002.29999-7.21002h25.20001Z"/>
          <path class="cls-13" d="m72.31434,18.30875c-1.57001-.39996-4.41003-.51996-6.02002-1.48999-3.51996-2.09998-8.28998-2.35999-11.94-.19-1.12.67004-3.54999,2.11005-3.97998,4.54999-.40002,2.23004,1.32001,2.84003,2.08002,7.58002.29999,1.84003.67999,2.77002.45996,4.14001-.96997-.81-1.94995-1.62-2.91998-2.42999-.38-.29999-4.66998-3.82001-4.16998-9.10004.40997-4.22998,3.62-6.63995,4.35999-7.19995,6.08002-4.56,14.52002-1.01001,15.53998-.57001,3.17004,1.39001,5.36005,3.42999,6.59003,4.70996Z"/>
          <path class="cls-20" d="m34.01435,117.05875c-.04999,6.20001-.77002,11.52002-1.54999,15.58002-.17004.13-.36005.22998-.58002.29999-.85999.27002-2.22003-.44-2.75-.76996-.21002.19995-.45001.37-.73999.51996-.22003.11005-1.87.96002-2.94.19-.48999-.35999-1.21002-1.35999-.79004-1.59998.34003-.19,1.32001-.03003,2.12-.58002,1.44-.98999.88-4.03998.85004-4.16998-.27002-1.42999-.77002-1.39001-1.13-2.84003-.42999-1.70996-.09003-3.14996.19-4.35999.45996-2.08002,1.37-3.58997,1.97998-4.45001-1.41998-8.26001-2.63-17.28998-3.40997-27-.04999-.57996-.09003-1.14996-.14001-1.70996,2.03998-.03003,4.08002-.06,6.12-.09003.22003,3.15002.42999,5.78003.59003,7.72998,1.22998,14.86005,2.25,15.59003,2.17999,23.25Z"/>
          <path class="cls-18" d="m39.81434,128.90878c-.12.58002-.1221,2.03042-.84207,2.59042-1.72003-11.04999-2.76792-19.63046-2.99796-24.11044-.19-3.64996-.19-7.01001-.19-7.01001,0-3.54999.13-6.17999.19-7.38995.16003-3.22003.17004-4.45001.24005-6.98004.44995-.01001.89996-.01996,1.34998-.01996-.09998,2.59998-.16003,4.92999-.20001,7.06995-.15997,8.46002.5,19.54004,1.70001,29.27002.38,3.06.94,5.70001.75,6.58002Z"/>
          <path class="cls-17" d="m38.9249,131.0492c-.03003.03003-1.84102.52472-1.87105.54474-.70996.45001-.3595.54483-.84949.48483h-.01001c-.21002.26001-.48999.46002-.85004.58002-.87994.27997-1.91998-.23999-2.35999-.52002-.14996.19-.32001.37-.51996.5.77997-4.06,1.5-9.38,1.54999-15.58002.07001-7.65997-.95001-8.38995-2.17999-23.25-.16003-1.94995-.37-4.57996-.59003-7.72998,1.65997-.02002,3.32001-.04999,4.97003-.07001-.07001,2.53003-.08002,3.76001-.24005,6.98004-.06,1.20996-.19,3.83997-.19,7.38995,0,0,.09405,3.05624.5827,6.67834.64273,4.76431,2.10789,13.40526,2.55789,23.99211Z"/>
          <path class="cls-12" d="m30.16431,57.96878c.13.98999.21002,1.78998.25,2.54999-.60999-.04999-1.23999-.12-1.88-.21002-3.51996-.48999-6.51996-1.37-8.92999-2.27997.23004-2.16003.60004-4.47003,1.15002-6.91003,1.16998-5.22998,2.87-9.56995,4.44-12.90997.48999-.34003,1.07001-.54999,1.64996-.58002,2.02002-.09998,3.38,1.88,3.67004,3.32001.12.62.01996,1.04999-.16003,1.98999-.32001,1.69-.45996,3.40002-.82001,5.08002-.65997,3.08002.13,6.22003.63,9.95001Z"/>
          <path class="cls-12" d="m30.50434,67.72879c-.34003-.02002-.69-.04004-1.03998-.06-1.89001-.13-3.66003-.34003-5.30005-.61005-1.79999-.29999-3.44995-.65997-4.92999-1.03998-.03998-2.28998.03003-4.97998.35999-7.98999h.01001c2.41003.90997,5.41003,1.78998,8.92999,2.27997.64001.09003,1.27002.16003,1.88.21002.12,1.82001.05005,3.46002.09003,7.21002Z"/>
          <path class="cls-3" d="m73.83543,19.28341c.23514-.21793-4.16779-7.92557-11.55789-12.88422-11.24615-7.54602-28.78903-8.3092-42.44211.37897C7.52827,14.60985.46455,28.79601,1.26701,43.72551c-.25262,14.21054-.50528,28.42105-.7579,42.63159,20.96841-.3158,41.93686-.63159,62.90527-.94739v-14.02106c-1.70526-11.49472-3.41052-22.98947-5.11578-34.48419-2.65265-2.21054-5.30527-4.42105-7.95792-6.63159-.37607-.2981-4.67038-3.8179-4.1684-9.09473.40289-4.23495,3.61349-6.64194,4.35788-7.20001,6.08356-4.56085,14.517-1.01505,15.53683-.56842,5.01184,2.19482,7.59744,6.03217,7.76843,5.87369Z"/>
          <path class="cls-3" d="m73.7249,18.66762c-.59595-.96982-4.93793-.74573-7.08948-2.03683-3.51361-2.10846-8.28613-2.3613-11.93683-.18948-1.12012.66635-3.54715,2.1102-3.97894,4.54736-.39526,2.23096,1.31653,2.83813,2.0842,7.57895.311,1.92072.7191,2.85161.42632,4.33421"/>
          <line class="cls-3" x1=".13017" y1="78.58867" x2="63.79332" y2="78.58867"/>
          <path class="cls-3" d="m25.77226,37.53603c-1.64401,3.4054-3.43848,7.91263-4.67368,13.3895-1.31613,5.83572-1.5907,10.96939-1.51578,14.90524,2.82007.72366,6.26959,1.37634,10.23157,1.64212,3.42361.22968,6.49152.12094,9.09473-.12631-.16843-8.16843-.33682-16.33685-.50525-24.50528"/>
          <path class="cls-3" d="m19.94016,57.83709h.01c2.41.91,5.41,1.79,8.93,2.28,3.77.52,7.13.45,9.88.17"/>
          <path class="cls-3" d="m24.50911,66.52552c.01715,7.18356.45358,13.01683,1.10525,21.15789.77792,9.71817,1.98157,18.74503,3.41055,27-.61282.86148-1.52118,2.37048-1.9895,4.45264-.27295,1.21347-.61603,2.65506-.18945,4.35791.36334,1.45047.86044,1.41751,1.13684,2.8421.02612.13467.5838,3.18015-.85263,4.16843-.7998.55026-1.78422.39472-2.1158.5842-.42309.24176.29664,1.23529.78947,1.59473,1.06644.77774,2.71173-.07303,2.93686-.18945,1.65796-.85733,1.92972-2.6361,2.0842-3.25264.43817-1.7489.13416-3.16749-.09472-3.66316"/>
          <path class="cls-3" d="m38.90911,66.65183c-.7724,11.80515-1.08086,19.82488-1.2,26.21053-.15789,8.46316.50526,19.54737,1.70526,29.27368.37817,3.06521.93158,5.7.74211,6.58421-.12986.606-.26262,2.09998-1.07368,2.60526-.77533.48303-2.2496.64136-2.63684.53684"/>
          <path class="cls-3" d="m37.07753,124.72551c.34737,1.3579.36316,3.37895.28422,4.54737-.06832,1.01107-.31718,2.74981-1.67368,3.18947-.97299.31537-2.15357-.3695-2.47895-.6"/>
          <path class="cls-3" d="m34.18806,125.26236c.37895,1.20789.22105,3.42632.01579,4.45263-.19874.9937-.62046,2.59174-1.97696,3.03141-.97299.31537-2.5924-.65354-2.91777-.88404"/>
          <g>
            <path class="cls-20" d="m75.44435,105.65877c-2.35999.26001-4.41003,1.07001-5.59003,1.78998-.90997-12.13-2.22998-23.21997-3.75-34.91998-.03998-1.22998-.07001-2.46002-.09998-3.70001,2.21997-.31,4.44-.62,6.65997-.94,1.29004,12.23999,2.23999,24.83002,2.78003,37.77002Z"/>
            <path class="cls-17" d="m81.18433,106.30875c-1.92999-.73999-3.92999-.85999-5.73999-.64996-.54004-12.94-1.48999-25.53003-2.78003-37.77002,2.02002-.27997,4.04004-.57001,6.06-.84998,1.21002,12.71997,2.06,25.81,2.46002,39.26996Z"/>
            <path class="cls-18" d="m82.67432,107.00876c-.48999-.27997-.98999-.51001-1.48999-.70001-.40002-13.45996-1.25-26.54999-2.46002-39.26996.69-.10004,1.37-.19,2.06-.29004.63,13.42004,1.26001,26.84003,1.89001,40.26001Z"/>
            <path class="cls-3" d="m66.43545,74.88341c.59637,3.99704,1.55029,10.47821,2.08417,18.37894.47906,7.08945,1.33245,14.12397,1.3347,14.18641h0c4.26532-1.73376,5.5899-1.78995,5.59003-1.78998,1.27734-.22382,4.99108.37201,6.88582.84569.02228-8.03363-.5518-16.73169-1.10526-25.54737-.30157-4.80331-.40097-9.47885-.85263-14.02105-4.67371.7579-10.30523.74735-14.97893,1.50526.28088,1.6102.65027,3.8158,1.04211,6.44211Z"/>
          </g>
          <path class="cls-20" d="m32.10486,86.43403c-2.03998.03003-4.02809.15384-6.06807.18387-.20001-2.65002-.44194-5.16385-.58196-7.48386-.25995-3.94-.40997-7.62-.42999-11.72003,1.64001.27002,3.31265.43859,5.20266.5686.34998.01996.83694.0424,1.17697.06241.01001.75-.01958,1.629.00038,2.569.12,5.98004.41003,11.41003.70001,15.82001Z"/>
          <path class="cls-17" d="m36.88806,68.00044c-.10999,2.63995-.20129,5.69929-.30133,8.42927-.20001,5.38-.27997,8.24005-.32996,10.26001-1.65002.02002-3.31006.04999-4.97003.07001-.28998-4.40997-.58002-9.83997-.70001-15.82001-.01996-.94-.05498-2.17145-.06499-2.92145,2.31.10999,4.44633.11217,6.36632-.01783Z"/>
          <path class="cls-18" d="m38.33489,67.94931c-.27002,4.20001-.49005,7.90997-.66003,11.23999-.12,2.63-.23126,5.29753-.30127,7.48753-.45001,0-.73426.2742-1.18421.28421.04999-2.01996-.03454-5.42176.16547-10.80177.10004-2.72998.20032-5.50997.3103-8.14992.57001-.03003,1.13971-.01005,1.66974-.06004Z"/>
        </g>
        <g>
          <path class="cls-8" d="m51.27974,24.86013c-3.90964-14.89313,15.68129-13.53681,19.42105-4.73685"/>
          <g>
            <g>
              <path class="cls-15" d="m95.32277,60.38387c-.40997,2.47003-1.29999,4.21002-2.21002,4.71002.11748-1.10522-.98579-3.92892-2.01996-4.79999-.57372,1.56479-1.58078,7.71642-1.33002,8.15002-.78516-.58309-2.95271-5.15516-3.15997-6.19.28196,2.4432-2.38537,9.02723-4.99005,10.91998.4095-1.35577-.3512-5.16059-1.44995-6.44-.1032,2.41928-2.73228,7.7172-4.73004,9.34998.19134-1.54716-1.50529-4.98832-2.58997-5.69-.32552,2.31547-3.94429,6.98805-5.94,7.84003.63902-1.98532-.78094-8.02652-2.65002-9.78998-1.37292.87763-3.2541,4.0068-3.40997,5.42999-2.73437-1.23009-5.17655-8.36983-4.36005-10.17004-2.06216.27714-6.02238,3.94803-6.44,5.67999-.87593-4.49427-1.06601-8.70889-.97998-13.19995-6.16857-7.14461-4.98547-16.77178-.9314-26.40989,3.80143-4.52298,10.37641-9.83246,15.74158-7.18991,4.60274,1.3099-.81979,20.13981,1.41928,22.36005,3.12261,6.20812,14.24985,6.46374,13.36056-1.70026,2.6268.73109,3.87152,6.33192,2.92999,7.47998,2.32263.2116,4.42962-2.25834,4.08002-4.83002,1.0687,1.73012,2.22266,5.29748,2.37,7.48004.91631-.33519,2.66014-3.79078,2.07996-5.30005,2.31634,3.32986,4.43482,8.27677,5.21002,12.31Z"/>
              <path class="cls-21" d="m94.58695,60.24111c-.20001,2.02002-.5,3.85999-.85004,5.51001-.79458-3.5445-2.887-8.17738-4.92999-11.10004.58056,1.50985-1.16447,4.96542-2.07996,5.30005-.14745-2.18298-1.30117-5.74953-2.37-7.48004.35087,2.57102-1.75921,5.04262-4.08002,4.83002.94213-1.16533-.30541-6.74327-2.92999-7.47998.88422,8.16243-10.234,7.91071-13.3598,1.69984-1.30023-2.45985-.60022-4.32984.27979-11.45985,3.36716-18.16939-11.16055-11.56236-17.44-3.71002,1-1.82001,2.33002-3.58997,4.08002-5.20001,3.39996-3.10999,4.68365-9.27212,6.95366-10.0021,28.27486-10.70626,42.77063,10.01645,36.72633,39.09213Z"/>
              <path class="cls-3" d="m94.44115,62.71981c1.94773-10.66625,3.14745-28.06054-6.15762-38.36854-14.08733-11.24651-29.36602-5.0238-36.47393.56705-8.77868,8.42177-9.88632,25.71648-2.74739,31.86465"/>
              <path class="cls-9" d="m48.93588,48.06718c-.3308,8.31752-.68561,14.44462.69474,21.66315.41838-1.72966,4.38249-5.4012,6.44211-5.6842-.81516,1.80448,1.62608,8.93559,4.35788,10.16843.1678-1.43098,2.04532-4.54305,3.41055-5.43158,1.86884,1.76511,3.29352,7.79969,2.65262,9.78949,1.98768-.84186,5.61818-5.51982,5.93683-7.8316,1.09249.69704,2.78112,4.13244,2.58948,5.68423,2.00186-1.62093,4.63397-6.92789,4.73685-9.34738,1.09843,1.27231,1.85334,5.08394,1.45264,6.44211,2.60187-1.90155,5.26174-8.47977,4.9895-10.92633.19483,1.02226,2.38195,5.62367,3.15784,6.18948-.24817-.47044.74701-6.55124,1.32635-8.14737,1.04419.87011,2.13075,3.69347,2.02106,4.79999,1.29016-.71082,2.55207-3.90645,2.46314-8.14735"/>
            </g>
            <path class="cls-19" d="m54.31003,31.77397c-2.97797-6.40779,2.73873-11.49586,8.39527-8.87302"/>
            <path class="cls-5" d="m63.05849,23.10561c-5.41113-2.63916-11.62104,1.87127-8.56827,8.86808"/>
            <path class="cls-21" d="m94.68167,62.45424c2.54875-5.94344-.30701-11.89953-.91396-18.20412-2.2995,1.73969-4.26404,3.81921-6.04327,6.09174.64272,7.36022,1.35437,13.78674-3.31305,22.00775v.01001c-4.05496,4.60975-1.93549,11.87633,3.07001,13.41998.18994-1.82996.37994-3.65997.56-5.48999.65115,4.74808,8.76441,8.5819,11.56,7.58002-7.84138-5.80563-5.90637-20.47806-4.91972-25.41538Z"/>
            <path class="cls-15" d="m55.82378,86.99109c7.57895-16.29474.63316-23.45869.95317-33.48865.10846-3.47211-4.04223-8.17304-2.7943-12.63513-1.02783.3891-2.05835.76459-3.10785,1.04596-2.11095,2.39997-2.77161,5.69163-3.3457,8.35407.07837.54108-1.02832,1.33099-1.1073,1.87311.00659-.00134.01239-.00433.01898-.00562-.31198,2.69007-.64246,5.36981-.95001,8.06-.05408-.02637-.09802-.0639-.15057-.09204.15336,2.96822-.01733,9.23035,1.62049,10.24876.11462.07031-.11371,2.80843-.0199,2.8633,1.884,7.27211.49393,11.9211-3.51996,14.96002,1.04759.19112,4.72885-.55175,6.18103-.84949,1.28003-1.59003,4.74616-4.32163,5.60614-5.78165"/>
            <g>
              <path class="cls-11" d="m48.79226,46.28838c.19968.42258.09111.68599-.01614.95433-.32267.79943-.58798,1.62446-.8413,2.44677-2.68052,7.69362-2.0359,16.01122-.43904,23.85123-.00017,0,.00175.0275.00175.0275l.00096.01373s-.0592.02332-.36557.10052c-.34804.06483-.36673.10647-.38623.03495-2.18066-8.41347-2.76544-17.9196.92557-26.00222.33986-.54439.36959-1.20488,1.11999-1.42683h0Z"/>
              <path class="cls-11" d="m47.24344,72.95618c.76715,1.29654.74956,2.75247.87341,4.16605.29663,4.30636-.83012,8.95961-4.26807,11.87178.00007.00002-.34086-.9785-.34086-.9785,2.31342.09662,4.65041-.56052,6.61925-1.79532,1.97127-1.23019,3.58159-3.04959,4.47871-5.18484l.99667-2.37222.04703,2.57217.1201,6.56836-1.01357-.23633c2.61935-5.34686,5.68388-11.37734,3.36071-17.29237-.72996-1.90102-1.41826-3.94799-1.80688-6.00829-1.60339-8.1261.67778-17.03732,6.33685-23.13114,0,.00003.1349-.14335.1349-.14335l.06743-.07164.03371-.03581c-.00105-.02315.04346-.00481.31081.21933.24631.2487.26979.2916.24773.29298l-.02936.03784c-.22208.29906-.64931.82429-.88655,1.12529-4.85656,5.9047-6.65178,14.04864-5.20728,21.51275.68326,4.07062,3.28376,7.87925,2.60444,12.17654-.63566,5.00257-3.00915,9.37648-5.18254,13.75259l-.04395-2.17777-.13254-6.56812,1.04361.19995c-2.1661,5.26781-7.99093,8.29419-13.56108,7.61619.00003.00015,1.07622-.92255,1.07622-.92255,3.20242-2.6555,4.27912-6.97116,4.17478-10.99816.02316-1.39176-.3306-2.72926-.0537-4.19541h0Z"/>
              <path class="cls-11" d="m88.17641,52.03319c2.78444,5.1596-.77847,12.99864-2.62691,18.03932-2.08656,5.25009-5.11261,12.58811,1.91855,15.26906-.0002.0001-.75382.44285-.75382.44285.1835-1.76645.66255-6.34914.83809-8.03728,0-.00001.78186,2.43227.78186,2.43227,1.41684,4.60349,6.24816,7.64395,11.00675,7.22063-.00004.00007-.31513.91304-.31513.91304-1.37759-1.27734-2.62726-2.71552-3.61633-4.33356-7.03584-11.6976,3.13632-25.47402-2.18592-37.57478.00025-.00005-.05804-.15902-.05804-.15902l-.02914-.07953c.02051-.04021-.15504.00801.31496-.23372.49156-.18846.33757-.08699.37962-.07393.06034.12309.18631.43064.24872.56237,6.01116,13.51394-7.15441,29.9186,5.65505,41.11496-.00009.00007.90284.81953.90284.81953l-1.21808.09363c-5.22672.47379-10.54321-2.87364-12.10878-7.93706-.00005.00008,1.04693-.11089,1.04693-.11089-.03464.32407-.6258,6.10765-.63991,6.23553-1.70749-.71763-3.43685-1.59022-4.55655-3.21931-3.99286-5.83681,3.21439-16.08174,4.45105-22.37803.93098-2.99683.74789-5.90625.56419-9.0061h0Z"/>
              <path class="cls-11" d="m56.24344,44.48774c-8.74691,14.48611,6.57834,28.27906.07784,42.89837-.00012-.00002-.91345-.40722-.91345-.40722,6.60499-14.23453-8.24092-28.19873.83562-42.49115h0Z"/>
              <path class="cls-11" d="m51.13665,53.1914c-5.58418,11.09352,2.44278,23.45684-1.85352,34.77732-.00015-.00002-.63845-.24346-.63845-.24346,4.41617-11.12351-3.29681-23.64358,2.49197-34.53386h0Z"/>
              <path class="cls-3" d="m88.30273,52.28582c.15383,10.756.48232,11.00747-4.55402,20.78087"/>
            </g>
            <path class="cls-21" d="m50.37005,48.09472c-.14815,10.77774-.94679,12.80934-4.15469,21.70383-1.18462-4.58457-.60753-13.0556.82191-16.91175-2.67696,3.87551-4.45491,18.03682-1.09277,24.49645-17.1977-4.04723-16.70627-17.87472-6.66439-31.50644,1.59152-1.976,2.26322-13.77925,5.90631-21.55386,1.41844-1.77475,7.74788-5.30555,12.43735-2.10819-2.05395,1.63364-3.55087,2.04307-4.36165,5.32232-3.48761,5.8313-4.39455,12.75442-2.89208,20.55763Z"/>
            <path class="cls-5" d="m58.55536,22.50687c-5.77895-4.13684-11.64126-.04031-13.08309,1.77405-3.64924,7.77812-4.30807,19.56538-5.91128,21.55152-10.05207,13.6373-10.49712,27.48942,6.67346,31.50888-3.37169-6.46765-1.58851-20.61506,1.09264-24.50176-1.43459,3.86251-2.00951,12.32745-.82088,16.91821,3.20499-8.90234,4.00207-10.92553,4.14888-21.70327-1.53342-8.01309-.54831-14.76163,2.95191-20.69691"/>
          </g>
          <g>
            <line class="cls-3" x1="75.11405" y1="10.32479" x2="75.30352" y2="29.27216"/>
            <line class="cls-3" x1="79.18773" y1="5.39848" x2="79.18773" y2="39.59848"/>
            <line class="cls-3" x1="83.35615" y1="13.64058" x2="83.54562" y2="35.14584"/>
            <line class="cls-3" x1="87.3351" y1="19.04058" x2="87.3351" y2="40.92479"/>
            <line class="cls-3" x1="91.21932" y1="10.13531" x2="91.50353" y2="38.3669"/>
            <path class="cls-7" d="m96.0509,14.77743c4.90697,7.57097,9.15466,15.3935.37881,18.00066-11.56094-.56233-4.68778-13.14761-.37881-18.00066Z"/>
          </g>
        </g>
      </g>
    </g>
  </g>
</svg>