<?xml version="1.0" encoding="utf-8"?>
<!-- Generator: Adobe Illustrator 27.1.1, SVG Export Plug-In . SVG Version: 6.00 Build 0)  -->
<svg version="1.1" id="Layer_2_00000064320077428488294960000000705740171181271982_"
	 xmlns="http://www.w3.org/2000/svg" xmlns:xlink="http://www.w3.org/1999/xlink" x="0px" y="0px" viewBox="0 0 136.5 271"
	 style="enable-background:new 0 0 136.5 271;" xml:space="preserve">
<style type="text/css">
	.st0{fill:#CA9B71;}
	.st1{fill:#EAC4A0;}
	.st2{fill:#E0AE84;}
	.st3{fill:none;stroke:#4E381A;stroke-miterlimit:10;}
	.st4{fill:#A0BDB1;}
	.st5{fill:#ACD5CB;}
	.st6{fill:#C9E2DA;}
	.st7{fill:none;stroke:#4E381A;stroke-miterlimit:10;stroke-dasharray:0,0,3.0535,3.0535;}
	.st8{fill:none;stroke:#4E381A;stroke-miterlimit:10;stroke-dasharray:0,3;}
	.st9{fill:#F1F2F2;stroke:#4E381A;stroke-miterlimit:10;}
	.st10{fill:#E6E7E8;stroke:#4E381A;stroke-miterlimit:10;}
	.st11{fill:#BAA2B9;}
	.st12{fill:#D7D4CF;}
	.st13{fill:#F0EFEF;}
	.st14{fill:#EAC4A0;stroke:#4E381A;stroke-miterlimit:10;}
	.st15{fill:#525246;}
	.st16{fill:#5A5C5D;}
	.st17{fill:none;stroke:#4E381A;stroke-linecap:round;stroke-linejoin:round;}
	.st18{fill:#BAC157;}
	.st19{fill:none;stroke:#4E381A;stroke-width:1.0013;stroke-miterlimit:10;}
	.st20{fill:#4E381A;}
	.st21{fill:#00AEEF;stroke:#4E381A;stroke-miterlimit:10;}
</style>
<g>
	<path class="st0" d="M107.7,189.1c0,6.2-0.8,11.5-1.5,15.6c-0.2,0.1-0.4,0.2-0.6,0.3c-0.9,0.3-2.2-0.4-2.8-0.8
		c-0.2,0.2-0.5,0.4-0.7,0.5c-0.2,0.1-1.9,1-2.9,0.2c-0.5-0.4-1.2-1.4-0.8-1.6c0.3-0.2,1.3,0,2.1-0.6c1.4-1,0.9-4,0.9-4.2
		c-0.3-1.4-0.8-1.4-1.1-2.8c-0.4-1.7-0.1-3.1,0.2-4.4c0.5-2.1,1.4-3.6,2-4.5c-1.4-8.3-2.6-17.3-3.4-27c0-0.6-0.1-1.1-0.1-1.7
		c2,0,4.1-0.1,6.1-0.1c0.2,3.2,0.4,5.8,0.6,7.7C106.8,180.7,107.8,181.4,107.7,189.1L107.7,189.1z"/>
	<path class="st1" d="M113.5,200.9c-0.1,0.6-0.1,2-0.8,2.6c-1.7-11-2.8-19.6-3-24.1c-0.2-3.6-0.2-7-0.2-7c0-3.5-0.6-6.5-0.5-7.7
		c0.2-3.2,0-4.5,0.9-6.7c0.4,0,0.9,0,1.3,0c-0.1,2.6-0.2,4.9-0.2,7.1c-0.2,8.5,0.5,19.5,1.7,29.3C113.1,197.4,113.7,200,113.5,200.9
		z"/>
	<path class="st2" d="M112.6,203c0,0-1.8,0.5-1.9,0.5c-0.7,0.5-0.4,0.5-0.8,0.5l0,0c-0.2,0.3-0.5,0.5-0.9,0.6
		c-0.9,0.3-1.9-0.2-2.4-0.5c-0.1,0.2-0.3,0.4-0.5,0.5c0.8-4.1,1.5-9.4,1.5-15.6c0.1-7.7-1-8.4-2.2-23.2c-0.2-1.9-0.4-4.6-0.6-7.7
		c1.7,0,3.3,0,5-0.1c-0.1,2.5-0.1,3.8-0.2,7c-0.1,1.2-0.2,3.8-0.2,7.4c0,0,0.1,3.1,0.6,6.7C110.7,183.8,112.2,192.5,112.6,203z"/>
	<path class="st3" d="M98.2,138.5c0,7.2,0.5,13,1.1,21.2c0.8,9.7,2,18.7,3.4,27c-0.6,0.9-1.5,2.4-2,4.5c-0.3,1.2-0.6,2.7-0.2,4.4
		c0.4,1.5,0.9,1.4,1.1,2.8c0,0.1,0.6,3.2-0.9,4.2c-0.8,0.6-1.8,0.4-2.1,0.6c-0.4,0.2,0.3,1.2,0.8,1.6c1.1,0.8,2.7-0.1,2.9-0.2
		c1.7-0.9,1.9-2.6,2.1-3.3c0.4-1.7,0.1-3.2-0.1-3.7"/>
	<path class="st3" d="M112,139.9c-0.2,8.5-1.9,38.7,1.1,54.3c0.4,3.1,0.9,5.7,0.7,6.6c-0.1,0.6-0.3,2.1-1.1,2.6
		c-0.8,0.5-2.2,0.6-2.6,0.5"/>
	<path class="st3" d="M110.8,196.7c0.3,1.4,0.4,3.4,0.3,4.5c-0.1,1-0.3,2.7-1.7,3.2c-1,0.3-2.2-0.4-2.5-0.6"/>
	<path class="st3" d="M107.9,197.3c0.4,1.2,0.2,3.4,0,4.5c-0.2,1-0.6,2.6-2,3c-1,0.3-2.6-0.7-2.9-0.9"/>
	<path class="st0" d="M105.8,158.4c-2,0-4,0.2-6.1,0.2c-0.2-2.7-0.4-5.2-0.6-7.5c-0.3-3.9-0.4-7.6-0.4-11.7c1.6,0.3,3.3,0.4,5.2,0.6
		c0.3,0,0.8,0,1.2,0.1c0,0.8,0,1.6,0,2.6C105.2,148.6,105.5,154,105.8,158.4z"/>
	<path class="st2" d="M110.6,140c-0.1,2.6-0.2,5.7-0.3,8.4c-0.2,5.4-0.3,8.2-0.3,10.3c-1.7,0-3.3,0-5,0.1c-0.3-4.4-0.6-9.8-0.7-15.8
		c0-0.9-0.1-2.2-0.1-2.9C106.5,140.1,108.7,140.1,110.6,140z"/>
	<path class="st1" d="M112,139.9c-0.3,4.2-0.5,7.9-0.7,11.2c-0.1,2.6-0.2,5.3-0.3,7.5c-0.5,0-0.7,0.3-1.2,0.3c0-2,0-5.4,0.2-10.8
		c0.1-2.7,0.2-5.5,0.3-8.1C110.9,140,111.5,140,112,139.9z"/>
</g>
<g id="Layer_1-2_00000064320724258335486960000003692155489423849353_">
	<g>
		<g>
			<path class="st4" d="M74.3,145.2c-5.8,0-11.6-0.1-17.4-0.1h-0.2c-4.1,0-8.2-0.1-12.4-0.1l0.4,12.5v0.3l1,30.3v0.1l0.4,10.7v0.1
				v0.2c0.9,0,1.8,0,2.6,0c4,0,8.2-0.1,12.4-0.1c2.3,0,4.6,0,6.9-0.1c0.3,0,0.6,0,0.9,0v-0.1v-0.1c-2-15.6-0.3-24.6,1.7-30
				c0.5-1.3,2-4.9,2.9-10.1C74.6,153.2,74.5,148.5,74.3,145.2L74.3,145.2z M47.6,151.3v-0.2c0-0.7,0-1.3,0-1.8c2.3,0,4,0,6.2,0H54
				c-0.2,0.6-0.4,1.2-0.7,1.8c0,0.1-0.1,0.2-0.1,0.2c-0.6,1.3-1.6,2.7-3,3.8c-0.8,0.7-1.7,1.2-2.5,1.6c0-0.1,0-0.2,0-0.3
				C47.6,155,47.6,153,47.6,151.3L47.6,151.3z"/>
			<path class="st4" d="M53.9,149.3c-0.2,0.6-0.5,1.3-0.8,2h-5.5c0-0.8,0-1.5,0-2C49.9,149.3,51.6,149.3,53.9,149.3z"/>
			<path class="st4" d="M53.1,151.3c-0.6,1.3-1.6,2.7-3,3.8c-0.8,0.7-1.7,1.2-2.5,1.6c0-1.5-0.1-3.6-0.1-5.5
				C47.6,151.3,53.1,151.3,53.1,151.3z"/>
			<path class="st4" d="M46.3,198.8c-0.9,0-1.8,0-2.6,0c-0.8,0-1.5,0-2.3,0c0-1,0-2.5,0-4.3c-0.2-9-1.8-15.6-2.2-17.3
				c-1.2-5.3-1.2-14.6-0.3-32.1c2.1,0,3,0,5.1,0L46.3,198.8z"/>
			<path class="st5" d="M94.7,162.4c-0.5,14.1-0.2,26.2-3.2,36.2l0,0c-0.5,0-1.1,0-1.7,0c-0.2,0-0.4,0-0.6,0
				c-5.8,0.1-13.5,0.2-19.2,0.3h-1.1v-0.1v-0.1c-2-15.6-0.3-24.6,1.7-30c0.5-1.3,2-4.9,2.9-10.1c1-5.4,0.9-10.1,0.6-13.4
				c6.7,0,13.4,0.1,20,0.1C94.7,150.6,94.9,156.3,94.7,162.4z"/>
			<path class="st6" d="M97.3,175.7c-1.1,8.7-0.5,15.7-2.3,22.8c-0.9,0-4.4,0.2-5.3,0.2c3-10,4.5-22.3,4.9-36.4
				c0.2-6.1,0-11.8-0.4-17c0.8,0,1.7,0,2.5,0C97.7,157.6,98.2,168.6,97.3,175.7z"/>
			<path class="st3" d="M95.5,199c0.8-8.8,1.4-12.8,1.5-24.2c0.1-6.5,0.5-17.5-0.4-29.7c-19.3-0.1-38.7-0.2-58.1-0.3
				c-0.6,17.7,0.1,27,0.9,32.4c0.3,1.7,1.4,8.4,1.5,17.4c0,1.9,0,3.4,0,4.4c15.7-0.2,39.1-0.2,54.8-0.4"/>
			<line class="st3" x1="44.2" y1="144.3" x2="46.1" y2="199.4"/>
			<g>
				<line class="st3" x1="42.7" y1="144.1" x2="42.7" y2="145.6"/>
				<line class="st7" x1="42.8" y1="148.6" x2="44.2" y2="195.9"/>
				<line class="st3" x1="44.3" y1="197.5" x2="44.3" y2="199"/>
			</g>
			<path class="st8" d="M45.1,160.6c1.4-0.3,5.1-1.3,8.1-4.8c4.2-4.9,3.6-10.8,3.5-11.7"/>
			<path class="st3" d="M44.2,157.6c1.3-0.2,3.6-0.9,5.8-2.7c4.2-3.6,4.4-8.8,4.4-9.7"/>
			<path class="st3" d="M47.5,156.8c-0.1-2.2-0.1-5.6-0.2-7.7c2.5,0,4.3,0,6.7,0"/>
			<line class="st3" x1="47" y1="151.1" x2="53.4" y2="151.1"/>
		</g>
		<g>
			<g>
				<path class="st0" d="M50,211.1c-0.4,14.9-0.8,29.9-1.1,44.8c0,0.1,0,0.3,0,0.4c-1.7,0.8-3.3,2-4.2,3.3c0.1-0.3,0.2-0.6,0.3-0.9
					c0.1-0.3,0.2-0.7,0.4-1.1c0.1-3.2,0.2-6.4,0.3-9.6c0.3-11.6,0.2-22.8-0.2-33.7c-0.7-2.4-1.3-5.1-1.8-8.1
					c-0.3-1.8-0.4-4.8-0.5-6.5c1.2,0,2.3,0,3.5,0c0.9,0,1.8,0,2.6,0C49.5,203.4,49.8,207.2,50,211.1z"/>
				<path class="st1" d="M64.3,199.4c-1,5.7-2.5,12.9-3.9,19.7c-1.6,8.1-2.4,11-3.3,16.4c-0.9,5.6-1.7,13.9-2,20.9v0.1
					c-0.5-0.4-0.9-0.7-1.5-0.9c-0.1,0-0.3-0.1-0.4-0.1c0-0.1,0-0.2,0-0.2c0.2-7,0.9-13,1.6-17.8c1.1-6.6,2.6-12.8,5.3-28.5
					c0.6-3.5,1.1-6.7,1.6-9.6c0.8,0,1.6,0,2.4,0C64.1,199.4,64.3,199.4,64.3,199.4z"/>
				<path class="st2" d="M61.7,199.4c-0.5,2.9-1,6.1-1.6,9.6c-2.7,15.7-4.2,21.9-5.3,28.5c-0.8,4.8-1.5,10.8-1.6,17.8
					c0,0.1,0,0.2,0,0.2c-1.3-0.3-2.8,0-4.3,0.7c0-0.1,0-0.3,0-0.4c0.4-15,0.8-29.9,1.1-44.8c-0.2-3.8-0.4-7.6-0.7-11.4
					C53.4,199.6,57.6,199.5,61.7,199.4z"/>
				<path class="st3" d="M57.9,264c0,0.1,0,0.1,0,0.2 M44.7,259.2c0.1-0.2,0.2-0.3,0.3-0.5c0.9-1.1,2.3-2.2,3.9-2.8
					c1.5-0.6,3-0.8,4.3-0.5c0.1,0,0.2,0.1,0.3,0.1c0.5,0.2,1,0.5,1.5,0.9l0.1,0.1 M41.3,267.9H41 M60.2,267.5h-0.3 M43,199.4
					L43,199.4 M42.9,264.5c-0.2,0.1-0.3,0.1-0.4,0.1"/>
				<path class="st9" d="M64.1,199.2c0,0.1,0,0.2,0,0.2c-0.8,0-1.6,0-2.4,0c-4.1,0-8.2,0.1-12.4,0.2c-0.9,0-1.8,0-2.6,0
					c-1.2,0-2.4,0-3.5,0c0.1,1.7,0.2,4.7,0.5,6.5c0.5,3,1.1,5.8,1.8,8.1c0.4,10.9,0.5,22.1,0.2,33.7c-0.1,3.2-0.2,6.4-0.3,9.6
					c-0.1,0.4-0.3,0.8-0.4,1.1c-0.1,0.3-0.2,0.6-0.3,0.9c0.8-1.3,2.4-2.5,4.2-3.3c1.5-0.7,3-1,4.3-0.7c0.1,0,0.3,0.1,0.4,0.1
					c0.5,0.2,1,0.5,1.5,0.9v-0.1c1.9,1.8,3.1,5.1,2.9,7.5c-0.2-0.1-0.5-0.3-0.7-0.4c-3.9-1.8-11.9,0.2-14.3,0.9
					c0.1-0.1,0.2-0.3,0.3-0.5c0.3-0.6,0.2-0.9,0.4-1.7c0.1-0.5,0.2-0.7,0.7-2c0.2-0.7,0.6-1.7,1.1-2.9c0.1-3.2,0.2-6.3,0.3-9.6
					c0.2-11.6,0.2-22.8-0.2-33.7c-0.7-2.4-1.3-5.1-1.8-8.1c-0.3-1.8-0.4-4.8-0.5-6.5C50,199.4,57.2,199.2,64.1,199.2z"/>
				<path class="st9" d="M59.9,267.5l-18.6,0.3c0.1-1.5,0.5-2.3,0.9-2.6c0.1-0.1,0.4-0.4,0.7-0.8l0,0c2.3-0.7,10.4-2.7,14.3-0.9
					c0.3,0.1,0.5,0.3,0.7,0.4c0.9,0.6,1.3,1.2,1.5,1.4C59.8,266.1,59.9,266.8,59.9,267.5z"/>
				<path class="st10" d="M59.9,267.5c0,1.5-0.5,2.8-0.7,3.1c-6,0.1-11.9,0.2-17.9,0.4c-0.1-1.3-0.1-2.3,0-3.1L59.9,267.5z"/>
				<path class="st3" d="M42.9,199.4H43"/>
				<path class="st3" d="M64.1,199.4c-1,5.7-2.5,12.8-3.9,19.5c-1.6,8.1-2.4,11-3.3,16.4c-0.9,5.6-1.7,14-2,21v0.1"/>
			</g>
			<g>
				<path class="st0" d="M71.9,210.7c-0.4,14.9-0.8,29.9-1.1,44.8c0,0.1,0,0.3,0,0.4c-1.7,0.8-3.3,2-4.1,3.3
					c0.1-0.3,0.2-0.6,0.3-0.9s0.2-0.7,0.4-1.1c0.1-3.2,0.2-6.3,0.3-9.6c0.3-11.6,0.2-22.8-0.2-33.7c-0.7-2.4-1.3-5.1-1.8-8.2
					c-0.3-1.8-0.4-4.8-0.5-6.5c1.2,0,2.4,0,3.5,0c0.9,0,1.8,0,2.6,0C71.5,203,71.7,206.8,71.9,210.7z"/>
				<path class="st1" d="M86.2,199c-1,5.7-2.6,12.9-3.9,19.7c-1.6,8.1-2.4,11-3.3,16.4c-0.9,5.6-1.7,13.9-2,20.9v0.1
					c-0.5-0.4-0.9-0.7-1.5-0.9c-0.1,0-0.3-0.1-0.4-0.1c0-0.1,0-0.2,0-0.2c0.2-7,0.9-13,1.6-17.8c1.1-6.6,2.6-12.8,5.3-28.5
					c0.6-3.5,1.1-6.7,1.6-9.6c0.8,0,1.6,0,2.4,0C86,199,86.2,199,86.2,199z"/>
				<path class="st2" d="M83.6,199c-0.5,2.9-1,6.1-1.6,9.6c-2.7,15.7-4.2,21.9-5.3,28.5c-0.8,4.8-1.5,10.8-1.6,17.8
					c0,0.1,0,0.1,0,0.2c-1.3-0.3-2.8,0-4.3,0.7c0-0.1,0-0.3,0-0.4c0.4-15,0.8-29.9,1.1-44.8c-0.2-3.8-0.4-7.6-0.7-11.4
					C75.4,199.2,79.6,199.1,83.6,199L83.6,199z"/>
				<path class="st3" d="M79.9,263.6c0,0.1,0,0.1,0,0.2 M66.6,258.8c0.1-0.2,0.2-0.3,0.3-0.5c0.9-1.1,2.3-2.2,3.9-2.8
					c1.5-0.6,3-0.8,4.3-0.5c0.1,0,0.2,0.1,0.3,0.1c0.5,0.2,1,0.5,1.4,0.9c0,0,0.1,0.1,0.2,0.1 M63.3,267.5H63 M82.2,267.1h-0.3
					 M65,199.1L65,199.1c0-0.1,0-0.2,0-0.2 M64.8,264.1c-0.2,0.1-0.3,0.1-0.4,0.1"/>
				<path class="st9" d="M86.1,198.8c0,0.1,0,0.2,0,0.2c-0.8,0-1.6,0-2.4,0c-4.1,0-8.2,0.1-12.3,0.2c-0.9,0-1.8,0-2.6,0
					c-1.2,0-2.4,0-3.5,0c0.1,1.6,0.2,4.7,0.5,6.5c0.5,3,1.1,5.8,1.8,8.2c0.4,10.9,0.4,22.1,0.2,33.7c-0.1,3.2-0.2,6.4-0.3,9.6
					c-0.1,0.4-0.3,0.8-0.4,1.1c-0.1,0.3-0.2,0.6-0.3,0.9c0.8-1.3,2.4-2.5,4.1-3.3c1.5-0.6,3-1,4.3-0.7c0.1,0,0.3,0.1,0.4,0.1
					c0.5,0.2,1,0.5,1.5,0.9v-0.1c1.9,1.8,3.1,5.1,2.9,7.5c-0.2-0.1-0.5-0.3-0.7-0.4c-3.9-1.8-11.9,0.2-14.3,0.8
					c0.1-0.1,0.2-0.3,0.3-0.5c0.3-0.6,0.2-0.9,0.4-1.7c0.1-0.5,0.2-0.7,0.7-2c0.2-0.7,0.6-1.7,1-2.9c0.1-3.2,0.2-6.4,0.3-9.6
					c0.2-11.6,0.2-22.8-0.2-33.7c-0.7-2.4-1.3-5.1-1.8-8.1c-0.3-1.8-0.4-4.7-0.5-6.4c0.3,0,0.6,0,0.9,0h1.1
					C72.5,199.1,80.3,198.9,86.1,198.8L86.1,198.8z"/>
				<path class="st9" d="M81.9,267.1l-18.6,0.3c0.1-1.5,0.5-2.3,0.9-2.7c0.1-0.1,0.4-0.3,0.7-0.8c2.4-0.7,10.4-2.7,14.3-0.8
					c0.3,0.1,0.5,0.3,0.7,0.4c0.9,0.6,1.3,1.2,1.4,1.4C81.7,265.7,81.9,266.4,81.9,267.1z"/>
				<path class="st10" d="M81.9,267.1c0,1.5-0.5,2.8-0.7,3.1c-6,0.1-11.9,0.2-17.9,0.4c-0.1-1.3-0.1-2.3,0-3.1L81.9,267.1z"/>
				<path class="st3" d="M64.8,199h1c5.1,0,10.4-0.2,15.5-0.2h0.6c0.7,0,1.5,0,2.2,0c0.2,0,0.4,0,0.6,0H86l0,0"/>
				<path class="st3" d="M86,199c-1,5.7-2.5,12.8-3.9,19.5c-1.6,8.1-2.4,11-3.3,16.4c-0.9,5.6-1.7,14-2,21v0.1"/>
			</g>
		</g>
		<g>
			<g>
				<path class="st11" d="M70,115.4c-6.2,1.8-9.7,23.3-0.8,29c3,1.9,7.6,2.1,10.5,0c6.3-4.6,4.2-20.3-4-26.7
					C74.2,116.5,72.1,114.8,70,115.4z"/>
				<path class="st12" d="M69.2,97.5c-0.5,2.5-2.6,3.2-5.1,5.9c-2.1,2.2-4.5,5.8-5.7,11.8c0.3-0.9,0.8-1.6,1.5-2.1
					c-1.6,3.3-3.3,7.7-4.4,12.9c-0.5,2.4-0.9,4.8-1.2,6.9l0,0c-0.3,3-0.4,5.7-0.4,8c1.5,0.4,3.1,0.7,4.9,1c0,4.1,0.2,7.8,0.4,11.7
					H35c0.2-11.6,0.4-23.2,0.6-34.9c-0.5-10.4,2.7-20.4,8.9-28.1c4.8-1.3,10.6-2.6,15.4-2.7c0.9,0,2.7,0,4.5,1
					C67.5,90.4,69.8,94.3,69.2,97.5L69.2,97.5z"/>
				<path class="st12" d="M59.8,161c-8.3,0.1-16.6,0.2-25,0.4c0.1-2.6,0.1-5.2,0.1-7.8h24.3C59.4,155.9,59.6,158.3,59.8,161
					L59.8,161z"/>
				<path class="st13" d="M107.8,93.4c-0.2-0.1-0.5-0.2-0.8-0.3l0,0c-1.2-1.3-3.4-3.3-6.6-4.7c-1-0.4-9.5-4-15.5,0.6
					c-0.7,0.6-4,3-4.4,7.2c-0.5,5.3,3.8,8.8,4.2,9.1c1,0.8,2,1.6,2.9,2.4c1.7,1.4,3.4,2.8,5,4.2c1.7,11.5,3.4,23,5.1,34.5v7.2H72.6
					c0.2-3.3,0.4-7,0.7-11.2l0,0c0-0.2,0-0.4,0-0.5l0,0c0-2.2-0.1-4.3-0.1-6.5c-0.1-5.8-0.2-11.6-0.4-17.5
					c-0.2,3.1-0.5,9.7-0.9,17.6c-2,0.1-4.3,0.2-6.8-0.1c0-0.8-0.1-1.6-0.2-2.5c-0.5-3.7-1.3-6.9-0.6-10c0.4-1.7,0.5-3.4,0.8-5.1
					c0.2-0.9,0.3-1.4,0.2-2c-0.3-1.4-1.7-3.4-3.7-3.3c-0.6,0-1.2,0.2-1.6,0.6c-0.7,0.5-1.2,1.2-1.5,2.1c1.2-6,3.6-9.5,5.7-11.8
					c2.6-2.7,4.6-3.3,5.1-5.9c0.6-3.2-1.7-7.1-4.7-8.7c-1.9-1-3.6-1-4.5-1c-4.8,0.1-10.6,1.5-15.4,2.7c2.7-3.4,6-6.4,9.7-8.8
					c13.4-8.6,31-7.9,42.2-0.3C102.6,85.4,106.7,91.3,107.8,93.4z"/>
				<path class="st13" d="M71.9,135.4c-0.1,2.3-0.1,4.9-0.2,7.3c-1.9,0.1-4.2-0.1-6.5-0.2c0-3.8,0-5.4-0.1-7.2
					C67.6,135.5,69.9,135.5,71.9,135.4z"/>
				<path class="st13" d="M97.8,153.6v6.8l-25.5,0.4c0.1-2.2,0.2-4.6,0.3-7.2C72.6,153.6,97.8,153.6,97.8,153.6z"/>
				<path class="st13" d="M107,93.1c-1.6-0.4-4.4-0.5-6-1.5c-3.5-2.1-8.3-2.4-11.9-0.2c-1.1,0.7-3.5,2.1-4,4.5
					c-0.4,2.2,1.3,2.8,2.1,7.6c0.3,1.8,0.7,2.8,0.5,4.1c-1-0.8-1.9-1.6-2.9-2.4c-0.4-0.3-4.7-3.8-4.2-9.1c0.4-4.2,3.6-6.6,4.4-7.2
					c6.1-4.6,14.5-1,15.5-0.6C103.6,89.8,105.8,91.8,107,93.1L107,93.1z"/>
				<path class="st0" d="M68.7,191.9c0,6.2-0.8,11.5-1.5,15.6c-0.2,0.1-0.4,0.2-0.6,0.3c-0.9,0.3-2.2-0.4-2.8-0.8
					c-0.2,0.2-0.5,0.4-0.7,0.5s-1.9,1-2.9,0.2c-0.5-0.4-1.2-1.4-0.8-1.6c0.3-0.2,1.3,0,2.1-0.6c1.4-1,0.9-4,0.9-4.2
					c-0.3-1.4-0.8-1.4-1.1-2.8c-0.4-1.7-0.1-3.1,0.2-4.4c0.5-2.1,1.4-3.6,2-4.5c-1.4-8.3-2.6-17.3-3.4-27c0-0.6-0.1-1.1-0.1-1.7
					c2,0,4.1-0.1,6.1-0.1c0.2,3.2,0.4,5.8,0.6,7.7C67.8,183.5,68.8,184.2,68.7,191.9L68.7,191.9z"/>
				<path class="st1" d="M74.5,203.7c-0.1,0.6-0.1,2-0.8,2.6c-1.7-11-2.8-19.6-3-24.1c-0.2-3.6-0.2-7-0.2-7c0-3.5,0.1-6.2,0.2-7.4
					c0.2-3.2,0.2-4.5,0.2-7c0.4,0,0.9,0,1.3,0c-0.1,2.6-0.2,4.9-0.2,7.1c-0.2,8.5,0.5,19.5,1.7,29.3
					C74.1,200.2,74.7,202.8,74.5,203.7z"/>
				<path class="st2" d="M73.6,205.8c0,0-1.8,0.5-1.9,0.5c-0.7,0.5-0.4,0.5-0.8,0.5l0,0c-0.2,0.3-0.5,0.5-0.9,0.6
					c-0.9,0.3-1.9-0.2-2.4-0.5c-0.1,0.2-0.3,0.4-0.5,0.5c0.8-4.1,1.5-9.4,1.5-15.6c0.1-7.7-1-8.4-2.2-23.2c-0.2-1.9-0.4-4.6-0.6-7.7
					c1.7,0,3.3,0,5-0.1c-0.1,2.5-0.1,3.8-0.2,7c-0.1,1.2-0.2,3.8-0.2,7.4c0,0,0.1,3.1,0.6,6.7C71.7,186.6,73.2,195.3,73.6,205.8z"/>
				<path class="st12" d="M64.9,132.8c0.1,1,0.2,1.8,0.2,2.5c-0.6,0-1.2-0.1-1.9-0.2c-3.5-0.5-6.5-1.4-8.9-2.3
					c0.2-2.2,0.6-4.5,1.2-6.9c1.2-5.2,2.9-9.6,4.4-12.9c0.5-0.3,1.1-0.5,1.6-0.6c2-0.1,3.4,1.9,3.7,3.3c0.1,0.6,0,1-0.2,2
					c-0.3,1.7-0.5,3.4-0.8,5.1C63.6,125.9,64.4,129,64.9,132.8L64.9,132.8z"/>
				<path class="st12" d="M65.2,142.5c-0.3,0-0.7,0-1-0.1c-1.9-0.1-3.7-0.3-5.3-0.6c-1.8-0.3-3.4-0.7-4.9-1c0-2.3,0-5,0.4-8l0,0
					c2.4,0.9,5.4,1.8,8.9,2.3c0.6,0.1,1.3,0.2,1.9,0.2C65.2,137.1,65.2,138.8,65.2,142.5z"/>
				<path class="st3" d="M108.5,94.1c0.2-0.2-4.2-7.9-11.6-12.9c-11.2-7.5-28.7-8.3-42.4,0.4c-12.3,7.8-19.3,22-18.5,36.9
					c-0.3,14.2-0.5,28.4-0.8,42.7c21-0.3,41.9-0.6,62.9-0.9v-14c-1.7-11.5-3.4-23-5.1-34.5c-2.7-2.2-5.3-4.4-8-6.6
					c-0.4-0.3-4.7-3.8-4.2-9.1c0.4-4.2,3.6-6.6,4.4-7.2c6.1-4.6,14.5-1,15.5-0.6C105.8,90.4,108.4,94.2,108.5,94.1z"/>
				<path class="st3" d="M108.4,93.5c-0.6-1-4.9-0.7-7.1-2c-3.5-2.1-8.3-2.4-11.9-0.2c-1.1,0.7-3.5,2.1-4,4.5
					c-0.4,2.2,1.3,2.8,2.1,7.6c0.3,1.9,0.7,2.9,0.4,4.3"/>
				<line class="st3" x1="34.8" y1="153.4" x2="98.5" y2="153.4"/>
				<path class="st3" d="M60.5,112.3c-1.6,3.4-3.4,7.9-4.7,13.4c-1.3,5.8-1.6,11-1.5,14.9c2.8,0.7,6.3,1.4,10.2,1.6
					c3.4,0.2,6.5,0.1,9.1-0.1c-0.2-8.2-0.3-16.3-0.5-24.5"/>
				<path class="st3" d="M54.6,132.6L54.6,132.6c2.4,0.9,5.4,1.8,8.9,2.3c3.8,0.5,7.1,0.5,9.9,0.2"/>
				<path class="st3" d="M59.2,141.3c0,7.2,0.5,13,1.1,21.2c0.8,9.7,2,18.7,3.4,27c-0.6,0.9-1.5,2.4-2,4.5c-0.3,1.2-0.6,2.7-0.2,4.4
					c0.4,1.5,0.9,1.4,1.1,2.8c0,0.1,0.6,3.2-0.9,4.2c-0.8,0.6-1.8,0.4-2.1,0.6c-0.4,0.2,0.3,1.2,0.8,1.6c1.1,0.8,2.7-0.1,2.9-0.2
					c1.7-0.9,1.9-2.6,2.1-3.3c0.4-1.7,0.1-3.2-0.1-3.7"/>
				<path class="st3" d="M73.6,141.5c-0.8,11.8-1.1,19.8-1.2,26.2c-0.2,8.5,0.5,19.5,1.7,29.3c0.4,3.1,0.9,5.7,0.7,6.6
					c-0.1,0.6-0.3,2.1-1.1,2.6c-0.8,0.5-2.2,0.6-2.6,0.5"/>
				<path class="st3" d="M71.8,199.5c0.3,1.4,0.4,3.4,0.3,4.5c-0.1,1-0.3,2.7-1.7,3.2c-1,0.3-2.2-0.4-2.5-0.6"/>
				<path class="st3" d="M68.9,200.1c0.4,1.2,0.2,3.4,0,4.5c-0.2,1-0.6,2.6-2,3c-1,0.3-2.6-0.7-2.9-0.9"/>
				<g>
					<path class="st3" d="M117,181.3"/>
				</g>
				<path class="st0" d="M66.8,161.2c-2,0-4,0.2-6.1,0.2c-0.2-2.7-0.4-5.2-0.6-7.5c-0.3-3.9-0.4-7.6-0.4-11.7
					c1.6,0.3,3.3,0.4,5.2,0.6c0.3,0,0.8,0,1.2,0.1c0,0.8,0,1.6,0,2.6C66.2,151.4,66.5,156.8,66.8,161.2z"/>
				<path class="st2" d="M71.6,142.8c-0.1,2.6-0.2,5.7-0.3,8.4c-0.2,5.4-0.3,8.2-0.3,10.3c-1.7,0-3.3,0-5,0.1
					c-0.3-4.4-0.6-9.8-0.7-15.8c0-0.9-0.1-2.2-0.1-2.9C67.5,142.9,69.7,142.9,71.6,142.8z"/>
				<path class="st1" d="M73,142.7c-0.3,4.2-0.5,7.9-0.7,11.2c-0.1,2.6-0.2,5.3-0.3,7.5c-0.5,0-0.7,0.3-1.2,0.3c0-2,0-5.4,0.2-10.8
					c0.1-2.7,0.2-5.5,0.3-8.1C71.9,142.8,72.5,142.8,73,142.7z"/>
			</g>
			<g>
				<path class="st14" d="M86,99.7c-3.9-14.9,15.7-13.6,19.4-4.8"/>
				<g>
					<g>
						<path class="st15" d="M130,135.2c-0.4,2.5-1.3,4.2-2.2,4.7c0.1-1.1-1-3.9-2-4.8c-0.6,1.6-1.6,7.7-1.3,8.2
							c-0.8-0.6-3-5.2-3.2-6.2c0.3,2.4-2.4,9-5,10.9c0.4-1.4-0.4-5.2-1.4-6.4c-0.1,2.4-2.7,7.7-4.7,9.3c0.2-1.5-1.5-5-2.6-5.7
							c-0.3,2.3-3.9,7-5.9,7.8c0.6-2-0.8-8-2.7-9.8c-1.4,0.9-3.3,4-3.4,5.4c-2.7-1.2-5.2-8.4-4.4-10.2c-2.1,0.3-6,3.9-6.4,5.7
							c-0.9-4.5-1.1-8.7-1-13.2c-6.2-7.1-5-16.8-0.9-26.4c3.8-4.5,10.4-9.8,15.7-7.2c4.6,1.3-0.8,20.1,1.4,22.4
							c3.1,6.2,14.2,6.5,13.4-1.7c2.6,0.7,3.9,6.3,2.9,7.5c2.3,0.2,4.4-2.3,4.1-4.8c1.1,1.7,2.2,5.3,2.4,7.5
							c0.9-0.3,2.7-3.8,2.1-5.3C127.1,126.2,129.2,131.2,130,135.2L130,135.2z"/>
						<path class="st16" d="M129.3,135c-0.2,2-0.5,3.9-0.9,5.5c-0.8-3.5-2.9-8.2-4.9-11.1c0.6,1.5-1.2,5-2.1,5.3
							c-0.1-2.2-1.3-5.7-2.4-7.5c0.4,2.6-1.8,5-4.1,4.8c0.9-1.2-0.3-6.7-2.9-7.5c0.9,8.2-10.2,7.9-13.4,1.7
							c-1.3-2.5-0.6-4.3,0.3-11.5c3.4-18.2-11.2-11.6-17.4-3.7c1-1.8,2.3-3.6,4.1-5.2c3.4-3.1,4.7-9.3,7-10
							C120.8,85.2,135.3,106,129.3,135z"/>
						<path class="st3" d="M129.1,137.5c1.9-10.7,3.1-28.1-6.2-38.4c-14.1-11.2-29.4-5-36.5,0.6c-8.8,8.4-9.9,25.7-2.7,31.9"/>
						<path class="st17" d="M83.6,122.9c-0.3,8.3-0.7,14.4,0.7,21.7c0.4-1.8,4.4-5.5,6.5-5.8c-0.8,1.8,1.6,8.9,4.4,10.2
							c0.2-1.4,2-4.5,3.4-5.4c1.9,1.8,3.3,7.8,2.7,9.8c2-0.8,5.6-5.5,5.9-7.8c1.1,0.7,2.8,4.1,2.6,5.7c2-1.6,4.6-6.9,4.7-9.3
							c1.1,1.3,1.9,5.1,1.5,6.4c2.6-1.9,5.3-8.5,5-10.9c0.2,1,2.4,5.6,3.2,6.2c-0.2-0.5,0.7-6.6,1.3-8.1c1,0.9,2.1,3.7,2,4.8
							c1.3-0.7,2.6-3.9,2.5-8.1"/>
					</g>
					<path class="st18" d="M89,106.6c-3-6.4,2.7-11.5,8.4-8.9"/>
					<path class="st19" d="M97.8,97.9c-5.4-2.6-11.6,1.9-8.6,8.9"/>
					<path class="st16" d="M129.4,137.3c2.5-5.9-0.3-11.9-0.9-18.2c-2.3,1.7-4.3,3.8-6,6.1c0.6,7.4,1.4,13.8-3.3,22l0,0
						c-4.1,4.6-1.9,11.9,3.1,13.4c0.2-1.8,0.4-3.7,0.6-5.5c0.7,4.7,8.8,8.6,11.6,7.6C126.5,156.9,128.4,142.2,129.4,137.3z"/>
					<path class="st15" d="M90.5,161.8c7.6-16.3,0.6-23.5,1-33.5c0.1-3.5-4-8.2-2.8-12.6c-1,0.4-2.1,0.8-3.1,1
						c-2.1,2.4-2.8,5.7-3.3,8.4c0.1,0.5-1,1.3-1.1,1.9l0,0c-0.3,2.7-0.6,5.4-1,8.1c-0.1,0-0.1-0.1-0.2-0.1c0.2,3,0,9.2,1.6,10.2
						c0.1,0.1-0.1,2.8,0,2.9c1.9,7.3,0.5,11.9-3.5,15c1,0.2,4.7-0.6,6.2-0.8c1.3-1.6,4.7-4.3,5.6-5.8"/>
					<g>
						<path class="st20" d="M83.5,121.1c0.2,0.4,0.1,0.7,0,1c-0.3,0.8-0.6,1.6-0.8,2.4c-2.7,7.7-2,16-0.4,23.9l0,0l0,0
							c0,0-0.1,0-0.4,0.1c-0.3,0.1-0.4,0.1-0.4,0c-2.2-8.4-2.8-17.9,0.9-26C82.7,122,82.7,121.3,83.5,121.1L83.5,121.1L83.5,121.1z"
							/>
						<path class="st20" d="M81.9,147.8c0.8,1.3,0.7,2.8,0.9,4.2c0.3,4.3-0.8,9-4.3,11.9l-0.3-1c2.3,0.1,4.7-0.6,6.6-1.8
							c2-1.2,3.6-3,4.5-5.2l1-2.4v2.6l0.1,6.6l-1-0.2c2.6-5.3,5.7-11.4,3.4-17.3c-0.7-1.9-1.4-3.9-1.8-6c-1.6-8.1,0.7-17,6.3-23.1
							l0.1-0.1l0.1-0.1l0,0c0,0,0,0,0.3,0.2c0.2,0.2,0.3,0.3,0.2,0.3l0,0c-0.2,0.3-0.6,0.8-0.9,1.1c-4.9,5.9-6.7,14-5.2,21.5
							c0.7,4.1,3.3,7.9,2.6,12.2c-0.6,5-3,9.4-5.2,13.8v-2.2l-0.1-6.6l1,0.2c-2.2,5.3-8,8.3-13.6,7.6l1.1-0.9c3.2-2.7,4.3-7,4.2-11
							C82,150.6,81.7,149.2,81.9,147.8L81.9,147.8L81.9,147.8z"/>
						<path class="st20" d="M122.9,126.8c2.8,5.2-0.8,13-2.6,18c-2.1,5.3-5.1,12.6,1.9,15.3l-0.8,0.4c0.2-1.8,0.7-6.3,0.8-8l0.8,2.4
							c1.4,4.6,6.2,7.6,11,7.2l-0.3,0.9c-1.4-1.3-2.6-2.7-3.6-4.3c-7-11.7,3.1-25.5-2.2-37.6l-0.1-0.2v-0.1c0,0-0.2,0,0.3-0.2
							c0.5-0.2,0.3-0.1,0.4-0.1c0.1,0.1,0.2,0.4,0.2,0.6c6,13.5-7.2,29.9,5.7,41.1l0.9,0.8l-1.2,0.1c-5.2,0.5-10.5-2.9-12.1-7.9
							l1-0.1c0,0.3-0.6,6.1-0.6,6.2c-1.7-0.7-3.4-1.6-4.6-3.2c-4-5.8,3.2-16.1,4.5-22.4C123.2,132.8,123.1,129.9,122.9,126.8
							L122.9,126.8L122.9,126.8z"/>
						<path class="st20" d="M90.9,119.3c-8.7,14.5,6.6,28.3,0.1,42.9l-0.9-0.4C96.7,147.5,81.9,133.6,90.9,119.3L90.9,119.3
							L90.9,119.3z"/>
						<path class="st20" d="M85.8,128c-5.6,11.1,2.4,23.5-1.9,34.8l-0.6-0.2C87.8,151.4,80,138.9,85.8,128L85.8,128z"/>
						<path class="st3" d="M123,127.1c0.2,10.8,0.5,11-4.6,20.8"/>
					</g>
					<path class="st16" d="M85.1,122.9c-0.1,10.8-0.9,12.8-4.2,21.7c-1.2-4.6-0.6-13.1,0.8-16.9c-2.7,3.9-4.5,18-1.1,24.5
						c-17.2-4-16.7-17.9-6.7-31.5c1.6-2,2.3-13.8,5.9-21.6c1.4-1.8,7.7-5.3,12.4-2.1c-2.1,1.6-3.6,2-4.4,5.3
						C84.5,108.2,83.6,115.1,85.1,122.9z"/>
					<path class="st19" d="M93.3,97.3c-5.8-4.1-11.6,0-13.1,1.8c-3.6,7.8-4.3,19.6-5.9,21.6c-10.1,13.6-10.5,27.5,6.7,31.5
						c-3.4-6.5-1.6-20.6,1.1-24.5c-1.4,3.9-2,12.3-0.8,16.9c3.2-8.9,4-10.9,4.1-21.7c-1.5-8-0.5-14.8,3-20.7"/>
				</g>
				<g>
					<line class="st3" x1="109.8" y1="85.1" x2="110" y2="104.1"/>
					<line class="st3" x1="113.9" y1="80.2" x2="113.9" y2="114.4"/>
					<line class="st3" x1="118.1" y1="88.4" x2="118.2" y2="109.9"/>
					<line class="st3" x1="122" y1="93.8" x2="122" y2="115.7"/>
					<line class="st3" x1="125.9" y1="84.9" x2="126.2" y2="113.2"/>
					<path class="st21" d="M130.8,89.6c4.9,7.6,9.2,15.4,0.4,18C119.6,107,126.4,94.4,130.8,89.6z"/>
				</g>
			</g>
		</g>
	</g>
</g>
</svg>
