<?xml version="1.0" encoding="UTF-8"?>
<svg id="Layer_2" data-name="Layer 2" xmlns="http://www.w3.org/2000/svg" viewBox="0 0 91.37677 265.29026">
  <defs>
    <style>
      .cls-1 {
        stroke-dasharray: 0 0 3.05346 3.05346;
      }

      .cls-1, .cls-2, .cls-3, .cls-4, .cls-5, .cls-6, .cls-7, .cls-8, .cls-9, .cls-10, .cls-11, .cls-12, .cls-13, .cls-14, .cls-15 {
        stroke: #4e381a;
        stroke-miterlimit: 10;
      }

      .cls-1, .cls-2, .cls-4, .cls-8, .cls-9, .cls-10, .cls-13, .cls-16 {
        fill: none;
      }

      .cls-2 {
        stroke-dasharray: 0 3;
      }

      .cls-17, .cls-12 {
        fill: #4e381a;
      }

      .cls-3, .cls-6 {
        stroke-width: .83495px;
      }

      .cls-3, .cls-18 {
        fill: #ca9b71;
      }

      .cls-19 {
        fill: #d7d4cf;
      }

      .cls-5 {
        stroke-width: .83497px;
      }

      .cls-5, .cls-6, .cls-7, .cls-20 {
        fill: #e0ae84;
      }

      .cls-8 {
        stroke-width: .90042px;
      }

      .cls-9, .cls-15 {
        stroke-width: 1.00646px;
      }

      .cls-10 {
        stroke-width: .98466px;
      }

      .cls-21 {
        fill: #a0bdb1;
      }

      .cls-11 {
        fill: #e6e7e8;
      }

      .cls-22 {
        fill: #bc6d65;
      }

      .cls-13 {
        stroke-width: 1.00134px;
      }

      .cls-23 {
        fill: #525246;
      }

      .cls-24, .cls-14 {
        fill: #f1f2f2;
      }

      .cls-25 {
        fill: #c9e2da;
      }

      .cls-26 {
        fill: #bac157;
      }

      .cls-15 {
        fill: #f0efef;
      }

      .cls-27 {
        fill: #eac4a0;
      }

      .cls-28 {
        fill: #5a5c5d;
      }

      .cls-29 {
        fill: #acd5cb;
      }
    </style>
  </defs>
  <g id="Layer_1-2" data-name="Layer 1">
    <g>
      <path class="cls-4" d="m55.68906,65.73312c0,2.05263.07626,1.30112-.18948,3.37897-.28375,2.21866-.46838,3.66223-1.51578,5.02106-1.88126,2.44067-5.06387,2.68515-5.87369,2.74734-.54929.04221-3.78806.23911-6.63159-2.0842-.77637-.63431-1.95788-2.11581-2.65262-3.31581"/>
      <g>
        <path class="cls-21" d="m53.18482,139.03598c-5.79999-.03998-11.60999-.08002-17.41003-.10999h-.12c-4.12-.03003-8.25-.06-12.37-.08002l.42999,12.46002.01001.27997,1.04004,30.27002v.07001l.37,10.69v.07996l.00995.25c.87006-.00995,1.75-.01996,2.63-.02997,4.01001-.03998,8.17004-.07001,12.36005-.10999,2.27997-.02002,4.57001-.04004,6.87-.05005.28998-.00995.58997-.00995.88-.00995,0-.02002-.01001-.05005-.01001-.07001,0-.04004-.01001-.08002-.01001-.12-1.97003-15.61005-.32001-24.57001,1.73999-29.98004.51001-1.32996,2-4.94995,2.94-10.13.97998-5.44.91003-10.10999.64001-13.40997Zm-26.67999,6.08002v-.25c-.01001-.66003-.03003-1.27002-.04999-1.80005,2.26996.01001,3.96997-.00995,6.15997,0h.21997c-.16998.57001-.39996,1.18005-.69,1.80005-.03998.07996-.07996.16998-.12.25-.63995,1.31-1.57996,2.65997-2.95996,3.82996-.81.70001-1.66003,1.23004-2.46002,1.62,0-.09998-.01001-.20996-.01001-.31995-.02997-1.5-.06-3.43005-.08997-5.13Z"/>
        <path class="cls-21" d="m32.83736,143.06349c-.19.64996-.46002,1.34998-.81,2.04999h-5.52002c-.01001-.75-.03003-1.45001-.04999-2.04999,2.34998.01001,4.07996-.01001,6.38,0Z"/>
        <path class="cls-21" d="m32.02737,145.11348c-.64001,1.31-1.58002,2.66003-2.96002,3.83002-.81.70001-1.66003,1.22998-2.46002,1.62-.03998-1.53998-.07001-3.63-.09998-5.45001h5.52002Z"/>
        <path class="cls-21" d="m25.24037,192.61672c-.88798,0-1.77588.00993-2.64905.00993-.76948.00993-1.53905.00993-2.30861.01987.02963-.97254.04444-2.49095,0-4.32688-.23674-8.95153-1.84985-15.5808-2.24936-17.29765-1.1987-5.32922-1.15208-14.57525-.30853-32.09126,2.07178.00993,3.04628-.04288,5.11815-.03295l2.3974,53.71894Z"/>
        <path class="cls-29" d="m73.6648,156.16599c-.46997,14.08002-.16998,26.20001-3.16998,36.23999v.02002c-.54999.01001-1.14001.01001-1.73999.01996-.21002,0-.42004.01001-.64001.01001-5.83002.08002-13.54999.25-19.16998.29004h-1.06c0-.02002-.01001-.05005-.01001-.07001,0-.04004-.01001-.08002-.01001-.12-1.97003-15.61005-.32001-24.57001,1.73999-29.98004.51001-1.32996,2-4.94995,2.94-10.13.97998-5.44.91003-10.10999.64001-13.40997,6.67999.03998,13.35999.08002,20.03998.12.45001,5.22998.65002,10.91998.44,17.01001Z"/>
        <path class="cls-25" d="m76.27218,169.53073c-1.09998,8.66998-.49365,15.65159-2.27368,22.83158-.85999.01001-4.39368.16945-5.27368.18947,3-10.04004,4.47254-22.29829,4.94251-36.38832.21002-6.08997.01001-11.77997-.44-17.01001.84003.01001,1.69.01001,2.53003.02002.85999,12.25,1.41485,23.22725.51483,30.35726Z"/>
        <path class="cls-4" d="m74.47218,192.83599c.81442-8.75503,1.3517-12.83584,1.51579-24.15789.09474-6.53684.4806-17.50408-.37894-29.74737-19.38948-.12631-38.77895-.25262-58.16843-.37894-.56924,17.65225.12979,27.03885.94737,32.39999.2645,1.73441,1.35921,8.41006,1.51578,17.43158.03224,1.85736.01715,3.37894,0,4.35788,15.66316-.18948,39.09474-.18946,54.7579-.37894"/>
        <line class="cls-4" x1="23.12481" y1="138.10968" x2="25.01955" y2="193.18336"/>
        <g>
          <line class="cls-4" x1="21.60901" y1="137.85705" x2="21.65387" y2="139.35638"/>
          <line class="cls-1" x1="21.74518" y1="142.40844" x2="23.16059" y2="189.7159"/>
          <line class="cls-4" x1="23.20624" y1="191.2419" x2="23.2511" y2="192.74123"/>
        </g>
        <path class="cls-2" d="m24.00902,154.40443c1.36337-.30646,5.10287-1.33829,8.08421-4.80002,4.20294-4.88019,3.59363-10.75146,3.47368-11.74738"/>
        <path class="cls-4" d="m23.10194,151.43086c1.27415-.23419,3.62764-.85901,5.82243-2.73213,4.20946-3.59253,4.37973-8.82792,4.39449-9.73037"/>
        <path class="cls-4" d="m26.47218,150.55178c-.07368-2.16843-.08421-5.56841-.15789-7.73683,2.47368.01053,4.25263-.01054,6.72631,0"/>
        <line class="cls-4" x1="25.90376" y1="144.86757" x2="32.31428" y2="144.86757"/>
      </g>
      <g>
        <g>
          <path class="cls-18" d="m27.91547,204.84016c-.38,14.94-.75,29.88-1.13,44.83002,0,.13-.01001.26001-.01001.39001-1.73999.75-3.34003,1.96997-4.15002,3.26996.09003-.26996.19-.56.29999-.87.12-.32996.25-.69.38-1.07996.12-3.16003.21002-6.35004.28003-9.56.26001-11.59003.17999-22.84003-.19-33.73004-.70001-2.39996-1.34003-5.13-1.79999-8.14996-.27002-1.80005-.41003-4.84003-.51001-6.49005,1.16998,0,2.34998-.00995,3.53998-.01996.87-.01001,1.75-.02002,2.63-.03003.22003,3.81.44,7.63.66003,11.44Z"/>
          <path class="cls-27" d="m42.20545,193.22016c-.98999,5.71002-2.54999,12.89001-3.92999,19.70001-1.64001,8.06-2.40002,11.02997-3.29004,16.41998-.92999,5.60999-1.67999,13.90002-2.02997,20.90002-.01001.03998-.01001.07001-.01001.10999-.45001-.40002-.94-.69-1.45001-.85999-.13995-.04004-.27997-.08002-.41998-.10999,0-.07001,0-.15002.01001-.22003.16998-7.02997.85999-12.96997,1.63-17.79999,1.07001-6.60999,2.60999-12.84998,5.31-28.53998.59998-3.49005,1.12-6.70001,1.58002-9.59003.81-.01001,1.62-.01001,2.41998-.01001h.17999Z"/>
          <path class="cls-20" d="m39.60547,193.23017c-.46002,2.89001-.98004,6.09998-1.58002,9.59003-2.70001,15.69-4.23999,21.92999-5.31,28.53998-.77002,4.83002-1.46002,10.77002-1.63,17.79999-.01001.07001-.01001.15002-.01001.22003-1.27002-.27002-2.83002.02997-4.29999.67999,0-.13.01001-.26001.01001-.39001.38-14.95001.75-29.89001,1.13-44.83002-.22003-3.81-.44-7.63-.66003-11.44,4.10999-.04999,8.27002-.13995,12.35004-.16998Z"/>
          <path class="cls-4" d="m35.82544,257.78019c-.01.06-.01.12-.02.18m-13.21-5.02c.1-.16.21-.32.33-.48.88-1.15,2.31-2.16,3.86-2.79,1.47-.59,3.03-.84,4.3-.51.09.02.18.05.27.08.51.17,1,.47,1.45.87.05.03.1.07.15.13m-13.73,11.41h-.26m19.17-.33h-.27m-16.92-68.11c-.01-.04-.01-.07-.01-.1m-.12,65.14c-.18.05-.32.09-.43.12"/>
          <path class="cls-14" d="m42.06543,192.97016c-.01001.08002-.02997.16003-.03998.25-.79999,0-1.60999,0-2.41998.01001-4.08002.03003-8.24005.12-12.35004.16998-.88.01001-1.76001.02002-2.63.03003-1.19.01001-2.37.01996-3.53998.01996.09998,1.65002.23999,4.69.51001,6.49005.45996,3.01996,1.09998,5.75,1.79999,8.14996.37,10.89001.45001,22.14001.19,33.73004-.07001,3.20996-.16003,6.39996-.28003,9.56-.13.38995-.26001.75-.38,1.07996-.10999.31-.20996.60004-.29999.87.81-1.29999,2.41003-2.51996,4.15002-3.26996,1.46997-.65002,3.02997-.95001,4.29999-.67999.14001.02997.28003.06995.41998.10999.51001.16998,1,.45996,1.45001.85999,0-.03998,0-.07001.01001-.10999,1.90997,1.75,3.10999,5.14001,2.87,7.53998-.21002-.13-.46002-.26001-.72998-.39001-3.90002-1.82996-11.94.19-14.28003.85004.09003-.14001.17999-.29004.26001-.47003.27002-.57996.22998-.94.38-1.70996.10999-.52002.20001-.72003.65997-1.98004.25-.67999.61005-1.66998,1.05005-2.94.12-3.15997.20996-6.34998.27997-9.56995.25-11.59003.16998-22.84003-.19-33.73004-.70001-2.39996-1.33997-5.12-1.79999-8.14001-.27002-1.79999-.40002-4.83997-.51001-6.48999,6.94,0,14.17999-.23999,21.12-.23999Z"/>
          <path class="cls-14" d="m37.86542,261.3202l-18.63995.32996c.12-1.51996.50995-2.26996.90997-2.64996.10999-.10004.40002-.35004.67999-.75v-.01001c2.34003-.66003,10.38-2.67999,14.28003-.85004.26996.13.51996.26001.72998.39001.90997.58002,1.29999,1.16998,1.45001,1.41003.40997.69.57001,1.42999.58997,2.13Z"/>
          <path class="cls-11" d="m37.86542,261.3202c.03003,1.45996-.53998,2.75995-.67999,3.07996-5.96997.13-11.94.25-17.90997.38-.10999-1.29999-.12-2.32001-.04999-3.13l18.63995-.32996Z"/>
          <path class="cls-4" d="m20.79544,193.21019h.15"/>
          <path class="cls-4" d="m42.02544,193.22019c-.99,5.67-2.53,12.75-3.89,19.46-1.64,8.06-2.4,11.02-3.29,16.42-.93,5.64-1.69,13.99-2.04,21.01v.08"/>
        </g>
        <g>
          <path class="cls-18" d="m49.87543,204.44019c-.38,14.94-.75,29.87-1.13,44.82001,0,.12994-.01001.26996-.01001.39996-1.73999.75-3.33997,1.97003-4.14996,3.27002.08997-.27002.19-.56.29999-.87.12-.33002.25-.69.38-1.08002.12-3.15997.21002-6.34998.27997-9.56.26001-11.59003.18005-22.84003-.18994-33.72998-.70001-2.40002-1.34003-5.13-1.80005-8.15002-.26996-1.79999-.40997-4.84003-.51001-6.48999,1.17004,0,2.35004-.01001,3.54004-.02002.87-.01001,1.75-.01996,2.63-.02997.21997,3.81.44,7.63.65997,11.44Z"/>
          <path class="cls-27" d="m64.16547,192.8202c-.99005,5.70996-2.55005,12.88995-3.93005,19.69995-1.63995,8.06-2.39996,11.03003-3.28998,16.42004-.92999,5.60999-1.67999,13.89996-2.02997,20.89996-.01001.04004-.01001.07001-.01001.10999-.45001-.39996-.94-.68994-1.45001-.85999-.14001-.03998-.28003-.07996-.41998-.10999,0-.07001,0-.15002.00995-.21997.17004-7.03003.86005-12.97003,1.63-17.80005,1.07001-6.60999,2.61005-12.84998,5.31-28.53998.60004-3.48999,1.12006-6.70001,1.58002-9.59003.81-.00995,1.60999-.00995,2.41003-.00995h.19Z"/>
          <path class="cls-20" d="m61.56543,192.83015c-.45996,2.89001-.97998,6.10004-1.58002,9.59003-2.69995,15.69-4.23999,21.92999-5.31,28.53998-.76996,4.83002-1.45996,10.77002-1.63,17.80005-.00995.06995-.00995.14996-.00995.21997-1.27002-.27002-2.83002.03003-4.30005.67999,0-.13.01001-.27002.01001-.39996.38-14.95001.75-29.88,1.13-44.82001-.21997-3.81-.44-7.63-.65997-11.44,4.10999-.05005,8.26996-.14001,12.34998-.17004Z"/>
          <path class="cls-4" d="m57.78544,257.38019c-.01.06-.01.12-.02.18m-13.21-5.02c.1-.16.21-.32.33-.48.88-1.15,2.31-2.17,3.86-2.8,1.47-.58,3.03-.83,4.3-.5.09.02.18.05.27.08.51.17.99.47,1.44.86.05.03.11.08.16.14m-13.73,11.41h-.27m19.17-.33h-.26m-16.92-68.03v-.08c-.01-.04-.01-.07-.01-.1m-.12,65.13c-.18.05-.33.1-.44.13"/>
          <path class="cls-14" d="m64.01545,192.59016c-.02002.08002-.03003.15002-.03998.23004-.80005,0-1.60004,0-2.41003.00995-4.08002.03003-8.23999.12-12.34998.17004-.88.01001-1.76001.01996-2.63.02997-1.19.01001-2.37.02002-3.54004.02002.10004,1.64996.24005,4.69.51001,6.48999.46002,3.02002,1.10004,5.75,1.80005,8.15002.37,10.88995.44995,22.13995.18994,33.72998-.06995,3.21002-.15997,6.40002-.27997,9.56-.13.39001-.26001.75-.38,1.08002-.10999.31-.21002.59998-.29999.87.81-1.29999,2.40997-2.52002,4.14996-3.27002,1.47003-.64996,3.03003-.95001,4.30005-.67999.13995.03003.27997.07001.41998.10999.51001.17004,1,.46002,1.45001.85999,0-.03998,0-.06995.01001-.10999,1.90997,1.75,3.10999,5.14001,2.87,7.54004-.21002-.13-.46002-.26001-.73004-.39001-3.89996-1.83002-11.91998.19-14.27997.84998.08997-.14001.17999-.28998.26001-.46997.26996-.58002.21997-.94.38-1.70001.09998-.53003.19995-.72998.65997-1.98999.25-.67999.60999-1.66998,1.03998-2.94.12-3.16003.22003-6.35004.29004-9.57001.25-11.59003.16998-22.84003-.19-33.72998-.70001-2.40002-1.34003-5.12-1.79999-8.14001-.27002-1.78003-.40002-4.73999-.51001-6.41003.28998-.00995.58997-.00995.88-.00995h1.06c5.62-.04004,13.33997-.21002,19.16998-.29004Z"/>
          <path class="cls-14" d="m59.82544,260.92017l-18.64001.33002c.10999-1.53003.5-2.27002.90002-2.65002.10999-.10999.40997-.34998.69-.76001,2.35999-.65997,10.38-2.67999,14.27997-.84998.27002.13.52002.26001.73004.39001.90997.57996,1.29999,1.16998,1.44995,1.40997.41003.69.57001,1.42999.59003,2.13Z"/>
          <path class="cls-11" d="m59.82544,260.92017c.03003,1.46002-.53998,2.76001-.69,3.08002-5.96002.13-11.92999.25-17.90002.38-.10999-1.30005-.12-2.33002-.04999-3.13l18.64001-.33002Z"/>
          <path class="cls-4" d="m42.75544,192.81019h1.02c5.11-.02,10.38-.15,15.55-.21h.6c.73-.01,1.45-.02,2.17-.02.2-.01.41-.01.61-.01h1.31v.02"/>
          <path class="cls-4" d="m63.97544,192.82019c-.98,5.67-2.53,12.75-3.89,19.46-1.64,8.06-2.4,11.02-3.28,16.42-.93,5.64-1.69,13.98-2.05,21v.09"/>
        </g>
      </g>
      <path class="cls-24" d="m68.15808,55.35053c-.08997.04004-.08997-.00995-.09998-.01996-3.20001-.04999-6.73999-.07001-10.19-.09003-.62-.01001-1.22998-.02002-1.83002-.02002-.57001,0-1.12-.00995-1.66998-.01996-.53998-.01001-1.06-.01001-1.57001-.02002-.41998-.95001-.69-1.94-.85999-2.83997,5.14001.15997,10.96997.33997,16.21997.5.04999.70996-.07996,1.85999,0,2.50995Z"/>
      <path class="cls-22" d="m65.07602,55.45387c-2.38-.02002-4.87-.03998-7.31995-.04999,2.42999.03998,4.91998.08997,7.06995.15997-.38,1.23004-1.27997,3.16003-1.67999,4.42999-2.25.27002-5.13.19-7.32001-1.25995-1.35999-.91003-2.25-2.22003-2.84998-3.60004.51001.01001,1.03998.02002,1.57001.02002.54999.01001,1.09998.01996,1.66998.01996.60004,0,1.21002.01001,1.83002.02002,2.42999.04004,4.91998.09003,7.07001.16003-.01001.02997-.02002.06-.04004.09998Z"/>
      <g>
        <path class="cls-20" d="m72.49482,37.04233c-.59998,0-1.25-.07001-1.92999-.25-3.92999-1-5.51001-4.60999-5.69-5.04999.21002,1.75.42004,3.5.62,5.25v.00995c.01001.02002.01001.03003.01001.05005-.41998.02997-1.54999.09998-3.01996-.12h-.01001c-1.97003-.27002-4.56-1.03003-6.95001-3.04004-3.34003-2.82001-4.28003-6.39001-4.53998-7.58002-3.05005,3.03003-4.62006,5.98004-5.43005,7.83002-.39996.90002-4.20996,9.91998-.88995,19.58002.85999,2.47998,1.75,3.76001,2.35999,5.44,2.58002,1.58997,5.69,3.04999,9.33002,4,3.44995.89996,6.62,1.14996,9.27997,1.09998,2.66003-1.69,4.26001-3.95001,5.15002-5.20001.13-.17999.26001-.37.37-.54999.01001-.01001.01001-.01996.01001-.01996.17999-.31.33997-.64001.5-.97003l.01001-.01001c.44995-3.78998.76996-7.88.87994-12.25.07001-2.87.04004-5.60999-.06-8.21997Zm-9.34998,4.23999c1.10999,4.28998,2.31,5.46997,3.28003,5.65002.29999.06.95996.08997,1.03998.37994.12.46002-1.29999,1.24005-2.17999,1.61005-.07001.02997.17255-.48118.10254-.46116-1.10999-1.05005-1.65064-1.86382-1.96064-3.32385-.32001-1.52002-.41139-2.44204-.28192-3.85501Zm-8.66998-1.56c.23999-.83002.70996-1.39001,1.23999-1.39001.78998,0,1.41998,1.21002,1.41998,2.70001s-.63,2.70001-1.41998,2.70001c-.71002,0-1.31-1.01001-1.40002-2.33002-.01996-.12-.01996-.23999-.01996-.37,0-.47003.06995-.91998.17999-1.31Zm12.09998,19.90002c.06-.02002.09003-.03003.10004-.03003,0,0-.03003.01001-.10004.03003Zm1.72003-4.10004c-.01001.02002-.17004.10999-.26001.16003-.12.06-.12,0-.13-.01001-3.20001-.04999-6.73999-.07001-10.19-.09003,2.42999.04004,4.91998.09003,7.07001.16003-.39001,1.25995-1.32001,3.25-1.71002,4.51996,1.72998-.28998,2.70001-.46997,3.19-.57001-1.42999.40002-7.08002,1.88-10.77002-.56995-1.35999-.91003-2.25-2.22003-2.84998-3.60004-.45001-1.02997-.72998-2.09998-.90997-3.06,5.21997.16003,11.19995.34998,16.56.51001.04999.71997-.08002,1.90002,0,2.54999Zm1.81995-14.35999c-.01996,1.46002-.63995,2.64001-1.41998,2.64001-.77997,0-1.41998-1.21002-1.41998-2.70001s.64001-2.70001,1.41998-2.70001c.79004,0,1.41998,1.21002,1.41998,2.70001v.06Z"/>
        <path class="cls-27" d="m74.57483,47.59944c-.21997,1.53998-.56,3.10999-1.04999,4.65997-.53998,1.72003-1.17999,3.26001-1.84998,4.63.44995-3.78998.76996-7.88.87994-12.25.07001-2.87.04004-5.60999-.06-8.21997.78003,0,2.04528-.10999,2.61529-.26001,0,3.35999-.53528,8.15997-.53528,11.44Z"/>
        <path class="cls-18" d="m65.63483,64.2623c-.72998.47003-1.52997.89001-2.42999,1.23999-2.63,1.02002-5.35999,1.01001-7.79999.56-3.60999-.64996-6.57001-2.25995-7.64001-2.88995-.02002-.33002-.04999-.62-.07001-.86005-.12-1.29999-.34998-2.27997-.66998-3.14996,2.58002,1.58997,5.69,3.04999,9.33002,4,3.44995.89996,6.62,1.14996,9.27997,1.09998Z"/>
        <path class="cls-18" d="m55.21485,69.3223c-.03003.20001-.04999.39001-.08002.58002-1.29999.03003-2.73999-.03998-4.27997-.29999-1.37-.22998-2.64001-.57001-3.79004-.97998.76001-2.03003.78003-4.07001.70001-5.45001,1.07001.63,4.03003,2.23999,7.64001,2.88995,0,1.90002.06,1.22003-.19,3.26001Z"/>
        <path class="cls-20" d="m55.13483,69.90232c-.25,1.90002-.47998,3.20001-1.44,4.44-1.88,2.44-5.06,2.69-5.87,2.75-.54999.03998-3.78998.23999-6.63-2.09003-.72998-.58997-1.82001-1.94-2.52997-3.08997,2.07001-1.67999,3.04999-3.66998,3.46997-4.66998.04999,2.17999.09003,4.37.13,6.56.85999-.41003,2.08002-1.14001,3.16003-2.40002.75995-.88,1.27997-1.83002,1.63995-2.77997,1.15002.40997,2.42004.75,3.79004.97998,1.53998.26001,2.97998.33002,4.27997.29999Z"/>
        <path class="cls-27" d="m67.46485,47.31229c.12.46002-1.29999,1.24005-2.17999,1.61005-.07001.02997-.13.04999-.20001.07001-1.10999-1.05005-1.89001-2.37-2.20001-3.83002-.32001-1.52002-.07001-2.88.26001-3.88,1.10999,4.28998,2.31,5.46997,3.28003,5.65002.29999.06.95996.08997,1.03998.37994Z"/>
      </g>
      <path class="cls-3" d="m90.82073,90.05914c-.00562-.00018-.0109-.00089-.01652-.00108-.45909.22111-.99351.35249-1.60265.36806-.23844.06603-.48044.11272-.71994.17272-.18918.06262-.38958.11026-.60003.144-2.26723.52363-4.57466.83289-6.88782,1.16143-.35206.16642-.74782.28047-1.18728.33078-.33315.08318-.69277.13028-1.08624.12407-.02226-.00035-.04263-.00356-.06478-.00419-.43087.24544-.44089.15415-.93467.22884-.3196,1.57899-.50312,5.41442-2.20772,10.90692-1.38244,4.45441-4.35961,9.43739-6.50095,11.63495-.14732-.00627-.30121-.01437-.44966-.02094.72266,1.43222,1.43473,2.85937,2.00407,4.30666,2.53356,1.8419,6.70462,3.07005,9.17338,3.51414,3.47294-4.38311,7.4743-10.83615,9.60689-19.34357,1.28834-5.13955,1.57337-9.76081,1.47393-13.52279Z"/>
      <path class="cls-15" d="m18.45691,138.24884c18.99829.1335,37.99661.26697,56.99493.40047.16049-4.81326.26419-10.14554.26099-15.92886-.003-5.44945-.10082-11.03632-.30798-16.75325-.2306-6.36438-.5843-12.54727-1.03911-18.53942-.23735-2.79453-.47467-5.58905-.71202-8.38359.61208,2.77551,1.22415,5.55099,1.83623,8.32649.54601,2.90162,1.09201,5.80323,1.63802,8.70486,4.50813-1.32767,9.01622-2.65533,13.52438-3.98299.90016-7.35933-1.16974-12.33884-2.21748-15.36562-1.6034-4.63208-2.83181-7.87009-6.65398-10.59612-1.50426-1.07284-5.81069-2.54686-9.12256-1.57458-2.40942.70736-5.48204,1.4149-7.82062,2.33173-2.07106.25344-4.14212.50687-6.21318.76031-.96927,3.79584-3.77728,6.72072-7.10708,7.32699-4.62409.84193-9.921-2.84834-10.88439-8.85078-2.32272.1223-5.14339-.94678-7.46611-.82449-2.52103-1.08889-4.54417-.98643-7.06519-2.07532-3.27503-.59938-4.59109-1.06466-7.85817-.29021-2.48547.58918-3.3453.99387-4.19069,2.00752-5.59981,6.71432-8.47913,22.75453-8.8928,25.13368,5.16215.93983,10.3243,1.87967,15.48642,2.81949,1.68326-4.71031,3.36652-9.42065,5.04974-14.13097-1.70954,6.91414-4.24113,18.002-6.14152,30.61339-.98218,6.51791-1.35652,10.52791-1.53264,13.19118-.04079.61679-.30617,2.63637-.4624,5.68587-.03191.6228.00426,3.55255.01921,3.81525.14118,2.48193.39003,4.34566.87801,6.17897Z"/>
      <path class="cls-9" d="m33.16694,65.3c.30959,1.09577,2.76811,12.72633,12.62465,15.61799,1.74256.51122,7.26137,2.1303,12.2281-1.14225,6.21773-4.09683,5.99614-12.18699,5.97442-12.68578"/>
      <path class="cls-19" d="m54.58747,138.12343c-12.00593-.08877-24.01206-.16753-36.01799-.25636-.49696-1.83001-.7415-3.69628-.88327-6.17507-.01492-.26199-.04705-3.19203-.01446-3.81568.15145-3.04801.41316-5.0674.45582-5.69089.18384-2.6548.55576-6.6658,1.53135-13.18402,1.84407-12.21261,4.27365-22.99653,5.98251-29.94613,3.04823,1.58836,10.39345,6.24461,11.82581,10.12298.58243,1.57968.60862,2.78817.65944,4.78226.32217,11.0891.63351,16.16787,1.30959,20.61822.85389,5.63094,1.81988,7.15627,2.31919,7.85879,2.49689,3.49246,6.41437,2.37643,9.62325,5.49757,1.45142,1.41219,2.83828,5.5516,3.20875,10.18834Z"/>
      <path class="cls-8" d="m5.8706,87.00282c1.35504-.30031,4.89583.05273,6.8629.38749,4.94162.84098,7.02437,1.35616,8.78847,2.47102"/>
      <path class="cls-10" d="m76.5351,92.80753c.99455-.97574,4.17177-2.23906,6.00734-2.78415,4.61127-1.36938,6.63649-1.76482,8.69681-1.33266"/>
      <path class="cls-16" d="m25.04698,79.18382c2.65698,1.29064,10.79415,6.27218,12.30812,10.37539.58231,1.5782.61095,2.78377.66745,4.77922.31404,11.09162.62729,16.16549,1.30479,20.62129.85608,5.63025,1.81905,7.15175,2.32239,7.8573,2.4917,3.49273,6.41125,2.37414,9.61646,5.49268,1.47652,1.43659,2.87158,5.66074,3.22614,10.35127"/>
      <path class="cls-5" d="m75.33719,122.94438c-.06714-.38422-.18549-.71918-.31566-.99966-.70711-.32126-1.65755-.85651-2.53827-1.73108-1.90634-1.89304-2.19193-4.09079-2.25103-4.90958-12.49318.10121-28.68759.96744-41.18076,1.0687-2.31271-2.26787-5.44646-7.34732-6.81086-11.84505-1.68245-5.54597-1.72605-9.38498-2.0182-10.97363-.55162-.09117-.56677-.00027-1.04047-.25999-.02487-.00009-.04789.00243-.07298.00203-.44231-.00699-.84436-.0661-1.21514-.16039-.49159-.065-.93145-.19226-1.31993-.37036-2.66415-.40518-4.6858-.76173-5.63876-.94916-.11567-.02275-1.2445-.24477-2.05072-.44232-.22269-.05457-.4459-.10736-.66801-.16402-.26658-.06799-.53651-.12276-.8016-.19673-.68367-.03598-1.2786-.18518-1.78498-.42152-.00633-.00002-.01227.00052-.0186.00052-.27119,3.75613-.1468,8.38385,1.08281,13.56314,2.91248,12.26709,10.30615,20.47449,14.28068,24.29729,15.25895-1.28073,31.01873-2.12401,47.25396-2.43729,2.17217-.0419,4.33546-.07399,6.48983-.09651.30178-.50429.85608-1.61528.6187-2.97438Z"/>
      <path class="cls-27" d="m20.61602,127.49287c-4.24341-4.20971-10.31468-11.58834-13.16188-22.07121-1.40456-5.14193-1.61852-9.71213-1.47534-13.47795.01059-.00031.00612-.78917.01671-.78947.07501.02782.29288,2.84002.36757,2.85789.28877,1.73248,1.81938,9.25633,2.42265,10.87895,1.95483,5.25789,5.90438,13.84381,8.92202,18.42632.7426,1.12769,1.83677,2.46555,2.90827,4.17548Z"/>
      <path class="cls-18" d="m59.57917,115.91844c-7.03684,2.27002-20.18986,3.98999-30.46469.85999,9.21666-.08997,20.32742-.57001,30.46469-.85999Z"/>
      <path class="cls-18" d="m27.79932,116.30686c-2.14811-1.15997-5.11125-4.16578-7.91536-8.69581-3.5978-5.79999-2.94174-11.39001-2.3068-14.08997.34915.08997.73007.13995,1.15337.14996h.07408c.47619.26001.48678.16003,1.03698.26001.29632,1.58002.33862,5.41998,2.02114,10.97003,1.30153,4.28998,4.39665,9.17943,6.67174,11.57945-.01059,0,.37817.31579.36757.31579-.57139-.19-.56305-.1995-1.10272-.48947Z"/>
      <path class="cls-27" d="m76.14366,122.80423c-.8783-.42999-2.4622-1.25686-3.10767-1.73684-2.84647-2.12-3.96473-4.91578-5.01237-8.11579-2.97345-9.00995-3.72478-15.86268-5.0792-24.25263-.58198-3.57001-1.09662-8.41687-1.40346-10.13684.40211-.06,1.03648-.18578,1.4703-.31579.62435,7.59003,1.54492,18.99476,4.92048,29.34474,2.19041,6.73999,3.58385,10.32632,8.21194,15.21316Z"/>
      <path class="cls-18" d="m83.18604,120.63318c-.22224.62-.51578,1.06967-.79085,1.56967-1.28041-6.21002-2.97351-12.94-5.21682-20.06-3.18503-10.09003-6.52214-18.10384-10.09875-25.59389.71955-.44995,1.52542-1.09259,1.93812-1.45263,3.56602,8.10004,8.19635,21.68892,11.76237,29.77895,1.291,2.98999,1.59559,3.99213,2.07178,5.84211,1.53436,5.98004.82094,8.4858.33416,9.91579Z"/>
      <path class="cls-19" d="m90.03629,91.73844c-.00649.09956-1.23639.47368-2.40594.75789-2.26449.53003-4.09845,1.43846-6.41584,1.76842-.34915.16003-.79191.2658-1.23639.31579"/>
      <path class="cls-28" d="m86.41539,73.77814c-.86005.06-4.94.29999-8.33002-2.66003-2.03998-1.76996-2.89001-3.87-3.22998-4.91998-.18005,1.83002-.37006,3.66003-.56,5.48999-.47003-.17999-3.76001-1.51996-4.93005-5.10999-.83997-2.59998-.07996-4.82001.19-5.5.54004-.81,1.11005-1.75,1.67004-2.81v-.01001c2.62-4.01996,3.19995-7.98999,3.34998-9.95001v-.23999c.52002-3.54999.45001-6.91998.22998-9.42999v-.02002c.01001-.71997.02002-1.40997.02002-2.04999-.08002.03003-.15997.04999-.25.07001-1.02002.26001-2.44.41998-4.01001.02002-3.92999-1-5.5-4.62-5.67999-5.06.03998.34998.08002.69.12,1.03998-.22998-.40997.0179-.90024-.03209-1.01029.19,1.62006.34684,3.36942.53684,4.98947.01001.07996-.31475.23084-.31475.31085-.53998.02997-1.46997.03998-2.64996-.11005h-.01001c-1.97003-.26996-4.60004-1.03998-7-3.07001-3.34003-2.81-4.29004-6.38995-4.55005-7.57996-.08997.08997-.17999.17999-.25995.26996-.01001-.01996-.02002-.03998-.02002-.06-3.04999,3.03003-4.62,5.98004-5.42999,7.83002-.40002.90002-3.64317,9.64387-.32316,19.3039.85999,2.47998,1.75843,3.87792,2.36842,5.55791.32001.87.54317,1.73158.66317,3.03157.01996.23999-.01997,1.65947,0,1.98948.08002,1.37994-.4384,2.56715-1.19841,4.59712-.36005.95001-.88,1.90002-1.64001,2.78003-.45001.52002-.91998.95001-1.38,1.31-.03998.02997-.08002.06-.10999.07001-.51001.35999-.98004.62-1.38.82001-.04999-2.19-.09003-4.38-.13-6.57001-.07001.17999-.16998.39001-.28003.62,0-.14001-.00995-.27002-.00995-.41003-.40002.95001-1.31,2.81-3.19,4.44-.09003.07001-.18005.15002-.28003.23004,0,0,0,.01001.01001.01001-.01001.00995-.03003.01996-.03998.02997-.74005.57001-1.5,1-2.24005,1.33002.30005-.97003-.51123-2.44751-.24121-3.9975,2.82001-4.77002,3.87141-8.67838,3.93141-11.96842.10004-5.14996-1.44083-7.87706-1.12088-17.90702.11005-3.52002.55589-7.80563,1.84587-12.34561.84003-2.96002,1.4494-4.3532,2.2594-6.06316-2.44,1.00995-5.19209,2.00776-7.64211,3.01777.31-.52997,1.35101-2.52672,2.02105-3.39672,1.13-1.46997,2.18053-3.30685,4.61053-4.73684,3.95001-2.32996,6.46583-2.65263,8.11579-2.65263-1.83997-.77002-1.9689-.51524-4.57895-1.10526-2.19-.48999-5.87054-.47-7.61053-.6,2.46002-1.45001,6.00686-5.43123,10.73684-6.49123,3.77002-.84003,6.95366-.48295,9.47368-.39298-3.10999-1.57001-5.05263-2.05263-6.91088-4.08043,3.85004,0,7.75.72003,11.47998,2.30005,9.81006,4.15997,14.13,12.44995,15.03003,14.26996,3,6.08002,3.17999,11.73004,3.04999,14.72003,1.91003,3.38995,2.39001,3.89996,2.76001,7.76996.34003,3.52002-.13,5.89001-1.27002,8.71002-.73999,1.85999-3.69,9.84003-.56,18.17999.64001,1.72003,1.96002,4.39001,4.92004,7.20001Z"/>
      <path class="cls-23" d="m60.33907,5.32413c-3.11005-1.57001-6.22003-3.13-9.33002-4.70001h-.01001c-2.40002,0-4.77002.28003-7.06.81-.40002.10004-.79999.20001-1.20001.31006-4.66998,1.25995-8.95996,3.56-12.33997,6.60999-4.66003,4.20001-6.66003,8.95996-7.83002,11.75-.82001,1.95001-2.22998,5.27997-2.90002,9.48999v.01001c0,.02997-.01001.04999-.01001.07996-.56,3.46002-.62,7.51001.55005,11.85004.01996.08997.03998.17999.07001.27002.07996.29999.16998.60999.26996.90997,3.19,10.14001,11.02002,15.28998,13.5,16.73999.59003,3.58002,1.16003,7.79999.90002,8.52002-1.22998,3.46997-3.39001,5.56-4.41998,6.44.50995.02997,1.62.03998,3.00995-.25.10004-.01001,3.06109-.5695,3.17108-.59947,1.28003-1.59003,1.31896-3.18208,2.17895-4.64211.13-.21997-1.59001.16156-1.47002-.05841,2.52002-4.49005,3.28003-8.36005,3.34003-11.5.09998-5.15002-1.71002-8.41003-1.39001-18.44.10999-3.52002.47998-7.46002,1.77002-12,.83997-2.96002,1.83997-5.36005,2.64996-7.07001-2.44,1.01001-4.88,2.01996-7.32996,3.02997.31-.52997.76996-1.29999,1.44-2.15997q0-.01001.00995-.02002c1.13-1.46997,2.82001-3.20996,5.25-4.64001,3.95001-2.32996,7.70001-2.52997,9.35004-2.52997-1.84003-.77002-4.09003-1.56-6.70001-2.15002-2.19-.48999-4.19-.75-5.92999-.88,2.46002-1.44995,6.13-3.23999,10.85999-4.29999,3.77002-.83997,7.08002-.96997,9.60004-.88Zm-27.74005,41.10999c-1.94995-.94995-2.94995-3.07996-2.44995-4.98999.39996-1.53998,1.73999-2.73999,3.39996-3.07001v.01001c-.31,2.62-.62,5.23004-.92999,7.85004,0,.07001-.01001.13-.02002.19995Z"/>
      <path class="cls-26" d="m20.27537,41.80811c-.67999-.37994-1.37-.72998-2.02002-1.12994-1.77002-1.06006-3.20001-2.43005-3.02002-5.54004.02002-.33997.07001-.65997.15002-.95996.71002-2.87006,3.64001-4.26001,4.28003-4.57001-.58002,3.54999-.64001,7.71997.60999,12.19995Z"/>
      <path class="cls-28" d="m17.13536,61.40815c.71002,5.60999.16003,10.08997-.13,12.38-.33002,2.60999-.95001,5.89996-2.14996,9.59998-.54004-1.87-1.04004-4.16998-1.26001-6.82001-.34003-4.08997.09998-7.56.63-10.09998-1.16003,3.20001-2.84003,9.29999-1.51001,16.66998.57001,3.16003,1.54999,5.79004,2.51996,7.83002-.91998-.08002-9.82996-1.03998-13.50995-8.08002-2.57001-4.91998-1.22003-10.20996-.51001-13.01001,1.34998-5.28998,3-4.32001,4.67999-9.72998.89001-2.88,1.52997-8.06,2.77997-18.32001.07001-.64996.26001-2.14996,1.26001-3.65997,1.26001-1.89001,4.21002-3.53003,5.45001-3.98999-.08002.29999-.13.62-.15002.95996-.17999,3.10999,1.25,4.47998,3.02002,5.54004-.83002,2.16998-2.83002,7.47998-2.76001,11.25995.06,3.80005,1.01001,4.51001,1.64001,9.47003Z"/>
      <g>
        <g>
          <path class="cls-17" d="m36.99433,29.76471c-.48535,2.51785-1.41,4.8299-1.93677,7.28659-1.6375,7.29361-1.73422,14.99482-.06292,22.28604.0001.00029.28717,1.26269.28723,1.263l-1.10934-.65369c-9.61896-5.54768-16.03409-16.51071-15.08101-27.70905.37201-5.53943,2.36917-10.76618,4.76295-15.71923C28.66741,6.38123,39.70481.16802,50.77016.0474c11.1522-.34056,21.99368,6.24109,27.05302,16.14901,2.4664,4.83264,3.81147,10.2965,3.39631,15.73172-.04726.20118.14393.21158-.39358.23657-.49327-.06983-.35631-.1038-.37327-.14692.02616-.51335.00577-1.36639-.00027-1.88742-.50687-23.13301-25.10582-36.45623-44.9366-24.73319-7.17924,4.01155-11.33564,11.45295-13.77642,19.06542-4.66482,13.24528.90612,27.52763,12.99263,34.52-.00029-.00027-.8228.61-.82243.60862-1.65372-7.48541-1.49332-15.31316.35368-22.73132.65392-2.44846,1.29336-4.94864,2.7311-7.09518h0Z"/>
          <path class="cls-17" d="m34.56275,58.73837c1.1269,2.72527,1.14833,5.62982,1.21135,8.55029-.50716,2.92859-2.46795,5.49648-4.63227,7.45862-.00013-.00006-.3141-.91025-.3141-.91025,4.71364.23729,9.32431-2.62883,11.08669-7.02226.00004.00007,1.01591-2.44558,1.01591-2.44558l.04947,2.6481.12271,6.5683-.78912-.48523c1.87363-.88571,3.41943-2.40109,4.2648-4.28296,1.25854-2.80185,1.19492-6.28587.37304-9.23651-1.15587-3.02222-2.91382-5.96386-3.39352-9.25186-1.61881-8.74538.85727-18.3712,7.34222-24.59718-.00005-.00004.67268-.67045.67268-.67045.35238,1.86079.97555,3.69739,2.01523,5.29043,2.52421,4.07727,7.42755,6.34909,12.16658,5.9771-.00002.00005-.46749.56972-.46749.56972l-.62863-5.30539-.3974-3.35364,1.37094,3.09848c1.60693,4.02707,6.46908,6.21088,10.44227,4.28519-.00007.00018-.29099.38488-.29099.38488.94662-5.6242-.12126-11.46481-2.69932-16.53276-.33438-.69776-.73342-1.40839-1.12688-2.0748-.02054-.01711.01754-.07094.2795-.26751.35848-.16574.3251-.20122.40413-.07078,3.68126,5.556,4.96783,12.51889,4.1335,19.09027-.00006,0-.03787.27424-.03787.27424l-.25336.11075c-3.26019,1.52807-7.39003.79083-9.83235-1.87795-.81282-.86048-1.47795-1.82874-1.95677-2.93137l.97351-.25513c.05194.48952.66792,5.54457.698,5.83613-7.09505.89491-14.2071-4.03733-15.60669-11.09614-.00013.00018.8775.25823.8775.25823-7.72364,7.48579-9.67948,20.11258-4.98232,29.71028,3.46547,6.07515,2.70145,15.51142-4.63512,18.27485-.03224-.32848-.11652-6.84102-.14662-7.41797.00006.00007,1.0653.20249,1.0653.20249-2.1505,5.39226-7.82726,8.25776-13.47476,7.57346,2.40725-1.94111,4.72355-4.50414,5.41617-7.58994.23496-2.81895-.53404-5.63147-.31592-8.48618h0Z"/>
          <path class="cls-17" d="m74.81009,36.23837c.92684,2.0344.77143,4.27758.874,6.44758.15766,6.57177-1.69967,13.17821-5.38699,18.63058-.53147,1.29552-.74914,4.09619.16455,5.76553.81347,1.82702,2.45406,3.27676,4.30785,4.03531l-.73532.44934.57278-5.49408.2626-2.51904.78369,2.40903c1.38538,4.66758,6.20813,7.66279,11.00477,7.22004-.00007.00012-.31977.90597-.31977.90597-5.82642-5.19582-7.52226-13.66384-5.90774-21.0782.62774-3.67792,2.7419-6.9489,2.80209-10.71474.07848-2.70049-.13313-5.52993-1.4904-7.92706-.19649-.33637-.78087-1.5033-.97479-1.84724,0-.00006-.16277-.31103-.16277-.31103l-.08139-.15549-.04068-.07773c.01895-.04416-.16364.02484.28806-.26245.48038-.23648.32648-.1167.37415-.11008l.04538.07462c.04103.08416.22466.35729.27234.44772,2.19166,3.02205,2.71454,6.54498,2.71019,10.19906.07789,3.8471-2.12182,7.19323-2.74697,10.88712-1.52136,7.12096.04343,15.13674,5.6352,20.11164-.00012.00005.8779.82027.8779.82027l-1.19781.08582c-5.25097.5007-10.58654-2.81482-12.11072-7.93772-.00009.00013,1.04612-.10989,1.04612-.10989l-.56403,5.495-.07346.71579c-4.84518-1.52201-7.73702-6.92605-5.66298-11.68671,3.55398-5.32384,5.38108-11.64073,5.44396-18.02679.13304-2.17251-.31533-4.2583-.00981-6.44218h0Z"/>
        </g>
        <path class="cls-13" d="m20.05222,29.48046c-.29906.18216-4.30989,1.80685-4.53159,5.58948-.25262,4.31055,2.57343,5.2662,5.14737,6.72632"/>
        <path class="cls-13" d="m15.74169,34.07521c-1.20879.43835-4.24523,2.0951-5.52632,4.02631-1.00272,1.51157-1.18353,3.00732-1.26316,3.66315-1.24461,10.25095-1.88515,15.43521-2.77895,18.3158-1.6791,5.41153-3.3242,4.44052-4.67368,9.72632-.71584,2.80386-2.06501,8.08844.50526,13.01053,3.67813,7.04364,12.59127,7.9993,13.51579,8.08423-.96968-2.03925-1.95648-4.67285-2.52631-7.8316-1.32905-7.36749.3537-13.47125,1.51578-16.67368-.53384,2.54211-.9727,6.01819-.63158,10.10526.22104,2.64825.71892,4.94662,1.26315,6.82108,1.19801-3.70438,1.8154-6.99405,2.14737-9.60001.29254-2.29645.83319-6.76819.12633-12.37897-.62567-4.96631-1.57944-5.67133-1.64211-9.47366-.06361-3.86035,2.02378-9.32963,2.81052-11.40001"/>
        <path class="cls-17" d="m53.92063,24.08047c1.03813,5.72037,5.25307,9.79842,9.77938,13.0271-.00021.00018-.10592.2193-.10592.2193-1.42978-.39832-2.54031-1.36038-3.61053-2.29074-3.23921-2.77494-5.63058-6.69347-6.06293-10.95566h0Z"/>
        <path class="cls-17" d="m59.4906,28.2489c.67716,3.625,3.19358,6.81607,6.55212,8.28019-.00002.00002-.30209.62606-.30209.62606-3.38204-1.73186-5.78923-5.16039-6.25003-8.90625h0Z"/>
        <path class="cls-17" d="m65.55378,24.08422c.99012,5.66642,4.99293,10.06606,10.31091,12.05038-.00018.00019-.43529.90207-.43529.90207-5.31356-2.36359-9.20711-7.09781-9.87561-12.95245h0Z"/>
        <path class="cls-17" d="m23.6445,30.7731c1.8325-.43524,4.17351-1.28439,4.42269-3.35629.0709-.9328-.1877-2.16113-.0638-3.31055.48949-6.15018,5.39277-10.12515,11.23318-10.95195-4.24239.90519-8.51047,3.4845-9.74151,7.84655-.51662,1.55852-.73896,3.13535-.49874,4.7442.06426.53738.17483,1.10263.14816,1.74981-.04807,1.33325-.90378,2.50546-1.90375,3.19919-1.00241.72598-2.12201,1.13953-3.23343,1.47275l-.36279-1.39371h0Z"/>
        <path class="cls-17" d="m22.09122,30.71438c.5499-12.56599,10.42015-23.67003,22.79801-25.61268-11.96596,2.43751-21.15703,13.48669-21.16007,25.67133-.00019-.00015-1.63794-.05866-1.63794-.05866h0Z"/>
        <path class="cls-17" d="m23.10587,34.53823c2.77451,2.27241,4.33985,5.77849,4.34567,9.33008.37813,3.38777,2.50225,6.32872,4.86908,8.69635-2.55959-2.27781-4.86717-5.1244-5.46939-8.61081-.21951-3.37435-1.76868-6.47488-4.51595-8.47849.00015-.00006.77059-.93713.77059-.93713h0Z"/>
        <path class="cls-17" d="m43.56275,30.26995c-9.11361,18.93834,6.82792,23.99079.08995,42.8682.00005,0-.93785-.34696-.93785-.34696,6.99848-18.253-8.69162-23.81868.8479-42.52124h0Z"/>
        <path class="cls-17" d="m38.45594,38.9736c-2.28462,5.43436-2.80586,11.4904-1.48329,17.23072,1.38577,5.73514,1.48856,11.86125-.36454,17.52963.00014,0-.65009-.2095-.65009-.2095,1.93202-5.56337,1.93909-11.53118.67865-17.25723-1.21727-5.783-.57906-11.89477,1.81927-17.29361h0Z"/>
        <path class="cls-7" d="m33.54904,38.38413c-.31,2.62-.62,5.23004-.92999,7.85004-1.77997-1.01001-2.66998-3.03003-2.19-4.85004.38-1.45996,1.58002-2.59998,3.12-3Z"/>
        <path class="cls-4" d="m33.82906,38.30417c-.32001,2.69-.63,5.37994-.95001,8.06995-.09003-.03998-.17999-.08997-.26001-.13995.31-2.62.62-5.23004.92999-7.85004.09003-.03998.19-.06.28003-.07996Z"/>
        <path class="cls-4" d="m75.11011,36.39628c0,3.44211-.25264,8.39998-.25264,11.84209-.16283,2.0744-.78979,6.3721-3.78946,10.61053-1.12471,1.58917-3.41791,4.82941-7.57895,6.44211-7.04822,2.73172-14.76985-1.51778-15.72422-2.11867"/>
        <path class="cls-17" d="m63.01535,39.23837c.9712,2.51569,1.78079,5.81487,4.51213,6.83567.18925.1386.45738.13973.78899.65884.14572.29352.08902.60934.00784.78119-1.11289,1.4784-3.19042,2.00283-4.92993,1.76653,1.34792-.63016,2.85926-1.26631,3.74626-2.24039-.03172.02857-.06056.17689.00712.33064.16327.24594.09906.15588-.00168.21307-3.47822.65411-3.83614-6.03549-4.13074-8.34555h0Z"/>
        <path class="cls-4" d="m70.15221,52.81732c-5.73685-.17896-12.38947-.38947-18.12632-.56842.42981,2.26801,1.38554,5.08206,3.7579,6.66315,4.26433,2.84201,11.16916.40967,11.17894.47369.00296.01935-.83154.20799-3.6.66316.38947-1.26315,1.3158-3.25264,1.70526-4.51579-3.82105-.12632-8.71579-.18947-12.44211-.22105,4.91534.07245,10.65172.08171,15.56707.15415.011.00583.00557.06743.12767.00374.09142-.0477.24916-.13396.25581-.15376-.07474-.69611.07156-1.99224-.00318-2.68834"/>
        <g>
          <ellipse class="cls-12" cx="56.00484" cy="40.82521" rx="1.42105" ry="2.7"/>
          <path class="cls-17" d="m54.73539,40.01324c-1.23265-.22945-2.1157-1.47071-1.85685-2.64596.08931.99052.99693,1.77852,1.93265,1.64881-.00003.00002-.0758.99715-.0758.99715h0Z"/>
          <path class="cls-17" d="m54.65644,41.70272c-1.23261-.22947-2.11573-1.47071-1.85682-2.64596.08926.99052.9969,1.77848,1.93262,1.64881-.00003.00002-.0758.99715-.0758.99715h0Z"/>
        </g>
        <g>
          <ellipse class="cls-12" cx="68.98379" cy="40.89626" rx="1.42105" ry="2.69999"/>
          <path class="cls-17" d="m70.36655,39.12963c.78999.22455,1.62375-.45009,1.66357-1.32296.33657,1.05471-.5653,2.23684-1.68925,2.32258.00004.00004.02567-.99962.02567-.99962h0Z"/>
          <path class="cls-17" d="m70.4093,40.45739c.78997.22457,1.62374-.45008,1.66357-1.32293.33655,1.05469-.56532,2.23684-1.68925,2.32255.00004.00004.02567-.99962.02567-.99962h0Z"/>
        </g>
        <path class="cls-17" d="m22.37326,35.32257c-.04145,3.54942,1.68767,7.00693,3.2736,10.15651,1.71403,3.25067,3.67912,6.38824,5.97901,9.26455-1.24779-1.36067-2.40123-2.81022-3.49531-4.3022-3.1335-4.59604-6.66635-9.37061-7.14699-15.11877.00023-.0001,1.3897-.0001,1.3897-.0001h0Z"/>
        <path class="cls-17" d="m23.94956,32.19601c3.7843.25617,5.86507-1.99309,7.75921-5.01582,1.55726-2.01433,2.59955-4.69584,4.90377-6.01333.77727-.40786,1.63664-.63021,2.49758-.68639-1.71989.20347-3.27311,1.15301-4.18451,2.62425-2.9472,4.42307-4.57243,10.53371-10.97079,10.4811.00005.00015-.00526-1.3898-.00526-1.3898h0Z"/>
        <path class="cls-17" d="m24.00867,33.51715c2.32346,2.24595,5.88845,3.14225,8.98991,1.93274-3.05856,1.7192-7.04074,1.22122-9.87143-.84968-.00001.00007.88152-1.08306.88152-1.08306h0Z"/>
      </g>
      <g>
        <path class="cls-6" d="m81.34541,105.21184c1.29029,2.98926,1.4357,3.35268,1.90966,5.20264,1.53407,5.98744.96652,8.52846.47247,9.9545-.47251,1.36385-.88314,2.49229-2.07639,3.1503-2.56033,1.41188-6.67584-.47137-8.9063-2.12997-2.8457-2.11607-3.93203-4.83974-4.98522-8.03635-2.96848-9.00969-3.95809-16.56886-5.31877-24.9516-.5802-3.57424-1.06569-8.47861-1.37767-10.20325,1.06262-.15688,2.10707-.54708,3.66758-1.20702,1.88002-.79505,3.55391-1.90713,4.40734-2.64436,3.56709,8.09683,8.64021,22.7683,12.20729,30.86513"/>
        <path class="cls-6" d="m69.13812,74.34671c-.2584-1.30862-.37013-3.10163-.59246-4.47669-.11753-.72704-.14302-1.32539-.24454-2.03684,0-.0001-.04891-.99474-.14673-2.84211l-.09782-1.51579s.27521-1.29633.25009-1.30778c-.10525-.0479-2.91348,2.46239-4.14729,3.13249-1.12057.6086-2.722,1.19222-3.56842,1.24058-.8698.04972-1.74545.6204-7.35471-1.81993-2.47762-1.0779-5.37682-2.42244-5.37687-2.42244-.06475-.00535-1.02128-.07322-1.40678.42542-.40314.52147-.11474,1.57579,1.01968,2.15474,3.17985,1.34329,6.35975,2.68659,9.5396,4.02988-1.3816-.84172-2.58057-1.04632-3.00738-.64427-.27637.26033-.18688.73531-.07577.99353.30977.72013,1.39821,1.17387,2.71914,1.03091.21215-.00569.39208-.01631.39314-.03686.00401-.07881-2.6048-.57712-3.02227.10154-.22854.37148.24382,1.02362.70007,1.3539.80385.58195,1.80854.34629,1.91746.31903.20105-.05345.43206-.11791.42787-.13282-.01151-.04084-1.84861.05287-2.13954.71228-.17912.40596.25852.95079,1.19435,1.80932.91529.8397,3.07182,2.67035,4.94425,3.78331,1.00235-.04263,2.08258-.36277,3.76774-1.02228,2.33872-.91533,3.60648-2.05529,4.30718-2.82911Z"/>
      </g>
    </g>
  </g>
</svg>