<?xml version="1.0" encoding="utf-8"?>
<!-- Generator: Adobe Illustrator 27.1.1, SVG Export Plug-In . SVG Version: 6.00 Build 0)  -->
<svg version="1.1" id="Layer_2_00000064320077428488294960000000705740171181271982_"
	 xmlns="http://www.w3.org/2000/svg" xmlns:xlink="http://www.w3.org/1999/xlink" x="0px" y="0px" viewBox="0 0 136.5 271"
	 style="enable-background:new 0 0 136.5 271;" xml:space="preserve">
<style type="text/css">
	.st0{fill:none;stroke:#4E381A;stroke-miterlimit:10;}
	.st1{fill:#A0BDB1;}
	.st2{fill:#ACD5CB;}
	.st3{fill:#C9E2DA;}
	.st4{fill:none;stroke:#4E381A;stroke-miterlimit:10;stroke-dasharray:0,0,3.0535,3.0535;}
	.st5{fill:none;stroke:#4E381A;stroke-miterlimit:10;stroke-dasharray:0,3;}
	.st6{fill:#CA9B71;}
	.st7{fill:#EAC4A0;}
	.st8{fill:#E0AE84;}
	.st9{fill:#F1F2F2;stroke:#4E381A;stroke-miterlimit:10;}
	.st10{fill:#E6E7E8;stroke:#4E381A;stroke-miterlimit:10;}
	.st11{fill:#F1F2F2;}
	.st12{fill:#BC6D65;}
	.st13{fill:#CA9B71;stroke:#4E381A;stroke-width:0.8349;stroke-miterlimit:10;}
	.st14{fill:#F0EFEF;stroke:#4E381A;stroke-width:1.0065;stroke-miterlimit:10;}
	.st15{fill:none;stroke:#4E381A;stroke-width:1.0065;stroke-miterlimit:10;}
	.st16{fill:#D7D4CF;}
	.st17{fill:none;stroke:#4E381A;stroke-width:0.9004;stroke-miterlimit:10;}
	.st18{fill:none;stroke:#4E381A;stroke-width:0.9847;stroke-miterlimit:10;}
	.st19{fill:none;}
	.st20{fill:#E0AE84;stroke:#4E381A;stroke-width:0.835;stroke-miterlimit:10;}
	.st21{fill:#5A5C5D;}
	.st22{fill:#525246;}
	.st23{fill:#BAC157;}
	.st24{fill:#4E381A;}
	.st25{fill:none;stroke:#4E381A;stroke-width:1.0013;stroke-miterlimit:10;}
	.st26{fill:#E0AE84;stroke:#4E381A;stroke-miterlimit:10;}
	.st27{fill:#4E381A;stroke:#4E381A;stroke-miterlimit:10;}
	.st28{fill:#E0AE84;stroke:#4E381A;stroke-width:0.8349;stroke-miterlimit:10;}
</style>
<g id="Layer_1-2">
	<g>
		<path class="st0" d="M77.2,71.8c0,2.1,0.1,1.3-0.2,3.4c-0.3,2.2-0.5,3.7-1.5,5c-1.9,2.4-5.1,2.7-5.9,2.7c-0.5,0-3.8,0.2-6.6-2.1
			c-0.8-0.6-2-2.1-2.7-3.3"/>
		<g>
			<path class="st1" d="M74.7,145.1c-5.8,0-11.6-0.1-17.4-0.1h-0.1c-4.1,0-8.2-0.1-12.4-0.1l0.4,12.5l0,0.3l1,30.3v0.1l0.4,10.7v0.1
				l0,0.2c0.9,0,1.8,0,2.6,0c4,0,8.2-0.1,12.4-0.1c2.3,0,4.6,0,6.9-0.1c0.3,0,0.6,0,0.9,0c0,0,0-0.1,0-0.1c0,0,0-0.1,0-0.1
				c-2-15.6-0.3-24.6,1.7-30c0.5-1.3,2-4.9,2.9-10.1C75.1,153.1,75,148.4,74.7,145.1z M48.1,151.2V151c0-0.7,0-1.3,0-1.8
				c2.3,0,4,0,6.2,0h0.2c-0.2,0.6-0.4,1.2-0.7,1.8c0,0.1-0.1,0.2-0.1,0.2c-0.6,1.3-1.6,2.7-3,3.8c-0.8,0.7-1.7,1.2-2.5,1.6
				c0-0.1,0-0.2,0-0.3C48.1,154.9,48.1,152.9,48.1,151.2z"/>
			<path class="st1" d="M54.4,149.2c-0.2,0.6-0.5,1.3-0.8,2h-5.5c0-0.8,0-1.5,0-2C50.4,149.2,52.1,149.2,54.4,149.2L54.4,149.2z"/>
			<path class="st1" d="M53.6,151.2c-0.6,1.3-1.6,2.7-3,3.8c-0.8,0.7-1.7,1.2-2.5,1.6c0-1.5-0.1-3.6-0.1-5.5H53.6z"/>
			<path class="st1" d="M46.8,198.7c-0.9,0-1.8,0-2.6,0c-0.8,0-1.5,0-2.3,0c0-1,0-2.5,0-4.3c-0.2-9-1.8-15.6-2.2-17.3
				c-1.2-5.3-1.2-14.6-0.3-32.1c2.1,0,3,0,5.1,0L46.8,198.7L46.8,198.7z"/>
			<path class="st2" d="M95.2,162.3c-0.5,14.1-0.2,26.2-3.2,36.2v0c-0.5,0-1.1,0-1.7,0c-0.2,0-0.4,0-0.6,0
				c-5.8,0.1-13.5,0.2-19.2,0.3h-1.1c0,0,0-0.1,0-0.1c0,0,0-0.1,0-0.1c-2-15.6-0.3-24.6,1.7-30c0.5-1.3,2-4.9,2.9-10.1
				c1-5.4,0.9-10.1,0.6-13.4c6.7,0,13.4,0.1,20,0.1C95.2,150.5,95.4,156.2,95.2,162.3z"/>
			<path class="st3" d="M97.8,175.6c-1.1,8.7-0.5,15.7-2.3,22.8c-0.9,0-4.4,0.2-5.3,0.2c3-10,4.5-22.3,4.9-36.4
				c0.2-6.1,0-11.8-0.4-17c0.8,0,1.7,0,2.5,0C98.2,157.5,98.7,168.5,97.8,175.6L97.8,175.6z"/>
			<path class="st0" d="M96,198.9c0.8-8.8,1.4-12.8,1.5-24.2c0.1-6.5,0.5-17.5-0.4-29.7c-19.4-0.1-38.8-0.3-58.2-0.4
				c-0.6,17.7,0.1,27,0.9,32.4c0.3,1.7,1.4,8.4,1.5,17.4c0,1.9,0,3.4,0,4.4c15.7-0.2,39.1-0.2,54.8-0.4"/>
			<line class="st0" x1="44.7" y1="144.2" x2="46.6" y2="199.3"/>
			<g>
				<line class="st0" x1="43.2" y1="144" x2="43.2" y2="145.5"/>
				<line class="st4" x1="43.3" y1="148.5" x2="44.7" y2="195.8"/>
				<line class="st0" x1="44.8" y1="197.4" x2="44.8" y2="198.8"/>
			</g>
			<path class="st5" d="M45.6,160.5c1.4-0.3,5.1-1.3,8.1-4.8c4.2-4.9,3.6-10.8,3.5-11.7"/>
			<path class="st0" d="M44.7,157.5c1.3-0.2,3.6-0.9,5.8-2.7c4.2-3.6,4.4-8.8,4.4-9.7"/>
			<path class="st0" d="M48,156.7c-0.1-2.2-0.1-5.6-0.2-7.7c2.5,0,4.3,0,6.7,0"/>
			<line class="st0" x1="47.5" y1="151" x2="53.9" y2="151"/>
		</g>
		<g>
			<g>
				<path class="st6" d="M49.5,210.9c-0.4,14.9-0.8,29.9-1.1,44.8c0,0.1,0,0.3,0,0.4c-1.7,0.8-3.3,2-4.2,3.3
					c0.1-0.3,0.2-0.6,0.3-0.9c0.1-0.3,0.2-0.7,0.4-1.1c0.1-3.2,0.2-6.4,0.3-9.6c0.3-11.6,0.2-22.8-0.2-33.7
					c-0.7-2.4-1.3-5.1-1.8-8.1c-0.3-1.8-0.4-4.8-0.5-6.5c1.2,0,2.3,0,3.5,0c0.9,0,1.8,0,2.6,0C49,203.3,49.2,207.1,49.5,210.9z"/>
				<path class="st7" d="M63.8,199.3c-1,5.7-2.5,12.9-3.9,19.7c-1.6,8.1-2.4,11-3.3,16.4c-0.9,5.6-1.7,13.9-2,20.9c0,0,0,0.1,0,0.1
					c-0.5-0.4-0.9-0.7-1.5-0.9c-0.1,0-0.3-0.1-0.4-0.1c0-0.1,0-0.2,0-0.2c0.2-7,0.9-13,1.6-17.8c1.1-6.6,2.6-12.8,5.3-28.5
					c0.6-3.5,1.1-6.7,1.6-9.6c0.8,0,1.6,0,2.4,0C63.6,199.3,63.8,199.3,63.8,199.3z"/>
				<path class="st8" d="M61.2,199.3c-0.5,2.9-1,6.1-1.6,9.6c-2.7,15.7-4.2,21.9-5.3,28.5c-0.8,4.8-1.5,10.8-1.6,17.8
					c0,0.1,0,0.2,0,0.2c-1.3-0.3-2.8,0-4.3,0.7c0-0.1,0-0.3,0-0.4c0.4-15,0.8-29.9,1.1-44.8c-0.2-3.8-0.4-7.6-0.7-11.4
					C52.9,199.5,57.1,199.4,61.2,199.3z"/>
				<path class="st0" d="M57.4,263.9c0,0.1,0,0.1,0,0.2 M44.1,259c0.1-0.2,0.2-0.3,0.3-0.5c0.9-1.1,2.3-2.2,3.9-2.8
					c1.5-0.6,3-0.8,4.3-0.5c0.1,0,0.2,0.1,0.3,0.1c0.5,0.2,1,0.5,1.5,0.9c0,0,0.1,0.1,0.2,0.1 M40.8,267.8h-0.3 M59.7,267.4h-0.3
					 M42.5,199.3c0,0,0-0.1,0-0.1 M42.4,264.4c-0.2,0-0.3,0.1-0.4,0.1"/>
				<path class="st9" d="M63.6,199.1c0,0.1,0,0.2,0,0.2c-0.8,0-1.6,0-2.4,0c-4.1,0-8.2,0.1-12.4,0.2c-0.9,0-1.8,0-2.6,0
					c-1.2,0-2.4,0-3.5,0c0.1,1.7,0.2,4.7,0.5,6.5c0.5,3,1.1,5.8,1.8,8.1c0.4,10.9,0.5,22.1,0.2,33.7c-0.1,3.2-0.2,6.4-0.3,9.6
					c-0.1,0.4-0.3,0.8-0.4,1.1c-0.1,0.3-0.2,0.6-0.3,0.9c0.8-1.3,2.4-2.5,4.2-3.3c1.5-0.7,3-1,4.3-0.7c0.1,0,0.3,0.1,0.4,0.1
					c0.5,0.2,1,0.5,1.5,0.9c0,0,0-0.1,0-0.1c1.9,1.8,3.1,5.1,2.9,7.5c-0.2-0.1-0.5-0.3-0.7-0.4c-3.9-1.8-11.9,0.2-14.3,0.9
					c0.1-0.1,0.2-0.3,0.3-0.5c0.3-0.6,0.2-0.9,0.4-1.7c0.1-0.5,0.2-0.7,0.7-2c0.2-0.7,0.6-1.7,1.1-2.9c0.1-3.2,0.2-6.3,0.3-9.6
					c0.2-11.6,0.2-22.8-0.2-33.7c-0.7-2.4-1.3-5.1-1.8-8.1c-0.3-1.8-0.4-4.8-0.5-6.5C49.4,199.3,56.7,199.1,63.6,199.1z"/>
				<path class="st9" d="M59.4,267.4l-18.6,0.3c0.1-1.5,0.5-2.3,0.9-2.6c0.1-0.1,0.4-0.4,0.7-0.8v0c2.3-0.7,10.4-2.7,14.3-0.9
					c0.3,0.1,0.5,0.3,0.7,0.4c0.9,0.6,1.3,1.2,1.5,1.4C59.2,266,59.4,266.7,59.4,267.4z"/>
				<path class="st10" d="M59.4,267.4c0,1.5-0.5,2.8-0.7,3.1c-6,0.1-11.9,0.2-17.9,0.4c-0.1-1.3-0.1-2.3,0-3.1
					C40.8,267.8,59.4,267.4,59.4,267.4z"/>
				<path class="st0" d="M42.3,199.3h0.1"/>
				<path class="st0" d="M63.6,199.3c-1,5.7-2.5,12.8-3.9,19.5c-1.6,8.1-2.4,11-3.3,16.4c-0.9,5.6-1.7,14-2,21v0.1"/>
			</g>
			<g>
				<path class="st6" d="M71.4,210.5c-0.4,14.9-0.8,29.9-1.1,44.8c0,0.1,0,0.3,0,0.4c-1.7,0.8-3.3,2-4.1,3.3
					c0.1-0.3,0.2-0.6,0.3-0.9c0.1-0.3,0.2-0.7,0.4-1.1c0.1-3.2,0.2-6.3,0.3-9.6c0.3-11.6,0.2-22.8-0.2-33.7
					c-0.7-2.4-1.3-5.1-1.8-8.2c-0.3-1.8-0.4-4.8-0.5-6.5c1.2,0,2.4,0,3.5,0c0.9,0,1.8,0,2.6,0C71,202.9,71.2,206.7,71.4,210.5z"/>
				<path class="st7" d="M85.7,198.9c-1,5.7-2.6,12.9-3.9,19.7c-1.6,8.1-2.4,11-3.3,16.4c-0.9,5.6-1.7,13.9-2,20.9c0,0,0,0.1,0,0.1
					c-0.5-0.4-0.9-0.7-1.5-0.9c-0.1,0-0.3-0.1-0.4-0.1c0-0.1,0-0.2,0-0.2c0.2-7,0.9-13,1.6-17.8c1.1-6.6,2.6-12.8,5.3-28.5
					c0.6-3.5,1.1-6.7,1.6-9.6c0.8,0,1.6,0,2.4,0C85.5,198.9,85.7,198.9,85.7,198.9z"/>
				<path class="st8" d="M83.1,198.9c-0.5,2.9-1,6.1-1.6,9.6c-2.7,15.7-4.2,21.9-5.3,28.5c-0.8,4.8-1.5,10.8-1.6,17.8
					c0,0.1,0,0.1,0,0.2c-1.3-0.3-2.8,0-4.3,0.7c0-0.1,0-0.3,0-0.4c0.4-15,0.8-29.9,1.1-44.8c-0.2-3.8-0.4-7.6-0.7-11.4
					C74.9,199.1,79,199,83.1,198.9z"/>
				<path class="st0" d="M79.3,263.5c0,0.1,0,0.1,0,0.2 M66.1,258.6c0.1-0.2,0.2-0.3,0.3-0.5c0.9-1.1,2.3-2.2,3.9-2.8
					c1.5-0.6,3-0.8,4.3-0.5c0.1,0,0.2,0.1,0.3,0.1c0.5,0.2,1,0.5,1.4,0.9c0.1,0,0.1,0.1,0.2,0.1 M62.7,267.4h-0.3 M81.6,267h-0.3
					 M64.5,199L64.5,199c0-0.1,0-0.2,0-0.2 M64.3,263.9c-0.2,0-0.3,0.1-0.4,0.1"/>
				<path class="st9" d="M85.6,198.7c0,0.1,0,0.2,0,0.2c-0.8,0-1.6,0-2.4,0c-4.1,0-8.2,0.1-12.3,0.2c-0.9,0-1.8,0-2.6,0
					c-1.2,0-2.4,0-3.5,0c0.1,1.6,0.2,4.7,0.5,6.5c0.5,3,1.1,5.8,1.8,8.2c0.4,10.9,0.4,22.1,0.2,33.7c-0.1,3.2-0.2,6.4-0.3,9.6
					c-0.1,0.4-0.3,0.8-0.4,1.1c-0.1,0.3-0.2,0.6-0.3,0.9c0.8-1.3,2.4-2.5,4.1-3.3c1.5-0.6,3-1,4.3-0.7c0.1,0,0.3,0.1,0.4,0.1
					c0.5,0.2,1,0.5,1.5,0.9c0,0,0-0.1,0-0.1c1.9,1.7,3.1,5.1,2.9,7.5c-0.2-0.1-0.5-0.3-0.7-0.4c-3.9-1.8-11.9,0.2-14.3,0.8
					c0.1-0.1,0.2-0.3,0.3-0.5c0.3-0.6,0.2-0.9,0.4-1.7c0.1-0.5,0.2-0.7,0.7-2c0.2-0.7,0.6-1.7,1-2.9c0.1-3.2,0.2-6.4,0.3-9.6
					c0.2-11.6,0.2-22.8-0.2-33.7c-0.7-2.4-1.3-5.1-1.8-8.1c-0.3-1.8-0.4-4.7-0.5-6.4c0.3,0,0.6,0,0.9,0h1.1
					C72,198.9,79.7,198.8,85.6,198.7L85.6,198.7z"/>
				<path class="st9" d="M81.4,267l-18.6,0.3c0.1-1.5,0.5-2.3,0.9-2.7c0.1-0.1,0.4-0.3,0.7-0.8c2.4-0.7,10.4-2.7,14.3-0.8
					c0.3,0.1,0.5,0.3,0.7,0.4c0.9,0.6,1.3,1.2,1.4,1.4C81.2,265.6,81.4,266.3,81.4,267z"/>
				<path class="st10" d="M81.4,267c0,1.5-0.5,2.8-0.7,3.1c-6,0.1-11.9,0.2-17.9,0.4c-0.1-1.3-0.1-2.3,0-3.1L81.4,267z"/>
				<path class="st0" d="M64.3,198.9h1c5.1,0,10.4-0.1,15.5-0.2h0.6c0.7,0,1.5,0,2.2,0c0.2,0,0.4,0,0.6,0h1.3v0"/>
				<path class="st0" d="M85.5,198.9c-1,5.7-2.5,12.8-3.9,19.5c-1.6,8.1-2.4,11-3.3,16.4c-0.9,5.6-1.7,14-2,21v0.1"/>
			</g>
		</g>
		<path class="st11" d="M89.7,61.5C89.6,61.5,89.6,61.4,89.7,61.5c-3.3-0.1-6.8-0.1-10.3-0.1c-0.6,0-1.2,0-1.8,0c-0.6,0-1.1,0-1.7,0
			c-0.5,0-1.1,0-1.6,0c-0.4-1-0.7-1.9-0.9-2.8c5.1,0.2,11,0.3,16.2,0.5C89.8,59.7,89.6,60.8,89.7,61.5L89.7,61.5z"/>
		<path class="st12" d="M86.6,61.6c-2.4,0-4.9,0-7.3,0c2.4,0,4.9,0.1,7.1,0.2c-0.4,1.2-1.3,3.2-1.7,4.4c-2.2,0.3-5.1,0.2-7.3-1.3
			c-1.4-0.9-2.2-2.2-2.8-3.6c0.5,0,1,0,1.6,0c0.5,0,1.1,0,1.7,0c0.6,0,1.2,0,1.8,0C82,61.3,84.5,61.4,86.6,61.6
			C86.7,61.5,86.6,61.5,86.6,61.6L86.6,61.6z"/>
		<g>
			<path class="st8" d="M94,43.2c-0.6,0-1.2-0.1-1.9-0.2c-3.9-1-5.5-4.6-5.7-5c0.2,1.8,0.4,3.5,0.6,5.2v0c0,0,0,0,0,0.1
				c-0.4,0-1.5,0.1-3-0.1h0c-2-0.3-4.6-1-7-3c-3.3-2.8-4.3-6.4-4.5-7.6c-3.1,3-4.6,6-5.4,7.8c-0.4,0.9-4.2,9.9-0.9,19.6
				c0.9,2.5,1.8,3.8,2.4,5.4c2.6,1.6,5.7,3,9.3,4c3.4,0.9,6.6,1.1,9.3,1.1c2.7-1.7,4.3-4,5.2-5.2c0.1-0.2,0.3-0.4,0.4-0.5
				c0,0,0,0,0,0c0.2-0.3,0.3-0.6,0.5-1l0,0c0.4-3.8,0.8-7.9,0.9-12.2C94.2,48.5,94.1,45.8,94,43.2L94,43.2z M84.7,47.4
				c1.1,4.3,2.3,5.5,3.3,5.7c0.3,0.1,1,0.1,1,0.4c0.1,0.5-1.3,1.2-2.2,1.6c-0.1,0,0.2-0.5,0.1-0.5c-1.1-1.1-1.7-1.9-2-3.3
				C84.7,49.7,84.6,48.8,84.7,47.4z M76,45.8c0.2-0.8,0.7-1.4,1.2-1.4c0.8,0,1.4,1.2,1.4,2.7s-0.6,2.7-1.4,2.7c-0.7,0-1.3-1-1.4-2.3
				c0-0.1,0-0.2,0-0.4C75.8,46.7,75.9,46.2,76,45.8L76,45.8z M88.1,65.7c0.1,0,0.1,0,0.1,0C88.2,65.7,88.2,65.7,88.1,65.7z
				 M89.8,61.6c0,0-0.2,0.1-0.3,0.2c-0.1,0.1-0.1,0-0.1,0c-3.2,0-6.7-0.1-10.2-0.1c2.4,0,4.9,0.1,7.1,0.2c-0.4,1.3-1.3,3.2-1.7,4.5
				c1.7-0.3,2.7-0.5,3.2-0.6c-1.4,0.4-7.1,1.9-10.8-0.6c-1.4-0.9-2.2-2.2-2.8-3.6c-0.5-1-0.7-2.1-0.9-3.1c5.2,0.2,11.2,0.3,16.6,0.5
				C89.9,59.8,89.8,61,89.8,61.6L89.8,61.6z M91.7,47.3c0,1.5-0.6,2.6-1.4,2.6c-0.8,0-1.4-1.2-1.4-2.7s0.6-2.7,1.4-2.7
				C91,44.5,91.7,45.7,91.7,47.3C91.7,47.2,91.7,47.3,91.7,47.3z"/>
			<path class="st7" d="M96.1,53.7c-0.2,1.5-0.6,3.1-1,4.7c-0.5,1.7-1.2,3.3-1.8,4.6c0.4-3.8,0.8-7.9,0.9-12.2
				c0.1-2.9,0-5.6-0.1-8.2c0.8,0,2-0.1,2.6-0.3C96.7,45.6,96.1,50.4,96.1,53.7L96.1,53.7z"/>
			<path class="st6" d="M87.2,70.4c-0.7,0.5-1.5,0.9-2.4,1.2c-2.6,1-5.4,1-7.8,0.6c-3.6-0.6-6.6-2.3-7.6-2.9c0-0.3,0-0.6-0.1-0.9
				c-0.1-1.3-0.3-2.3-0.7-3.1c2.6,1.6,5.7,3,9.3,4C81.4,70.2,84.5,70.4,87.2,70.4z"/>
			<path class="st6" d="M76.8,75.4c0,0.2,0,0.4-0.1,0.6c-1.3,0-2.7,0-4.3-0.3c-1.4-0.2-2.6-0.6-3.8-1c0.8-2,0.8-4.1,0.7-5.5
				c1.1,0.6,4,2.2,7.6,2.9C77,74.1,77,73.4,76.8,75.4L76.8,75.4z"/>
			<path class="st8" d="M76.7,76c-0.2,1.9-0.5,3.2-1.4,4.4c-1.9,2.4-5.1,2.7-5.9,2.8c-0.5,0-3.8,0.2-6.6-2.1
				c-0.7-0.6-1.8-1.9-2.5-3.1c2.1-1.7,3-3.7,3.5-4.7c0,2.2,0.1,4.4,0.1,6.6c0.9-0.4,2.1-1.1,3.2-2.4c0.8-0.9,1.3-1.8,1.6-2.8
				c1.2,0.4,2.4,0.8,3.8,1C73.9,76,75.4,76,76.7,76z"/>
			<path class="st7" d="M89,53.4c0.1,0.5-1.3,1.2-2.2,1.6c-0.1,0-0.1,0-0.2,0.1c-1.1-1.1-1.9-2.4-2.2-3.8c-0.3-1.5-0.1-2.9,0.3-3.9
				c1.1,4.3,2.3,5.5,3.3,5.7C88.3,53.1,88.9,53.1,89,53.4z"/>
		</g>
		<path class="st13" d="M112.4,96.2C112.4,96.2,112.4,96.2,112.4,96.2c-0.5,0.2-1,0.4-1.6,0.4c-0.2,0.1-0.5,0.1-0.7,0.2
			c-0.2,0.1-0.4,0.1-0.6,0.1c-2.3,0.5-4.6,0.8-6.9,1.2c-0.4,0.2-0.7,0.3-1.2,0.3c-0.3,0.1-0.7,0.1-1.1,0.1c0,0,0,0-0.1,0
			c-0.4,0.2-0.4,0.2-0.9,0.2c-0.3,1.6-0.5,5.4-2.2,10.9c-1.4,4.5-4.4,9.4-6.5,11.6c-0.1,0-0.3,0-0.4,0c0.7,1.4,1.4,2.9,2,4.3
			c2.5,1.8,6.7,3.1,9.2,3.5c3.5-4.4,7.5-10.8,9.6-19.3C112.2,104.6,112.5,99.9,112.4,96.2z"/>
		<path class="st14" d="M40,144.4c19,0.1,38,0.3,57,0.4c0.2-4.8,0.3-10.1,0.3-15.9c0-5.4-0.1-11-0.3-16.8c-0.2-6.4-0.6-12.5-1-18.5
			c-0.2-2.8-0.5-5.6-0.7-8.4c0.6,2.8,1.2,5.6,1.8,8.3c0.5,2.9,1.1,5.8,1.6,8.7c4.5-1.3,9-2.7,13.5-4c0.9-7.4-1.2-12.3-2.2-15.4
			c-1.6-4.6-2.8-7.9-6.7-10.6c-1.5-1.1-5.8-2.5-9.1-1.6c-2.4,0.7-5.5,1.4-7.8,2.3c-2.1,0.3-4.1,0.5-6.2,0.8c-1,3.8-3.8,6.7-7.1,7.3
			c-4.6,0.8-9.9-2.8-10.9-8.9c-2.3,0.1-5.1-0.9-7.5-0.8c-2.5-1.1-4.5-1-7.1-2.1c-3.3-0.6-4.6-1.1-7.9-0.3c-2.5,0.6-3.3,1-4.2,2
			c-5.6,6.7-8.5,22.8-8.9,25.1c5.2,0.9,10.3,1.9,15.5,2.8c1.7-4.7,3.4-9.4,5-14.1c-1.7,6.9-4.2,18-6.1,30.6
			c-1,6.5-1.4,10.5-1.5,13.2c0,0.6-0.3,2.6-0.5,5.7c0,0.6,0,3.6,0,3.8C39.3,140.7,39.5,142.5,40,144.4L40,144.4z"/>
		<path class="st15" d="M54.7,71.4C55,72.5,57.5,84.1,67.3,87c1.7,0.5,7.3,2.1,12.2-1.1c6.2-4.1,6-12.2,6-12.7"/>
		<path class="st16" d="M76.1,144.2c-12-0.1-24-0.2-36-0.3c-0.5-1.8-0.7-3.7-0.9-6.2c0-0.3,0-3.2,0-3.8c0.2-3,0.4-5.1,0.5-5.7
			c0.2-2.7,0.6-6.7,1.5-13.2c1.8-12.2,4.3-23,6-29.9c3,1.6,10.4,6.2,11.8,10.1c0.6,1.6,0.6,2.8,0.7,4.8c0.3,11.1,0.6,16.2,1.3,20.6
			c0.9,5.6,1.8,7.2,2.3,7.9c2.5,3.5,6.4,2.4,9.6,5.5C74.4,135.5,75.8,139.6,76.1,144.2L76.1,144.2z"/>
		<path class="st17" d="M27.4,93.1c1.4-0.3,4.9,0.1,6.9,0.4c4.9,0.8,7,1.4,8.8,2.5"/>
		<path class="st18" d="M98.1,98.9c1-1,4.2-2.2,6-2.8c4.6-1.4,6.6-1.8,8.7-1.3"/>
		<path class="st19" d="M46.6,85.3c2.7,1.3,10.8,6.3,12.3,10.4c0.6,1.6,0.6,2.8,0.7,4.8c0.3,11.1,0.6,16.2,1.3,20.6
			c0.9,5.6,1.8,7.2,2.3,7.9c2.5,3.5,6.4,2.4,9.6,5.5c1.5,1.4,2.9,5.7,3.2,10.4"/>
		<path class="st20" d="M96.9,129.1c-0.1-0.4-0.2-0.7-0.3-1c-0.7-0.3-1.7-0.9-2.5-1.7c-1.9-1.9-2.2-4.1-2.3-4.9
			c-12.5,0.1-28.7,1-41.2,1.1c-2.3-2.3-5.4-7.3-6.8-11.8c-1.7-5.5-1.7-9.4-2-11c-0.6-0.1-0.6,0-1-0.3c0,0,0,0-0.1,0
			c-0.4,0-0.8-0.1-1.2-0.2c-0.5-0.1-0.9-0.2-1.3-0.4c-2.7-0.4-4.7-0.8-5.6-0.9c-0.1,0-1.2-0.2-2.1-0.4c-0.2-0.1-0.4-0.1-0.7-0.2
			c-0.3-0.1-0.5-0.1-0.8-0.2c-0.7,0-1.3-0.2-1.8-0.4c0,0,0,0,0,0c-0.3,3.8-0.1,8.4,1.1,13.6c2.9,12.3,10.3,20.5,14.3,24.3
			c15.3-1.3,31-2.1,47.3-2.4c2.2,0,4.3-0.1,6.5-0.1C96.6,131.5,97.1,130.4,96.9,129.1L96.9,129.1z"/>
		<path class="st7" d="M42.2,133.6c-4.2-4.2-10.3-11.6-13.2-22.1c-1.4-5.1-1.6-9.7-1.5-13.5c0,0,0-0.8,0-0.8c0.1,0,0.3,2.8,0.4,2.9
			c0.3,1.7,1.8,9.3,2.4,10.9c2,5.3,5.9,13.8,8.9,18.4C40,130.6,41.1,131.9,42.2,133.6z"/>
		<path class="st6" d="M81.1,122c-7,2.3-20.2,4-30.5,0.9C59.9,122.8,71,122.3,81.1,122z"/>
		<path class="st6" d="M49.3,122.4c-2.1-1.2-5.1-4.2-7.9-8.7c-3.6-5.8-2.9-11.4-2.3-14.1c0.3,0.1,0.7,0.1,1.2,0.1h0.1
			c0.5,0.3,0.5,0.2,1,0.3c0.3,1.6,0.3,5.4,2,11c1.3,4.3,4.4,9.2,6.7,11.6c0,0,0.4,0.3,0.4,0.3C49.9,122.7,49.9,122.7,49.3,122.4z"/>
		<path class="st7" d="M97.7,128.9c-0.9-0.4-2.5-1.3-3.1-1.7c-2.8-2.1-4-4.9-5-8.1c-3-9-3.7-15.9-5.1-24.3
			c-0.6-3.6-1.1-8.4-1.4-10.1c0.4-0.1,1-0.2,1.5-0.3c0.6,7.6,1.5,19,4.9,29.3C91.7,120.4,93.1,124,97.7,128.9L97.7,128.9z"/>
		<path class="st6" d="M104.7,126.7c-0.2,0.6-0.5,1.1-0.8,1.6c-1.3-6.2-3-12.9-5.2-20.1c-3.2-10.1-6.5-18.1-10.1-25.6
			c0.7-0.4,1.5-1.1,1.9-1.5c3.6,8.1,8.2,21.7,11.8,29.8c1.3,3,1.6,4,2.1,5.8C105.9,122.8,105.2,125.3,104.7,126.7z"/>
		<path class="st16" d="M111.6,97.8c0,0.1-1.2,0.5-2.4,0.8c-2.3,0.5-4.1,1.4-6.4,1.8c-0.3,0.2-0.8,0.3-1.2,0.3"/>
		<path class="st21" d="M108,79.9c-0.9,0.1-4.9,0.3-8.3-2.7c-2-1.8-2.9-3.9-3.2-4.9c-0.2,1.8-0.4,3.7-0.6,5.5
			c-0.5-0.2-3.8-1.5-4.9-5.1c-0.8-2.6-0.1-4.8,0.2-5.5c0.5-0.8,1.1-1.8,1.7-2.8v0c2.6-4,3.2-8,3.3-10v-0.2c0.5-3.5,0.5-6.9,0.2-9.4
			v0c0-0.7,0-1.4,0-2c-0.1,0-0.2,0-0.2,0.1c-1,0.3-2.4,0.4-4,0c-3.9-1-5.5-4.6-5.7-5.1c0,0.3,0.1,0.7,0.1,1c-0.2-0.4,0-0.9,0-1
			c0.2,1.6,0.3,3.4,0.5,5c0,0.1-0.3,0.2-0.3,0.3c-0.5,0-1.5,0-2.6-0.1h0c-2-0.3-4.6-1-7-3.1c-3.3-2.8-4.3-6.4-4.6-7.6
			c-0.1,0.1-0.2,0.2-0.3,0.3c0,0,0,0,0-0.1c-3,3-4.6,6-5.4,7.8c-0.4,0.9-3.6,9.6-0.3,19.3c0.9,2.5,1.8,3.9,2.4,5.6
			c0.3,0.9,0.5,1.7,0.7,3c0,0.2,0,1.7,0,2c0.1,1.4-0.4,2.6-1.2,4.6c-0.4,1-0.9,1.9-1.6,2.8c-0.5,0.5-0.9,1-1.4,1.3
			c0,0-0.1,0.1-0.1,0.1c-0.5,0.4-1,0.6-1.4,0.8c0-2.2-0.1-4.4-0.1-6.6c-0.1,0.2-0.2,0.4-0.3,0.6c0-0.1,0-0.3,0-0.4
			c-0.4,1-1.3,2.8-3.2,4.4c-0.1,0.1-0.2,0.2-0.3,0.2c0,0,0,0,0,0c0,0,0,0,0,0c-0.7,0.6-1.5,1-2.2,1.3c0.3-1-0.5-2.4-0.2-4
			c2.8-4.8,3.9-8.7,3.9-12c0.1-5.1-1.4-7.9-1.1-17.9c0.1-3.5,0.6-7.8,1.8-12.3c0.8-3,1.4-4.4,2.3-6.1c-2.4,1-5.2,2-7.6,3
			c0.3-0.5,1.4-2.5,2-3.4c1.1-1.5,2.2-3.3,4.6-4.7c4-2.3,6.5-2.7,8.1-2.7c-1.8-0.8-2-0.5-4.6-1.1c-2.2-0.5-5.9-0.5-7.6-0.6
			c2.5-1.5,6-5.4,10.7-6.5c3.8-0.8,7-0.5,9.5-0.4c-3.1-1.6-5.1-2.1-6.9-4.1c3.9,0,7.8,0.7,11.5,2.3c9.8,4.2,14.1,12.4,15,14.3
			c3,6.1,3.2,11.7,3,14.7c1.9,3.4,2.4,3.9,2.8,7.8c0.3,3.5-0.1,5.9-1.3,8.7c-0.7,1.9-3.7,9.8-0.6,18.2C103.7,74.4,105,77.1,108,79.9
			L108,79.9z"/>
		<path class="st22" d="M81.9,11.4c-3.1-1.6-6.2-3.1-9.3-4.7h0c-2.4,0-4.8,0.3-7.1,0.8c-0.4,0.1-0.8,0.2-1.2,0.3
			c-4.7,1.3-9,3.6-12.3,6.6c-4.7,4.2-6.7,9-7.8,11.8c-0.8,2-2.2,5.3-2.9,9.5v0c0,0,0,0,0,0.1c-0.6,3.5-0.6,7.5,0.6,11.9
			c0,0.1,0,0.2,0.1,0.3c0.1,0.3,0.2,0.6,0.3,0.9c3.2,10.1,11,15.3,13.5,16.7c0.6,3.6,1.2,7.8,0.9,8.5c-1.2,3.5-3.4,5.6-4.4,6.4
			c0.5,0,1.6,0,3-0.2c0.1,0,3.1-0.6,3.2-0.6c1.3-1.6,1.3-3.2,2.2-4.6c0.1-0.2-1.6,0.2-1.5-0.1c2.5-4.5,3.3-8.4,3.3-11.5
			c0.1-5.2-1.7-8.4-1.4-18.4c0.1-3.5,0.5-7.5,1.8-12c0.8-3,1.8-5.4,2.6-7.1c-2.4,1-4.9,2-7.3,3c0.3-0.5,0.8-1.3,1.4-2.2c0,0,0,0,0,0
			c1.1-1.5,2.8-3.2,5.2-4.6c4-2.3,7.7-2.5,9.4-2.5c-1.8-0.8-4.1-1.6-6.7-2.2c-2.2-0.5-4.2-0.8-5.9-0.9c2.5-1.4,6.1-3.2,10.9-4.3
			C76.1,11.5,79.4,11.3,81.9,11.4L81.9,11.4z M54.1,52.5c-1.9-0.9-2.9-3.1-2.4-5c0.4-1.5,1.7-2.7,3.4-3.1v0
			c-0.3,2.6-0.6,5.2-0.9,7.9C54.2,52.4,54.2,52.5,54.1,52.5z"/>
		<path class="st23" d="M41.8,47.9c-0.7-0.4-1.4-0.7-2-1.1c-1.8-1.1-3.2-2.4-3-5.5c0-0.3,0.1-0.7,0.2-1c0.7-2.9,3.6-4.3,4.3-4.6
			C40.6,39.3,40.6,43.4,41.8,47.9z"/>
		<path class="st21" d="M38.7,67.5c0.7,5.6,0.2,10.1-0.1,12.4c-0.3,2.6-1,5.9-2.1,9.6c-0.5-1.9-1-4.2-1.3-6.8
			c-0.3-4.1,0.1-7.6,0.6-10.1c-1.2,3.2-2.8,9.3-1.5,16.7c0.6,3.2,1.5,5.8,2.5,7.8C35.9,97,27,96,23.3,89c-2.6-4.9-1.2-10.2-0.5-13
			c1.3-5.3,3-4.3,4.7-9.7c0.9-2.9,1.5-8.1,2.8-18.3c0.1-0.6,0.3-2.1,1.3-3.7c1.3-1.9,4.2-3.5,5.5-4c-0.1,0.3-0.1,0.6-0.2,1
			c-0.2,3.1,1.3,4.5,3,5.5C39,49,37,54.3,37,58C37.1,61.8,38.1,62.6,38.7,67.5z"/>
		<g>
			<g>
				<path class="st24" d="M58.5,35.9c-0.5,2.5-1.4,4.8-1.9,7.3c-1.6,7.3-1.7,15-0.1,22.3c0,0,0.3,1.3,0.3,1.3l-1.1-0.7
					c-9.6-5.5-16-16.5-15.1-27.7c0.4-5.5,2.4-10.8,4.8-15.7C50.2,12.5,61.3,6.3,72.3,6.2c11.2-0.3,22,6.2,27.1,16.1
					c2.5,4.8,3.8,10.3,3.4,15.7c0,0.2,0.1,0.2-0.4,0.2c-0.5-0.1-0.4-0.1-0.4-0.1c0-0.5,0-1.4,0-1.9c-0.5-23.1-25.1-36.5-44.9-24.7
					c-7.2,4-11.3,11.5-13.8,19.1c-4.7,13.2,0.9,27.5,13,34.5c0,0-0.8,0.6-0.8,0.6C53.8,58.2,54,50.4,55.8,43
					C56.5,40.5,57.1,38,58.5,35.9C58.5,35.9,58.5,35.9,58.5,35.9z"/>
				<path class="st24" d="M56.1,64.8c1.1,2.7,1.1,5.6,1.2,8.6c-0.5,2.9-2.5,5.5-4.6,7.5c0,0-0.3-0.9-0.3-0.9c4.7,0.2,9.3-2.6,11.1-7
					c0,0,1-2.4,1-2.4l0,2.6l0.1,6.6l-0.8-0.5c1.9-0.9,3.4-2.4,4.3-4.3c1.3-2.8,1.2-6.3,0.4-9.2c-1.2-3-2.9-6-3.4-9.3
					c-1.6-8.7,0.9-18.4,7.3-24.6c0,0,0.7-0.7,0.7-0.7c0.4,1.9,1,3.7,2,5.3c2.5,4.1,7.4,6.3,12.2,6c0,0-0.5,0.6-0.5,0.6l-0.6-5.3
					l-0.4-3.4l1.4,3.1c1.6,4,6.5,6.2,10.4,4.3c0,0-0.3,0.4-0.3,0.4c0.9-5.6-0.1-11.5-2.7-16.5c-0.3-0.7-0.7-1.4-1.1-2.1
					c0,0,0-0.1,0.3-0.3c0.4-0.2,0.3-0.2,0.4-0.1c3.7,5.6,5,12.5,4.1,19.1c0,0,0,0.3,0,0.3L98,42.6c-3.3,1.5-7.4,0.8-9.8-1.9
					c-0.8-0.9-1.5-1.8-2-2.9l1-0.3c0.1,0.5,0.7,5.5,0.7,5.8c-7.1,0.9-14.2-4-15.6-11.1c0,0,0.9,0.3,0.9,0.3
					c-7.7,7.5-9.7,20.1-5,29.7c3.5,6.1,2.7,15.5-4.6,18.3c0-0.3-0.1-6.8-0.1-7.4c0,0,1.1,0.2,1.1,0.2c-2.2,5.4-7.8,8.3-13.5,7.6
					c2.4-1.9,4.7-4.5,5.4-7.6C56.7,70.5,55.9,67.7,56.1,64.8L56.1,64.8L56.1,64.8z"/>
				<path class="st24" d="M96.4,42.3c0.9,2,0.8,4.3,0.9,6.4c0.2,6.6-1.7,13.2-5.4,18.6c-0.5,1.3-0.7,4.1,0.2,5.8
					c0.8,1.8,2.5,3.3,4.3,4l-0.7,0.4l0.6-5.5l0.3-2.5l0.8,2.4c1.4,4.7,6.2,7.7,11,7.2c0,0-0.3,0.9-0.3,0.9
					c-5.8-5.2-7.5-13.7-5.9-21.1c0.6-3.7,2.7-6.9,2.8-10.7c0.1-2.7-0.1-5.5-1.5-7.9c-0.2-0.3-0.8-1.5-1-1.8c0,0-0.2-0.3-0.2-0.3
					l-0.1-0.2l0-0.1c0,0-0.2,0,0.3-0.3c0.5-0.2,0.3-0.1,0.4-0.1l0,0.1c0,0.1,0.2,0.4,0.3,0.4c2.2,3,2.7,6.5,2.7,10.2
					c0.1,3.8-2.1,7.2-2.7,10.9c-1.5,7.1,0,15.1,5.6,20.1c0,0,0.9,0.8,0.9,0.8l-1.2,0.1c-5.3,0.5-10.6-2.8-12.1-7.9c0,0,1-0.1,1-0.1
					l-0.6,5.5l-0.1,0.7c-4.8-1.5-7.7-6.9-5.7-11.7c3.6-5.3,5.4-11.6,5.4-18C96.5,46.6,96.1,44.5,96.4,42.3L96.4,42.3L96.4,42.3z"/>
			</g>
			<path class="st25" d="M41.6,35.6c-0.3,0.2-4.3,1.8-4.5,5.6c-0.3,4.3,2.6,5.3,5.1,6.7"/>
			<path class="st25" d="M37.3,40.2c-1.2,0.4-4.2,2.1-5.5,4c-1,1.5-1.2,3-1.3,3.7c-1.2,10.3-1.9,15.4-2.8,18.3
				c-1.7,5.4-3.3,4.4-4.7,9.7c-0.7,2.8-2.1,8.1,0.5,13c3.7,7,12.6,8,13.5,8.1c-1-2-2-4.7-2.5-7.8c-1.3-7.4,0.4-13.5,1.5-16.7
				c-0.5,2.5-1,6-0.6,10.1c0.2,2.6,0.7,4.9,1.3,6.8c1.2-3.7,1.8-7,2.1-9.6c0.3-2.3,0.8-6.8,0.1-12.4c-0.6-5-1.6-5.7-1.6-9.5
				c-0.1-3.9,2-9.3,2.8-11.4"/>
			<path class="st24" d="M75.5,30.2c1,5.7,5.3,9.8,9.8,13c0,0-0.1,0.2-0.1,0.2c-1.4-0.4-2.5-1.4-3.6-2.3
				C78.3,38.4,75.9,34.5,75.5,30.2C75.5,30.2,75.5,30.2,75.5,30.2z"/>
			<path class="st24" d="M81,34.4c0.7,3.6,3.2,6.8,6.6,8.3c0,0-0.3,0.6-0.3,0.6C83.9,41.5,81.5,38.1,81,34.4
				C81,34.4,81,34.4,81,34.4z"/>
			<path class="st24" d="M87.1,30.2c1,5.7,5,10.1,10.3,12.1c0,0-0.4,0.9-0.4,0.9C91.7,40.8,87.8,36,87.1,30.2L87.1,30.2L87.1,30.2z"
				/>
			<path class="st24" d="M45.2,36.9c1.8-0.4,4.2-1.3,4.4-3.4c0.1-0.9-0.2-2.2-0.1-3.3c0.5-6.2,5.4-10.1,11.2-11
				c-4.2,0.9-8.5,3.5-9.7,7.8c-0.5,1.6-0.7,3.1-0.5,4.7c0.1,0.5,0.2,1.1,0.1,1.7c0,1.3-0.9,2.5-1.9,3.2c-1,0.7-2.1,1.1-3.2,1.5
				L45.2,36.9L45.2,36.9L45.2,36.9z"/>
			<path class="st24" d="M43.6,36.8c0.5-12.6,10.4-23.7,22.8-25.6c-12,2.4-21.2,13.5-21.2,25.7C45.3,36.9,43.6,36.8,43.6,36.8
				L43.6,36.8L43.6,36.8z"/>
			<path class="st24" d="M44.7,40.6c2.8,2.3,4.3,5.8,4.3,9.3c0.4,3.4,2.5,6.3,4.9,8.7c-2.6-2.3-4.9-5.1-5.5-8.6
				c-0.2-3.4-1.8-6.5-4.5-8.5C43.9,41.6,44.7,40.6,44.7,40.6S44.7,40.6,44.7,40.6z"/>
			<path class="st24" d="M65.1,36.4c-9.1,18.9,6.8,24,0.1,42.9c0,0-0.9-0.3-0.9-0.3C71.3,60.6,55.6,55.1,65.1,36.4L65.1,36.4z"/>
			<path class="st24" d="M60,45.1c-2.3,5.4-2.8,11.5-1.5,17.2c1.4,5.7,1.5,11.9-0.4,17.5c0,0-0.7-0.2-0.7-0.2
				c1.9-5.6,1.9-11.5,0.7-17.3C57,56.6,57.6,50.5,60,45.1C60,45.1,60,45.1,60,45.1z"/>
			<path class="st26" d="M55.1,44.5c-0.3,2.6-0.6,5.2-0.9,7.9c-1.8-1-2.7-3-2.2-4.9C52.4,46,53.6,44.9,55.1,44.5L55.1,44.5z"/>
			<path class="st0" d="M55.4,44.4c-0.3,2.7-0.6,5.4-1,8.1c-0.1,0-0.2-0.1-0.3-0.1c0.3-2.6,0.6-5.2,0.9-7.9
				C55.2,44.5,55.3,44.4,55.4,44.4z"/>
			<path class="st0" d="M96.7,42.5c0,3.4-0.3,8.4-0.3,11.8c-0.2,2.1-0.8,6.4-3.8,10.6c-1.1,1.6-3.4,4.8-7.6,6.4
				c-7,2.7-14.8-1.5-15.7-2.1"/>
			<path class="st24" d="M84.6,45.3c1,2.5,1.8,5.8,4.5,6.8c0.2,0.1,0.5,0.1,0.8,0.7c0.1,0.3,0.1,0.6,0,0.8c-1.1,1.5-3.2,2-4.9,1.8
				c1.3-0.6,2.9-1.3,3.7-2.2c0,0-0.1,0.2,0,0.3c0.2,0.2,0.1,0.2,0,0.2C85.2,54.3,84.9,47.7,84.6,45.3L84.6,45.3L84.6,45.3z"/>
			<path class="st0" d="M91.7,58.9c-5.7-0.2-12.4-0.4-18.1-0.6c0.4,2.3,1.4,5.1,3.8,6.7c4.3,2.8,11.2,0.4,11.2,0.5
				c0,0-0.8,0.2-3.6,0.7c0.4-1.3,1.3-3.3,1.7-4.5c-3.8-0.1-8.7-0.2-12.4-0.2c4.9,0.1,10.7,0.1,15.6,0.2c0,0,0,0.1,0.1,0
				c0.1,0,0.2-0.1,0.3-0.2c-0.1-0.7,0.1-2,0-2.7"/>
			<g>
				<ellipse class="st27" cx="77.6" cy="46.9" rx="1.4" ry="2.7"/>
				<path class="st24" d="M76.3,46.1c-1.2-0.2-2.1-1.5-1.9-2.6c0.1,1,1,1.8,1.9,1.6C76.4,45.1,76.3,46.1,76.3,46.1L76.3,46.1z"/>
				<path class="st24" d="M76.2,47.8c-1.2-0.2-2.1-1.5-1.9-2.6c0.1,1,1,1.8,1.9,1.6C76.3,46.8,76.2,47.8,76.2,47.8L76.2,47.8z"/>
			</g>
			<g>
				<ellipse class="st27" cx="90.5" cy="47" rx="1.4" ry="2.7"/>
				<path class="st24" d="M91.9,45.2c0.8,0.2,1.6-0.5,1.7-1.3c0.3,1.1-0.6,2.2-1.7,2.3C91.9,46.2,91.9,45.2,91.9,45.2
					C91.9,45.2,91.9,45.2,91.9,45.2z"/>
				<path class="st24" d="M92,46.6c0.8,0.2,1.6-0.5,1.7-1.3c0.3,1.1-0.6,2.2-1.7,2.3C91.9,47.6,92,46.6,92,46.6
					C92,46.6,92,46.6,92,46.6z"/>
			</g>
			<path class="st24" d="M43.9,41.4c0,3.5,1.7,7,3.3,10.2c1.7,3.3,3.7,6.4,6,9.3c-1.2-1.4-2.4-2.8-3.5-4.3
				c-3.1-4.6-6.7-9.4-7.1-15.1C42.5,41.4,43.9,41.4,43.9,41.4L43.9,41.4L43.9,41.4z"/>
			<path class="st24" d="M45.5,38.3c3.8,0.3,5.9-2,7.8-5c1.6-2,2.6-4.7,4.9-6c0.8-0.4,1.6-0.6,2.5-0.7c-1.7,0.2-3.3,1.2-4.2,2.6
				c-2.9,4.4-4.6,10.5-11,10.5C45.5,39.7,45.5,38.3,45.5,38.3L45.5,38.3L45.5,38.3z"/>
			<path class="st24" d="M45.6,39.6c2.3,2.2,5.9,3.1,9,1.9c-3.1,1.7-7,1.2-9.9-0.8C44.7,40.7,45.6,39.6,45.6,39.6
				C45.6,39.6,45.6,39.6,45.6,39.6z"/>
		</g>
		<g>
			<path class="st28" d="M102.9,111.3c1.3,3,1.4,3.4,1.9,5.2c1.5,6,1,8.5,0.5,10c-0.5,1.4-0.9,2.5-2.1,3.2c-2.6,1.4-6.7-0.5-8.9-2.1
				c-2.8-2.1-3.9-4.8-5-8c-3-9-4-16.6-5.3-25c-0.6-3.6-1.1-8.5-1.4-10.2c1.1-0.2,2.1-0.5,3.7-1.2c1.9-0.8,3.6-1.9,4.4-2.6
				C94.3,88.6,99.3,103.2,102.9,111.3"/>
			<path class="st28" d="M90.7,80.5c-0.3-1.3-0.4-3.1-0.6-4.5c-0.1-0.7-0.1-1.3-0.2-2c0,0,0-1-0.1-2.8l-0.1-1.5c0,0,0.3-1.3,0.3-1.3
				c-0.1,0-2.9,2.5-4.1,3.1c-1.1,0.6-2.7,1.2-3.6,1.2c-0.9,0-1.7,0.6-7.4-1.8c-2.5-1.1-5.4-2.4-5.4-2.4c-0.1,0-1-0.1-1.4,0.4
				c-0.4,0.5-0.1,1.6,1,2.2c3.2,1.3,6.4,2.7,9.5,4c-1.4-0.8-2.6-1-3-0.6c-0.3,0.3-0.2,0.7-0.1,1c0.3,0.7,1.4,1.2,2.7,1
				c0.2,0,0.4,0,0.4,0c0-0.1-2.6-0.6-3,0.1c-0.2,0.4,0.2,1,0.7,1.4c0.8,0.6,1.8,0.3,1.9,0.3c0.2-0.1,0.4-0.1,0.4-0.1
				c0,0-1.8,0.1-2.1,0.7c-0.2,0.4,0.3,1,1.2,1.8c0.9,0.8,3.1,2.7,4.9,3.8c1,0,2.1-0.4,3.8-1C88.7,82.4,90,81.2,90.7,80.5z"/>
		</g>
	</g>
</g>
</svg>
