<?xml version="1.0" encoding="UTF-8"?>
<svg id="Layer_2" data-name="Layer 2" xmlns="http://www.w3.org/2000/svg" viewBox="0 0 90.46842 75.27368">
  <defs>
    <style>
      .cls-1 {
        fill: #e9782a;
      }

      .cls-2 {
        fill: #b02b2d;
      }

      .cls-3 {
        fill: none;
      }

      .cls-3, .cls-4, .cls-5, .cls-6, .cls-7, .cls-8, .cls-9, .cls-10 {
        stroke: #4e381a;
        stroke-miterlimit: 10;
      }

      .cls-11 {
        fill: #b4b4b4;
      }

      .cls-12, .cls-9 {
        fill: #644c2e;
      }

      .cls-4, .cls-13 {
        fill: #6d563a;
      }

      .cls-5 {
        fill: #c07139;
      }

      .cls-6 {
        fill: #4e381a;
      }

      .cls-13 {
        opacity: .21;
      }

      .cls-7 {
        fill: #eb8c46;
      }

      .cls-14 {
        fill: #bb652c;
      }

      .cls-8 {
        fill: #574025;
      }

      .cls-15 {
        fill: #f3f3f3;
      }

      .cls-16 {
        fill: #e02f31;
      }

      .cls-10 {
        fill: #6d6e71;
      }
    </style>
  </defs>
  <g id="Layer_1-2" data-name="Layer 1">
    <g>
      <g>
        <rect class="cls-5" x="74.77368" y=".5" width="15.15789" height="74.27368"/>
        <g>
          <rect class="cls-7" x=".5" y=".5" width="74.27368" height="74.27368"/>
          <g>
            <g>
              <polygon class="cls-1" points="9.02632 3.81579 3.43684 9.40526 3.43684 3.81579 9.02632 3.81579"/>
              <polygon class="cls-1" points="24.08947 3.81579 42.56316 3.81579 3.29474 43.08421 3.29474 23.45 22.92895 3.81579 24.08947 3.81579"/>
              <polygon class="cls-1" points="70.92793 4.17928 3.40097 71.70624 36.12105 71.70624 70.78024 37.04705 70.92793 4.17928"/>
              <polygon class="cls-1" points="43.25789 71.70624 58.35263 71.70624 70.96972 59.08915 70.96972 43.88947 43.25789 71.70624"/>
              <polygon class="cls-1" points="66.12105 71.70624 71.61579 71.70624 71.61579 65.23684 66.12105 71.70624"/>
            </g>
            <circle class="cls-6" cx="4.47895" cy="4.7" r=".56842"/>
            <circle class="cls-6" cx="70.7" cy="4.7" r=".56842"/>
            <circle class="cls-6" cx="4.52632" cy="70.86579" r=".56842"/>
            <circle class="cls-6" cx="70.46316" cy="70.86579" r=".56842"/>
          </g>
        </g>
        <g>
          <polygon class="cls-14" points="77.45619 66.20813 77.45619 71.85647 83.70882 71.85647 77.45619 66.20813"/>
          <polygon class="cls-14" points="77.76857 58.50287 89.36486 70.09917 89.36486 53.9555 77.64566 42.2363 77.76857 58.50287"/>
          <polygon class="cls-14" points="77.64566 38.70287 89.52105 50.57826 89.52105 16.1555 77.72376 4.35821 77.64566 38.70287"/>
          <circle class="cls-6" cx="78.65278" cy="4.59761" r=".56842"/>
          <circle class="cls-6" cx="78.65278" cy="70.7634" r=".56842"/>
        </g>
        <rect class="cls-10" x="82.35263" y="8.17368" width="7.57895" height="59.02105"/>
        <line class="cls-3" x1="82.35263" y1="12.40526" x2="90.08947" y2="12.40526"/>
        <line class="cls-3" x1="82.02105" y1="16.38421" x2="89.75789" y2="16.38421"/>
        <line class="cls-3" x1="82.27368" y1="20.36316" x2="90.01053" y2="20.36316"/>
        <line class="cls-3" x1="82.49474" y1="24.34211" x2="90.23158" y2="24.34211"/>
        <line class="cls-3" x1="82.02105" y1="28.32105" x2="89.75789" y2="28.32105"/>
        <line class="cls-3" x1="82.11579" y1="32.3" x2="89.85263" y2="32.3"/>
        <line class="cls-3" x1="81.78421" y1="36.27895" x2="89.52105" y2="36.27895"/>
        <line class="cls-3" x1="82.03684" y1="40.25789" x2="89.77368" y2="40.25789"/>
        <line class="cls-3" x1="82.25789" y1="44.23684" x2="89.99474" y2="44.23684"/>
        <line class="cls-3" x1="81.78421" y1="48.21579" x2="89.52105" y2="48.21579"/>
        <line class="cls-3" x1="82.35263" y1="52.19474" x2="90.08947" y2="52.19474"/>
        <line class="cls-3" x1="82.47895" y1="56.17368" x2="90.21579" y2="56.17368"/>
        <line class="cls-3" x1="82.73158" y1="60.15263" x2="90.46842" y2="60.15263"/>
        <line class="cls-3" x1="82.11579" y1="64.13158" x2="89.85263" y2="64.13158"/>
      </g>
      <g>
        <rect class="cls-4" x="6.75333" y="7.66076" width="58.26316" height="58.26316"/>
        <rect class="cls-8" x="65.0572" y="7.66076" width="4.64211" height="58.26316"/>
        <g>
          <polygon class="cls-12" points="9.35194 10.52632 9.35194 17.53684 16.22036 10.66842 9.35194 10.52632"/>
          <polygon class="cls-12" points="27.2572 11 40.52036 11 9.96773 41.55263 9.96773 28.52632 27.2572 11"/>
          <polygon class="cls-12" points="61.4325 11.0477 61.4325 33.64211 32.50275 62.57186 10.35559 62.57186 61.4325 11.0477"/>
          <polygon class="cls-12" points="61.4325 39.61053 61.4325 50.31579 48.79748 62.95081 38.0572 62.95081 61.4325 39.61053"/>
          <polygon class="cls-12" points="61.4325 55.33684 61.4325 61.98421 55.48878 61.98421 61.4325 55.33684"/>
          <circle class="cls-6" cx="61.20457" cy="11.56842" r=".56842"/>
          <circle class="cls-6" cx="10.58352" cy="62.08684" r=".56842"/>
          <circle class="cls-6" cx="10.55194" cy="11.56842" r=".56842"/>
          <circle class="cls-9" cx="61.23615" cy="61.98421" r=".56842"/>
        </g>
        <g id="g10">
          <g id="g12">
            <path id="path14" class="cls-11" d="m35.81076,12.22251l-23.11962,8.13622,3.65327,30.29083,19.49086,10.71261,19.59134-10.8578,3.65206-30.28962-23.26791-7.99225Z"/>
            <path id="path16" class="cls-2" d="m56.77281,21.96526l-21.01608-7.16654v44.00398l17.61243-9.74725,3.40364-27.0902Z"/>
            <path id="path18" class="cls-16" d="m15.28548,22.09473l3.13054,27.09002,17.34053,9.61794V14.79785l-20.47108,7.29688h0Z"/>
            <path id="path20" class="cls-15" d="m40.6281,36.68556l-4.83305-10.09285-4.25473,10.09286h9.08778Zm1.84269,4.24385h-12.81132l-2.86606,7.16879-5.33128.09857,14.29476-31.80016,14.79298,31.80016h-4.94129l-3.13779-7.26736h0Z"/>
            <path id="path22" class="cls-11" d="m35.75673,16.39662l.03815,10.19609,4.82805,10.10063h-4.85532l-.01087,4.22953,6.71372.00656,3.13796,7.26857,5.10115.0946-14.95284-31.89598Z"/>
          </g>
        </g>
        <polygon class="cls-13" points="10.48878 66.42105 14.02562 70.33684 73.72562 70.11579 74.02562 10.46316 70.19667 7.21053 70.26773 66.37368 10.48878 66.42105 10.48878 66.42105"/>
      </g>
    </g>
  </g>
</svg>