<?xml version="1.0" encoding="UTF-8"?>
<svg id="Layer_2" data-name="Layer 2" xmlns="http://www.w3.org/2000/svg" viewBox="0 0 312.33414 277.06316">
  <defs>
    <style>
      .cls-1 {
        fill: #d4d8d6;
      }

      .cls-2 {
        fill: #bcb5ab;
      }

      .cls-2, .cls-3, .cls-4, .cls-5 {
        stroke: #4e381a;
        stroke-miterlimit: 10;
      }

      .cls-3 {
        fill: #4e381a;
      }

      .cls-6 {
        fill: #b0a99d;
      }

      .cls-4 {
        fill: #edece9;
      }

      .cls-5 {
        fill: #716248;
      }
    </style>
  </defs>
  <g id="Layer_1-2" data-name="Layer 1">
    <g>
      <rect class="cls-4" x=".5" y=".5" width="276.06316" height="276.06316"/>
      <polygon class="cls-1" points="72.87895 4.16316 4.53158 73.06842 3.72105 152.26842 150.94211 4.16316 72.87895 4.16316"/>
      <polygon class="cls-1" points="273.38553 4.23816 269.17368 4.16316 4.44737 268.98421 4.44737 273.09737 138.53158 274.18982 273.95395 140.33158 273.38553 4.23816"/>
      <polygon class="cls-1" points="273.95395 235.77895 273.95395 172.54211 166.66842 273.84737 237.34211 273.84737 273.95395 235.77895"/>
      <polygon class="cls-1" points="274.35263 267.24737 274.35263 274.03684 267.53158 274.03684 274.35263 267.24737"/>
      <circle class="cls-3" cx="273.38553" cy="4.80658" r=".56842"/>
      <g>
        <rect class="cls-2" x="276.7815" y=".5" width="35.05263" height="276.06316"/>
        <polygon class="cls-6" points="279.59474 172.54211 308.64737 201.15263 308.64737 258.98947 279.59474 235.77895 279.59474 172.54211"/>
        <polygon class="cls-6" points="284.32887 3.84737 280.1 3.84737 279.59474 140.33158 308.3 168.75263 308.64737 27.78421 284.32887 3.84737"/>
        <rect class="cls-5" x="284.32887" y="8.01579" width="19.95789" height="4.42105" rx="2.21052" ry="2.21052"/>
        <circle class="cls-3" cx="308.07895" cy="4.41579" r=".56842"/>
        <circle class="cls-3" cx="280.66842" cy="4.41579" r=".56842"/>
        <rect class="cls-5" x="284.32887" y="15.68947" width="19.95789" height="4.42105" rx="2.21052" ry="2.21052"/>
        <rect class="cls-5" x="284.32887" y="23.36316" width="19.95789" height="4.42105" rx="2.21052" ry="2.21052"/>
        <rect class="cls-5" x="284.32887" y="31.41579" width="19.95789" height="4.42105" rx="2.21052" ry="2.21052"/>
        <rect class="cls-5" x="284.32887" y="39.16842" width="19.95789" height="4.42105" rx="2.21052" ry="2.21052"/>
        <rect class="cls-5" x="284.32887" y="46.84211" width="19.95789" height="4.42105" rx="2.21052" ry="2.21052"/>
        <rect class="cls-5" x="284.32887" y="54.51579" width="19.95789" height="4.42105" rx="2.21052" ry="2.21052"/>
        <rect class="cls-5" x="284.32887" y="62.56842" width="19.95789" height="4.42105" rx="2.21052" ry="2.21052"/>
        <rect class="cls-5" x="284.32887" y="70.05263" width="19.95789" height="4.42105" rx="2.21052" ry="2.21052"/>
        <rect class="cls-5" x="284.32887" y="77.72632" width="19.95789" height="4.42105" rx="2.21052" ry="2.21052"/>
        <rect class="cls-5" x="284.32887" y="85.4" width="19.95789" height="4.42105" rx="2.21052" ry="2.21052"/>
        <rect class="cls-5" x="284.32887" y="93.45263" width="19.95789" height="4.42105" rx="2.21052" ry="2.21052"/>
        <rect class="cls-5" x="284.32887" y="101.50526" width="19.95789" height="4.42105" rx="2.21052" ry="2.21052"/>
        <rect class="cls-5" x="284.32887" y="109.17895" width="19.95789" height="4.42105" rx="2.21052" ry="2.21052"/>
        <rect class="cls-5" x="284.32887" y="116.85263" width="19.95789" height="4.42105" rx="2.21052" ry="2.21052"/>
        <rect class="cls-5" x="284.32887" y="124.90526" width="19.95789" height="4.42105" rx="2.21052" ry="2.21052"/>
        <rect class="cls-5" x="284.32887" y="132.65789" width="19.95789" height="4.42105" rx="2.21052" ry="2.21052"/>
        <rect class="cls-5" x="284.32887" y="140.33158" width="19.95789" height="4.42105" rx="2.21052" ry="2.21052"/>
        <rect class="cls-5" x="284.32887" y="148.00526" width="19.95789" height="4.42105" rx="2.21052" ry="2.21052"/>
        <rect class="cls-5" x="284.32887" y="156.05789" width="19.95789" height="4.42105" rx="2.21052" ry="2.21052"/>
        <rect class="cls-5" x="284.32887" y="163.54211" width="19.95789" height="4.42105" rx="2.21052" ry="2.21052"/>
        <rect class="cls-5" x="284.32887" y="171.21579" width="19.95789" height="4.42105" rx="2.21052" ry="2.21052"/>
        <rect class="cls-5" x="284.32887" y="178.88947" width="19.95789" height="4.42105" rx="2.21052" ry="2.21052"/>
        <rect class="cls-5" x="284.32887" y="186.94211" width="19.95789" height="4.42105" rx="2.21052" ry="2.21052"/>
        <rect class="cls-5" x="284.32887" y="194.74211" width="19.95789" height="4.42105" rx="2.21052" ry="2.21052"/>
        <rect class="cls-5" x="284.32887" y="202.41579" width="19.95789" height="4.42105" rx="2.21052" ry="2.21052"/>
        <rect class="cls-5" x="284.32887" y="210.08947" width="19.95789" height="4.42105" rx="2.21052" ry="2.21052"/>
        <rect class="cls-5" x="284.32887" y="218.14211" width="19.95789" height="4.42105" rx="2.21052" ry="2.21052"/>
        <rect class="cls-5" x="284.32887" y="225.89474" width="19.95789" height="4.42105" rx="2.21052" ry="2.21052"/>
        <rect class="cls-5" x="284.32887" y="233.56842" width="19.95789" height="4.42105" rx="2.21052" ry="2.21052"/>
        <rect class="cls-5" x="284.32887" y="241.24211" width="19.95789" height="4.42105" rx="2.21052" ry="2.21052"/>
        <rect class="cls-5" x="284.32887" y="249.29474" width="19.95789" height="4.42105" rx="2.21052" ry="2.21052"/>
        <rect class="cls-5" x="284.32887" y="256.77895" width="19.95789" height="4.42105" rx="2.21052" ry="2.21052"/>
        <rect class="cls-5" x="284.32887" y="264.45263" width="19.95789" height="4.42105" rx="2.21052" ry="2.21052"/>
        <polygon class="cls-6" points="279.59474 267.65789 279.59474 273.72105 286.60526 273.72105 279.59474 267.65789"/>
      </g>
      <polygon class="cls-1" points="3.97368 3.65789 3.97368 10.60526 10.98421 3.65789 3.97368 3.65789"/>
      <circle class="cls-3" cx="5.1" cy="4.73158" r=".56842"/>
      <circle class="cls-3" cx="273.31053" cy="273.05" r=".56842"/>
      <circle class="cls-3" cx="5.01579" cy="273.09737" r=".56842"/>
    </g>
  </g>
</svg>