<?xml version="1.0" encoding="utf-8"?>
<!-- Generator: Adobe Illustrator 27.1.1, SVG Export Plug-In . SVG Version: 6.00 Build 0)  -->
<svg version="1.1" id="Layer_2_00000134243606271662536960000004903765244407595154_"
	 xmlns="http://www.w3.org/2000/svg" xmlns:xlink="http://www.w3.org/1999/xlink" x="0px" y="0px" viewBox="0 0 382.7 40.7"
	 style="enable-background:new 0 0 382.7 40.7;" xml:space="preserve">
<style type="text/css">
	.st0{fill:#AF584A;stroke:#4E381A;stroke-miterlimit:10;}
	.st1{fill:#AE463A;}
	.st2{fill:#E05D5D;stroke:#4E381A;stroke-miterlimit:10;}
	.st3{fill:#DD4949;}
	.st4{fill:#4E381A;stroke:#4E381A;stroke-miterlimit:10;}
	.st5{fill:none;stroke:#4E381A;stroke-miterlimit:10;}
	.st6{fill:#B58A7D;stroke:#4E381A;stroke-miterlimit:10;}
	.st7{fill:none;stroke:#4E381A;stroke-width:0.7009;stroke-miterlimit:10;}
	.st8{fill:#B3796C;}
</style>
<g id="Layer_1-2">
	<g>
		<rect x="268.8" y="0.5" class="st0" width="113.4" height="39.7"/>
		<g>
			<polygon class="st1" points="272,29.6 272,36.9 279.4,36.9 			"/>
			<polygon class="st1" points="272,13.1 272,4 297,4 329.4,36.4 294.2,36.4 272,14.2 			"/>
			<polygon class="st1" points="314.9,4 378.4,4 378.4,36.2 347.1,36.2 			"/>
		</g>
		<rect x="0.5" y="0.5" class="st2" width="268.3" height="39.7"/>
		<g>
			<polygon class="st3" points="3.5,10.9 10.4,3.9 3.5,3.9 			"/>
			<polygon class="st3" points="44.4,3.9 85.7,3.9 54.3,36.5 11.5,36.5 			"/>
			<polygon class="st3" points="116.5,36.5 192.3,36.5 224.8,4 149.3,4 			"/>
			<polygon class="st3" points="266,13 266,4 241.2,4 208.3,36.9 242.5,36.9 			"/>
			<polygon class="st3" points="259,36.9 266,36.9 266,29.6 			"/>
		</g>
		<circle class="st4" cx="4.6" cy="4.9" r="0.6"/>
		<circle class="st4" cx="4.6" cy="36" r="0.6"/>
		<circle class="st4" cx="272.9" cy="4.9" r="0.6"/>
		<circle class="st4" cx="272.8" cy="35.9" r="0.6"/>
		<circle class="st4" cx="378" cy="36" r="0.6"/>
		<circle class="st4" cx="377.8" cy="4.7" r="0.6"/>
		<circle class="st4" cx="265.1" cy="4.9" r="0.6"/>
		<circle class="st4" cx="265.1" cy="35.9" r="0.6"/>
		<g>
			<rect x="8.3" y="8.6" class="st5" width="51.3" height="23.7"/>
			<rect x="12.6" y="8.6" class="st5" width="0" height="23.7"/>
			<line class="st5" x1="59.6" y1="27.8" x2="55.1" y2="32.3"/>
			<line class="st5" x1="59.6" y1="24.5" x2="51.9" y2="32.3"/>
			<line class="st5" x1="59.6" y1="21" x2="48.3" y2="32.3"/>
			<line class="st5" x1="59.6" y1="17.6" x2="44.9" y2="32.3"/>
			<line class="st5" x1="59.6" y1="14" x2="41.3" y2="32.3"/>
			<line class="st5" x1="59.6" y1="10.8" x2="38.1" y2="32.3"/>
			<line class="st5" x1="58.2" y1="8.6" x2="34.5" y2="32.3"/>
			<line class="st5" x1="54.9" y1="8.6" x2="31.5" y2="32"/>
			<line class="st5" x1="51.3" y1="8.6" x2="27.9" y2="32"/>
			<line class="st5" x1="48" y1="8.6" x2="24.5" y2="32"/>
			<line class="st5" x1="44.4" y1="8.6" x2="20.9" y2="32"/>
			<line class="st5" x1="41.2" y1="8.6" x2="17.7" y2="32"/>
			<line class="st5" x1="37.6" y1="8.6" x2="14.1" y2="32"/>
			<line class="st5" x1="34.1" y1="8.6" x2="12.9" y2="29.8"/>
			<line class="st5" x1="30.9" y1="8.6" x2="12.6" y2="26.8"/>
			<line class="st5" x1="27.3" y1="8.6" x2="12.6" y2="23.3"/>
			<line class="st5" x1="23.6" y1="8.6" x2="12.6" y2="19.5"/>
			<line class="st5" x1="20.4" y1="8.6" x2="12.6" y2="16.3"/>
			<line class="st5" x1="16.8" y1="8.6" x2="12.6" y2="12.7"/>
			<line class="st5" x1="54.8" y1="8.2" x2="59.3" y2="12.7"/>
			<line class="st5" x1="51.5" y1="8.2" x2="59.3" y2="15.9"/>
			<line class="st5" x1="47.9" y1="8.2" x2="59.3" y2="19.5"/>
			<line class="st5" x1="44.6" y1="8.2" x2="59.3" y2="22.9"/>
			<polyline class="st5" points="59.3,26.5 58.5,25.7 56.7,23.9 55,22.2 53.2,20.4 51.6,18.8 49.8,17 48.1,15.3 46.3,13.6 
				44.7,11.9 42.9,10.1 41.4,8.6 			"/>
			<polyline class="st5" points="59.3,29.7 58.5,28.9 56.9,27.3 55.1,25.5 53.4,23.8 51.6,22 50,20.4 48.2,18.6 46.5,16.9 
				44.7,15.2 43.1,13.5 41.3,11.7 39.7,10.1 38.2,8.6 			"/>
			<polyline class="st5" points="58.3,32.3 56.7,30.7 55.1,29.1 53.3,27.3 51.6,25.6 49.8,23.8 48.2,22.2 46.4,20.4 44.7,18.7 
				43,16.9 41.3,15.3 39.5,13.5 37.9,11.9 34.6,8.6 			"/>
			<polyline class="st5" points="54.9,32.3 53.4,30.8 51.6,29 49.9,27.3 48.1,25.5 46.5,23.9 44.6,22.2 43,20.5 41.2,18.7 
				39.5,17.1 37.7,15.3 36.1,13.7 30.9,8.6 			"/>
			<polyline class="st5" points="27.7,8.6 34.4,15.3 36,16.9 37.8,18.7 39.5,20.4 41.3,22.2 42.9,23.9 44.7,25.7 46.3,27.3 
				48.1,29.1 49.8,30.7 51.3,32.3 			"/>
			<polyline class="st5" points="48,32.3 46.5,30.7 44.7,28.9 43.1,27.3 41.3,25.5 39.6,23.9 37.8,22.1 36.2,20.4 34.4,18.6 
				32.8,17 24.5,8.8 			"/>
			<line class="st5" x1="20.9" y1="8.8" x2="44.4" y2="32.3"/>
			<polyline class="st5" points="40.8,32.3 39.5,30.9 37.7,29.1 36,27.5 34.2,25.7 32.6,24 30.8,22.2 29.2,20.6 17.4,8.9 			"/>
			<polyline class="st5" points="37.4,32.3 36,30.8 34.3,29.2 32.5,27.4 30.8,25.7 29,24 27.4,22.4 13.7,8.9 			"/>
			<polyline class="st5" points="33.9,32.3 32.6,30.9 30.8,29.1 29.1,27.5 27.3,25.7 25.7,24.1 23.9,22.3 22.1,20.5 20.5,18.9 
				18.7,17.1 16.9,15.2 15.3,13.6 13.5,11.8 12.6,10.9 			"/>
			<polyline class="st5" points="30.6,32.3 29.1,30.8 27.4,29.1 25.6,27.3 24,25.7 22.2,23.9 20.5,22.2 18.9,20.6 17.1,18.8 
				15.2,16.9 13.6,15.3 12.6,14.3 			"/>
			<polyline class="st5" points="27,32.3 25.6,30.9 23.8,29.1 22.2,27.5 20.4,25.7 18.7,24 17.1,22.4 15.3,20.6 13.4,18.7 
				12.6,17.9 			"/>
			<polyline class="st5" points="23.3,32.3 22,31 20.4,29.4 18.6,27.6 16.8,25.8 15.2,24.2 13.4,22.4 12.6,21.6 			"/>
			<polyline class="st5" points="19.8,32.3 18.6,31.1 16.8,29.3 15.1,27.6 13.4,26 12.6,25.1 			"/>
			<polyline class="st5" points="12.6,28.5 13.4,29.3 15.1,31 16.4,32.3 			"/>
		</g>
		<g>
			<rect x="210.4" y="8.2" class="st5" width="51.3" height="23.7"/>
			<rect x="214.7" y="8.2" class="st5" width="0" height="23.7"/>
			<line class="st5" x1="261.7" y1="27.4" x2="257.2" y2="31.8"/>
			<line class="st5" x1="261.7" y1="24.1" x2="253.9" y2="31.8"/>
			<line class="st5" x1="261.7" y1="20.5" x2="250.3" y2="31.8"/>
			<line class="st5" x1="261.7" y1="17.2" x2="247" y2="31.8"/>
			<line class="st5" x1="261.7" y1="13.6" x2="243.4" y2="31.8"/>
			<line class="st5" x1="261.7" y1="10.4" x2="240.2" y2="31.8"/>
			<line class="st5" x1="260.3" y1="8.1" x2="236.6" y2="31.8"/>
			<line class="st5" x1="257" y1="8.1" x2="233.5" y2="31.6"/>
			<line class="st5" x1="253.4" y1="8.1" x2="229.9" y2="31.6"/>
			<line class="st5" x1="250.1" y1="8.1" x2="226.6" y2="31.6"/>
			<line class="st5" x1="246.5" y1="8.1" x2="223" y2="31.6"/>
			<line class="st5" x1="243.3" y1="8.1" x2="219.8" y2="31.6"/>
			<line class="st5" x1="239.7" y1="8.1" x2="216.2" y2="31.6"/>
			<line class="st5" x1="236.2" y1="8.1" x2="214.9" y2="29.4"/>
			<line class="st5" x1="233" y1="8.1" x2="214.7" y2="26.4"/>
			<line class="st5" x1="229.4" y1="8.1" x2="214.7" y2="22.8"/>
			<line class="st5" x1="225.6" y1="8.1" x2="214.7" y2="19.1"/>
			<line class="st5" x1="222.4" y1="8.1" x2="214.7" y2="15.9"/>
			<line class="st5" x1="218.8" y1="8.1" x2="214.7" y2="12.3"/>
			<line class="st5" x1="256.9" y1="7.8" x2="261.3" y2="12.3"/>
			<line class="st5" x1="253.6" y1="7.8" x2="261.3" y2="15.5"/>
			<line class="st5" x1="250" y1="7.8" x2="261.3" y2="19.1"/>
			<line class="st5" x1="246.7" y1="7.8" x2="261.3" y2="22.4"/>
			<polyline class="st5" points="261.3,26 260.5,25.2 258.7,23.4 257.1,21.8 255.3,20 253.7,18.4 251.9,16.6 250.2,14.9 248.4,13.1 
				246.8,11.5 245,9.7 243.5,8.1 			"/>
			<polyline class="st5" points="261.3,29.2 260.6,28.5 258.9,26.8 257.1,25 255.5,23.4 253.7,21.6 252.1,20 250.3,18.2 248.6,16.5 
				246.8,14.7 245.2,13.1 243.4,11.3 241.8,9.7 240.2,8.1 			"/>
			<polyline class="st5" points="260.3,31.8 258.8,30.3 257.1,28.6 255.3,26.8 253.7,25.2 251.9,23.4 250.3,21.8 248.5,20 
				246.8,18.3 245,16.5 243.4,14.8 241.6,13.1 240,11.4 236.7,8.1 			"/>
			<polyline class="st5" points="257,31.8 255.4,30.3 253.6,28.5 252,26.9 250.1,25.1 248.5,23.5 246.7,21.7 245.1,20.1 243.2,18.3 
				241.6,16.6 239.8,14.9 238.1,13.3 233,8.1 			"/>
			<polyline class="st5" points="229.7,8.1 236.5,14.9 238.1,16.5 239.9,18.3 241.6,20 243.4,21.8 245,23.4 246.8,25.2 248.4,26.8 
				250.2,28.6 251.9,30.3 253.4,31.8 			"/>
			<polyline class="st5" points="250.1,31.8 248.6,30.3 246.8,28.5 245.2,26.9 243.4,25.1 241.7,23.4 239.9,21.6 238.2,20 
				236.4,18.2 234.8,16.6 226.6,8.4 			"/>
			<line class="st5" x1="223" y1="8.4" x2="246.4" y2="31.8"/>
			<polyline class="st5" points="242.9,31.8 241.6,30.5 239.8,28.7 238.1,27 236.3,25.2 234.6,23.6 232.8,21.8 231.2,20.2 
				219.5,8.4 			"/>
			<polyline class="st5" points="239.5,31.8 238.1,30.4 236.4,28.8 234.6,27 232.9,25.3 231.1,23.5 229.5,21.9 215.8,8.4 			"/>
			<polyline class="st5" points="236,31.8 234.6,30.5 232.8,28.7 231.2,27 229.4,25.2 227.8,23.6 226,21.8 224.2,20.1 222.6,18.5 
				220.8,16.7 219,14.8 217.4,13.2 215.6,11.4 214.7,10.5 			"/>
			<polyline class="st5" points="232.6,31.8 231.2,30.4 229.5,28.7 227.7,26.9 226.1,25.3 224.3,23.5 222.6,21.7 221,20.1 
				219.2,18.3 217.3,16.5 215.7,14.9 214.7,13.9 			"/>
			<polyline class="st5" points="229.1,31.8 227.7,30.5 225.9,28.7 224.3,27.1 222.5,25.3 220.8,23.5 219.2,21.9 217.4,20.1 
				215.5,18.3 214.7,17.5 			"/>
			<polyline class="st5" points="225.4,31.8 224.1,30.6 222.5,28.9 220.7,27.2 218.9,25.4 217.3,23.8 215.5,22 214.7,21.2 			"/>
			<polyline class="st5" points="221.9,31.8 220.7,30.7 218.9,28.9 217.1,27.2 215.5,25.6 214.7,24.7 			"/>
			<polyline class="st5" points="214.7,28.1 215.5,28.8 217.2,30.6 218.4,31.8 			"/>
		</g>
		<polygon class="st6" points="378,8.4 378,31.8 280.9,31.8 280.9,8.8 280.8,8.8 280.8,31.8 276.7,31.8 276.7,8.4 		"/>
		<rect x="280.8" y="8.8" class="st5" width="0" height="23"/>
		<rect x="280.8" y="8.8" class="st7" width="0" height="23"/>
		<g>
			<polygon class="st8" points="283.5,25.4 283.5,29.3 287.1,29.3 			"/>
			<polygon class="st8" points="292.5,29.3 305.4,29.3 288,12 283.5,12 283.5,20.3 			"/>
			<polygon class="st8" points="294.2,12 311.4,29.2 339.3,29.2 321.8,11.6 			"/>
			<polygon class="st8" points="344.8,11.6 362.1,28.9 375.1,28.9 375.1,26 360.6,11.5 			"/>
			<polygon class="st8" points="371.8,11.6 374.6,14.5 374.6,11.6 			"/>
		</g>
	</g>
</g>
<line class="st5" x1="214.7" y1="7.7" x2="214.7" y2="32.3"/>
<line class="st5" x1="12.6" y1="8.2" x2="12.4" y2="32.6"/>
</svg>
