<?xml version="1.0" encoding="UTF-8"?>
<svg id="Layer_2" data-name="Layer 2" xmlns="http://www.w3.org/2000/svg" viewBox="0 0 382.69474 40.66316">
  <defs>
    <style>
      .cls-1, .cls-2, .cls-3, .cls-4, .cls-5, .cls-6 {
        stroke: #4e381a;
        stroke-miterlimit: 10;
      }

      .cls-1, .cls-4 {
        fill: none;
      }

      .cls-2 {
        fill: #af584a;
      }

      .cls-3 {
        fill: #b58a7d;
      }

      .cls-4 {
        stroke-width: .70086px;
      }

      .cls-5 {
        fill: #4e381a;
      }

      .cls-7 {
        fill: #b3796c;
      }

      .cls-8 {
        fill: #ae463a;
      }

      .cls-9 {
        fill: #dd4949;
      }

      .cls-6 {
        fill: #e05d5d;
      }
    </style>
  </defs>
  <g id="Layer_1-2" data-name="Layer 1">
    <g>
      <rect class="cls-2" x="268.79474" y=".5" width="113.4" height="39.66316"/>
      <g>
        <polygon class="cls-8" points="271.98421 29.60447 271.98421 36.93164 279.43684 36.93164 271.98421 29.60447"/>
        <polygon class="cls-8" points="271.98421 13.0698 271.98421 4.00269 296.99474 4.00269 329.375 36.38296 294.15263 36.38296 271.98421 14.21454 271.98421 13.0698"/>
        <polygon class="cls-8" points="314.93158 4.00269 378.40526 4.00269 378.40526 36.23846 347.14211 36.23846 314.93158 4.00269"/>
      </g>
      <rect class="cls-6" x=".5" y=".5" width="268.29474" height="39.66316"/>
      <g>
        <polygon class="cls-9" points="3.53158 10.94947 10.44737 3.92375 3.53158 3.92375 3.53158 10.94947"/>
        <polygon class="cls-9" points="44.36497 3.92375 85.73158 3.92375 54.34211 36.5448 11.52105 36.5448 44.36497 3.92375"/>
        <polygon class="cls-9" points="116.48947 36.5448 192.27895 36.5448 224.82105 4.00269 149.33158 4.00269 116.48947 36.5448"/>
        <polygon class="cls-9" points="266.04737 13.01848 266.04737 4.00269 241.22632 4.00269 208.29737 36.93164 242.45789 36.93164 266.04737 13.01848"/>
        <polygon class="cls-9" points="259.04685 36.93164 266.04737 36.93164 266.04737 29.60447 259.04685 36.93164"/>
      </g>
      <circle class="cls-5" cx="4.57368" cy="4.87368" r=".56842"/>
      <circle class="cls-5" cx="4.57368" cy="35.97895" r=".56842"/>
      <circle class="cls-5" cx="272.9" cy="4.85789" r=".56842"/>
      <circle class="cls-5" cx="272.80526" cy="35.91579" r=".56842"/>
      <circle class="cls-5" cx="377.98786" cy="36.01053" r=".56842"/>
      <circle class="cls-5" cx="377.79839" cy="4.65263" r=".56842"/>
      <circle class="cls-5" cx="265.13947" cy="4.85789" r=".56842"/>
      <circle class="cls-5" cx="265.09211" cy="35.91579" r=".56842"/>
      <g>
        <rect class="cls-1" x="8.33158" y="8.58421" width="51.25263" height="23.68421"/>
        <rect class="cls-1" x="12.59474" y="8.58421" width="0" height="23.68421"/>
        <line class="cls-1" x1="59.57947" y1="27.79947" x2="55.10947" y2="32.26947"/>
        <line class="cls-1" x1="59.57947" y1="24.54947" x2="51.85947" y2="32.26947"/>
        <line class="cls-1" x1="59.57947" y1="20.95947" x2="48.26947" y2="32.26947"/>
        <line class="cls-1" x1="59.57947" y1="17.62947" x2="44.93947" y2="32.26947"/>
        <line class="cls-1" x1="59.57947" y1="14.03947" x2="41.33947" y2="32.26947"/>
        <line class="cls-1" x1="59.57947" y1="10.82947" x2="38.13947" y2="32.26947"/>
        <line class="cls-1" x1="58.23947" y1="8.57947" x2="34.54947" y2="32.26947"/>
        <line class="cls-1" x1="54.91947" y1="8.57947" x2="31.45947" y2="32.02947"/>
        <line class="cls-1" x1="51.32947" y1="8.57947" x2="27.86947" y2="32.02947"/>
        <line class="cls-1" x1="47.98947" y1="8.57947" x2="24.53947" y2="32.02947"/>
        <line class="cls-1" x1="44.39947" y1="8.57947" x2="20.94947" y2="32.02947"/>
        <line class="cls-1" x1="41.19947" y1="8.57947" x2="17.73947" y2="32.02947"/>
        <line class="cls-1" x1="37.59947" y1="8.57947" x2="14.14947" y2="32.02947"/>
        <line class="cls-1" x1="34.07947" y1="8.57947" x2="12.86947" y2="29.78947"/>
        <line class="cls-1" x1="30.87947" y1="8.57947" x2="12.59947" y2="26.84947"/>
        <line class="cls-1" x1="27.27947" y1="8.57947" x2="12.59947" y2="23.25947"/>
        <line class="cls-1" x1="23.56947" y1="8.57947" x2="12.59947" y2="19.54947"/>
        <line class="cls-1" x1="20.35947" y1="8.57947" x2="12.59947" y2="16.33947"/>
        <line class="cls-1" x1="16.76947" y1="8.57947" x2="12.59947" y2="12.74947"/>
        <line class="cls-1" x1="54.78855" y1="8.22737" x2="59.25855" y2="12.69737"/>
        <line class="cls-1" x1="51.53855" y1="8.22737" x2="59.25855" y2="15.94737"/>
        <line class="cls-1" x1="47.94855" y1="8.22737" x2="59.25855" y2="19.53737"/>
        <line class="cls-1" x1="44.61855" y1="8.22737" x2="59.25855" y2="22.86737"/>
        <polyline class="cls-1" points="59.25947 26.46947 58.45947 25.66947 56.66947 23.86947 54.99947 22.20947 53.19947 20.40947 51.59947 18.80947 49.80947 17.00947 48.14947 15.34947 46.34947 13.55947 44.67947 11.88947 42.88947 10.08947 41.37947 8.57947"/>
        <polyline class="cls-1" points="59.25947 29.66947 58.48947 28.89947 56.85947 27.26947 55.06947 25.47947 53.39947 23.80947 51.59947 22.00947 49.99947 20.40947 48.20947 18.61947 46.53947 16.94947 44.74947 15.15947 43.07947 13.48947 41.28947 11.69947 39.67947 10.08947 38.16947 8.57947"/>
        <polyline class="cls-1" points="58.26947 32.26947 56.68947 30.68947 55.06947 29.05947 53.26947 27.26947 51.60947 25.59947 49.80947 23.80947 48.20947 22.19947 46.40947 20.40947 44.74947 18.73947 42.95947 16.94947 41.28947 15.27947 39.48947 13.48947 37.88947 11.87947 34.58947 8.57947"/>
        <polyline class="cls-1" points="54.88947 32.26947 53.35947 30.76947 51.55947 28.97947 49.87947 27.32947 48.06947 25.53947 46.45947 23.94947 44.64947 22.16947 42.97947 20.51947 41.16947 18.73947 39.48947 17.07947 37.67947 15.29947 36.06947 13.69947 30.87947 8.57947"/>
        <polyline class="cls-1" points="27.66947 8.57947 34.42947 15.33947 36.02947 16.94947 37.82947 18.73947 39.49947 20.40947 41.28947 22.19947 42.94947 23.86947 44.74947 25.65947 46.34947 27.25947 48.14947 29.05947 49.80947 30.72947 51.34947 32.26947"/>
        <polyline class="cls-1" points="48.01947 32.26947 46.47947 30.72947 44.67947 28.92947 43.07947 27.32947 41.28947 25.53947 39.61947 23.86947 37.82947 22.07947 36.15947 20.40947 34.36947 18.61947 32.75947 17.00947 24.53947 8.78947"/>
        <line class="cls-1" x1="20.88379" y1="8.78829" x2="44.36497" y2="32.26947"/>
        <polyline class="cls-1" points="40.81947 32.26947 39.47947 30.92947 37.68947 29.12947 36.01947 27.46947 34.22947 25.66947 32.55947 24.00947 30.76947 22.20947 29.16947 20.60947 17.41947 8.85947"/>
        <polyline class="cls-1" points="37.42947 32.26947 35.97947 30.83947 34.30947 29.18947 32.49947 27.39947 30.81947 25.74947 29.01947 23.95947 27.39947 22.36947 13.70947 8.85947"/>
        <polyline class="cls-1" points="33.90947 32.26947 32.55947 30.92947 30.76947 29.12947 29.09947 27.46947 27.30947 25.66947 25.70947 24.06947 23.90947 22.26947 22.14947 20.50947 20.54947 18.90947 18.74947 17.10947 16.89947 15.24947 15.28947 13.64947 13.49947 11.84947 12.59947 10.94947"/>
        <polyline class="cls-1" points="30.56947 32.26947 29.09947 30.79947 27.43947 29.13947 25.63947 27.33947 24.03947 25.73947 22.23947 23.93947 20.47947 22.17947 18.87947 20.57947 17.07947 18.77947 15.22947 16.92947 13.61947 15.31947 12.59947 14.29947"/>
        <polyline class="cls-1" points="26.97947 32.26947 25.63947 30.92947 23.84947 29.13947 22.23947 27.52947 20.44947 25.73947 18.68947 23.97947 17.07947 22.36947 15.28947 20.57947 13.42947 18.71947 12.59947 17.88947"/>
        <polyline class="cls-1" points="23.27947 32.26947 21.99947 30.98947 20.38947 29.37947 18.59947 27.58947 16.83947 25.82947 15.22947 24.21947 13.43947 22.42947 12.59947 21.58947"/>
        <polyline class="cls-1" points="19.80947 32.26947 18.64947 31.11947 16.83947 29.33947 15.06947 27.58947 13.44947 25.99947 12.59947 25.14947"/>
        <polyline class="cls-1" points="12.59947 28.50947 13.37947 29.27947 15.13947 31.03947 16.35947 32.26947"/>
      </g>
      <g>
        <rect class="cls-1" x="210.40355" y="8.15421" width="51.25263" height="23.68421"/>
        <rect class="cls-1" x="214.66671" y="8.15421" width="0" height="23.68421"/>
        <line class="cls-1" x1="261.65145" y1="27.36947" x2="257.18145" y2="31.83947"/>
        <line class="cls-1" x1="261.65145" y1="24.11947" x2="253.93145" y2="31.83947"/>
        <line class="cls-1" x1="261.65145" y1="20.52947" x2="250.34145" y2="31.83947"/>
        <line class="cls-1" x1="261.65145" y1="17.19947" x2="247.01145" y2="31.83947"/>
        <line class="cls-1" x1="261.65145" y1="13.60947" x2="243.41145" y2="31.83947"/>
        <line class="cls-1" x1="261.65145" y1="10.39947" x2="240.21145" y2="31.83947"/>
        <line class="cls-1" x1="260.31145" y1="8.14947" x2="236.62145" y2="31.83947"/>
        <line class="cls-1" x1="256.99145" y1="8.14947" x2="233.53145" y2="31.59947"/>
        <line class="cls-1" x1="253.40145" y1="8.14947" x2="229.94145" y2="31.59947"/>
        <line class="cls-1" x1="250.06145" y1="8.14947" x2="226.61145" y2="31.59947"/>
        <line class="cls-1" x1="246.47145" y1="8.14947" x2="223.02145" y2="31.59947"/>
        <line class="cls-1" x1="243.27145" y1="8.14947" x2="219.81145" y2="31.59947"/>
        <line class="cls-1" x1="239.67145" y1="8.14947" x2="216.22145" y2="31.59947"/>
        <line class="cls-1" x1="236.15145" y1="8.14947" x2="214.94145" y2="29.35947"/>
        <line class="cls-1" x1="232.95145" y1="8.14947" x2="214.67145" y2="26.41947"/>
        <line class="cls-1" x1="229.35145" y1="8.14947" x2="214.67145" y2="22.82947"/>
        <line class="cls-1" x1="225.64145" y1="8.14947" x2="214.67145" y2="19.11947"/>
        <line class="cls-1" x1="222.43145" y1="8.14947" x2="214.67145" y2="15.90947"/>
        <line class="cls-1" x1="218.84145" y1="8.14947" x2="214.67145" y2="12.31947"/>
        <line class="cls-1" x1="256.86053" y1="7.79737" x2="261.33053" y2="12.26737"/>
        <line class="cls-1" x1="253.61053" y1="7.79737" x2="261.33053" y2="15.51737"/>
        <line class="cls-1" x1="250.02053" y1="7.79737" x2="261.33053" y2="19.10737"/>
        <line class="cls-1" x1="246.69053" y1="7.79737" x2="261.33053" y2="22.43737"/>
        <polyline class="cls-1" points="261.33145 26.03947 260.53145 25.23947 258.74145 23.43947 257.07145 21.77947 255.27145 19.97947 253.67145 18.37947 251.88145 16.57947 250.22145 14.91947 248.42145 13.12947 246.75145 11.45947 244.96145 9.65947 243.45145 8.14947"/>
        <polyline class="cls-1" points="261.33145 29.23947 260.56145 28.46947 258.93145 26.83947 257.14145 25.04947 255.47145 23.37947 253.67145 21.57947 252.07145 19.97947 250.28145 18.18947 248.61145 16.51947 246.82145 14.72947 245.15145 13.05947 243.36145 11.26947 241.75145 9.65947 240.24145 8.14947"/>
        <polyline class="cls-1" points="260.34145 31.83947 258.76145 30.25947 257.14145 28.62947 255.34145 26.83947 253.68145 25.16947 251.88145 23.37947 250.28145 21.76947 248.48145 19.97947 246.82145 18.30947 245.03145 16.51947 243.36145 14.84947 241.56145 13.05947 239.96145 11.44947 236.66145 8.14947"/>
        <polyline class="cls-1" points="256.96145 31.83947 255.43145 30.33947 253.63145 28.54947 251.95145 26.89947 250.14145 25.10947 248.53145 23.51947 246.72145 21.73947 245.05145 20.08947 243.24145 18.30947 241.56145 16.64947 239.75145 14.86947 238.14145 13.26947 232.95145 8.14947"/>
        <polyline class="cls-1" points="229.74145 8.14947 236.50145 14.90947 238.10145 16.51947 239.90145 18.30947 241.57145 19.97947 243.36145 21.76947 245.02145 23.43947 246.82145 25.22947 248.42145 26.82947 250.22145 28.62947 251.88145 30.29947 253.42145 31.83947"/>
        <polyline class="cls-1" points="250.09145 31.83947 248.55145 30.29947 246.75145 28.49947 245.15145 26.89947 243.36145 25.10947 241.69145 23.43947 239.90145 21.64947 238.23145 19.97947 236.44145 18.18947 234.83145 16.57947 226.61145 8.35947"/>
        <line class="cls-1" x1="222.95576" y1="8.35829" x2="246.43695" y2="31.83947"/>
        <polyline class="cls-1" points="242.89145 31.83947 241.55145 30.49947 239.76145 28.69947 238.09145 27.03947 236.30145 25.23947 234.63145 23.57947 232.84145 21.77947 231.24145 20.17947 219.49145 8.42947"/>
        <polyline class="cls-1" points="239.50145 31.83947 238.05145 30.40947 236.38145 28.75947 234.57145 26.96947 232.89145 25.31947 231.09145 23.52947 229.47145 21.93947 215.78145 8.42947"/>
        <polyline class="cls-1" points="235.98145 31.83947 234.63145 30.49947 232.84145 28.69947 231.17145 27.03947 229.38145 25.23947 227.78145 23.63947 225.98145 21.83947 224.22145 20.07947 222.62145 18.47947 220.82145 16.67947 218.97145 14.81947 217.36145 13.21947 215.57145 11.41947 214.67145 10.51947"/>
        <polyline class="cls-1" points="232.64145 31.83947 231.17145 30.36947 229.51145 28.70947 227.71145 26.90947 226.11145 25.30947 224.31145 23.50947 222.55145 21.74947 220.95145 20.14947 219.15145 18.34947 217.30145 16.49947 215.69145 14.88947 214.67145 13.86947"/>
        <polyline class="cls-1" points="229.05145 31.83947 227.71145 30.49947 225.92145 28.70947 224.31145 27.09947 222.52145 25.30947 220.76145 23.54947 219.15145 21.93947 217.36145 20.14947 215.50145 18.28947 214.67145 17.45947"/>
        <polyline class="cls-1" points="225.35145 31.83947 224.07145 30.55947 222.46145 28.94947 220.67145 27.15947 218.91145 25.39947 217.30145 23.78947 215.51145 21.99947 214.67145 21.15947"/>
        <polyline class="cls-1" points="221.88145 31.83947 220.72145 30.68947 218.91145 28.90947 217.14145 27.15947 215.52145 25.56947 214.67145 24.71947"/>
        <polyline class="cls-1" points="214.67145 28.07947 215.45145 28.84947 217.21145 30.60947 218.43145 31.83947"/>
      </g>
      <polygon class="cls-3" points="377.9863 8.35479 377.9863 31.83477 280.87632 31.83477 280.87632 8.8048 280.82633 8.8048 280.82633 31.83477 276.65635 31.83477 276.65635 8.35479 377.9863 8.35479"/>
      <rect class="cls-1" x="280.82633" y="8.8048" width=".04999" height="23.02997"/>
      <rect class="cls-4" x="280.82633" y="8.8048" width=".04999" height="23.02997"/>
      <g>
        <polygon class="cls-7" points="283.54211 25.36585 283.54211 29.3448 287.14211 29.3448 283.54211 25.36585"/>
        <polygon class="cls-7" points="292.51053 29.3448 305.39474 29.3448 288.02632 11.97638 283.54211 11.97638 283.54211 20.33158 292.51053 29.3448"/>
        <polygon class="cls-7" points="294.15263 11.97638 311.36316 29.18691 339.31053 29.18691 321.76842 11.6448 294.15263 11.97638"/>
        <polygon class="cls-7" points="344.80526 11.6448 362.05526 28.8948 375.05789 28.8948 375.05789 25.99743 360.58684 11.52638 344.80526 11.6448"/>
        <polygon class="cls-7" points="371.77368 11.6448 374.62368 14.4948 374.62368 11.6448 371.77368 11.6448"/>
      </g>
    </g>
  </g>
</svg>