<?xml version="1.0" encoding="UTF-8"?>
<svg id="Layer_2" data-name="Layer 2" xmlns="http://www.w3.org/2000/svg" viewBox="0 0 234.24211 120.55875">
  <defs>
    <style>
      .cls-1 {
        stroke-width: .8038px;
      }

      .cls-1, .cls-2, .cls-3, .cls-4, .cls-5, .cls-6, .cls-7, .cls-8, .cls-9, .cls-10, .cls-11, .cls-12, .cls-13, .cls-14, .cls-15, .cls-16, .cls-17, .cls-18, .cls-19 {
        stroke-miterlimit: 10;
      }

      .cls-1, .cls-2, .cls-3, .cls-4, .cls-5, .cls-6, .cls-8, .cls-9, .cls-10, .cls-11, .cls-13, .cls-14, .cls-17, .cls-19 {
        stroke: #4e381a;
      }

      .cls-1, .cls-2, .cls-10, .cls-13, .cls-15, .cls-16, .cls-18 {
        fill: none;
      }

      .cls-20 {
        fill: #73bb4b;
      }

      .cls-3 {
        fill: #b0d68a;
      }

      .cls-4 {
        stroke-width: .25px;
      }

      .cls-4, .cls-8 {
        fill: #4e381a;
      }

      .cls-21 {
        fill: #b04739;
      }

      .cls-5 {
        fill: #7b7469;
      }

      .cls-22 {
        fill: #44c2f0;
      }

      .cls-6 {
        fill: #686f61;
      }

      .cls-7 {
        fill: #f7f8f8;
        stroke: #f7f8f8;
      }

      .cls-7, .cls-12, .cls-15, .cls-16, .cls-18 {
        stroke-width: 2.40359px;
      }

      .cls-23 {
        fill: #904230;
      }

      .cls-24 {
        fill: #98cb5c;
      }

      .cls-9 {
        fill: #7f8a70;
      }

      .cls-10 {
        stroke-width: 2px;
      }

      .cls-25, .cls-11 {
        fill: #de484b;
      }

      .cls-26 {
        fill: #716a62;
      }

      .cls-27 {
        fill: #e35c5c;
      }

      .cls-12 {
        fill: #dbd9d7;
        stroke: #dbd9d7;
      }

      .cls-13 {
        stroke-linecap: round;
        stroke-width: 1.5px;
      }

      .cls-14 {
        fill: #8cbc69;
      }

      .cls-15 {
        stroke: #dbd1c2;
      }

      .cls-16 {
        stroke: #908275;
      }

      .cls-17 {
        fill: #754c29;
      }

      .cls-18 {
        stroke: #aea39b;
      }

      .cls-19 {
        fill: #77d1f2;
      }

      .cls-28 {
        fill: #737f64;
      }

      .cls-29 {
        fill: #c03d3b;
      }
    </style>
  </defs>
  <g id="Layer_1-2" data-name="Layer 1">
    <g>
      <rect class="cls-5" x=".5" y="92.20612" width="58.73684" height="27.85263"/>
      <polygon class="cls-26" points="3.71016 95.68918 3.71016 99.43128 7.547 95.59444 3.71016 95.68918"/>
      <polygon class="cls-26" points="15.59963 95.59444 25.45226 95.59444 3.68647 117.36023 3.68647 107.53128 15.59963 95.59444"/>
      <rect class="cls-19" x="171.78421" y="34.60612" width="61.95789" height="85.45263"/>
      <rect class="cls-3" x="109.21579" y="34.60612" width="61.95789" height="85.45263"/>
      <rect class="cls-14" x="59.23684" y="34.41664" width="49.97895" height="85.64211"/>
      <g>
        <polygon class="cls-20" points="70.7721 37.67717 61.99316 46.45612 61.99316 65.15086 89.46684 37.67717 70.7721 37.67717"/>
        <polygon class="cls-20" points="106.07737 48.03507 61.7721 92.34033 61.7721 116.94033 71.15105 116.94033 106.04579 82.04559 106.07737 48.03507"/>
        <polygon class="cls-20" points="79.61421 116.94258 106.1425 90.41429 106.1425 104.75442 93.89245 117.00447 79.61421 116.94258"/>
        <polygon class="cls-20" points="100.83877 117.00448 106.02014 111.82305 106.02014 116.94259 100.83877 117.00448"/>
        <polygon class="cls-24" points="112.39316 111.8877 117.88789 117.38243 112.39316 117.38243 112.39316 111.8877"/>
        <polygon class="cls-24" points="112.39316 104.40349 125.27737 117.2877 140.34052 117.2877 112.44644 89.39362 112.39316 104.40349"/>
        <polygon class="cls-24" points="147.91947 117.2877 112.39316 81.76138 112.39316 48.03507 168.61947 104.26138 168.61947 117.2877 147.91947 117.2877"/>
        <polygon class="cls-24" points="168.61947 76.17191 129.92737 37.4798 148.39316 37.4798 168.61552 57.70217 168.61947 76.17191"/>
        <polygon class="cls-24" points="162.31947 37.4798 168.66289 43.82322 168.66289 37.4798 162.31947 37.4798"/>
        <polygon class="cls-22" points="224.39579 37.28243 230.60105 43.4877 230.60105 37.28243 224.39579 37.28243"/>
        <polygon class="cls-22" points="191.78263 37.4798 230.53789 76.23507 230.53789 57.41401 210.66684 37.54296 191.78263 37.4798"/>
        <polygon class="cls-22" points="174.63526 48.03507 230.70763 104.10743 230.70763 116.43507 210.16158 116.43507 174.73 81.00349 174.63526 48.03507"/>
        <polygon class="cls-22" points="174.63526 89.24559 202.24809 116.85842 188.44167 116.85842 174.63526 103.05201 174.63526 89.24559"/>
        <polygon class="cls-22" points="180.13 117.2877 174.58789 111.74559 174.58789 117.2877 180.13 117.2877"/>
      </g>
      <path class="cls-11" d="m167.99477,22.47982c14.14734-.06317,28.29474-.12631,42.44208-.18948.22345-11.85297-9.38818-21.68484-21.03156-21.78949-11.85626-.10657-21.74335,9.90979-21.41052,21.97897Z"/>
      <g>
        <rect class="cls-1" x="178.98421" y="96.0536" width="47.74737" height="16.42548" transform="translate(405.71579 208.53267) rotate(-180)"/>
        <rect class="cls-1" x="222.75998" y="96.0536" width="0" height="16.42548" transform="translate(445.51996 208.53267) rotate(180)"/>
        <line class="cls-1" x1="178.98862" y1="109.37977" x2="183.15291" y2="112.4798"/>
        <line class="cls-1" x1="178.98862" y1="107.12583" x2="186.18064" y2="112.4798"/>
        <line class="cls-1" x1="178.98862" y1="104.63609" x2="189.52511" y2="112.4798"/>
        <line class="cls-1" x1="178.98862" y1="102.32667" x2="192.62737" y2="112.4798"/>
        <line class="cls-1" x1="178.98862" y1="99.83693" x2="195.98116" y2="112.4798"/>
        <line class="cls-1" x1="178.98862" y1="97.61073" x2="198.9623" y2="112.4798"/>
        <line class="cls-1" x1="180.23698" y1="96.05031" x2="202.30677" y2="112.4798"/>
        <line class="cls-1" x1="183.32992" y1="96.05031" x2="205.18544" y2="112.31336"/>
        <line class="cls-1" x1="186.67439" y1="96.05031" x2="208.52992" y2="112.31336"/>
        <line class="cls-1" x1="189.78596" y1="96.05031" x2="211.63217" y2="112.31336"/>
        <line class="cls-1" x1="193.13043" y1="96.05031" x2="214.97665" y2="112.31336"/>
        <line class="cls-1" x1="196.11158" y1="96.05031" x2="217.96711" y2="112.31336"/>
        <line class="cls-1" x1="199.46537" y1="96.05031" x2="221.31158" y2="112.31336"/>
        <line class="cls-1" x1="202.74463" y1="96.05031" x2="222.50404" y2="110.75987"/>
        <line class="cls-1" x1="205.72578" y1="96.05031" x2="222.75557" y2="108.72092"/>
        <line class="cls-1" x1="209.07957" y1="96.05031" x2="222.75557" y2="106.23119"/>
        <line class="cls-1" x1="212.53583" y1="96.05031" x2="222.75557" y2="103.65823"/>
        <line class="cls-1" x1="215.52629" y1="96.05031" x2="222.75557" y2="101.43203"/>
        <line class="cls-1" x1="218.87077" y1="96.05031" x2="222.75557" y2="98.94229"/>
        <line class="cls-1" x1="183.45188" y1="95.80612" x2="179.2876" y2="98.90615"/>
        <line class="cls-1" x1="186.47961" y1="95.80612" x2="179.2876" y2="101.16009"/>
        <line class="cls-1" x1="189.82408" y1="95.80612" x2="179.2876" y2="103.64983"/>
        <line class="cls-1" x1="192.92634" y1="95.80612" x2="179.2876" y2="105.95925"/>
        <polyline class="cls-1" points="179.28674 108.45739 180.03202 107.90257 181.6996 106.65423 183.25539 105.50299 184.93228 104.25465 186.42286 103.14502 188.09043 101.89669 189.6369 100.74544 191.3138 99.50404 192.86958 98.34586 194.53716 97.09753 195.94389 96.05031"/>
        <polyline class="cls-1" points="179.28674 110.67665 180.00408 110.14264 181.5226 109.0122 183.19018 107.7708 184.74596 106.61262 186.42286 105.36429 187.91343 104.25465 189.58101 103.01325 191.13679 101.85507 192.80437 100.61367 194.36016 99.45549 196.02774 98.21409 197.52763 97.09753 198.93435 96.05031"/>
        <polyline class="cls-1" points="180.20903 112.4798 181.68097 111.38404 183.19018 110.2536 184.86707 109.0122 186.41354 107.85402 188.09043 106.61262 189.58101 105.49605 191.2579 104.25465 192.80437 103.09648 194.47195 101.85507 196.02774 100.6969 197.70463 99.45549 199.1952 98.33893 202.26951 96.05031"/>
        <polyline class="cls-1" points="183.35787 112.4798 184.78323 111.43952 186.46012 110.19812 188.02522 109.05381 189.71143 107.81241 191.21132 106.70972 192.89753 105.47525 194.45332 104.33094 196.13953 103.09648 197.70463 101.94523 199.39084 100.71077 200.89073 99.60113 205.72578 96.05031"/>
        <polyline class="cls-1" points="208.71624 96.05031 202.41857 100.73851 200.92799 101.85507 199.2511 103.09648 197.69531 104.25465 196.02774 105.49605 194.48127 106.65423 192.80437 107.89563 191.3138 109.00527 189.6369 110.2536 188.09043 111.41178 186.65576 112.4798"/>
        <polyline class="cls-1" points="189.75801 112.4798 191.19269 111.41178 192.86958 110.16345 194.36016 109.05381 196.02774 107.81241 197.58352 106.65423 199.2511 105.41283 200.80689 104.25465 202.47446 103.01325 203.97435 101.89669 211.63217 96.19595"/>
        <line class="cls-1" x1="215.03784" y1="96.19513" x2="193.16258" y2="112.4798"/>
        <polyline class="cls-1" points="196.46559 112.4798 197.71395 111.55049 199.38153 110.30215 200.93731 109.15091 202.60489 107.90257 204.16068 106.75133 205.82825 105.50299 207.31883 104.39336 218.26522 96.2445"/>
        <polyline class="cls-1" points="199.62374 112.4798 200.97458 111.48807 202.53036 110.34376 204.21657 109.10236 205.78167 107.95805 207.45857 106.71665 208.96777 105.61395 221.72149 96.2445"/>
        <polyline class="cls-1" points="202.903 112.4798 204.16068 111.55049 205.82825 110.30215 207.38404 109.15091 209.05162 107.90257 210.54219 106.79294 212.21909 105.5446 213.85872 104.32401 215.34929 103.21437 217.02618 101.96604 218.74966 100.67609 220.24955 99.56646 221.91713 98.31812 222.75557 97.69395"/>
        <polyline class="cls-1" points="206.01458 112.4798 207.38404 111.46033 208.93051 110.30908 210.6074 109.06075 212.09798 107.95112 213.77487 106.70278 215.4145 105.48218 216.90507 104.37255 218.58197 103.12422 220.30544 101.8412 221.80533 100.72464 222.75557 100.01725"/>
        <polyline class="cls-1" points="209.35905 112.4798 210.6074 111.55049 212.27498 110.30908 213.77487 109.19252 215.44245 107.95112 217.08208 106.73052 218.58197 105.61395 220.24955 104.37255 221.98234 103.0826 222.75557 102.50698"/>
        <polyline class="cls-1" points="212.806 112.4798 213.99846 111.5921 215.49835 110.47553 217.16592 109.23413 218.80556 108.01353 220.30544 106.89697 221.97302 105.65556 222.75557 105.07301"/>
        <polyline class="cls-1" points="216.03868 112.4798 217.11934 111.68225 218.80556 110.44779 220.4545 109.23413 221.96371 108.13143 222.75557 107.54194"/>
        <polyline class="cls-1" points="222.75557 109.87217 222.02892 110.40618 220.38929 111.62677 219.25273 112.4798"/>
      </g>
      <g>
        <rect class="cls-1" x="116.69416" y="96.13138" width="47.74737" height="16.42548" transform="translate(281.13569 208.68823) rotate(-180)"/>
        <rect class="cls-1" x="160.46993" y="96.13138" width="0" height="16.42548" transform="translate(320.93986 208.68823) rotate(180)"/>
        <line class="cls-1" x1="116.69857" y1="109.45755" x2="120.86286" y2="112.55758"/>
        <line class="cls-1" x1="116.69857" y1="107.20361" x2="123.89059" y2="112.55758"/>
        <line class="cls-1" x1="116.69857" y1="104.71387" x2="127.23506" y2="112.55758"/>
        <line class="cls-1" x1="116.69857" y1="102.40445" x2="130.33731" y2="112.55758"/>
        <line class="cls-1" x1="116.69857" y1="99.91471" x2="133.6911" y2="112.55758"/>
        <line class="cls-1" x1="116.69857" y1="97.68851" x2="136.67225" y2="112.55758"/>
        <line class="cls-1" x1="117.94693" y1="96.12809" x2="140.01672" y2="112.55758"/>
        <line class="cls-1" x1="121.03987" y1="96.12809" x2="142.89539" y2="112.39114"/>
        <line class="cls-1" x1="124.38434" y1="96.12809" x2="146.23987" y2="112.39114"/>
        <line class="cls-1" x1="127.49591" y1="96.12809" x2="149.34212" y2="112.39114"/>
        <line class="cls-1" x1="130.84038" y1="96.12809" x2="152.68659" y2="112.39114"/>
        <line class="cls-1" x1="133.82153" y1="96.12809" x2="155.67706" y2="112.39114"/>
        <line class="cls-1" x1="137.17532" y1="96.12809" x2="159.02153" y2="112.39114"/>
        <line class="cls-1" x1="140.45458" y1="96.12809" x2="160.21399" y2="110.83765"/>
        <line class="cls-1" x1="143.43573" y1="96.12809" x2="160.46552" y2="108.7987"/>
        <line class="cls-1" x1="146.78951" y1="96.12809" x2="160.46552" y2="106.30897"/>
        <line class="cls-1" x1="150.24578" y1="96.12809" x2="160.46552" y2="103.73601"/>
        <line class="cls-1" x1="153.23624" y1="96.12809" x2="160.46552" y2="101.50981"/>
        <line class="cls-1" x1="156.58072" y1="96.12809" x2="160.46552" y2="99.02007"/>
        <line class="cls-1" x1="121.16183" y1="95.8839" x2="116.99754" y2="98.98393"/>
        <line class="cls-1" x1="124.18956" y1="95.8839" x2="116.99754" y2="101.23787"/>
        <line class="cls-1" x1="127.53403" y1="95.8839" x2="116.99754" y2="103.72761"/>
        <line class="cls-1" x1="130.63629" y1="95.8839" x2="116.99754" y2="106.03703"/>
        <polyline class="cls-1" points="116.99669 108.53517 117.74197 107.98035 119.40955 106.73201 120.96534 105.58077 122.64223 104.33243 124.1328 103.2228 125.80038 101.97447 127.34685 100.82322 129.02375 99.58182 130.57953 98.42364 132.24711 97.17531 133.65384 96.12809"/>
        <polyline class="cls-1" points="116.99669 110.75443 117.71402 110.22042 119.23255 109.08998 120.90012 107.84858 122.45591 106.6904 124.1328 105.44207 125.62338 104.33243 127.29096 103.09103 128.84674 101.93285 130.51432 100.69145 132.07011 99.53328 133.73768 98.29187 135.23757 97.17531 136.6443 96.12809"/>
        <polyline class="cls-1" points="117.91898 112.55758 119.39092 111.46182 120.90012 110.33138 122.57702 109.08998 124.12349 107.9318 125.80038 106.6904 127.29096 105.57384 128.96785 104.33243 130.51432 103.17426 132.1819 101.93285 133.73768 100.77468 135.41458 99.53328 136.90515 98.41671 139.97946 96.12809"/>
        <polyline class="cls-1" points="121.06781 112.55758 122.49317 111.5173 124.17007 110.2759 125.73517 109.13159 127.42138 107.89019 128.92127 106.7875 130.60748 105.55303 132.16327 104.40872 133.84948 103.17426 135.41458 102.02301 137.10079 100.78855 138.60068 99.67891 143.43573 96.12809"/>
        <polyline class="cls-1" points="146.42619 96.12809 140.12852 100.81629 138.63794 101.93285 136.96105 103.17426 135.40526 104.33243 133.73768 105.57384 132.19122 106.73201 130.51432 107.97342 129.02375 109.08305 127.34685 110.33138 125.80038 111.48956 124.36571 112.55758"/>
        <polyline class="cls-1" points="127.46796 112.55758 128.90264 111.48956 130.57953 110.24123 132.07011 109.13159 133.73768 107.89019 135.29347 106.73201 136.96105 105.49061 138.51683 104.33243 140.18441 103.09103 141.6843 101.97447 149.34212 96.27373"/>
        <line class="cls-1" x1="152.74779" y1="96.27291" x2="130.87252" y2="112.55758"/>
        <polyline class="cls-1" points="134.17554 112.55758 135.4239 111.62827 137.09147 110.37993 138.64726 109.22869 140.31484 107.98035 141.87062 106.82911 143.5382 105.58077 145.02878 104.47114 155.97517 96.32228"/>
        <polyline class="cls-1" points="137.33369 112.55758 138.68452 111.56585 140.24031 110.42154 141.92652 109.18014 143.49162 108.03583 145.16852 106.79443 146.67772 105.69173 159.43144 96.32228"/>
        <polyline class="cls-1" points="140.61295 112.55758 141.87062 111.62827 143.5382 110.37993 145.09399 109.22869 146.76157 107.98035 148.25214 106.87072 149.92903 105.62238 151.56866 104.40179 153.05924 103.29215 154.73613 102.04382 156.45961 100.75387 157.9595 99.64424 159.62707 98.3959 160.46552 97.77173"/>
        <polyline class="cls-1" points="143.72452 112.55758 145.09399 111.53811 146.64046 110.38687 148.31735 109.13853 149.80792 108.0289 151.48482 106.78056 153.12445 105.55997 154.61502 104.45033 156.29192 103.202 158.01539 101.91898 159.51528 100.80242 160.46552 100.09503"/>
        <polyline class="cls-1" points="147.069 112.55758 148.31735 111.62827 149.98493 110.38687 151.48482 109.2703 153.1524 108.0289 154.79203 106.8083 156.29192 105.69173 157.9595 104.45033 159.69229 103.16039 160.46552 102.58476"/>
        <polyline class="cls-1" points="150.51595 112.55758 151.70841 111.66988 153.20829 110.55331 154.87587 109.31191 156.5155 108.09131 158.01539 106.97475 159.68297 105.73335 160.46552 105.15079"/>
        <polyline class="cls-1" points="153.74863 112.55758 154.82929 111.76004 156.5155 110.52557 158.16445 109.31191 159.67366 108.20921 160.46552 107.61972"/>
        <polyline class="cls-1" points="160.46552 109.94995 159.73887 110.48396 158.09924 111.70455 156.96268 112.55758"/>
      </g>
      <rect class="cls-6" x="74.77368" y="29.86928" width="58.54737" height="4.54737"/>
      <rect class="cls-6" x="160.7" y="29.96401" width="58.54737" height="4.54737"/>
      <rect class="cls-9" x="66.43684" y="76.66928" width="35.43158" height="35.43158"/>
      <path class="cls-11" d="m82.35262,22.29033c14.40002.06317,28.79999.12631,43.20001.18948-.01514-12.15677-10.10376-21.99615-21.97894-21.78949-11.52747.20062-21.1084,9.80438-21.22107,21.60001Z"/>
      <rect class="cls-2" x="90.18421" y="22.4798" width="27.28421" height="7.2"/>
      <rect class="cls-2" x="175.13158" y="22.44822" width="27.28421" height="7.2"/>
      <line class="cls-10" x1="90.12105" y1="26.17454" x2="117.68947" y2="26.17454"/>
      <line class="cls-10" x1="174.76842" y1="26.41138" x2="202.33684" y2="26.41138"/>
      <circle class="cls-4" cx="63.26842" cy="38.16401" r="1"/>
      <circle class="cls-4" cx="105.9" cy="38.16401" r="1"/>
      <circle class="cls-4" cx="105.99474" cy="115.63243" r="1"/>
      <circle class="cls-4" cx="98.13158" cy="108.20361" r="1"/>
      <circle class="cls-4" cx="63.21053" cy="115.63243" r="1"/>
      <circle class="cls-4" cx="113.51579" cy="38.16401" r="1"/>
      <circle class="cls-4" cx="113.8" cy="115.63243" r="1"/>
      <circle class="cls-4" cx="168.27368" cy="115.63243" r="1"/>
      <circle class="cls-4" cx="168.21053" cy="38.16401" r="1"/>
      <circle class="cls-4" cx="176" cy="38.16401" r="1"/>
      <circle class="cls-4" cx="230.35789" cy="38.16401" r="1"/>
      <circle class="cls-4" cx="230.38421" cy="115.69033" r="1"/>
      <circle class="cls-4" cx="176" cy="115.63243" r="1"/>
      <line class="cls-13" x1="67.16316" y1="41.6798" x2="67.16316" y2="54.24822"/>
      <line class="cls-13" x1="70.92105" y1="41.6798" x2="70.92105" y2="54.24822"/>
      <line class="cls-13" x1="67.16316" y1="57.35875" x2="67.16316" y2="69.92717"/>
      <line class="cls-13" x1="70.92105" y1="57.35875" x2="70.92105" y2="69.92717"/>
      <line class="cls-13" x1="74.80526" y1="57.35875" x2="74.80526" y2="69.92717"/>
      <line class="cls-13" x1="74.80526" y1="41.6798" x2="74.80526" y2="54.24822"/>
      <line class="cls-13" x1="78.78421" y1="41.6798" x2="78.78421" y2="54.24822"/>
      <line class="cls-13" x1="82.54211" y1="41.6798" x2="82.54211" y2="54.24822"/>
      <line class="cls-13" x1="78.78421" y1="57.35875" x2="78.78421" y2="69.92717"/>
      <line class="cls-13" x1="82.54211" y1="57.35875" x2="82.54211" y2="69.92717"/>
      <line class="cls-13" x1="86.42632" y1="41.6798" x2="86.42632" y2="54.24822"/>
      <line class="cls-13" x1="86.42632" y1="57.35875" x2="86.42632" y2="69.92717"/>
      <line class="cls-13" x1="90.31053" y1="41.6798" x2="90.31053" y2="54.24822"/>
      <line class="cls-13" x1="94.28947" y1="41.6798" x2="94.28947" y2="54.24822"/>
      <line class="cls-13" x1="98.04737" y1="41.6798" x2="98.04737" y2="54.24822"/>
      <line class="cls-13" x1="101.93158" y1="41.6798" x2="101.93158" y2="54.24822"/>
      <line class="cls-13" x1="90.31053" y1="57.35875" x2="90.31053" y2="69.92717"/>
      <line class="cls-13" x1="94.28947" y1="57.35875" x2="94.28947" y2="69.92717"/>
      <line class="cls-13" x1="98.04737" y1="57.35875" x2="98.04737" y2="69.92717"/>
      <line class="cls-13" x1="101.93158" y1="57.35875" x2="101.93158" y2="69.92717"/>
      <path class="cls-8" d="m141.01494,43.23989c-12.21093,0-22.10583,9.8949-22.10583,22.10583,0,12.20058,9.8949,22.09548,22.10583,22.09548,12.20058,0,22.09548-9.8949,22.09548-22.09548,0-12.21093-9.8949-22.10583-22.09548-22.10583Zm-.17575,31.01846c-4.82852,0-8.74723-3.91864-8.74723-8.74717s3.91871-8.74723,8.74723-8.74723c4.83887,0,8.74723,3.91864,8.74723,8.74723s-3.90836,8.74717-8.74723,8.74717Z"/>
      <path class="cls-8" d="m203.23683,54.50084c3.66315-3.74738,7.32635-7.49472,10.9895-11.2421,3.20264-1.86722,7.2121-1.39206,9.72632,1.0737,2.18732,2.14517,2.90717,5.46768,1.83154,8.46313-3.89471,4.12631-7.78949,8.25266-11.6842,12.37897,3.38947,3.51578,6.77899,7.03156,10.16846,10.54736,2.62653,2.90149,2.6532,7.36334.06311,10.29474-2.59235,2.93396-7.02856,3.4549-10.23157,1.20001l-11.05261-11.11578c-3.76843,3.78949-7.53687,7.57892-11.3053,11.36841-3.11932,1.88348-7.11847,1.4231-9.66315-1.07367-2.40631-2.36102-3.03021-6.07043-1.51575-9.1579,3.87366-3.93683,7.74738-7.87369,11.62103-11.81055l-11.05261-11.62106c-2.00043-2.94229-1.70148-6.8956.6947-9.47366,2.45453-2.64084,6.5011-3.18375,9.60004-1.26318,3.93683,3.81052,7.87366,7.62106,11.81049,11.43158Z"/>
      <g>
        <g>
          <path class="cls-25" d="m97.63011,2.09544c-2.88987,2.28468-5.6878,5.02623-7.7301,8.17164-2.76727,4.2718-3.40044,8.17164-3.08389,11.42329-1.14368-.01064-2.27714-.02127-3.42082-.03191.39826-9.19172,6.34135-16.84268,14.2348-19.56301Z"/>
          <path class="cls-25" d="m124.91009,21.94539h-.55876c-.68421-.01064-1.45524.01064-2.13939,0-.44931-2.58219-1.22819-5.48315-2.53522-8.56481-1.61343-3.80424-3.63528-6.86462-5.58571-9.25554,8.35298,5.68512,10.87002,16.92539,10.81909,17.82035Z"/>
          <path class="cls-27" d="m122.25895,21.96409c-1.83805-.01057-3.67617-.03185-5.51422-.04248-.30633-3.23038-1.07219-7.3853-2.98173-11.85894-1.42963-3.37916-3.18598-6.17389-4.92194-8.42666,1.97081.54189,3.72721,1.40262,5.28954,2.46525,1.95043,2.39092,3.97228,5.4513,5.58571,9.25554,1.30704,3.08166,2.09334,6.0251,2.54265,8.60729Z"/>
          <path class="cls-25" d="m116.70514,21.94539c-5.86138-.05312-11.71253-.10624-17.57391-.14878-.29617-3.32604-.27573-7.72529.85773-12.66655.72504-3.16662,1.73596-5.86575,2.76733-8.0654h.01022c.49013-.03185.98026-.05312,1.47046-.04248,1.63381.02127,3.15531.24438,4.5645.63762,1.73596,2.25277,3.49231,5.0475,4.92194,8.42666,1.90954,4.47364,2.6754,8.62856,2.98173,11.85894Z"/>
          <path class="cls-21" d="m99.98896,9.13005c-1.13346,4.94126-1.1539,9.34051-.85773,12.66655-1.24583-.01064-2.48144-.02121-3.72721-.03185-.37782-3.19853-.29611-7.35339,1.23561-12.01836,1.12324-3.3898,2.73667-6.23764,4.32966-8.49041.59222-.09567,1.1845-.15942,1.78701-.19133-1.03137,2.19965-2.0423,4.89878-2.76733,8.0654Z"/>
          <path class="cls-29" d="m93.10643,9.85264c-1.97081,4.51618-2.24654,8.59672-1.87894,11.86957-1.47046-.01057-2.94091-.02121-4.41137-.03185-.31655-3.25165.31662-7.15149,3.08389-11.42329,2.0423-3.14541,4.84023-5.88695,7.7301-8.17164.20424-.07439.40848-.13815.62289-.21254-1.91976,2.21029-3.79864,4.87751-5.14656,7.96973Z"/>
          <path class="cls-23" d="m96.63963,9.7464c-1.53172,4.66497-1.61343,8.81983-1.23561,12.01836-1.38875-.01064-2.78771-.03191-4.17652-.04255-.3676-3.27286-.09187-7.35339,1.87894-11.86957,1.34792-3.09223,3.2268-5.75944,5.14656-7.96973h.01022c.88839-.26566,1.77679-.4782,2.70607-.62692-1.59299,2.25277-3.20642,5.10062-4.32966,8.49041Z"/>
        </g>
        <g>
          <line class="cls-15" x1="90.67331" y1="24.16887" x2="92.72263" y2="24.16887"/>
          <line class="cls-15" x1="114.99242" y1="24.16887" x2="117.04173" y2="24.16887"/>
          <line class="cls-18" x1="92.72263" y1="24.16887" x2="95.87067" y2="24.16887"/>
          <line class="cls-18" x1="98.02398" y1="24.16887" x2="101.17203" y2="24.16887"/>
          <line class="cls-16" x1="95.87195" y1="24.18527" x2="98.02526" y2="24.15246"/>
          <line class="cls-7" x1="112.51312" y1="24.18777" x2="114.99463" y2="24.14996"/>
          <line class="cls-12" x1="101.17203" y1="24.16887" x2="112.48742" y2="24.16887"/>
        </g>
        <g>
          <line class="cls-15" x1="90.64211" y1="28.02148" x2="92.69142" y2="28.02148"/>
          <line class="cls-15" x1="114.96121" y1="28.02148" x2="117.01053" y2="28.02148"/>
          <line class="cls-18" x1="92.69142" y1="28.02148" x2="95.83947" y2="28.02148"/>
          <line class="cls-18" x1="97.99278" y1="28.02148" x2="101.14082" y2="28.02148"/>
          <line class="cls-16" x1="95.84074" y1="28.03789" x2="97.99405" y2="28.00507"/>
          <line class="cls-7" x1="112.48191" y1="28.04039" x2="114.96342" y2="28.00257"/>
          <line class="cls-12" x1="101.14082" y1="28.02148" x2="112.45621" y2="28.02148"/>
        </g>
      </g>
      <g>
        <g>
          <path class="cls-25" d="m182.69066,2.14069c-2.88987,2.28468-5.6878,5.02623-7.7301,8.17164-2.76727,4.2718-3.40044,8.17164-3.08389,11.42329-1.14368-.01064-2.27714-.02127-3.42082-.03191.39826-9.19172,6.34135-16.84268,14.2348-19.56301Z"/>
          <path class="cls-25" d="m209.97065,21.99064h-.55876c-.68421-.01064-1.45524.01064-2.13939,0-.44931-2.58219-1.22819-5.48315-2.53522-8.56481-1.61343-3.80424-3.63528-6.86462-5.58571-9.25554,8.35298,5.68512,10.87002,16.92539,10.81909,17.82035Z"/>
          <path class="cls-27" d="m207.3195,22.00934c-1.83805-.01057-3.67617-.03185-5.51422-.04248-.30633-3.23038-1.07219-7.3853-2.98173-11.85894-1.42963-3.37916-3.18598-6.17389-4.92194-8.42666,1.97081.54189,3.72721,1.40262,5.28954,2.46525,1.95043,2.39092,3.97228,5.4513,5.58571,9.25554,1.30704,3.08166,2.09334,6.0251,2.54265,8.60729Z"/>
          <path class="cls-25" d="m201.76569,21.99064c-5.86138-.05312-11.71253-.10624-17.57391-.14878-.29617-3.32604-.27573-7.72529.85773-12.66655.72504-3.16662,1.73596-5.86575,2.76733-8.0654h.01022c.49013-.03185.98026-.05312,1.47046-.04248,1.63381.02127,3.15531.24438,4.5645.63762,1.73596,2.25277,3.49231,5.0475,4.92194,8.42666,1.90954,4.47364,2.6754,8.62856,2.98173,11.85894Z"/>
          <path class="cls-21" d="m185.04951,9.1753c-1.13346,4.94126-1.1539,9.34051-.85773,12.66655-1.24583-.01064-2.48144-.02121-3.72721-.03185-.37782-3.19853-.29611-7.35339,1.23561-12.01836,1.12324-3.3898,2.73667-6.23764,4.32966-8.49041.59222-.09567,1.1845-.15942,1.78701-.19133-1.03137,2.19965-2.0423,4.89878-2.76733,8.0654Z"/>
          <path class="cls-29" d="m178.16699,9.89789c-1.97081,4.51618-2.24654,8.59672-1.87894,11.86957-1.47046-.01057-2.94091-.02121-4.41137-.03185-.31655-3.25165.31662-7.15149,3.08389-11.42329,2.0423-3.14541,4.84023-5.88695,7.7301-8.17164.20424-.07439.40848-.13815.62289-.21254-1.91976,2.21029-3.79864,4.87751-5.14656,7.96973Z"/>
          <path class="cls-23" d="m181.70018,9.79165c-1.53172,4.66497-1.61343,8.81983-1.23561,12.01836-1.38875-.01064-2.78771-.03191-4.17652-.04255-.3676-3.27286-.09187-7.35339,1.87894-11.86957,1.34792-3.09223,3.2268-5.75944,5.14656-7.96973h.01022c.88839-.26566,1.77679-.4782,2.70607-.62692-1.59299,2.25277-3.20642,5.10062-4.32966,8.49041Z"/>
        </g>
        <g>
          <line class="cls-15" x1="175.73387" y1="24.21412" x2="177.78318" y2="24.21412"/>
          <line class="cls-15" x1="200.05297" y1="24.21412" x2="202.10229" y2="24.21412"/>
          <line class="cls-18" x1="177.78318" y1="24.21412" x2="180.93123" y2="24.21412"/>
          <line class="cls-18" x1="183.08454" y1="24.21412" x2="186.23258" y2="24.21412"/>
          <line class="cls-16" x1="180.9325" y1="24.23052" x2="183.08581" y2="24.19771"/>
          <line class="cls-7" x1="197.57367" y1="24.23302" x2="200.05518" y2="24.19521"/>
          <line class="cls-12" x1="186.23258" y1="24.21412" x2="197.54797" y2="24.21412"/>
        </g>
        <g>
          <line class="cls-15" x1="175.70266" y1="28.06673" x2="177.75198" y2="28.06673"/>
          <line class="cls-15" x1="200.02176" y1="28.06673" x2="202.07108" y2="28.06673"/>
          <line class="cls-18" x1="177.75198" y1="28.06673" x2="180.90002" y2="28.06673"/>
          <line class="cls-18" x1="183.05333" y1="28.06673" x2="186.20137" y2="28.06673"/>
          <line class="cls-16" x1="180.9013" y1="28.08314" x2="183.0546" y2="28.05032"/>
          <line class="cls-7" x1="197.54247" y1="28.08564" x2="200.02397" y2="28.04782"/>
          <line class="cls-12" x1="186.20137" y1="28.06673" x2="197.51676" y2="28.06673"/>
        </g>
      </g>
      <polygon class="cls-28" points="99.347 79.76154 70.20395 108.9046 82.72068 108.9046 99.39418 92.2311 99.347 79.76154"/>
      <polygon class="cls-26" points="39.99437 95.59444 18.2641 117.3247 36.25226 117.3247 56.16476 97.4122 56.16476 95.59444 39.99437 95.59444"/>
      <polygon class="cls-26" points="56.16476 101.46812 56.16476 109.09444 48.13877 117.12043 40.04173 117.12043 56.21361 100.94855 56.16476 101.46812"/>
      <polyline class="cls-26" points="56.16476 112.12602 51.0993 117.19148 56.16476 117.19148 56.16476 112.12602"/>
      <polygon class="cls-28" points="70.26279 79.82076 70.26279 85.07865 75.37858 79.96286 70.26279 79.82076"/>
      <polygon class="cls-28" points="81.39437 79.82076 70.33384 90.88128 70.33384 98.0576 88.62989 79.76154 81.39437 79.82076"/>
      <polygon class="cls-28" points="99.39418 95.21549 85.58656 109.02311 91.34173 109.02311 99.40524 100.95961 99.39418 95.21549"/>
      <circle class="cls-4" cx="98.13158" cy="80.8377" r="1"/>
      <circle class="cls-4" cx="70.88947" cy="108.20361" r="1"/>
      <circle class="cls-4" cx="70.88947" cy="80.8377" r="1"/>
      <rect class="cls-17" x="78.68947" y="84.81664" width="11.58947" height="3.89735" rx="1.47005" ry="1.47005"/>
    </g>
    <line class="cls-2" x1="222.75999" y1="96.0536" x2="222.75999" y2="112.47907"/>
    <line class="cls-2" x1="160.46993" y1="96.13138" x2="160.46993" y2="112.55685"/>
  </g>
</svg>