<?xml version="1.0" encoding="UTF-8"?>
<svg id="Layer_1" data-name="Layer 1" xmlns="http://www.w3.org/2000/svg" viewBox="0 0 74.06 67.5">
  <defs>
    <style>
      .cls-1 {
        stroke: #231f20;
      }

      .cls-1, .cls-2, .cls-3, .cls-4, .cls-5 {
        stroke-miterlimit: 10;
      }

      .cls-1, .cls-3, .cls-6 {
        fill: none;
      }

      .cls-2, .cls-3, .cls-4, .cls-5 {
        stroke: #4e381a;
      }

      .cls-2, .cls-7 {
        fill: #73bb48;
      }

      .cls-8, .cls-5 {
        fill: #5f8d2a;
      }

      .cls-4 {
        fill: #b2d78b;
      }

      .cls-9 {
        fill: #95ca54;
      }
    </style>
  </defs>
  <g>
    <path class="cls-7" d="m67.09,33.45v-.07c-.19-17.12-15.17-30.83-29.56-32.75-.24-.03-.48-.06-.7-.08,2.55,0,17.74.07,21.91.31.38.02,1.08.07,1.96.21,2.57.42,4.42,1.26,5.44,1.72,3.1,1.44,5.44,3.35,6.91,4.74.08,8.64.16,17.28.24,25.92h-6.2Z"/>
    <path class="cls-7" d="m43.43,47.86c-2.74,1.85-6.04,2.94-9.59,2.94-9.45,0-17.12-7.67-17.12-17.12v-.03c5-.03,13.84-.09,18.83-.12.31,8.36,7.17,13.81,7.88,14.33Z"/>
    <path class="cls-8" d="m35.54,33.17c0,.12,0,.24.01.36-4.99.03-13.83.09-18.83.12.02-9.45,7.68-17.09,17.12-17.09,3.25,0,6.3.91,8.89,2.49-.79.65-7.31,5.87-7.19,14.12Z"/>
    <path class="cls-4" d="m37.44.7c-.24-.03-.48-.06-.7-.08-1.3-.13-2.33-.12-2.99-.12C15.39.5.5,15.38.5,33.75s14.89,33.25,33.25,33.25c1.23,0,2.44-.07,3.63-.2h.02c16.65-1.82,29.6-15.92,29.6-33.05v-.3c-.19-17.12-15.17-30.83-29.56-32.75Zm13.43,33.05c0,5.9-2.99,11.1-7.53,14.18-2.74,1.85-6.04,2.94-9.59,2.94-9.45,0-17.12-7.67-17.12-17.12v-.03c.02-9.45,7.68-17.09,17.12-17.09,3.25,0,6.3.91,8.89,2.49h.01c4.93,3.01,8.22,8.43,8.22,14.63Z"/>
    <path class="cls-9" d="m22.27,6.07c-5.37,5.28-10.73,10.55-16.1,15.82.77-2.14,2.44-5.9,5.97-9.47,3.82-3.87,7.93-5.6,10.13-6.35Z"/>
    <path class="cls-9" d="m44.19,5.06c-2.84,2.59-5.68,5.18-8.52,7.77-1.48-.03-8.96-.04-15.1,5.81-6.87,6.55-6.57,15.21-6.5,16.49-2.95,2.94-5.9,5.89-8.85,8.84-.46-1.82-.87-3.97-1.07-6.38-.13-1.55-.16-2.98-.13-4.3C13.86,23.4,23.69,13.51,33.52,3.61c1.31-.19,3.06-.31,5.11-.06,2.36.28,4.25.94,5.56,1.51Z"/>
    <path class="cls-9" d="m61.05,46.11c-.78,2.14-2.45,5.9-5.97,9.47-3.82,3.87-7.94,5.6-10.14,6.35,5.37-5.28,10.74-10.55,16.11-15.82Z"/>
    <path class="cls-9" d="m31.56,54.7c-2.28,2.42-4.55,4.85-6.82,7.27-2-.56-4.68-1.55-7.52-3.35-2.13-1.35-3.77-2.8-4.99-4.04,2.08-2.4,4.17-4.8,6.25-7.2.99,1.29,2.88,3.44,5.94,5.11,2.88,1.58,5.55,2.05,7.14,2.21Z"/>
    <path class="cls-9" d="m53.66,32.85c.14-1.48.25-4.89-1.58-8.59-1.5-3.05-3.62-4.87-4.8-5.75,2.32-2.27,4.63-4.54,6.95-6.82,1.37,1.43,2.93,3.29,4.42,5.62,1.61,2.52,2.68,4.88,3.41,6.82-2.8,2.91-5.6,5.82-8.4,8.72Z"/>
    <path class="cls-9" d="m63.45,38.03c-8.29,8.27-16.59,16.55-24.88,24.82-1.29.29-2.92.54-4.8.57-1.94.03-3.61-.18-4.93-.44,3.56-3.31,7.12-6.61,10.67-9.92,1.66-.42,5.37-1.61,8.66-4.99,3.99-4.11,4.84-8.86,5.05-10.48,3.35-2.99,6.69-5.98,10.04-8.97.13,1.41.22,2.9.25,4.48.05,1.74.02,3.39-.06,4.93Z"/>
    <path class="cls-1" d="m50.96,33.68c0,5.9-2.99,11.1-7.53,14.18-.71-.52-7.57-5.97-7.88-14.33-.01-.12-.01-.24-.01-.36-.12-8.25,6.4-13.47,7.19-14.12h.01c4.93,3.01,8.22,8.43,8.22,14.63Z"/>
    <path class="cls-3" d="m42.74,19.05h-.01c-.79.65-7.31,5.87-7.19,14.12,0,.12,0,.24.01.36.31,8.36,7.17,13.81,7.88,14.33,4.54-3.08,7.53-8.28,7.53-14.18,0-6.2-3.29-11.62-8.22-14.63Z"/>
    <path class="cls-8" d="m73.53,59.5c-1.46,1.31-3.43,2.82-5.97,4.17-3.64,1.93-7.01,2.75-9.38,3.13-5.3-.07-15.39,0-20.69-.07,16.65-1.82,29.6-15.92,29.6-33.05v-.23h6.2c.08,8.68.16,17.37.24,26.05Z"/>
    <path class="cls-2" d="m67.09,33.38c-.19-17.12-15.17-30.83-29.56-32.75-.24-.03-.48-.06-.7-.08,2.55,0,17.74.07,21.91.31.38.02,1.08.07,1.96.21,2.57.42,4.42,1.26,5.44,1.72,3.1,1.44,6.1,3.67,7.57,5.06"/>
    <path class="cls-3" d="m36.83.55h-.2"/>
    <path class="cls-6" d="m73.53,32.85c-.07,0-.15.6-.24.6"/>
    <path class="cls-5" d="m73.53,59.5c-1.46,1.31-3.43,2.82-5.97,4.17-3.64,1.93-7.01,2.75-9.38,3.13-5.3-.07-15.39,0-20.69-.07,16.65-1.82,29.6-16.22,29.6-33.35"/>
  </g>
  <line class="cls-3" x1="73.45" y1="7.54" x2="73.29" y2="59.8"/>
</svg>