<?xml version="1.0" encoding="UTF-8"?>
<svg id="Layer_1" data-name="Layer 1" xmlns="http://www.w3.org/2000/svg" viewBox="0 0 74.46 67.21">
  <defs>
    <style>
      .cls-1, .cls-2 {
        fill: #77d1f2;
      }

      .cls-3, .cls-4, .cls-2 {
        stroke: #4e381a;
        stroke-miterlimit: 10;
      }

      .cls-3, .cls-5 {
        fill: none;
      }

      .cls-4 {
        fill: #379ab5;
      }

      .cls-6 {
        fill: #42c1ee;
      }

      .cls-7 {
        fill: #3a9cb1;
      }

      .cls-8 {
        fill: #25aed8;
      }
    </style>
  </defs>
  <g>
    <path class="cls-5" d="m33.36,22.06s-.05.05-.07.07C26.35,15.37,19.4,8.62,12.45,1.86c-.58-.39-1.5-.91-2.72-1.17-.37-.08-.76-.13-1.16-.16h.23c.37.03.72.08,1.06.15,1.22.26,2.14.78,2.72,1.17,6.93,6.74,13.86,13.47,20.78,20.21Z"/>
    <g>
      <path class="cls-7" d="m74.16,53.08v13.26l-14.74.11c2.01-.01,3.95-.77,5.36-2.19,2.88-2.93,2.86-8.04-.38-11.18h9.76Z"/>
      <path class="cls-7" d="m74.26,13.6v10.32l-9.85,9.76c-6.66-.09-18.98-.19-19.43-.19h-.01l-.18-.19c6.46-6.57,12.92-13.13,19.37-19.7h10.1Z"/>
      <path class="cls-8" d="m74.26,43.34v9.86h-9.76c-6.51-6.58-13.01-13.14-19.52-19.71.45,0,12.77.1,19.43.19l9.85,9.66Z"/>
      <path class="cls-8" d="m74.26.94v12.66h-10.1c.08-.08.16-.17.24-.25.67-.68,1.33-1.35,1.99-2.03.96-3.06.07-6.4-2.27-8.52-1.44-1.31-3.29-2.01-5.17-2.07l15.31.21Z"/>
    </g>
    <g>
      <g>
        <path class="cls-5" d="m4.99,5.03c-1.23,1.16-1.63,2.97-1.01,4.54,1.88-1.76,3.75-3.53,5.62-5.3-1.54-.71-3.37-.41-4.61.76Z"/>
        <rect class="cls-5" x="13.18" y="12.34" width="8.21" height="10.37" transform="translate(-7.33 17.37) rotate(-45.05)"/>
        <path class="cls-5" d="m12.58,1.85c-.58-.39-1.5-.91-2.72-1.17-.34-.07-.69-.12-1.06-.15h-.23c.4.03.79.08,1.16.16,1.22.26,2.14.78,2.72,1.17,6.95,6.76,13.9,13.51,20.84,20.27.02-.02.05-.04.07-.07C26.44,15.32,19.51,8.59,12.58,1.85Z"/>
        <polygon class="cls-5" points="54.15 48.61 48.34 54.42 54.48 60.55 60.28 54.75 54.15 48.61"/>
        <path class="cls-5" d="m62.94,57.7c-1.87,1.77-3.75,3.54-5.62,5.31,1.55.71,3.38.41,4.61-.76,1.23-1.16,1.63-2.97,1.01-4.55Z"/>
        <path class="cls-5" d="m62.83,4.51C43.72,23.59,24.6,42.66,5.48,61.73c.71,1.37,2.09,2.25,3.6,2.28,2.09.03,3.3-1.58,3.41-1.73,7.31-7.26,14.61-14.51,21.92-21.77,3.41,3.45,6.82,6.91,10.23,10.36l6.57-6.57-10.61-10.61c7.16-7.16,14.32-14.31,21.47-21.47.32-.28,1.67-1.53,1.9-3.67.23-2.18-.89-3.71-1.14-4.04Z"/>
        <g>
          <path class="cls-2" d="m64.5,53.2c-6.51-6.58-13.01-13.14-19.52-19.71h-.01l-.18-.19c6.46-6.57,12.92-13.13,19.37-19.7.08-.08.16-.17.24-.25.67-.68,1.33-1.35,1.99-2.03.96-3.06.07-6.4-2.27-8.52-1.44-1.31-3.29-2.01-5.17-2.07-1.39-.05-2.81.25-4.11.93-3.75,3.58-7.5,7.16-11.25,10.74-.06.06-.13.12-.19.19-3.33,3.17-6.65,6.35-9.98,9.53-.02-.02-.04-.04-.06-.06-.02.03-.05.05-.07.07C26.35,15.37,19.4,8.62,12.45,1.86c-.58-.39-1.5-.91-2.72-1.17-.37-.08-.76-.13-1.16-.16h.23s-.07-.01-.1-.01c-2.14-.14-4.63.53-6.35,2.47C.22,5.39-.11,9.07,1.59,12.08c6.82,7.07,13.65,14.15,20.47,21.22-6.32,6.7-12.64,13.39-18.95,20.09-2.95,3.57-2.59,8.64.38,11.36,1.66,1.53,4,2.19,6.34,1.88h.04c.98-.13,1.97-.44,2.9-.93,7.08-7.07,14.15-14.15,21.22-21.22,3.25,3.21,6.49,6.43,9.74,9.65,3.7,3.67,7.41,7.33,11.11,11,1.41.97,3.01,1.43,4.58,1.44h.1c2.01-.01,3.95-.77,5.36-2.19,2.88-2.93,2.86-8.04-.38-11.18Z"/>
          <path class="cls-1" d="m3.98,9.57c-.62-1.57-.22-3.38,1.01-4.54,1.24-1.17,3.07-1.47,4.61-.76-1.87,1.77-3.74,3.54-5.62,5.3Z"/>
          <rect class="cls-1" x="13.18" y="12.34" width="8.21" height="10.37" transform="translate(-7.33 17.35) rotate(-45)"/>
          <path class="cls-1" d="m34.41,40.51c-7.31,7.26-14.61,14.51-21.92,21.77-.11.15-1.32,1.76-3.41,1.73-1.51-.03-2.89-.91-3.6-2.28C24.6,42.66,43.72,23.59,62.83,4.51c.25.33,1.37,1.86,1.14,4.04-.23,2.14-1.58,3.39-1.9,3.67-7.15,7.16-14.31,14.31-21.47,21.47l10.61,10.61-6.57,6.57c-3.41-3.45-6.82-6.91-10.23-10.36Z"/>
          <polygon class="cls-1" points="54.48 60.55 48.34 54.42 54.15 48.61 60.28 54.75 54.48 60.55"/>
          <path class="cls-1" d="m61.93,62.25c-1.23,1.17-3.06,1.47-4.61.76,1.87-1.77,3.75-3.54,5.62-5.31.62,1.58.22,3.39-1.01,4.55Z"/>
        </g>
        <path class="cls-6" d="m9.6,4.27c-1.87,1.77-3.74,3.54-5.62,5.3-.62-1.57-.22-3.38,1.01-4.54,1.24-1.17,3.07-1.47,4.61-.76Z"/>
        <rect class="cls-6" x="13.18" y="12.34" width="8.21" height="10.37" transform="translate(-7.33 17.37) rotate(-45.05)"/>
        <path class="cls-6" d="m51.21,44.3l-6.57,6.57c-3.41-3.45-6.82-6.91-10.23-10.36-7.31,7.26-14.61,14.51-21.92,21.77-.11.15-1.32,1.76-3.41,1.73-1.51-.03-2.89-.91-3.6-2.28C24.6,42.66,43.72,23.59,62.83,4.51c.25.33,1.37,1.86,1.14,4.04-.23,2.14-1.58,3.39-1.9,3.67-7.15,7.16-14.31,14.31-21.47,21.47"/>
        <polygon class="cls-6" points="60.28 54.75 54.48 60.55 48.34 54.42 54.15 48.61 60.28 54.75"/>
        <path class="cls-6" d="m61.93,62.25c-1.23,1.17-3.06,1.47-4.61.76,1.87-1.77,3.75-3.54,5.62-5.31.62,1.58.22,3.39-1.01,4.55Z"/>
      </g>
      <g>
        <path class="cls-4" d="m43.77,54.2c-2.82,2.88-6.73,6.72-9.55,9.61-.39.54-2.77,2.69-3.67,2.8-.33.04-1.84.14-2.26.04-4.96-.06-13.41.11-18.38.05.98-.13,1.97-.44,2.9-.93,7.08-7.07,14.15-14.15,21.22-21.22,3.25,3.21,6.49,6.43,9.74,9.65Z"/>
        <path class="cls-4" d="m43.27,12.6c-3.31,3.15-6.6,6.31-9.91,9.46C26.44,15.32,19.51,8.59,12.58,1.85c-.58-.39-1.5-.91-2.72-1.17-.34-.07-.69-.12-1.06-.15,4.87,0,12.27-.02,16.64-.02.95.04,2.75.05,5.25.31.69.07,1.23.04,3.84,2.52,3.03,3.16,5.71,6.1,8.74,9.26Z"/>
        <line class="cls-4" x1="60.28" y1=".88" x2="74.26" y2=".94"/>
        <polyline class="cls-4" points="44.79 33.3 64.41 33.68 73.95 24.23"/>
        <line class="cls-4" x1="73.93" y1="42.56" x2="64.41" y2="33.68"/>
        <line class="cls-4" x1="59.52" y1="66.57" x2="74.26" y2="66.46"/>
      </g>
    </g>
  </g>
  <line class="cls-3" x1="73.76" y1=".45" x2="73.77" y2="66.86"/>
</svg>